%TF.GenerationSoftware,KiCad,Pcbnew,8.0.1-8.0.1-1~ubuntu22.04.1*%
%TF.CreationDate,2024-04-12T07:50:43+02:00*%
%TF.ProjectId,HagiwoEurorackMixer_PCBOnly,48616769-776f-4457-9572-6f7261636b4d,rev?*%
%TF.SameCoordinates,Original*%
%TF.FileFunction,Legend,Top*%
%TF.FilePolarity,Positive*%
%FSLAX46Y46*%
G04 Gerber Fmt 4.6, Leading zero omitted, Abs format (unit mm)*
G04 Created by KiCad (PCBNEW 8.0.1-8.0.1-1~ubuntu22.04.1) date 2024-04-12 07:50:43*
%MOMM*%
%LPD*%
G01*
G04 APERTURE LIST*
%ADD10C,0.000000*%
%ADD11C,0.150000*%
%ADD12C,0.120000*%
%ADD13C,1.800000*%
%ADD14C,2.000000*%
%ADD15C,1.300000*%
G04 APERTURE END LIST*
D10*
G36*
X82748437Y-86575534D02*
G01*
X82983228Y-86575534D01*
X82965052Y-86728768D01*
X82556588Y-86728768D01*
X82649614Y-85940804D01*
X82823368Y-85940804D01*
X82748437Y-86575534D01*
G37*
G36*
X95019813Y-81227083D02*
G01*
X95095260Y-81126831D01*
X95181870Y-81015417D01*
X95278402Y-80894080D01*
X95383615Y-80764062D01*
X95615126Y-80482943D01*
X95866480Y-80181979D01*
X96647000Y-80181979D01*
X95787105Y-81108021D01*
X96726376Y-82642604D01*
X95959084Y-82642604D01*
X95337313Y-81544584D01*
X95019813Y-81848855D01*
X95019813Y-82642604D01*
X94331897Y-82642604D01*
X94331897Y-79176563D01*
X95019813Y-79176563D01*
X95019813Y-81227083D01*
G37*
G36*
X90812938Y-84706354D02*
G01*
X90363147Y-84706354D01*
X90363147Y-79679271D01*
X90812938Y-79679271D01*
X90812938Y-84706354D01*
G37*
G36*
X80924269Y-85941149D02*
G01*
X80934618Y-85941661D01*
X80945196Y-85942471D01*
X80955949Y-85943635D01*
X80966823Y-85945206D01*
X80977762Y-85947239D01*
X80988713Y-85949788D01*
X80999621Y-85952908D01*
X81010433Y-85956652D01*
X81021092Y-85961074D01*
X81031546Y-85966230D01*
X81041738Y-85972174D01*
X81051617Y-85978959D01*
X81056421Y-85982684D01*
X81061125Y-85986640D01*
X81065724Y-85990833D01*
X81070211Y-85995271D01*
X81075191Y-86000657D01*
X81080027Y-86006465D01*
X81084693Y-86012693D01*
X81089165Y-86019337D01*
X81093420Y-86026394D01*
X81097431Y-86033860D01*
X81101176Y-86041733D01*
X81104630Y-86050009D01*
X81107769Y-86058686D01*
X81110568Y-86067759D01*
X81113003Y-86077226D01*
X81115050Y-86087083D01*
X81116684Y-86097328D01*
X81117881Y-86107956D01*
X81118618Y-86118965D01*
X81118869Y-86130352D01*
X81118725Y-86139756D01*
X81118296Y-86148909D01*
X81117585Y-86157816D01*
X81116594Y-86166480D01*
X81115327Y-86174906D01*
X81113787Y-86183098D01*
X81111977Y-86191061D01*
X81109899Y-86198798D01*
X81107557Y-86206313D01*
X81104954Y-86213612D01*
X81102093Y-86220698D01*
X81098977Y-86227575D01*
X81095609Y-86234247D01*
X81091992Y-86240720D01*
X81088129Y-86246996D01*
X81084022Y-86253081D01*
X81079344Y-86259536D01*
X81074573Y-86265562D01*
X81069722Y-86271176D01*
X81064803Y-86276392D01*
X81059827Y-86281224D01*
X81054807Y-86285689D01*
X81049755Y-86289800D01*
X81044683Y-86293572D01*
X81039601Y-86297021D01*
X81034524Y-86300162D01*
X81029462Y-86303009D01*
X81024428Y-86305577D01*
X81019433Y-86307881D01*
X81014490Y-86309936D01*
X81009610Y-86311757D01*
X81004805Y-86313359D01*
X81011905Y-86315238D01*
X81018767Y-86317325D01*
X81025393Y-86319605D01*
X81031784Y-86322065D01*
X81037941Y-86324691D01*
X81043866Y-86327469D01*
X81049558Y-86330385D01*
X81055020Y-86333425D01*
X81060252Y-86336577D01*
X81065256Y-86339825D01*
X81070031Y-86343156D01*
X81074580Y-86346556D01*
X81078904Y-86350011D01*
X81083002Y-86353508D01*
X81086878Y-86357032D01*
X81090531Y-86360571D01*
X81096833Y-86367279D01*
X81102652Y-86374071D01*
X81107997Y-86380960D01*
X81112880Y-86387962D01*
X81117310Y-86395092D01*
X81121299Y-86402365D01*
X81124857Y-86409794D01*
X81127995Y-86417396D01*
X81130725Y-86425186D01*
X81133055Y-86433177D01*
X81134997Y-86441386D01*
X81136563Y-86449826D01*
X81137762Y-86458514D01*
X81138605Y-86467463D01*
X81139103Y-86476688D01*
X81139266Y-86486206D01*
X81138908Y-86501526D01*
X81137865Y-86516175D01*
X81136184Y-86530159D01*
X81133915Y-86543488D01*
X81131105Y-86556170D01*
X81127802Y-86568214D01*
X81124054Y-86579628D01*
X81119909Y-86590421D01*
X81115416Y-86600601D01*
X81110621Y-86610177D01*
X81105574Y-86619157D01*
X81100323Y-86627549D01*
X81094914Y-86635363D01*
X81089397Y-86642607D01*
X81083819Y-86649289D01*
X81078228Y-86655417D01*
X81072558Y-86661125D01*
X81066728Y-86666543D01*
X81060746Y-86671676D01*
X81054619Y-86676533D01*
X81041953Y-86685448D01*
X81028787Y-86693343D01*
X81015173Y-86700276D01*
X81001167Y-86706305D01*
X80986822Y-86711488D01*
X80972194Y-86715880D01*
X80957335Y-86719541D01*
X80942301Y-86722528D01*
X80927146Y-86724897D01*
X80911924Y-86726707D01*
X80896690Y-86728014D01*
X80881497Y-86728877D01*
X80866401Y-86729352D01*
X80851454Y-86729498D01*
X80571578Y-86729498D01*
X80588238Y-86587155D01*
X80761998Y-86587155D01*
X80825260Y-86587155D01*
X80838385Y-86586948D01*
X80852872Y-86586178D01*
X80860455Y-86585514D01*
X80868174Y-86584626D01*
X80875962Y-86583487D01*
X80883750Y-86582070D01*
X80891470Y-86580346D01*
X80899054Y-86578288D01*
X80906434Y-86575869D01*
X80913542Y-86573060D01*
X80920310Y-86569835D01*
X80926670Y-86566165D01*
X80929676Y-86564155D01*
X80932554Y-86562023D01*
X80935296Y-86559766D01*
X80937894Y-86557381D01*
X80939870Y-86555455D01*
X80941967Y-86553211D01*
X80944150Y-86550637D01*
X80946384Y-86547722D01*
X80948636Y-86544454D01*
X80950872Y-86540821D01*
X80953057Y-86536811D01*
X80954120Y-86534662D01*
X80955157Y-86532414D01*
X80956165Y-86530066D01*
X80957138Y-86527616D01*
X80958074Y-86525063D01*
X80958966Y-86522407D01*
X80959812Y-86519644D01*
X80960607Y-86516774D01*
X80961346Y-86513795D01*
X80962026Y-86510706D01*
X80962641Y-86507505D01*
X80963189Y-86504191D01*
X80963664Y-86500762D01*
X80964062Y-86497217D01*
X80964379Y-86493555D01*
X80964611Y-86489774D01*
X80964753Y-86485872D01*
X80964801Y-86481848D01*
X80964756Y-86478627D01*
X80964612Y-86475240D01*
X80964355Y-86471711D01*
X80963970Y-86468062D01*
X80963446Y-86464315D01*
X80962767Y-86460492D01*
X80961921Y-86456616D01*
X80960892Y-86452709D01*
X80959669Y-86448794D01*
X80958236Y-86444892D01*
X80956581Y-86441027D01*
X80954689Y-86437220D01*
X80952546Y-86433493D01*
X80950140Y-86429870D01*
X80947456Y-86426373D01*
X80944481Y-86423023D01*
X80942081Y-86420644D01*
X80939531Y-86418404D01*
X80936843Y-86416302D01*
X80934029Y-86414330D01*
X80931102Y-86412487D01*
X80928072Y-86410767D01*
X80921753Y-86407681D01*
X80915167Y-86405036D01*
X80908408Y-86402801D01*
X80901572Y-86400940D01*
X80894753Y-86399419D01*
X80888046Y-86398205D01*
X80881544Y-86397263D01*
X80875344Y-86396559D01*
X80869539Y-86396060D01*
X80859495Y-86395538D01*
X80852169Y-86395425D01*
X80784541Y-86395425D01*
X80761998Y-86587155D01*
X80588238Y-86587155D01*
X80626404Y-86261074D01*
X80799781Y-86261074D01*
X80835420Y-86261074D01*
X80846810Y-86260867D01*
X80852819Y-86260567D01*
X80858987Y-86260098D01*
X80865275Y-86259433D01*
X80871644Y-86258545D01*
X80878056Y-86257406D01*
X80884474Y-86255988D01*
X80890858Y-86254264D01*
X80897170Y-86252206D01*
X80903372Y-86249786D01*
X80909425Y-86246977D01*
X80915291Y-86243750D01*
X80920932Y-86240080D01*
X80926309Y-86235936D01*
X80928887Y-86233679D01*
X80931385Y-86231293D01*
X80934439Y-86228029D01*
X80937319Y-86224513D01*
X80940021Y-86220764D01*
X80942543Y-86216804D01*
X80944881Y-86212653D01*
X80947033Y-86208330D01*
X80948994Y-86203856D01*
X80950762Y-86199251D01*
X80952334Y-86194536D01*
X80953707Y-86189730D01*
X80954877Y-86184853D01*
X80955841Y-86179927D01*
X80956597Y-86174971D01*
X80957140Y-86170005D01*
X80957469Y-86165050D01*
X80957579Y-86160125D01*
X80957421Y-86154302D01*
X80956965Y-86148810D01*
X80956237Y-86143639D01*
X80955261Y-86138779D01*
X80954063Y-86134222D01*
X80952669Y-86129958D01*
X80951104Y-86125976D01*
X80949393Y-86122268D01*
X80947562Y-86118824D01*
X80945637Y-86115634D01*
X80943643Y-86112689D01*
X80941605Y-86109979D01*
X80939549Y-86107495D01*
X80937500Y-86105227D01*
X80935485Y-86103165D01*
X80933527Y-86101300D01*
X80931527Y-86099648D01*
X80929475Y-86098095D01*
X80927372Y-86096639D01*
X80925221Y-86095275D01*
X80920787Y-86092814D01*
X80916195Y-86090688D01*
X80911465Y-86088873D01*
X80906620Y-86087345D01*
X80901680Y-86086078D01*
X80896668Y-86085048D01*
X80891604Y-86084232D01*
X80886511Y-86083603D01*
X80881410Y-86083139D01*
X80876322Y-86082814D01*
X80866272Y-86082483D01*
X80856533Y-86082417D01*
X80820180Y-86082417D01*
X80799781Y-86261074D01*
X80626404Y-86261074D01*
X80663890Y-85940804D01*
X80904476Y-85940804D01*
X80924269Y-85941149D01*
G37*
G36*
X92961793Y-80130030D02*
G01*
X93006250Y-80132929D01*
X93049714Y-80137750D01*
X93092152Y-80144488D01*
X93133535Y-80153135D01*
X93173830Y-80163683D01*
X93213006Y-80176125D01*
X93251032Y-80190454D01*
X93287875Y-80206663D01*
X93323504Y-80224745D01*
X93357889Y-80244691D01*
X93390997Y-80266496D01*
X93422797Y-80290151D01*
X93453257Y-80315650D01*
X93482347Y-80342985D01*
X93510034Y-80372149D01*
X93536286Y-80403134D01*
X93561074Y-80435933D01*
X93584364Y-80470540D01*
X93606126Y-80506947D01*
X93626328Y-80545146D01*
X93644938Y-80585130D01*
X93661925Y-80626892D01*
X93677258Y-80670425D01*
X93690905Y-80715721D01*
X93702835Y-80762774D01*
X93713015Y-80811576D01*
X93721416Y-80862119D01*
X93728004Y-80914396D01*
X93732749Y-80968401D01*
X93735619Y-81024126D01*
X93736583Y-81081563D01*
X93736583Y-82642604D01*
X93048667Y-82642604D01*
X93048667Y-81160938D01*
X93047553Y-81109807D01*
X93044094Y-81060711D01*
X93038115Y-81013825D01*
X93029443Y-80969322D01*
X93017903Y-80927376D01*
X93011003Y-80907418D01*
X93003321Y-80888164D01*
X92994834Y-80869636D01*
X92985522Y-80851858D01*
X92975361Y-80834849D01*
X92964331Y-80818633D01*
X92952410Y-80803231D01*
X92939575Y-80788664D01*
X92925805Y-80774955D01*
X92911079Y-80762125D01*
X92895373Y-80750196D01*
X92878668Y-80739190D01*
X92860940Y-80729129D01*
X92842168Y-80720034D01*
X92822330Y-80711928D01*
X92801405Y-80704832D01*
X92779370Y-80698767D01*
X92756204Y-80693757D01*
X92731885Y-80689822D01*
X92706391Y-80686984D01*
X92679701Y-80685265D01*
X92651792Y-80684688D01*
X92623731Y-80685156D01*
X92596598Y-80686577D01*
X92570390Y-80688971D01*
X92545106Y-80692362D01*
X92520741Y-80696769D01*
X92497295Y-80702216D01*
X92474765Y-80708723D01*
X92453147Y-80716314D01*
X92432441Y-80725009D01*
X92412643Y-80734830D01*
X92393750Y-80745799D01*
X92375762Y-80757939D01*
X92358674Y-80771270D01*
X92342485Y-80785815D01*
X92327193Y-80801595D01*
X92312794Y-80818633D01*
X92299287Y-80836949D01*
X92286668Y-80856567D01*
X92274937Y-80877507D01*
X92264089Y-80899791D01*
X92254123Y-80923441D01*
X92245036Y-80948480D01*
X92236827Y-80974928D01*
X92229492Y-81002808D01*
X92223028Y-81032141D01*
X92217435Y-81062949D01*
X92212708Y-81095255D01*
X92208847Y-81129079D01*
X92205848Y-81164444D01*
X92203708Y-81201371D01*
X92202000Y-81280000D01*
X92202000Y-82642604D01*
X91514084Y-82642604D01*
X91514084Y-80181979D01*
X92175542Y-80181979D01*
X92180477Y-80211357D01*
X92185257Y-80248332D01*
X92189727Y-80290577D01*
X92193732Y-80335768D01*
X92197116Y-80381579D01*
X92199726Y-80425685D01*
X92201405Y-80465760D01*
X92202000Y-80499479D01*
X92218307Y-80469158D01*
X92237579Y-80437984D01*
X92259990Y-80406345D01*
X92285716Y-80374629D01*
X92314929Y-80343223D01*
X92330898Y-80327757D01*
X92347805Y-80312514D01*
X92365671Y-80297542D01*
X92384518Y-80282890D01*
X92404368Y-80268607D01*
X92425242Y-80254740D01*
X92447163Y-80241338D01*
X92470152Y-80228449D01*
X92494231Y-80216123D01*
X92519423Y-80204407D01*
X92545747Y-80193350D01*
X92573227Y-80183000D01*
X92601885Y-80173406D01*
X92631741Y-80164616D01*
X92662819Y-80156679D01*
X92695139Y-80149643D01*
X92728723Y-80143556D01*
X92763594Y-80138468D01*
X92799772Y-80134426D01*
X92837281Y-80131478D01*
X92876141Y-80129675D01*
X92916375Y-80129063D01*
X92961793Y-80130030D01*
G37*
G36*
X80015556Y-87124555D02*
G01*
X79897842Y-87124555D01*
X79897842Y-85640124D01*
X80015556Y-85640124D01*
X80015556Y-87124555D01*
G37*
G36*
X78463695Y-84118648D02*
G01*
X76923479Y-85598000D01*
X76923479Y-87077351D01*
X75383985Y-87077351D01*
X75383985Y-85598000D01*
X76923479Y-84118648D01*
X76923479Y-82639296D01*
X78463695Y-82639296D01*
X78463695Y-84118648D01*
G37*
G36*
X85985675Y-81627072D02*
G01*
X86098911Y-81636464D01*
X86204861Y-81652212D01*
X86303446Y-81674394D01*
X86349953Y-81687922D01*
X86394591Y-81703088D01*
X86437348Y-81719900D01*
X86478216Y-81738370D01*
X86517185Y-81758506D01*
X86554245Y-81780318D01*
X86589386Y-81803816D01*
X86622600Y-81829010D01*
X86653875Y-81855909D01*
X86683203Y-81884524D01*
X86710574Y-81914862D01*
X86735978Y-81946936D01*
X86759405Y-81980753D01*
X86780846Y-82016324D01*
X86800291Y-82053659D01*
X86817730Y-82092767D01*
X86833154Y-82133657D01*
X86846553Y-82176340D01*
X86857916Y-82220826D01*
X86867236Y-82267123D01*
X86874501Y-82315242D01*
X86879703Y-82365192D01*
X86882831Y-82416983D01*
X86883876Y-82470625D01*
X86883876Y-83502501D01*
X86886150Y-83694737D01*
X86892144Y-83889453D01*
X86896149Y-83976115D01*
X86900619Y-84049444D01*
X86905399Y-84104789D01*
X86910334Y-84137501D01*
X86262105Y-84137501D01*
X86257144Y-84114789D01*
X86252183Y-84087271D01*
X86242261Y-84023398D01*
X86232340Y-83957046D01*
X86227379Y-83926428D01*
X86222418Y-83899375D01*
X86204228Y-83926625D01*
X86184177Y-83953661D01*
X86161956Y-83980271D01*
X86149935Y-83993350D01*
X86137255Y-84006242D01*
X86123877Y-84018921D01*
X86109763Y-84031360D01*
X86094874Y-84043532D01*
X86079171Y-84055412D01*
X86062615Y-84066972D01*
X86045168Y-84078185D01*
X86026790Y-84089025D01*
X86007444Y-84099466D01*
X85987090Y-84109480D01*
X85965689Y-84119042D01*
X85943204Y-84128123D01*
X85919594Y-84136699D01*
X85894822Y-84144741D01*
X85868848Y-84152224D01*
X85841634Y-84159121D01*
X85813140Y-84165405D01*
X85783330Y-84171049D01*
X85752162Y-84176028D01*
X85719600Y-84180313D01*
X85685603Y-84183879D01*
X85650134Y-84186699D01*
X85613153Y-84188747D01*
X85574622Y-84189994D01*
X85534501Y-84190416D01*
X85479696Y-84189304D01*
X85426888Y-84186014D01*
X85376063Y-84180617D01*
X85327201Y-84173182D01*
X85280288Y-84163781D01*
X85235304Y-84152483D01*
X85192235Y-84139358D01*
X85151062Y-84124477D01*
X85111769Y-84107910D01*
X85074339Y-84089728D01*
X85038754Y-84070000D01*
X85004999Y-84048797D01*
X84973055Y-84026189D01*
X84942906Y-84002246D01*
X84914535Y-83977039D01*
X84887926Y-83950638D01*
X84863060Y-83923112D01*
X84839922Y-83894533D01*
X84818493Y-83864970D01*
X84798758Y-83834495D01*
X84780699Y-83803176D01*
X84764300Y-83771084D01*
X84749542Y-83738291D01*
X84736411Y-83704864D01*
X84714955Y-83636396D01*
X84699798Y-83566242D01*
X84690803Y-83494964D01*
X84687835Y-83423124D01*
X84688851Y-83383437D01*
X85375751Y-83383437D01*
X85377001Y-83415493D01*
X85380789Y-83447025D01*
X85383654Y-83462529D01*
X85387174Y-83477821D01*
X85391359Y-83492876D01*
X85396215Y-83507668D01*
X85401748Y-83522168D01*
X85407968Y-83536351D01*
X85414880Y-83550191D01*
X85422492Y-83563659D01*
X85430811Y-83576730D01*
X85439846Y-83589378D01*
X85449602Y-83601575D01*
X85460087Y-83613294D01*
X85471308Y-83624510D01*
X85483273Y-83635195D01*
X85495989Y-83645324D01*
X85509463Y-83654868D01*
X85523703Y-83663802D01*
X85538715Y-83672099D01*
X85554508Y-83679732D01*
X85571088Y-83686675D01*
X85588462Y-83692901D01*
X85606638Y-83698383D01*
X85625623Y-83703095D01*
X85645424Y-83707009D01*
X85666049Y-83710101D01*
X85687505Y-83712342D01*
X85709799Y-83713706D01*
X85732938Y-83714167D01*
X85772752Y-83713284D01*
X85810379Y-83710672D01*
X85845878Y-83706384D01*
X85879312Y-83700472D01*
X85910740Y-83692991D01*
X85940222Y-83683994D01*
X85967820Y-83673533D01*
X85993594Y-83661663D01*
X86017605Y-83648436D01*
X86039912Y-83633906D01*
X86060578Y-83618127D01*
X86079661Y-83601150D01*
X86097224Y-83583030D01*
X86113325Y-83563820D01*
X86128027Y-83543574D01*
X86141389Y-83522343D01*
X86153472Y-83500183D01*
X86164336Y-83477146D01*
X86174043Y-83453285D01*
X86182652Y-83428654D01*
X86190225Y-83403306D01*
X86196821Y-83377294D01*
X86207328Y-83323492D01*
X86214656Y-83267675D01*
X86219291Y-83210269D01*
X86221716Y-83151701D01*
X86222417Y-83092396D01*
X86222417Y-83013020D01*
X85944605Y-83013020D01*
X85870633Y-83014564D01*
X85802417Y-83019170D01*
X85739821Y-83026799D01*
X85682709Y-83037412D01*
X85630945Y-83050971D01*
X85584394Y-83067436D01*
X85563031Y-83076747D01*
X85542921Y-83086770D01*
X85524046Y-83097500D01*
X85506389Y-83108932D01*
X85489933Y-83121063D01*
X85474663Y-83133886D01*
X85460559Y-83147397D01*
X85447607Y-83161591D01*
X85435788Y-83176463D01*
X85425086Y-83192009D01*
X85415483Y-83208223D01*
X85406963Y-83225101D01*
X85399509Y-83242638D01*
X85393104Y-83260829D01*
X85387731Y-83279669D01*
X85383373Y-83299153D01*
X85377634Y-83340036D01*
X85375751Y-83383437D01*
X84688851Y-83383437D01*
X84689147Y-83371886D01*
X84693064Y-83322349D01*
X84699553Y-83274507D01*
X84708583Y-83228356D01*
X84720122Y-83183891D01*
X84734140Y-83141107D01*
X84750604Y-83099999D01*
X84769483Y-83060562D01*
X84790746Y-83022793D01*
X84814361Y-82986684D01*
X84840297Y-82952233D01*
X84868521Y-82919434D01*
X84899003Y-82888282D01*
X84931712Y-82858772D01*
X84966615Y-82830900D01*
X85003681Y-82804661D01*
X85042879Y-82780049D01*
X85084177Y-82757060D01*
X85127543Y-82735690D01*
X85172947Y-82715932D01*
X85220357Y-82697783D01*
X85269740Y-82681238D01*
X85321067Y-82666291D01*
X85374304Y-82652939D01*
X85429422Y-82641175D01*
X85486387Y-82630995D01*
X85545169Y-82622395D01*
X85605737Y-82615370D01*
X85668058Y-82609914D01*
X85732102Y-82606023D01*
X85865230Y-82602916D01*
X86222417Y-82602916D01*
X86222417Y-82457395D01*
X86221597Y-82425191D01*
X86218955Y-82393239D01*
X86214220Y-82361791D01*
X86207121Y-82331098D01*
X86202600Y-82316114D01*
X86197387Y-82301413D01*
X86191446Y-82287027D01*
X86184745Y-82272988D01*
X86177250Y-82259326D01*
X86168926Y-82246074D01*
X86159739Y-82233263D01*
X86149657Y-82220924D01*
X86138644Y-82209089D01*
X86126667Y-82197789D01*
X86113693Y-82187056D01*
X86099686Y-82176922D01*
X86084613Y-82167417D01*
X86068441Y-82158573D01*
X86051135Y-82150422D01*
X86032662Y-82142996D01*
X86012987Y-82136325D01*
X85992076Y-82130442D01*
X85969897Y-82125377D01*
X85946414Y-82121163D01*
X85921594Y-82117830D01*
X85895403Y-82115411D01*
X85867807Y-82113936D01*
X85838772Y-82113437D01*
X85812177Y-82113784D01*
X85786937Y-82114819D01*
X85763010Y-82116533D01*
X85740354Y-82118915D01*
X85718929Y-82121956D01*
X85698693Y-82125646D01*
X85679605Y-82129975D01*
X85661625Y-82134935D01*
X85644710Y-82140514D01*
X85628820Y-82146704D01*
X85613913Y-82153494D01*
X85599949Y-82160876D01*
X85586886Y-82168839D01*
X85574683Y-82177374D01*
X85563298Y-82186470D01*
X85552691Y-82196119D01*
X85542820Y-82206311D01*
X85533645Y-82217035D01*
X85525124Y-82228283D01*
X85517215Y-82240044D01*
X85509878Y-82252309D01*
X85503072Y-82265069D01*
X85490886Y-82292031D01*
X85480328Y-82320853D01*
X85471068Y-82351459D01*
X85462777Y-82383769D01*
X85455126Y-82417708D01*
X84806897Y-82417708D01*
X84817038Y-82336850D01*
X84832838Y-82258260D01*
X84842982Y-82219943D01*
X84854685Y-82182344D01*
X84867996Y-82145516D01*
X84882965Y-82109510D01*
X84899638Y-82074375D01*
X84918066Y-82040163D01*
X84938295Y-82006925D01*
X84960376Y-81974712D01*
X84984355Y-81943574D01*
X85010282Y-81913562D01*
X85038205Y-81884728D01*
X85068173Y-81857122D01*
X85100233Y-81830795D01*
X85134435Y-81805798D01*
X85170826Y-81782181D01*
X85209456Y-81759996D01*
X85250373Y-81739294D01*
X85293624Y-81720125D01*
X85339259Y-81702540D01*
X85387326Y-81686590D01*
X85437874Y-81672326D01*
X85490951Y-81659799D01*
X85546605Y-81649059D01*
X85604884Y-81640159D01*
X85665838Y-81633147D01*
X85729515Y-81628076D01*
X85795963Y-81624996D01*
X85865230Y-81623958D01*
X85985675Y-81627072D01*
G37*
G36*
X88193563Y-81928229D02*
G01*
X88214518Y-81898502D01*
X88237798Y-81869008D01*
X88263559Y-81839979D01*
X88291955Y-81811647D01*
X88307190Y-81797815D01*
X88323142Y-81784245D01*
X88339830Y-81770966D01*
X88357274Y-81758007D01*
X88375493Y-81745396D01*
X88394507Y-81733163D01*
X88414335Y-81721337D01*
X88434996Y-81709948D01*
X88456509Y-81699023D01*
X88478895Y-81688592D01*
X88502172Y-81678685D01*
X88526359Y-81669330D01*
X88551477Y-81660556D01*
X88577545Y-81652393D01*
X88604581Y-81644869D01*
X88632606Y-81638014D01*
X88661639Y-81631856D01*
X88691698Y-81626425D01*
X88722804Y-81621750D01*
X88754976Y-81617860D01*
X88788233Y-81614784D01*
X88822595Y-81612550D01*
X88858080Y-81611189D01*
X88894709Y-81610729D01*
X88956954Y-81612344D01*
X89017185Y-81617137D01*
X89075407Y-81625030D01*
X89131620Y-81635947D01*
X89185827Y-81649809D01*
X89238031Y-81666539D01*
X89288234Y-81686060D01*
X89336439Y-81708294D01*
X89382648Y-81733163D01*
X89426863Y-81760590D01*
X89469087Y-81790498D01*
X89509323Y-81822809D01*
X89547572Y-81857445D01*
X89583837Y-81894329D01*
X89618120Y-81933384D01*
X89650425Y-81974531D01*
X89680753Y-82017694D01*
X89709107Y-82062794D01*
X89735489Y-82109755D01*
X89759902Y-82158499D01*
X89782347Y-82208948D01*
X89802828Y-82261025D01*
X89821348Y-82314653D01*
X89837907Y-82369753D01*
X89852509Y-82426248D01*
X89865157Y-82484061D01*
X89875852Y-82543114D01*
X89884597Y-82603330D01*
X89891394Y-82664631D01*
X89896247Y-82726940D01*
X89900125Y-82854271D01*
X89895794Y-82982642D01*
X89882840Y-83109191D01*
X89861320Y-83233027D01*
X89831292Y-83353258D01*
X89792816Y-83468994D01*
X89745949Y-83579343D01*
X89690749Y-83683413D01*
X89660042Y-83732814D01*
X89627274Y-83780312D01*
X89592452Y-83825795D01*
X89555583Y-83869151D01*
X89516674Y-83910268D01*
X89475733Y-83949036D01*
X89432767Y-83985343D01*
X89387783Y-84019077D01*
X89340788Y-84050127D01*
X89291791Y-84078382D01*
X89240797Y-84103730D01*
X89187814Y-84126060D01*
X89132850Y-84145260D01*
X89075912Y-84161219D01*
X89017007Y-84173826D01*
X88956143Y-84182968D01*
X88893325Y-84188536D01*
X88828563Y-84190416D01*
X88761549Y-84189183D01*
X88699243Y-84185507D01*
X88641394Y-84179429D01*
X88587751Y-84170986D01*
X88538061Y-84160218D01*
X88492072Y-84147163D01*
X88449533Y-84131860D01*
X88410191Y-84114348D01*
X88373794Y-84094666D01*
X88340092Y-84072852D01*
X88308831Y-84048945D01*
X88279759Y-84022984D01*
X88252626Y-83995008D01*
X88227179Y-83965055D01*
X88203165Y-83933165D01*
X88180334Y-83899375D01*
X88179740Y-83929683D01*
X88178060Y-83960767D01*
X88175451Y-83992160D01*
X88172066Y-84023399D01*
X88168061Y-84054017D01*
X88163591Y-84083550D01*
X88158811Y-84111533D01*
X88153875Y-84137501D01*
X87505646Y-84137501D01*
X87505646Y-83330522D01*
X87505646Y-82907187D01*
X88153875Y-82907187D01*
X88155309Y-82983090D01*
X88159766Y-83056765D01*
X88167479Y-83127842D01*
X88178680Y-83195955D01*
X88193602Y-83260735D01*
X88212477Y-83321813D01*
X88235537Y-83378822D01*
X88248710Y-83405685D01*
X88263016Y-83431393D01*
X88278485Y-83455899D01*
X88295146Y-83479158D01*
X88313028Y-83501123D01*
X88332159Y-83521749D01*
X88352570Y-83540989D01*
X88374288Y-83558798D01*
X88397344Y-83575129D01*
X88421766Y-83589936D01*
X88447583Y-83603174D01*
X88474825Y-83614796D01*
X88503520Y-83624756D01*
X88533697Y-83633009D01*
X88565386Y-83639507D01*
X88598616Y-83644206D01*
X88633415Y-83647059D01*
X88669813Y-83648021D01*
X88702757Y-83647133D01*
X88734619Y-83644487D01*
X88765400Y-83640107D01*
X88795103Y-83634016D01*
X88823730Y-83626240D01*
X88851285Y-83616802D01*
X88877768Y-83605726D01*
X88903184Y-83593037D01*
X88927534Y-83578759D01*
X88950820Y-83562916D01*
X88973045Y-83545533D01*
X88994212Y-83526633D01*
X89014323Y-83506241D01*
X89033380Y-83484381D01*
X89051385Y-83461077D01*
X89068342Y-83436354D01*
X89084252Y-83410236D01*
X89099118Y-83382746D01*
X89112943Y-83353910D01*
X89125729Y-83323751D01*
X89137477Y-83292294D01*
X89148192Y-83259563D01*
X89157874Y-83225581D01*
X89166527Y-83190374D01*
X89174153Y-83153966D01*
X89180754Y-83116380D01*
X89186333Y-83077642D01*
X89190892Y-83037774D01*
X89194434Y-82996802D01*
X89196961Y-82954749D01*
X89198980Y-82867500D01*
X89197110Y-82791894D01*
X89191461Y-82719060D01*
X89181975Y-82649287D01*
X89168594Y-82582866D01*
X89151260Y-82520089D01*
X89129914Y-82461246D01*
X89104499Y-82406627D01*
X89090247Y-82380993D01*
X89074956Y-82356523D01*
X89058619Y-82333256D01*
X89041228Y-82311226D01*
X89022776Y-82290470D01*
X89003255Y-82271025D01*
X88982659Y-82252926D01*
X88960981Y-82236211D01*
X88938212Y-82220915D01*
X88914346Y-82207075D01*
X88889375Y-82194727D01*
X88863293Y-82183908D01*
X88836091Y-82174653D01*
X88807763Y-82167000D01*
X88778302Y-82160984D01*
X88747699Y-82156642D01*
X88715948Y-82154010D01*
X88683042Y-82153125D01*
X88646606Y-82153861D01*
X88611696Y-82156070D01*
X88578288Y-82159752D01*
X88546358Y-82164907D01*
X88515881Y-82171535D01*
X88486833Y-82179635D01*
X88459190Y-82189208D01*
X88432928Y-82200254D01*
X88408022Y-82212772D01*
X88384449Y-82226764D01*
X88362184Y-82242228D01*
X88341202Y-82259165D01*
X88321481Y-82277575D01*
X88302994Y-82297457D01*
X88285719Y-82318813D01*
X88269631Y-82341641D01*
X88254705Y-82365941D01*
X88240918Y-82391715D01*
X88228245Y-82418962D01*
X88216662Y-82447681D01*
X88206145Y-82477873D01*
X88196670Y-82509537D01*
X88188212Y-82542675D01*
X88180747Y-82577285D01*
X88174251Y-82613368D01*
X88168700Y-82650924D01*
X88160335Y-82730454D01*
X88155458Y-82815875D01*
X88153875Y-82907187D01*
X87505646Y-82907187D01*
X87505647Y-80658229D01*
X88193563Y-80658229D01*
X88193563Y-81928229D01*
G37*
G36*
X82228057Y-85941241D02*
G01*
X82241439Y-85941895D01*
X82254744Y-85942936D01*
X82267953Y-85944437D01*
X82281045Y-85946470D01*
X82293999Y-85949107D01*
X82306794Y-85952421D01*
X82319412Y-85956483D01*
X82331830Y-85961367D01*
X82344029Y-85967145D01*
X82355987Y-85973889D01*
X82367685Y-85981671D01*
X82379103Y-85990564D01*
X82390219Y-86000640D01*
X82401013Y-86011972D01*
X82405934Y-86017548D01*
X82410846Y-86023663D01*
X82415706Y-86030330D01*
X82420472Y-86037559D01*
X82425101Y-86045363D01*
X82429551Y-86053754D01*
X82433780Y-86062742D01*
X82437743Y-86072340D01*
X82441400Y-86082558D01*
X82444708Y-86093410D01*
X82447623Y-86104907D01*
X82450104Y-86117060D01*
X82452107Y-86129881D01*
X82453591Y-86143381D01*
X82454512Y-86157573D01*
X82454749Y-86164932D01*
X82454829Y-86172468D01*
X82454542Y-86186306D01*
X82453692Y-86199763D01*
X82452299Y-86212836D01*
X82450380Y-86225518D01*
X82447954Y-86237804D01*
X82445038Y-86249689D01*
X82441652Y-86261168D01*
X82437813Y-86272236D01*
X82433540Y-86282886D01*
X82428850Y-86293114D01*
X82423763Y-86302914D01*
X82418296Y-86312281D01*
X82412467Y-86321210D01*
X82406296Y-86329696D01*
X82399799Y-86337732D01*
X82392997Y-86345315D01*
X82386723Y-86351451D01*
X82380182Y-86357325D01*
X82373396Y-86362934D01*
X82366387Y-86368272D01*
X82359177Y-86373333D01*
X82351790Y-86378112D01*
X82344246Y-86382603D01*
X82336570Y-86386802D01*
X82328783Y-86390704D01*
X82320908Y-86394302D01*
X82312967Y-86397592D01*
X82304982Y-86400568D01*
X82296977Y-86403224D01*
X82288973Y-86405557D01*
X82280993Y-86407560D01*
X82273060Y-86409228D01*
X82467131Y-86729498D01*
X82264329Y-86729498D01*
X82082640Y-86418666D01*
X82046285Y-86729498D01*
X81872614Y-86729498D01*
X81923021Y-86298833D01*
X82096450Y-86298833D01*
X82139314Y-86298833D01*
X82150572Y-86298629D01*
X82156615Y-86298335D01*
X82162882Y-86297880D01*
X82169332Y-86297238D01*
X82175927Y-86296383D01*
X82182626Y-86295290D01*
X82189389Y-86293933D01*
X82196178Y-86292286D01*
X82202952Y-86290325D01*
X82209673Y-86288023D01*
X82216299Y-86285355D01*
X82222792Y-86282295D01*
X82229111Y-86278819D01*
X82235218Y-86274899D01*
X82241073Y-86270512D01*
X82243872Y-86268170D01*
X82246542Y-86265774D01*
X82249085Y-86263326D01*
X82251504Y-86260829D01*
X82253801Y-86258284D01*
X82255980Y-86255694D01*
X82259992Y-86250381D01*
X82263560Y-86244907D01*
X82266707Y-86239286D01*
X82269453Y-86233533D01*
X82271819Y-86227664D01*
X82273828Y-86221692D01*
X82275499Y-86215632D01*
X82276855Y-86209501D01*
X82277917Y-86203312D01*
X82278706Y-86197080D01*
X82279243Y-86190821D01*
X82279550Y-86184549D01*
X82279647Y-86178278D01*
X82279574Y-86173568D01*
X82279336Y-86168715D01*
X82278905Y-86163747D01*
X82278254Y-86158693D01*
X82277355Y-86153579D01*
X82276182Y-86148432D01*
X82274707Y-86143282D01*
X82272901Y-86138155D01*
X82270739Y-86133080D01*
X82268192Y-86128082D01*
X82265233Y-86123192D01*
X82263590Y-86120795D01*
X82261834Y-86118435D01*
X82259961Y-86116115D01*
X82257968Y-86113840D01*
X82255852Y-86111611D01*
X82253608Y-86109434D01*
X82251234Y-86107310D01*
X82248726Y-86105245D01*
X82246081Y-86103240D01*
X82243295Y-86101300D01*
X82238950Y-86098574D01*
X82234372Y-86096109D01*
X82229567Y-86093893D01*
X82224539Y-86091914D01*
X82219293Y-86090160D01*
X82213836Y-86088621D01*
X82208172Y-86087284D01*
X82202307Y-86086138D01*
X82196246Y-86085170D01*
X82189993Y-86084369D01*
X82183555Y-86083724D01*
X82176935Y-86083222D01*
X82170141Y-86082852D01*
X82163176Y-86082603D01*
X82148758Y-86082417D01*
X82122645Y-86082417D01*
X82096450Y-86298833D01*
X81923021Y-86298833D01*
X81964927Y-85940804D01*
X82201147Y-85940804D01*
X82228057Y-85941241D01*
G37*
G36*
X78463616Y-87077383D02*
G01*
X76923431Y-87077383D01*
X78463616Y-85598031D01*
X78463616Y-87077383D01*
G37*
G36*
X83239133Y-86728768D02*
G01*
X83065382Y-86728768D01*
X83157694Y-85940804D01*
X83331446Y-85940804D01*
X83239133Y-86728768D01*
G37*
G36*
X71643494Y-85598000D02*
G01*
X74723934Y-85598000D01*
X74723934Y-88274921D01*
X73183718Y-88274921D01*
X73183718Y-86795570D01*
X70104000Y-86795570D01*
X70104000Y-85598000D01*
X73183718Y-82639296D01*
X74723934Y-82639296D01*
X71643494Y-85598000D01*
G37*
G36*
X81811574Y-86094038D02*
G01*
X81518600Y-86094038D01*
X81496773Y-86246549D01*
X81779585Y-86246549D01*
X81757758Y-86400512D01*
X81475739Y-86400512D01*
X81451767Y-86575534D01*
X81749741Y-86575534D01*
X81728707Y-86729498D01*
X81228564Y-86729498D01*
X81338340Y-85940804D01*
X81833322Y-85940804D01*
X81811574Y-86094038D01*
G37*
G36*
X84243469Y-80605907D02*
G01*
X84288892Y-80607586D01*
X84333696Y-80610196D01*
X84376949Y-80613581D01*
X84417722Y-80617586D01*
X84455084Y-80622056D01*
X84488105Y-80626836D01*
X84515855Y-80631771D01*
X84515855Y-81174167D01*
X84508262Y-81174018D01*
X84500378Y-81173598D01*
X84483816Y-81172100D01*
X84466323Y-81169981D01*
X84448056Y-81167552D01*
X84429168Y-81165123D01*
X84409815Y-81163005D01*
X84400013Y-81162159D01*
X84390152Y-81161506D01*
X84380253Y-81161086D01*
X84370334Y-81160938D01*
X84334513Y-81161891D01*
X84317630Y-81163107D01*
X84301424Y-81164839D01*
X84285886Y-81167105D01*
X84271009Y-81169920D01*
X84256786Y-81173302D01*
X84243210Y-81177267D01*
X84230274Y-81181834D01*
X84217969Y-81187018D01*
X84206290Y-81192837D01*
X84195229Y-81199307D01*
X84184777Y-81206446D01*
X84174929Y-81214271D01*
X84165677Y-81222798D01*
X84157014Y-81232044D01*
X84148932Y-81242027D01*
X84141424Y-81252763D01*
X84134482Y-81264270D01*
X84128101Y-81276564D01*
X84122272Y-81289662D01*
X84116987Y-81303581D01*
X84112241Y-81318338D01*
X84108025Y-81333950D01*
X84104332Y-81350435D01*
X84101155Y-81367808D01*
X84098487Y-81386087D01*
X84096320Y-81405290D01*
X84093461Y-81446531D01*
X84092522Y-81491667D01*
X84092522Y-81650417D01*
X84529084Y-81650417D01*
X84529084Y-82166355D01*
X84105751Y-82166355D01*
X84105751Y-84124271D01*
X83431063Y-84137501D01*
X83431063Y-82179584D01*
X83060647Y-82179584D01*
X83060647Y-81663646D01*
X83417834Y-81663646D01*
X83417834Y-81451979D01*
X83420786Y-81359627D01*
X83429668Y-81271267D01*
X83444519Y-81187170D01*
X83454194Y-81146805D01*
X83465377Y-81107608D01*
X83478070Y-81069612D01*
X83492281Y-81032851D01*
X83508012Y-80997360D01*
X83525270Y-80963172D01*
X83544058Y-80930321D01*
X83564382Y-80898841D01*
X83586247Y-80868766D01*
X83609657Y-80840130D01*
X83634618Y-80812967D01*
X83661133Y-80787310D01*
X83689209Y-80763194D01*
X83718849Y-80740653D01*
X83750060Y-80719720D01*
X83782844Y-80700429D01*
X83817208Y-80682815D01*
X83853157Y-80666911D01*
X83890694Y-80652751D01*
X83929825Y-80640368D01*
X83970555Y-80629798D01*
X84012888Y-80621074D01*
X84056830Y-80614229D01*
X84102386Y-80609298D01*
X84149559Y-80606314D01*
X84198355Y-80605312D01*
X84243469Y-80605907D01*
G37*
G36*
X75383985Y-84118648D02*
G01*
X75383985Y-82639296D01*
X76923479Y-82639296D01*
X75383985Y-84118648D01*
G37*
G36*
X83998037Y-86453527D02*
G01*
X84059077Y-85940804D01*
X84232749Y-85940804D01*
X84140436Y-86729498D01*
X83989307Y-86729498D01*
X83640374Y-86213870D01*
X83580763Y-86729498D01*
X83407091Y-86729498D01*
X83500833Y-85940804D01*
X83652042Y-85940804D01*
X83998037Y-86453527D01*
G37*
D11*
X71313922Y-63213931D02*
X71647255Y-64213931D01*
X71647255Y-64213931D02*
X71980588Y-63213931D01*
X72837731Y-64213931D02*
X72266303Y-64213931D01*
X72552017Y-64213931D02*
X72552017Y-63213931D01*
X72552017Y-63213931D02*
X72456779Y-63356788D01*
X72456779Y-63356788D02*
X72361541Y-63452026D01*
X72361541Y-63452026D02*
X72266303Y-63499645D01*
X73266303Y-64118692D02*
X73313922Y-64166312D01*
X73313922Y-64166312D02*
X73266303Y-64213931D01*
X73266303Y-64213931D02*
X73218684Y-64166312D01*
X73218684Y-64166312D02*
X73266303Y-64118692D01*
X73266303Y-64118692D02*
X73266303Y-64213931D01*
X73932969Y-63213931D02*
X74028207Y-63213931D01*
X74028207Y-63213931D02*
X74123445Y-63261550D01*
X74123445Y-63261550D02*
X74171064Y-63309169D01*
X74171064Y-63309169D02*
X74218683Y-63404407D01*
X74218683Y-63404407D02*
X74266302Y-63594883D01*
X74266302Y-63594883D02*
X74266302Y-63832978D01*
X74266302Y-63832978D02*
X74218683Y-64023454D01*
X74218683Y-64023454D02*
X74171064Y-64118692D01*
X74171064Y-64118692D02*
X74123445Y-64166312D01*
X74123445Y-64166312D02*
X74028207Y-64213931D01*
X74028207Y-64213931D02*
X73932969Y-64213931D01*
X73932969Y-64213931D02*
X73837731Y-64166312D01*
X73837731Y-64166312D02*
X73790112Y-64118692D01*
X73790112Y-64118692D02*
X73742493Y-64023454D01*
X73742493Y-64023454D02*
X73694874Y-63832978D01*
X73694874Y-63832978D02*
X73694874Y-63594883D01*
X73694874Y-63594883D02*
X73742493Y-63404407D01*
X73742493Y-63404407D02*
X73790112Y-63309169D01*
X73790112Y-63309169D02*
X73837731Y-63261550D01*
X73837731Y-63261550D02*
X73932969Y-63213931D01*
X74694874Y-64118692D02*
X74742493Y-64166312D01*
X74742493Y-64166312D02*
X74694874Y-64213931D01*
X74694874Y-64213931D02*
X74647255Y-64166312D01*
X74647255Y-64166312D02*
X74694874Y-64118692D01*
X74694874Y-64118692D02*
X74694874Y-64213931D01*
X74694874Y-63594883D02*
X74742493Y-63642502D01*
X74742493Y-63642502D02*
X74694874Y-63690121D01*
X74694874Y-63690121D02*
X74647255Y-63642502D01*
X74647255Y-63642502D02*
X74694874Y-63594883D01*
X74694874Y-63594883D02*
X74694874Y-63690121D01*
X75932969Y-64213931D02*
X75932969Y-63213931D01*
X75932969Y-63213931D02*
X76313921Y-63213931D01*
X76313921Y-63213931D02*
X76409159Y-63261550D01*
X76409159Y-63261550D02*
X76456778Y-63309169D01*
X76456778Y-63309169D02*
X76504397Y-63404407D01*
X76504397Y-63404407D02*
X76504397Y-63547264D01*
X76504397Y-63547264D02*
X76456778Y-63642502D01*
X76456778Y-63642502D02*
X76409159Y-63690121D01*
X76409159Y-63690121D02*
X76313921Y-63737740D01*
X76313921Y-63737740D02*
X75932969Y-63737740D01*
X77504397Y-64118692D02*
X77456778Y-64166312D01*
X77456778Y-64166312D02*
X77313921Y-64213931D01*
X77313921Y-64213931D02*
X77218683Y-64213931D01*
X77218683Y-64213931D02*
X77075826Y-64166312D01*
X77075826Y-64166312D02*
X76980588Y-64071073D01*
X76980588Y-64071073D02*
X76932969Y-63975835D01*
X76932969Y-63975835D02*
X76885350Y-63785359D01*
X76885350Y-63785359D02*
X76885350Y-63642502D01*
X76885350Y-63642502D02*
X76932969Y-63452026D01*
X76932969Y-63452026D02*
X76980588Y-63356788D01*
X76980588Y-63356788D02*
X77075826Y-63261550D01*
X77075826Y-63261550D02*
X77218683Y-63213931D01*
X77218683Y-63213931D02*
X77313921Y-63213931D01*
X77313921Y-63213931D02*
X77456778Y-63261550D01*
X77456778Y-63261550D02*
X77504397Y-63309169D01*
X78266302Y-63690121D02*
X78409159Y-63737740D01*
X78409159Y-63737740D02*
X78456778Y-63785359D01*
X78456778Y-63785359D02*
X78504397Y-63880597D01*
X78504397Y-63880597D02*
X78504397Y-64023454D01*
X78504397Y-64023454D02*
X78456778Y-64118692D01*
X78456778Y-64118692D02*
X78409159Y-64166312D01*
X78409159Y-64166312D02*
X78313921Y-64213931D01*
X78313921Y-64213931D02*
X77932969Y-64213931D01*
X77932969Y-64213931D02*
X77932969Y-63213931D01*
X77932969Y-63213931D02*
X78266302Y-63213931D01*
X78266302Y-63213931D02*
X78361540Y-63261550D01*
X78361540Y-63261550D02*
X78409159Y-63309169D01*
X78409159Y-63309169D02*
X78456778Y-63404407D01*
X78456778Y-63404407D02*
X78456778Y-63499645D01*
X78456778Y-63499645D02*
X78409159Y-63594883D01*
X78409159Y-63594883D02*
X78361540Y-63642502D01*
X78361540Y-63642502D02*
X78266302Y-63690121D01*
X78266302Y-63690121D02*
X77932969Y-63690121D01*
X79694874Y-63832978D02*
X80456779Y-63832978D01*
X80075826Y-64213931D02*
X80075826Y-63452026D01*
X81694874Y-64213931D02*
X81694874Y-63213931D01*
X81694874Y-63213931D02*
X82075826Y-63213931D01*
X82075826Y-63213931D02*
X82171064Y-63261550D01*
X82171064Y-63261550D02*
X82218683Y-63309169D01*
X82218683Y-63309169D02*
X82266302Y-63404407D01*
X82266302Y-63404407D02*
X82266302Y-63547264D01*
X82266302Y-63547264D02*
X82218683Y-63642502D01*
X82218683Y-63642502D02*
X82171064Y-63690121D01*
X82171064Y-63690121D02*
X82075826Y-63737740D01*
X82075826Y-63737740D02*
X81694874Y-63737740D01*
X82647255Y-63928216D02*
X83123445Y-63928216D01*
X82552017Y-64213931D02*
X82885350Y-63213931D01*
X82885350Y-63213931D02*
X83218683Y-64213931D01*
X83552017Y-64213931D02*
X83552017Y-63213931D01*
X83552017Y-63213931D02*
X84123445Y-64213931D01*
X84123445Y-64213931D02*
X84123445Y-63213931D01*
X84599636Y-63690121D02*
X84932969Y-63690121D01*
X85075826Y-64213931D02*
X84599636Y-64213931D01*
X84599636Y-64213931D02*
X84599636Y-63213931D01*
X84599636Y-63213931D02*
X85075826Y-63213931D01*
X85980588Y-64213931D02*
X85504398Y-64213931D01*
X85504398Y-64213931D02*
X85504398Y-63213931D01*
X87409160Y-63690121D02*
X87552017Y-63737740D01*
X87552017Y-63737740D02*
X87599636Y-63785359D01*
X87599636Y-63785359D02*
X87647255Y-63880597D01*
X87647255Y-63880597D02*
X87647255Y-64023454D01*
X87647255Y-64023454D02*
X87599636Y-64118692D01*
X87599636Y-64118692D02*
X87552017Y-64166312D01*
X87552017Y-64166312D02*
X87456779Y-64213931D01*
X87456779Y-64213931D02*
X87075827Y-64213931D01*
X87075827Y-64213931D02*
X87075827Y-63213931D01*
X87075827Y-63213931D02*
X87409160Y-63213931D01*
X87409160Y-63213931D02*
X87504398Y-63261550D01*
X87504398Y-63261550D02*
X87552017Y-63309169D01*
X87552017Y-63309169D02*
X87599636Y-63404407D01*
X87599636Y-63404407D02*
X87599636Y-63499645D01*
X87599636Y-63499645D02*
X87552017Y-63594883D01*
X87552017Y-63594883D02*
X87504398Y-63642502D01*
X87504398Y-63642502D02*
X87409160Y-63690121D01*
X87409160Y-63690121D02*
X87075827Y-63690121D01*
X88266303Y-63737740D02*
X88266303Y-64213931D01*
X87932970Y-63213931D02*
X88266303Y-63737740D01*
X88266303Y-63737740D02*
X88599636Y-63213931D01*
X76456780Y-65157208D02*
X76456780Y-65823875D01*
X76218685Y-64776256D02*
X75980590Y-65490541D01*
X75980590Y-65490541D02*
X76599637Y-65490541D01*
X76932971Y-64919113D02*
X76980590Y-64871494D01*
X76980590Y-64871494D02*
X77075828Y-64823875D01*
X77075828Y-64823875D02*
X77313923Y-64823875D01*
X77313923Y-64823875D02*
X77409161Y-64871494D01*
X77409161Y-64871494D02*
X77456780Y-64919113D01*
X77456780Y-64919113D02*
X77504399Y-65014351D01*
X77504399Y-65014351D02*
X77504399Y-65109589D01*
X77504399Y-65109589D02*
X77456780Y-65252446D01*
X77456780Y-65252446D02*
X76885352Y-65823875D01*
X76885352Y-65823875D02*
X77504399Y-65823875D01*
X79028209Y-65300065D02*
X79171066Y-65347684D01*
X79171066Y-65347684D02*
X79218685Y-65395303D01*
X79218685Y-65395303D02*
X79266304Y-65490541D01*
X79266304Y-65490541D02*
X79266304Y-65633398D01*
X79266304Y-65633398D02*
X79218685Y-65728636D01*
X79218685Y-65728636D02*
X79171066Y-65776256D01*
X79171066Y-65776256D02*
X79075828Y-65823875D01*
X79075828Y-65823875D02*
X78694876Y-65823875D01*
X78694876Y-65823875D02*
X78694876Y-64823875D01*
X78694876Y-64823875D02*
X79028209Y-64823875D01*
X79028209Y-64823875D02*
X79123447Y-64871494D01*
X79123447Y-64871494D02*
X79171066Y-64919113D01*
X79171066Y-64919113D02*
X79218685Y-65014351D01*
X79218685Y-65014351D02*
X79218685Y-65109589D01*
X79218685Y-65109589D02*
X79171066Y-65204827D01*
X79171066Y-65204827D02*
X79123447Y-65252446D01*
X79123447Y-65252446D02*
X79028209Y-65300065D01*
X79028209Y-65300065D02*
X78694876Y-65300065D01*
X79694876Y-65300065D02*
X80028209Y-65300065D01*
X80171066Y-65823875D02*
X79694876Y-65823875D01*
X79694876Y-65823875D02*
X79694876Y-64823875D01*
X79694876Y-64823875D02*
X80171066Y-64823875D01*
X81171066Y-65823875D02*
X80837733Y-65347684D01*
X80599638Y-65823875D02*
X80599638Y-64823875D01*
X80599638Y-64823875D02*
X80980590Y-64823875D01*
X80980590Y-64823875D02*
X81075828Y-64871494D01*
X81075828Y-64871494D02*
X81123447Y-64919113D01*
X81123447Y-64919113D02*
X81171066Y-65014351D01*
X81171066Y-65014351D02*
X81171066Y-65157208D01*
X81171066Y-65157208D02*
X81123447Y-65252446D01*
X81123447Y-65252446D02*
X81075828Y-65300065D01*
X81075828Y-65300065D02*
X80980590Y-65347684D01*
X80980590Y-65347684D02*
X80599638Y-65347684D01*
X82075828Y-65823875D02*
X81599638Y-65823875D01*
X81599638Y-65823875D02*
X81599638Y-64823875D01*
X82409162Y-65823875D02*
X82409162Y-64823875D01*
X82885352Y-65823875D02*
X82885352Y-64823875D01*
X82885352Y-64823875D02*
X83456780Y-65823875D01*
X83456780Y-65823875D02*
X83456780Y-64823875D01*
X84647257Y-65776256D02*
X84790114Y-65823875D01*
X84790114Y-65823875D02*
X85028209Y-65823875D01*
X85028209Y-65823875D02*
X85123447Y-65776256D01*
X85123447Y-65776256D02*
X85171066Y-65728636D01*
X85171066Y-65728636D02*
X85218685Y-65633398D01*
X85218685Y-65633398D02*
X85218685Y-65538160D01*
X85218685Y-65538160D02*
X85171066Y-65442922D01*
X85171066Y-65442922D02*
X85123447Y-65395303D01*
X85123447Y-65395303D02*
X85028209Y-65347684D01*
X85028209Y-65347684D02*
X84837733Y-65300065D01*
X84837733Y-65300065D02*
X84742495Y-65252446D01*
X84742495Y-65252446D02*
X84694876Y-65204827D01*
X84694876Y-65204827D02*
X84647257Y-65109589D01*
X84647257Y-65109589D02*
X84647257Y-65014351D01*
X84647257Y-65014351D02*
X84694876Y-64919113D01*
X84694876Y-64919113D02*
X84742495Y-64871494D01*
X84742495Y-64871494D02*
X84837733Y-64823875D01*
X84837733Y-64823875D02*
X85075828Y-64823875D01*
X85075828Y-64823875D02*
X85218685Y-64871494D01*
X85837733Y-65347684D02*
X85837733Y-65823875D01*
X85504400Y-64823875D02*
X85837733Y-65347684D01*
X85837733Y-65347684D02*
X86171066Y-64823875D01*
X86504400Y-65823875D02*
X86504400Y-64823875D01*
X86504400Y-64823875D02*
X87075828Y-65823875D01*
X87075828Y-65823875D02*
X87075828Y-64823875D01*
X87409162Y-64823875D02*
X87980590Y-64823875D01*
X87694876Y-65823875D02*
X87694876Y-64823875D01*
X88313924Y-65823875D02*
X88313924Y-64823875D01*
X88313924Y-65300065D02*
X88885352Y-65300065D01*
X88885352Y-65823875D02*
X88885352Y-64823875D01*
X89837733Y-65823875D02*
X89361543Y-65823875D01*
X89361543Y-65823875D02*
X89361543Y-64823875D01*
X90123448Y-65538160D02*
X90599638Y-65538160D01*
X90028210Y-65823875D02*
X90361543Y-64823875D01*
X90361543Y-64823875D02*
X90694876Y-65823875D01*
X91361543Y-65300065D02*
X91504400Y-65347684D01*
X91504400Y-65347684D02*
X91552019Y-65395303D01*
X91552019Y-65395303D02*
X91599638Y-65490541D01*
X91599638Y-65490541D02*
X91599638Y-65633398D01*
X91599638Y-65633398D02*
X91552019Y-65728636D01*
X91552019Y-65728636D02*
X91504400Y-65776256D01*
X91504400Y-65776256D02*
X91409162Y-65823875D01*
X91409162Y-65823875D02*
X91028210Y-65823875D01*
X91028210Y-65823875D02*
X91028210Y-64823875D01*
X91028210Y-64823875D02*
X91361543Y-64823875D01*
X91361543Y-64823875D02*
X91456781Y-64871494D01*
X91456781Y-64871494D02*
X91504400Y-64919113D01*
X91504400Y-64919113D02*
X91552019Y-65014351D01*
X91552019Y-65014351D02*
X91552019Y-65109589D01*
X91552019Y-65109589D02*
X91504400Y-65204827D01*
X91504400Y-65204827D02*
X91456781Y-65252446D01*
X91456781Y-65252446D02*
X91361543Y-65300065D01*
X91361543Y-65300065D02*
X91028210Y-65300065D01*
X71456779Y-67433819D02*
X71456779Y-66433819D01*
X71885350Y-67433819D02*
X71885350Y-66910009D01*
X71885350Y-66910009D02*
X71837731Y-66814771D01*
X71837731Y-66814771D02*
X71742493Y-66767152D01*
X71742493Y-66767152D02*
X71599636Y-66767152D01*
X71599636Y-66767152D02*
X71504398Y-66814771D01*
X71504398Y-66814771D02*
X71456779Y-66862390D01*
X72218684Y-66767152D02*
X72599636Y-66767152D01*
X72361541Y-66433819D02*
X72361541Y-67290961D01*
X72361541Y-67290961D02*
X72409160Y-67386200D01*
X72409160Y-67386200D02*
X72504398Y-67433819D01*
X72504398Y-67433819D02*
X72599636Y-67433819D01*
X72790113Y-66767152D02*
X73171065Y-66767152D01*
X72932970Y-66433819D02*
X72932970Y-67290961D01*
X72932970Y-67290961D02*
X72980589Y-67386200D01*
X72980589Y-67386200D02*
X73075827Y-67433819D01*
X73075827Y-67433819D02*
X73171065Y-67433819D01*
X73504399Y-66767152D02*
X73504399Y-67767152D01*
X73504399Y-66814771D02*
X73599637Y-66767152D01*
X73599637Y-66767152D02*
X73790113Y-66767152D01*
X73790113Y-66767152D02*
X73885351Y-66814771D01*
X73885351Y-66814771D02*
X73932970Y-66862390D01*
X73932970Y-66862390D02*
X73980589Y-66957628D01*
X73980589Y-66957628D02*
X73980589Y-67243342D01*
X73980589Y-67243342D02*
X73932970Y-67338580D01*
X73932970Y-67338580D02*
X73885351Y-67386200D01*
X73885351Y-67386200D02*
X73790113Y-67433819D01*
X73790113Y-67433819D02*
X73599637Y-67433819D01*
X73599637Y-67433819D02*
X73504399Y-67386200D01*
X74361542Y-67386200D02*
X74456780Y-67433819D01*
X74456780Y-67433819D02*
X74647256Y-67433819D01*
X74647256Y-67433819D02*
X74742494Y-67386200D01*
X74742494Y-67386200D02*
X74790113Y-67290961D01*
X74790113Y-67290961D02*
X74790113Y-67243342D01*
X74790113Y-67243342D02*
X74742494Y-67148104D01*
X74742494Y-67148104D02*
X74647256Y-67100485D01*
X74647256Y-67100485D02*
X74504399Y-67100485D01*
X74504399Y-67100485D02*
X74409161Y-67052866D01*
X74409161Y-67052866D02*
X74361542Y-66957628D01*
X74361542Y-66957628D02*
X74361542Y-66910009D01*
X74361542Y-66910009D02*
X74409161Y-66814771D01*
X74409161Y-66814771D02*
X74504399Y-66767152D01*
X74504399Y-66767152D02*
X74647256Y-66767152D01*
X74647256Y-66767152D02*
X74742494Y-66814771D01*
X75218685Y-67338580D02*
X75266304Y-67386200D01*
X75266304Y-67386200D02*
X75218685Y-67433819D01*
X75218685Y-67433819D02*
X75171066Y-67386200D01*
X75171066Y-67386200D02*
X75218685Y-67338580D01*
X75218685Y-67338580D02*
X75218685Y-67433819D01*
X75218685Y-66814771D02*
X75266304Y-66862390D01*
X75266304Y-66862390D02*
X75218685Y-66910009D01*
X75218685Y-66910009D02*
X75171066Y-66862390D01*
X75171066Y-66862390D02*
X75218685Y-66814771D01*
X75218685Y-66814771D02*
X75218685Y-66910009D01*
X76409160Y-66386200D02*
X75552018Y-67671914D01*
X77456779Y-66386200D02*
X76599637Y-67671914D01*
X77694875Y-66767152D02*
X77885351Y-67433819D01*
X77885351Y-67433819D02*
X78075827Y-66957628D01*
X78075827Y-66957628D02*
X78266303Y-67433819D01*
X78266303Y-67433819D02*
X78456779Y-66767152D01*
X78980589Y-67433819D02*
X78885351Y-67386200D01*
X78885351Y-67386200D02*
X78837732Y-67338580D01*
X78837732Y-67338580D02*
X78790113Y-67243342D01*
X78790113Y-67243342D02*
X78790113Y-66957628D01*
X78790113Y-66957628D02*
X78837732Y-66862390D01*
X78837732Y-66862390D02*
X78885351Y-66814771D01*
X78885351Y-66814771D02*
X78980589Y-66767152D01*
X78980589Y-66767152D02*
X79123446Y-66767152D01*
X79123446Y-66767152D02*
X79218684Y-66814771D01*
X79218684Y-66814771D02*
X79266303Y-66862390D01*
X79266303Y-66862390D02*
X79313922Y-66957628D01*
X79313922Y-66957628D02*
X79313922Y-67243342D01*
X79313922Y-67243342D02*
X79266303Y-67338580D01*
X79266303Y-67338580D02*
X79218684Y-67386200D01*
X79218684Y-67386200D02*
X79123446Y-67433819D01*
X79123446Y-67433819D02*
X78980589Y-67433819D01*
X79742494Y-67433819D02*
X79742494Y-66767152D01*
X79742494Y-66957628D02*
X79790113Y-66862390D01*
X79790113Y-66862390D02*
X79837732Y-66814771D01*
X79837732Y-66814771D02*
X79932970Y-66767152D01*
X79932970Y-66767152D02*
X80028208Y-66767152D01*
X80361542Y-67433819D02*
X80361542Y-66433819D01*
X80456780Y-67052866D02*
X80742494Y-67433819D01*
X80742494Y-66767152D02*
X80361542Y-67148104D01*
X81171066Y-67433819D02*
X81171066Y-66767152D01*
X81171066Y-66433819D02*
X81123447Y-66481438D01*
X81123447Y-66481438D02*
X81171066Y-66529057D01*
X81171066Y-66529057D02*
X81218685Y-66481438D01*
X81218685Y-66481438D02*
X81171066Y-66433819D01*
X81171066Y-66433819D02*
X81171066Y-66529057D01*
X81599637Y-67386200D02*
X81694875Y-67433819D01*
X81694875Y-67433819D02*
X81885351Y-67433819D01*
X81885351Y-67433819D02*
X81980589Y-67386200D01*
X81980589Y-67386200D02*
X82028208Y-67290961D01*
X82028208Y-67290961D02*
X82028208Y-67243342D01*
X82028208Y-67243342D02*
X81980589Y-67148104D01*
X81980589Y-67148104D02*
X81885351Y-67100485D01*
X81885351Y-67100485D02*
X81742494Y-67100485D01*
X81742494Y-67100485D02*
X81647256Y-67052866D01*
X81647256Y-67052866D02*
X81599637Y-66957628D01*
X81599637Y-66957628D02*
X81599637Y-66910009D01*
X81599637Y-66910009D02*
X81647256Y-66814771D01*
X81647256Y-66814771D02*
X81742494Y-66767152D01*
X81742494Y-66767152D02*
X81885351Y-66767152D01*
X81885351Y-66767152D02*
X81980589Y-66814771D01*
X82456780Y-67433819D02*
X82456780Y-66433819D01*
X82885351Y-67433819D02*
X82885351Y-66910009D01*
X82885351Y-66910009D02*
X82837732Y-66814771D01*
X82837732Y-66814771D02*
X82742494Y-66767152D01*
X82742494Y-66767152D02*
X82599637Y-66767152D01*
X82599637Y-66767152D02*
X82504399Y-66814771D01*
X82504399Y-66814771D02*
X82456780Y-66862390D01*
X83361542Y-67338580D02*
X83409161Y-67386200D01*
X83409161Y-67386200D02*
X83361542Y-67433819D01*
X83361542Y-67433819D02*
X83313923Y-67386200D01*
X83313923Y-67386200D02*
X83361542Y-67338580D01*
X83361542Y-67338580D02*
X83361542Y-67433819D01*
X83837732Y-67433819D02*
X83837732Y-66433819D01*
X83837732Y-66814771D02*
X83932970Y-66767152D01*
X83932970Y-66767152D02*
X84123446Y-66767152D01*
X84123446Y-66767152D02*
X84218684Y-66814771D01*
X84218684Y-66814771D02*
X84266303Y-66862390D01*
X84266303Y-66862390D02*
X84313922Y-66957628D01*
X84313922Y-66957628D02*
X84313922Y-67243342D01*
X84313922Y-67243342D02*
X84266303Y-67338580D01*
X84266303Y-67338580D02*
X84218684Y-67386200D01*
X84218684Y-67386200D02*
X84123446Y-67433819D01*
X84123446Y-67433819D02*
X83932970Y-67433819D01*
X83932970Y-67433819D02*
X83837732Y-67386200D01*
X85123446Y-67386200D02*
X85028208Y-67433819D01*
X85028208Y-67433819D02*
X84837732Y-67433819D01*
X84837732Y-67433819D02*
X84742494Y-67386200D01*
X84742494Y-67386200D02*
X84694875Y-67290961D01*
X84694875Y-67290961D02*
X84694875Y-66910009D01*
X84694875Y-66910009D02*
X84742494Y-66814771D01*
X84742494Y-66814771D02*
X84837732Y-66767152D01*
X84837732Y-66767152D02*
X85028208Y-66767152D01*
X85028208Y-66767152D02*
X85123446Y-66814771D01*
X85123446Y-66814771D02*
X85171065Y-66910009D01*
X85171065Y-66910009D02*
X85171065Y-67005247D01*
X85171065Y-67005247D02*
X84694875Y-67100485D01*
X85599637Y-67433819D02*
X85599637Y-66767152D01*
X85599637Y-66957628D02*
X85647256Y-66862390D01*
X85647256Y-66862390D02*
X85694875Y-66814771D01*
X85694875Y-66814771D02*
X85790113Y-66767152D01*
X85790113Y-66767152D02*
X85885351Y-66767152D01*
X86361542Y-67433819D02*
X86266304Y-67386200D01*
X86266304Y-67386200D02*
X86218685Y-67290961D01*
X86218685Y-67290961D02*
X86218685Y-66433819D01*
X86742495Y-67433819D02*
X86742495Y-66767152D01*
X86742495Y-66433819D02*
X86694876Y-66481438D01*
X86694876Y-66481438D02*
X86742495Y-66529057D01*
X86742495Y-66529057D02*
X86790114Y-66481438D01*
X86790114Y-66481438D02*
X86742495Y-66433819D01*
X86742495Y-66433819D02*
X86742495Y-66529057D01*
X87218685Y-66767152D02*
X87218685Y-67433819D01*
X87218685Y-66862390D02*
X87266304Y-66814771D01*
X87266304Y-66814771D02*
X87361542Y-66767152D01*
X87361542Y-66767152D02*
X87504399Y-66767152D01*
X87504399Y-66767152D02*
X87599637Y-66814771D01*
X87599637Y-66814771D02*
X87647256Y-66910009D01*
X87647256Y-66910009D02*
X87647256Y-67433819D01*
X88837732Y-66386200D02*
X87980590Y-67671914D01*
X89028209Y-66767152D02*
X89409161Y-66767152D01*
X89171066Y-67433819D02*
X89171066Y-66576676D01*
X89171066Y-66576676D02*
X89218685Y-66481438D01*
X89218685Y-66481438D02*
X89313923Y-66433819D01*
X89313923Y-66433819D02*
X89409161Y-66433819D01*
X90171066Y-67433819D02*
X90171066Y-66910009D01*
X90171066Y-66910009D02*
X90123447Y-66814771D01*
X90123447Y-66814771D02*
X90028209Y-66767152D01*
X90028209Y-66767152D02*
X89837733Y-66767152D01*
X89837733Y-66767152D02*
X89742495Y-66814771D01*
X90171066Y-67386200D02*
X90075828Y-67433819D01*
X90075828Y-67433819D02*
X89837733Y-67433819D01*
X89837733Y-67433819D02*
X89742495Y-67386200D01*
X89742495Y-67386200D02*
X89694876Y-67290961D01*
X89694876Y-67290961D02*
X89694876Y-67195723D01*
X89694876Y-67195723D02*
X89742495Y-67100485D01*
X89742495Y-67100485D02*
X89837733Y-67052866D01*
X89837733Y-67052866D02*
X90075828Y-67052866D01*
X90075828Y-67052866D02*
X90171066Y-67005247D01*
X90647257Y-67433819D02*
X90647257Y-66433819D01*
X90647257Y-66814771D02*
X90742495Y-66767152D01*
X90742495Y-66767152D02*
X90932971Y-66767152D01*
X90932971Y-66767152D02*
X91028209Y-66814771D01*
X91028209Y-66814771D02*
X91075828Y-66862390D01*
X91075828Y-66862390D02*
X91123447Y-66957628D01*
X91123447Y-66957628D02*
X91123447Y-67243342D01*
X91123447Y-67243342D02*
X91075828Y-67338580D01*
X91075828Y-67338580D02*
X91028209Y-67386200D01*
X91028209Y-67386200D02*
X90932971Y-67433819D01*
X90932971Y-67433819D02*
X90742495Y-67433819D01*
X90742495Y-67433819D02*
X90647257Y-67386200D01*
X91694876Y-67433819D02*
X91599638Y-67386200D01*
X91599638Y-67386200D02*
X91552019Y-67290961D01*
X91552019Y-67290961D02*
X91552019Y-66433819D01*
X92504400Y-67433819D02*
X92504400Y-66910009D01*
X92504400Y-66910009D02*
X92456781Y-66814771D01*
X92456781Y-66814771D02*
X92361543Y-66767152D01*
X92361543Y-66767152D02*
X92171067Y-66767152D01*
X92171067Y-66767152D02*
X92075829Y-66814771D01*
X92504400Y-67386200D02*
X92409162Y-67433819D01*
X92409162Y-67433819D02*
X92171067Y-67433819D01*
X92171067Y-67433819D02*
X92075829Y-67386200D01*
X92075829Y-67386200D02*
X92028210Y-67290961D01*
X92028210Y-67290961D02*
X92028210Y-67195723D01*
X92028210Y-67195723D02*
X92075829Y-67100485D01*
X92075829Y-67100485D02*
X92171067Y-67052866D01*
X92171067Y-67052866D02*
X92409162Y-67052866D01*
X92409162Y-67052866D02*
X92504400Y-67005247D01*
X92980591Y-67433819D02*
X92980591Y-66433819D01*
X92980591Y-66814771D02*
X93075829Y-66767152D01*
X93075829Y-66767152D02*
X93266305Y-66767152D01*
X93266305Y-66767152D02*
X93361543Y-66814771D01*
X93361543Y-66814771D02*
X93409162Y-66862390D01*
X93409162Y-66862390D02*
X93456781Y-66957628D01*
X93456781Y-66957628D02*
X93456781Y-67243342D01*
X93456781Y-67243342D02*
X93409162Y-67338580D01*
X93409162Y-67338580D02*
X93361543Y-67386200D01*
X93361543Y-67386200D02*
X93266305Y-67433819D01*
X93266305Y-67433819D02*
X93075829Y-67433819D01*
X93075829Y-67433819D02*
X92980591Y-67386200D01*
X82061255Y-58727875D02*
X82251731Y-58727875D01*
X82251731Y-58727875D02*
X82346969Y-58775494D01*
X82346969Y-58775494D02*
X82442207Y-58870732D01*
X82442207Y-58870732D02*
X82489826Y-59061208D01*
X82489826Y-59061208D02*
X82489826Y-59394541D01*
X82489826Y-59394541D02*
X82442207Y-59585017D01*
X82442207Y-59585017D02*
X82346969Y-59680256D01*
X82346969Y-59680256D02*
X82251731Y-59727875D01*
X82251731Y-59727875D02*
X82061255Y-59727875D01*
X82061255Y-59727875D02*
X81966017Y-59680256D01*
X81966017Y-59680256D02*
X81870779Y-59585017D01*
X81870779Y-59585017D02*
X81823160Y-59394541D01*
X81823160Y-59394541D02*
X81823160Y-59061208D01*
X81823160Y-59061208D02*
X81870779Y-58870732D01*
X81870779Y-58870732D02*
X81966017Y-58775494D01*
X81966017Y-58775494D02*
X82061255Y-58727875D01*
X83489826Y-59727875D02*
X83156493Y-59251684D01*
X82918398Y-59727875D02*
X82918398Y-58727875D01*
X82918398Y-58727875D02*
X83299350Y-58727875D01*
X83299350Y-58727875D02*
X83394588Y-58775494D01*
X83394588Y-58775494D02*
X83442207Y-58823113D01*
X83442207Y-58823113D02*
X83489826Y-58918351D01*
X83489826Y-58918351D02*
X83489826Y-59061208D01*
X83489826Y-59061208D02*
X83442207Y-59156446D01*
X83442207Y-59156446D02*
X83394588Y-59204065D01*
X83394588Y-59204065D02*
X83299350Y-59251684D01*
X83299350Y-59251684D02*
X82918398Y-59251684D01*
X83918398Y-59727875D02*
X83918398Y-58727875D01*
X84918397Y-58775494D02*
X84823159Y-58727875D01*
X84823159Y-58727875D02*
X84680302Y-58727875D01*
X84680302Y-58727875D02*
X84537445Y-58775494D01*
X84537445Y-58775494D02*
X84442207Y-58870732D01*
X84442207Y-58870732D02*
X84394588Y-58965970D01*
X84394588Y-58965970D02*
X84346969Y-59156446D01*
X84346969Y-59156446D02*
X84346969Y-59299303D01*
X84346969Y-59299303D02*
X84394588Y-59489779D01*
X84394588Y-59489779D02*
X84442207Y-59585017D01*
X84442207Y-59585017D02*
X84537445Y-59680256D01*
X84537445Y-59680256D02*
X84680302Y-59727875D01*
X84680302Y-59727875D02*
X84775540Y-59727875D01*
X84775540Y-59727875D02*
X84918397Y-59680256D01*
X84918397Y-59680256D02*
X84966016Y-59632636D01*
X84966016Y-59632636D02*
X84966016Y-59299303D01*
X84966016Y-59299303D02*
X84775540Y-59299303D01*
X85394588Y-59727875D02*
X85394588Y-58727875D01*
X85870778Y-59727875D02*
X85870778Y-58727875D01*
X85870778Y-58727875D02*
X86442206Y-59727875D01*
X86442206Y-59727875D02*
X86442206Y-58727875D01*
X86870778Y-59442160D02*
X87346968Y-59442160D01*
X86775540Y-59727875D02*
X87108873Y-58727875D01*
X87108873Y-58727875D02*
X87442206Y-59727875D01*
X88251730Y-59727875D02*
X87775540Y-59727875D01*
X87775540Y-59727875D02*
X87775540Y-58727875D01*
X89346969Y-59727875D02*
X89346969Y-58727875D01*
X89346969Y-58727875D02*
X89585064Y-58727875D01*
X89585064Y-58727875D02*
X89727921Y-58775494D01*
X89727921Y-58775494D02*
X89823159Y-58870732D01*
X89823159Y-58870732D02*
X89870778Y-58965970D01*
X89870778Y-58965970D02*
X89918397Y-59156446D01*
X89918397Y-59156446D02*
X89918397Y-59299303D01*
X89918397Y-59299303D02*
X89870778Y-59489779D01*
X89870778Y-59489779D02*
X89823159Y-59585017D01*
X89823159Y-59585017D02*
X89727921Y-59680256D01*
X89727921Y-59680256D02*
X89585064Y-59727875D01*
X89585064Y-59727875D02*
X89346969Y-59727875D01*
X90346969Y-59204065D02*
X90680302Y-59204065D01*
X90823159Y-59727875D02*
X90346969Y-59727875D01*
X90346969Y-59727875D02*
X90346969Y-58727875D01*
X90346969Y-58727875D02*
X90823159Y-58727875D01*
X91204112Y-59680256D02*
X91346969Y-59727875D01*
X91346969Y-59727875D02*
X91585064Y-59727875D01*
X91585064Y-59727875D02*
X91680302Y-59680256D01*
X91680302Y-59680256D02*
X91727921Y-59632636D01*
X91727921Y-59632636D02*
X91775540Y-59537398D01*
X91775540Y-59537398D02*
X91775540Y-59442160D01*
X91775540Y-59442160D02*
X91727921Y-59346922D01*
X91727921Y-59346922D02*
X91680302Y-59299303D01*
X91680302Y-59299303D02*
X91585064Y-59251684D01*
X91585064Y-59251684D02*
X91394588Y-59204065D01*
X91394588Y-59204065D02*
X91299350Y-59156446D01*
X91299350Y-59156446D02*
X91251731Y-59108827D01*
X91251731Y-59108827D02*
X91204112Y-59013589D01*
X91204112Y-59013589D02*
X91204112Y-58918351D01*
X91204112Y-58918351D02*
X91251731Y-58823113D01*
X91251731Y-58823113D02*
X91299350Y-58775494D01*
X91299350Y-58775494D02*
X91394588Y-58727875D01*
X91394588Y-58727875D02*
X91632683Y-58727875D01*
X91632683Y-58727875D02*
X91775540Y-58775494D01*
X92204112Y-59727875D02*
X92204112Y-58727875D01*
X93204111Y-58775494D02*
X93108873Y-58727875D01*
X93108873Y-58727875D02*
X92966016Y-58727875D01*
X92966016Y-58727875D02*
X92823159Y-58775494D01*
X92823159Y-58775494D02*
X92727921Y-58870732D01*
X92727921Y-58870732D02*
X92680302Y-58965970D01*
X92680302Y-58965970D02*
X92632683Y-59156446D01*
X92632683Y-59156446D02*
X92632683Y-59299303D01*
X92632683Y-59299303D02*
X92680302Y-59489779D01*
X92680302Y-59489779D02*
X92727921Y-59585017D01*
X92727921Y-59585017D02*
X92823159Y-59680256D01*
X92823159Y-59680256D02*
X92966016Y-59727875D01*
X92966016Y-59727875D02*
X93061254Y-59727875D01*
X93061254Y-59727875D02*
X93204111Y-59680256D01*
X93204111Y-59680256D02*
X93251730Y-59632636D01*
X93251730Y-59632636D02*
X93251730Y-59299303D01*
X93251730Y-59299303D02*
X93061254Y-59299303D01*
X93680302Y-59727875D02*
X93680302Y-58727875D01*
X93680302Y-58727875D02*
X94251730Y-59727875D01*
X94251730Y-59727875D02*
X94251730Y-58727875D01*
X95823159Y-59204065D02*
X95966016Y-59251684D01*
X95966016Y-59251684D02*
X96013635Y-59299303D01*
X96013635Y-59299303D02*
X96061254Y-59394541D01*
X96061254Y-59394541D02*
X96061254Y-59537398D01*
X96061254Y-59537398D02*
X96013635Y-59632636D01*
X96013635Y-59632636D02*
X95966016Y-59680256D01*
X95966016Y-59680256D02*
X95870778Y-59727875D01*
X95870778Y-59727875D02*
X95489826Y-59727875D01*
X95489826Y-59727875D02*
X95489826Y-58727875D01*
X95489826Y-58727875D02*
X95823159Y-58727875D01*
X95823159Y-58727875D02*
X95918397Y-58775494D01*
X95918397Y-58775494D02*
X95966016Y-58823113D01*
X95966016Y-58823113D02*
X96013635Y-58918351D01*
X96013635Y-58918351D02*
X96013635Y-59013589D01*
X96013635Y-59013589D02*
X95966016Y-59108827D01*
X95966016Y-59108827D02*
X95918397Y-59156446D01*
X95918397Y-59156446D02*
X95823159Y-59204065D01*
X95823159Y-59204065D02*
X95489826Y-59204065D01*
X96680302Y-59251684D02*
X96680302Y-59727875D01*
X96346969Y-58727875D02*
X96680302Y-59251684D01*
X96680302Y-59251684D02*
X97013635Y-58727875D01*
X81870779Y-61337819D02*
X81870779Y-60337819D01*
X81870779Y-60814009D02*
X82442207Y-60814009D01*
X82442207Y-61337819D02*
X82442207Y-60337819D01*
X82870779Y-61052104D02*
X83346969Y-61052104D01*
X82775541Y-61337819D02*
X83108874Y-60337819D01*
X83108874Y-60337819D02*
X83442207Y-61337819D01*
X84299350Y-60385438D02*
X84204112Y-60337819D01*
X84204112Y-60337819D02*
X84061255Y-60337819D01*
X84061255Y-60337819D02*
X83918398Y-60385438D01*
X83918398Y-60385438D02*
X83823160Y-60480676D01*
X83823160Y-60480676D02*
X83775541Y-60575914D01*
X83775541Y-60575914D02*
X83727922Y-60766390D01*
X83727922Y-60766390D02*
X83727922Y-60909247D01*
X83727922Y-60909247D02*
X83775541Y-61099723D01*
X83775541Y-61099723D02*
X83823160Y-61194961D01*
X83823160Y-61194961D02*
X83918398Y-61290200D01*
X83918398Y-61290200D02*
X84061255Y-61337819D01*
X84061255Y-61337819D02*
X84156493Y-61337819D01*
X84156493Y-61337819D02*
X84299350Y-61290200D01*
X84299350Y-61290200D02*
X84346969Y-61242580D01*
X84346969Y-61242580D02*
X84346969Y-60909247D01*
X84346969Y-60909247D02*
X84156493Y-60909247D01*
X84775541Y-61337819D02*
X84775541Y-60337819D01*
X85156493Y-60337819D02*
X85394588Y-61337819D01*
X85394588Y-61337819D02*
X85585064Y-60623533D01*
X85585064Y-60623533D02*
X85775540Y-61337819D01*
X85775540Y-61337819D02*
X86013636Y-60337819D01*
X86585064Y-60337819D02*
X86775540Y-60337819D01*
X86775540Y-60337819D02*
X86870778Y-60385438D01*
X86870778Y-60385438D02*
X86966016Y-60480676D01*
X86966016Y-60480676D02*
X87013635Y-60671152D01*
X87013635Y-60671152D02*
X87013635Y-61004485D01*
X87013635Y-61004485D02*
X86966016Y-61194961D01*
X86966016Y-61194961D02*
X86870778Y-61290200D01*
X86870778Y-61290200D02*
X86775540Y-61337819D01*
X86775540Y-61337819D02*
X86585064Y-61337819D01*
X86585064Y-61337819D02*
X86489826Y-61290200D01*
X86489826Y-61290200D02*
X86394588Y-61194961D01*
X86394588Y-61194961D02*
X86346969Y-61004485D01*
X86346969Y-61004485D02*
X86346969Y-60671152D01*
X86346969Y-60671152D02*
X86394588Y-60480676D01*
X86394588Y-60480676D02*
X86489826Y-60385438D01*
X86489826Y-60385438D02*
X86585064Y-60337819D01*
X88918397Y-60290200D02*
X88061255Y-61575914D01*
X90013636Y-61337819D02*
X90013636Y-60337819D01*
X90013636Y-60337819D02*
X90251731Y-60337819D01*
X90251731Y-60337819D02*
X90394588Y-60385438D01*
X90394588Y-60385438D02*
X90489826Y-60480676D01*
X90489826Y-60480676D02*
X90537445Y-60575914D01*
X90537445Y-60575914D02*
X90585064Y-60766390D01*
X90585064Y-60766390D02*
X90585064Y-60909247D01*
X90585064Y-60909247D02*
X90537445Y-61099723D01*
X90537445Y-61099723D02*
X90489826Y-61194961D01*
X90489826Y-61194961D02*
X90394588Y-61290200D01*
X90394588Y-61290200D02*
X90251731Y-61337819D01*
X90251731Y-61337819D02*
X90013636Y-61337819D01*
X91204112Y-60337819D02*
X91394588Y-60337819D01*
X91394588Y-60337819D02*
X91489826Y-60385438D01*
X91489826Y-60385438D02*
X91585064Y-60480676D01*
X91585064Y-60480676D02*
X91632683Y-60671152D01*
X91632683Y-60671152D02*
X91632683Y-61004485D01*
X91632683Y-61004485D02*
X91585064Y-61194961D01*
X91585064Y-61194961D02*
X91489826Y-61290200D01*
X91489826Y-61290200D02*
X91394588Y-61337819D01*
X91394588Y-61337819D02*
X91204112Y-61337819D01*
X91204112Y-61337819D02*
X91108874Y-61290200D01*
X91108874Y-61290200D02*
X91013636Y-61194961D01*
X91013636Y-61194961D02*
X90966017Y-61004485D01*
X90966017Y-61004485D02*
X90966017Y-60671152D01*
X90966017Y-60671152D02*
X91013636Y-60480676D01*
X91013636Y-60480676D02*
X91108874Y-60385438D01*
X91108874Y-60385438D02*
X91204112Y-60337819D01*
X92061255Y-60814009D02*
X92394588Y-60814009D01*
X92537445Y-61337819D02*
X92061255Y-61337819D01*
X92061255Y-61337819D02*
X92061255Y-60337819D01*
X92061255Y-60337819D02*
X92537445Y-60337819D01*
X92966017Y-61337819D02*
X92966017Y-60337819D01*
X92966017Y-60337819D02*
X93346969Y-60337819D01*
X93346969Y-60337819D02*
X93442207Y-60385438D01*
X93442207Y-60385438D02*
X93489826Y-60433057D01*
X93489826Y-60433057D02*
X93537445Y-60528295D01*
X93537445Y-60528295D02*
X93537445Y-60671152D01*
X93537445Y-60671152D02*
X93489826Y-60766390D01*
X93489826Y-60766390D02*
X93442207Y-60814009D01*
X93442207Y-60814009D02*
X93346969Y-60861628D01*
X93346969Y-60861628D02*
X92966017Y-60861628D01*
X94299350Y-60814009D02*
X93966017Y-60814009D01*
X93966017Y-61337819D02*
X93966017Y-60337819D01*
X93966017Y-60337819D02*
X94442207Y-60337819D01*
X94823160Y-60814009D02*
X95156493Y-60814009D01*
X95299350Y-61337819D02*
X94823160Y-61337819D01*
X94823160Y-61337819D02*
X94823160Y-60337819D01*
X94823160Y-60337819D02*
X95299350Y-60337819D01*
X96299350Y-61337819D02*
X95966017Y-60861628D01*
X95727922Y-61337819D02*
X95727922Y-60337819D01*
X95727922Y-60337819D02*
X96108874Y-60337819D01*
X96108874Y-60337819D02*
X96204112Y-60385438D01*
X96204112Y-60385438D02*
X96251731Y-60433057D01*
X96251731Y-60433057D02*
X96299350Y-60528295D01*
X96299350Y-60528295D02*
X96299350Y-60671152D01*
X96299350Y-60671152D02*
X96251731Y-60766390D01*
X96251731Y-60766390D02*
X96204112Y-60814009D01*
X96204112Y-60814009D02*
X96108874Y-60861628D01*
X96108874Y-60861628D02*
X95727922Y-60861628D01*
X84191048Y-90952819D02*
X84191048Y-89952819D01*
X84667238Y-90952819D02*
X84667238Y-89952819D01*
X84667238Y-89952819D02*
X85238666Y-90952819D01*
X85238666Y-90952819D02*
X85238666Y-89952819D01*
X86381524Y-89952819D02*
X87000571Y-89952819D01*
X87000571Y-89952819D02*
X86667238Y-90333771D01*
X86667238Y-90333771D02*
X86810095Y-90333771D01*
X86810095Y-90333771D02*
X86905333Y-90381390D01*
X86905333Y-90381390D02*
X86952952Y-90429009D01*
X86952952Y-90429009D02*
X87000571Y-90524247D01*
X87000571Y-90524247D02*
X87000571Y-90762342D01*
X87000571Y-90762342D02*
X86952952Y-90857580D01*
X86952952Y-90857580D02*
X86905333Y-90905200D01*
X86905333Y-90905200D02*
X86810095Y-90952819D01*
X86810095Y-90952819D02*
X86524381Y-90952819D01*
X86524381Y-90952819D02*
X86429143Y-90905200D01*
X86429143Y-90905200D02*
X86381524Y-90857580D01*
X88723333Y-108224819D02*
X88151905Y-108224819D01*
X88437619Y-108224819D02*
X88437619Y-107224819D01*
X88437619Y-107224819D02*
X88342381Y-107367676D01*
X88342381Y-107367676D02*
X88247143Y-107462914D01*
X88247143Y-107462914D02*
X88151905Y-107510533D01*
X89342381Y-107224819D02*
X89437619Y-107224819D01*
X89437619Y-107224819D02*
X89532857Y-107272438D01*
X89532857Y-107272438D02*
X89580476Y-107320057D01*
X89580476Y-107320057D02*
X89628095Y-107415295D01*
X89628095Y-107415295D02*
X89675714Y-107605771D01*
X89675714Y-107605771D02*
X89675714Y-107843866D01*
X89675714Y-107843866D02*
X89628095Y-108034342D01*
X89628095Y-108034342D02*
X89580476Y-108129580D01*
X89580476Y-108129580D02*
X89532857Y-108177200D01*
X89532857Y-108177200D02*
X89437619Y-108224819D01*
X89437619Y-108224819D02*
X89342381Y-108224819D01*
X89342381Y-108224819D02*
X89247143Y-108177200D01*
X89247143Y-108177200D02*
X89199524Y-108129580D01*
X89199524Y-108129580D02*
X89151905Y-108034342D01*
X89151905Y-108034342D02*
X89104286Y-107843866D01*
X89104286Y-107843866D02*
X89104286Y-107605771D01*
X89104286Y-107605771D02*
X89151905Y-107415295D01*
X89151905Y-107415295D02*
X89199524Y-107320057D01*
X89199524Y-107320057D02*
X89247143Y-107272438D01*
X89247143Y-107272438D02*
X89342381Y-107224819D01*
X90294762Y-107224819D02*
X90390000Y-107224819D01*
X90390000Y-107224819D02*
X90485238Y-107272438D01*
X90485238Y-107272438D02*
X90532857Y-107320057D01*
X90532857Y-107320057D02*
X90580476Y-107415295D01*
X90580476Y-107415295D02*
X90628095Y-107605771D01*
X90628095Y-107605771D02*
X90628095Y-107843866D01*
X90628095Y-107843866D02*
X90580476Y-108034342D01*
X90580476Y-108034342D02*
X90532857Y-108129580D01*
X90532857Y-108129580D02*
X90485238Y-108177200D01*
X90485238Y-108177200D02*
X90390000Y-108224819D01*
X90390000Y-108224819D02*
X90294762Y-108224819D01*
X90294762Y-108224819D02*
X90199524Y-108177200D01*
X90199524Y-108177200D02*
X90151905Y-108129580D01*
X90151905Y-108129580D02*
X90104286Y-108034342D01*
X90104286Y-108034342D02*
X90056667Y-107843866D01*
X90056667Y-107843866D02*
X90056667Y-107605771D01*
X90056667Y-107605771D02*
X90104286Y-107415295D01*
X90104286Y-107415295D02*
X90151905Y-107320057D01*
X90151905Y-107320057D02*
X90199524Y-107272438D01*
X90199524Y-107272438D02*
X90294762Y-107224819D01*
X91056667Y-108224819D02*
X91056667Y-107224819D01*
X91628095Y-108224819D02*
X91199524Y-107653390D01*
X91628095Y-107224819D02*
X91056667Y-107796247D01*
X82058152Y-125303809D02*
X82724819Y-125303809D01*
X81677200Y-125541904D02*
X82391485Y-125779999D01*
X82391485Y-125779999D02*
X82391485Y-125160952D01*
X82629580Y-124779999D02*
X82677200Y-124732380D01*
X82677200Y-124732380D02*
X82724819Y-124779999D01*
X82724819Y-124779999D02*
X82677200Y-124827618D01*
X82677200Y-124827618D02*
X82629580Y-124779999D01*
X82629580Y-124779999D02*
X82724819Y-124779999D01*
X81724819Y-124399047D02*
X81724819Y-123732381D01*
X81724819Y-123732381D02*
X82724819Y-124160952D01*
X82724819Y-123351428D02*
X81724819Y-123351428D01*
X82724819Y-122780000D02*
X82153390Y-123208571D01*
X81724819Y-122780000D02*
X82296247Y-123351428D01*
X70856000Y-130592819D02*
X71046476Y-130592819D01*
X71046476Y-130592819D02*
X71141714Y-130640438D01*
X71141714Y-130640438D02*
X71236952Y-130735676D01*
X71236952Y-130735676D02*
X71284571Y-130926152D01*
X71284571Y-130926152D02*
X71284571Y-131259485D01*
X71284571Y-131259485D02*
X71236952Y-131449961D01*
X71236952Y-131449961D02*
X71141714Y-131545200D01*
X71141714Y-131545200D02*
X71046476Y-131592819D01*
X71046476Y-131592819D02*
X70856000Y-131592819D01*
X70856000Y-131592819D02*
X70760762Y-131545200D01*
X70760762Y-131545200D02*
X70665524Y-131449961D01*
X70665524Y-131449961D02*
X70617905Y-131259485D01*
X70617905Y-131259485D02*
X70617905Y-130926152D01*
X70617905Y-130926152D02*
X70665524Y-130735676D01*
X70665524Y-130735676D02*
X70760762Y-130640438D01*
X70760762Y-130640438D02*
X70856000Y-130592819D01*
X71713143Y-130592819D02*
X71713143Y-131402342D01*
X71713143Y-131402342D02*
X71760762Y-131497580D01*
X71760762Y-131497580D02*
X71808381Y-131545200D01*
X71808381Y-131545200D02*
X71903619Y-131592819D01*
X71903619Y-131592819D02*
X72094095Y-131592819D01*
X72094095Y-131592819D02*
X72189333Y-131545200D01*
X72189333Y-131545200D02*
X72236952Y-131497580D01*
X72236952Y-131497580D02*
X72284571Y-131402342D01*
X72284571Y-131402342D02*
X72284571Y-130592819D01*
X72617905Y-130592819D02*
X73189333Y-130592819D01*
X72903619Y-131592819D02*
X72903619Y-130592819D01*
X72419999Y-119400819D02*
X71943809Y-119400819D01*
X71943809Y-119400819D02*
X71943809Y-118400819D01*
X72753333Y-118877009D02*
X73086666Y-118877009D01*
X73229523Y-119400819D02*
X72753333Y-119400819D01*
X72753333Y-119400819D02*
X72753333Y-118400819D01*
X72753333Y-118400819D02*
X73229523Y-118400819D01*
X73515238Y-118400819D02*
X73848571Y-119400819D01*
X73848571Y-119400819D02*
X74181904Y-118400819D01*
X75705714Y-118734152D02*
X75705714Y-119400819D01*
X75467619Y-118353200D02*
X75229524Y-119067485D01*
X75229524Y-119067485D02*
X75848571Y-119067485D01*
X76229524Y-119305580D02*
X76277143Y-119353200D01*
X76277143Y-119353200D02*
X76229524Y-119400819D01*
X76229524Y-119400819D02*
X76181905Y-119353200D01*
X76181905Y-119353200D02*
X76229524Y-119305580D01*
X76229524Y-119305580D02*
X76229524Y-119400819D01*
X76229524Y-118781771D02*
X76277143Y-118829390D01*
X76277143Y-118829390D02*
X76229524Y-118877009D01*
X76229524Y-118877009D02*
X76181905Y-118829390D01*
X76181905Y-118829390D02*
X76229524Y-118781771D01*
X76229524Y-118781771D02*
X76229524Y-118877009D01*
X77991428Y-119400819D02*
X77420000Y-119400819D01*
X77705714Y-119400819D02*
X77705714Y-118400819D01*
X77705714Y-118400819D02*
X77610476Y-118543676D01*
X77610476Y-118543676D02*
X77515238Y-118638914D01*
X77515238Y-118638914D02*
X77420000Y-118686533D01*
X78610476Y-118400819D02*
X78705714Y-118400819D01*
X78705714Y-118400819D02*
X78800952Y-118448438D01*
X78800952Y-118448438D02*
X78848571Y-118496057D01*
X78848571Y-118496057D02*
X78896190Y-118591295D01*
X78896190Y-118591295D02*
X78943809Y-118781771D01*
X78943809Y-118781771D02*
X78943809Y-119019866D01*
X78943809Y-119019866D02*
X78896190Y-119210342D01*
X78896190Y-119210342D02*
X78848571Y-119305580D01*
X78848571Y-119305580D02*
X78800952Y-119353200D01*
X78800952Y-119353200D02*
X78705714Y-119400819D01*
X78705714Y-119400819D02*
X78610476Y-119400819D01*
X78610476Y-119400819D02*
X78515238Y-119353200D01*
X78515238Y-119353200D02*
X78467619Y-119305580D01*
X78467619Y-119305580D02*
X78420000Y-119210342D01*
X78420000Y-119210342D02*
X78372381Y-119019866D01*
X78372381Y-119019866D02*
X78372381Y-118781771D01*
X78372381Y-118781771D02*
X78420000Y-118591295D01*
X78420000Y-118591295D02*
X78467619Y-118496057D01*
X78467619Y-118496057D02*
X78515238Y-118448438D01*
X78515238Y-118448438D02*
X78610476Y-118400819D01*
X79372381Y-119400819D02*
X79372381Y-118400819D01*
X79943809Y-119400819D02*
X79515238Y-118829390D01*
X79943809Y-118400819D02*
X79372381Y-118972247D01*
X88723333Y-105684819D02*
X88151905Y-105684819D01*
X88437619Y-105684819D02*
X88437619Y-104684819D01*
X88437619Y-104684819D02*
X88342381Y-104827676D01*
X88342381Y-104827676D02*
X88247143Y-104922914D01*
X88247143Y-104922914D02*
X88151905Y-104970533D01*
X89342381Y-104684819D02*
X89437619Y-104684819D01*
X89437619Y-104684819D02*
X89532857Y-104732438D01*
X89532857Y-104732438D02*
X89580476Y-104780057D01*
X89580476Y-104780057D02*
X89628095Y-104875295D01*
X89628095Y-104875295D02*
X89675714Y-105065771D01*
X89675714Y-105065771D02*
X89675714Y-105303866D01*
X89675714Y-105303866D02*
X89628095Y-105494342D01*
X89628095Y-105494342D02*
X89580476Y-105589580D01*
X89580476Y-105589580D02*
X89532857Y-105637200D01*
X89532857Y-105637200D02*
X89437619Y-105684819D01*
X89437619Y-105684819D02*
X89342381Y-105684819D01*
X89342381Y-105684819D02*
X89247143Y-105637200D01*
X89247143Y-105637200D02*
X89199524Y-105589580D01*
X89199524Y-105589580D02*
X89151905Y-105494342D01*
X89151905Y-105494342D02*
X89104286Y-105303866D01*
X89104286Y-105303866D02*
X89104286Y-105065771D01*
X89104286Y-105065771D02*
X89151905Y-104875295D01*
X89151905Y-104875295D02*
X89199524Y-104780057D01*
X89199524Y-104780057D02*
X89247143Y-104732438D01*
X89247143Y-104732438D02*
X89342381Y-104684819D01*
X90294762Y-104684819D02*
X90390000Y-104684819D01*
X90390000Y-104684819D02*
X90485238Y-104732438D01*
X90485238Y-104732438D02*
X90532857Y-104780057D01*
X90532857Y-104780057D02*
X90580476Y-104875295D01*
X90580476Y-104875295D02*
X90628095Y-105065771D01*
X90628095Y-105065771D02*
X90628095Y-105303866D01*
X90628095Y-105303866D02*
X90580476Y-105494342D01*
X90580476Y-105494342D02*
X90532857Y-105589580D01*
X90532857Y-105589580D02*
X90485238Y-105637200D01*
X90485238Y-105637200D02*
X90390000Y-105684819D01*
X90390000Y-105684819D02*
X90294762Y-105684819D01*
X90294762Y-105684819D02*
X90199524Y-105637200D01*
X90199524Y-105637200D02*
X90151905Y-105589580D01*
X90151905Y-105589580D02*
X90104286Y-105494342D01*
X90104286Y-105494342D02*
X90056667Y-105303866D01*
X90056667Y-105303866D02*
X90056667Y-105065771D01*
X90056667Y-105065771D02*
X90104286Y-104875295D01*
X90104286Y-104875295D02*
X90151905Y-104780057D01*
X90151905Y-104780057D02*
X90199524Y-104732438D01*
X90199524Y-104732438D02*
X90294762Y-104684819D01*
X91056667Y-105684819D02*
X91056667Y-104684819D01*
X91628095Y-105684819D02*
X91199524Y-105113390D01*
X91628095Y-104684819D02*
X91056667Y-105256247D01*
X91115152Y-146004761D02*
X91781819Y-146004761D01*
X90734200Y-146242856D02*
X91448485Y-146480951D01*
X91448485Y-146480951D02*
X91448485Y-145861904D01*
X91686580Y-145480951D02*
X91734200Y-145433332D01*
X91734200Y-145433332D02*
X91781819Y-145480951D01*
X91781819Y-145480951D02*
X91734200Y-145528570D01*
X91734200Y-145528570D02*
X91686580Y-145480951D01*
X91686580Y-145480951D02*
X91781819Y-145480951D01*
X90781819Y-145099999D02*
X90781819Y-144433333D01*
X90781819Y-144433333D02*
X91781819Y-144861904D01*
X91115152Y-143623809D02*
X91781819Y-143623809D01*
X91115152Y-144052380D02*
X91638961Y-144052380D01*
X91638961Y-144052380D02*
X91734200Y-144004761D01*
X91734200Y-144004761D02*
X91781819Y-143909523D01*
X91781819Y-143909523D02*
X91781819Y-143766666D01*
X91781819Y-143766666D02*
X91734200Y-143671428D01*
X91734200Y-143671428D02*
X91686580Y-143623809D01*
X91258009Y-142814285D02*
X91258009Y-143147618D01*
X91781819Y-143147618D02*
X90781819Y-143147618D01*
X90781819Y-143147618D02*
X90781819Y-142671428D01*
X87770952Y-123734819D02*
X88342380Y-123734819D01*
X88056666Y-124734819D02*
X88056666Y-123734819D01*
X89151904Y-124734819D02*
X88675714Y-124734819D01*
X88675714Y-124734819D02*
X88675714Y-123734819D01*
X89675714Y-123734819D02*
X89770952Y-123734819D01*
X89770952Y-123734819D02*
X89866190Y-123782438D01*
X89866190Y-123782438D02*
X89913809Y-123830057D01*
X89913809Y-123830057D02*
X89961428Y-123925295D01*
X89961428Y-123925295D02*
X90009047Y-124115771D01*
X90009047Y-124115771D02*
X90009047Y-124353866D01*
X90009047Y-124353866D02*
X89961428Y-124544342D01*
X89961428Y-124544342D02*
X89913809Y-124639580D01*
X89913809Y-124639580D02*
X89866190Y-124687200D01*
X89866190Y-124687200D02*
X89770952Y-124734819D01*
X89770952Y-124734819D02*
X89675714Y-124734819D01*
X89675714Y-124734819D02*
X89580476Y-124687200D01*
X89580476Y-124687200D02*
X89532857Y-124639580D01*
X89532857Y-124639580D02*
X89485238Y-124544342D01*
X89485238Y-124544342D02*
X89437619Y-124353866D01*
X89437619Y-124353866D02*
X89437619Y-124115771D01*
X89437619Y-124115771D02*
X89485238Y-123925295D01*
X89485238Y-123925295D02*
X89532857Y-123830057D01*
X89532857Y-123830057D02*
X89580476Y-123782438D01*
X89580476Y-123782438D02*
X89675714Y-123734819D01*
X90342381Y-123734819D02*
X91009047Y-123734819D01*
X91009047Y-123734819D02*
X90580476Y-124734819D01*
X91342381Y-123830057D02*
X91390000Y-123782438D01*
X91390000Y-123782438D02*
X91485238Y-123734819D01*
X91485238Y-123734819D02*
X91723333Y-123734819D01*
X91723333Y-123734819D02*
X91818571Y-123782438D01*
X91818571Y-123782438D02*
X91866190Y-123830057D01*
X91866190Y-123830057D02*
X91913809Y-123925295D01*
X91913809Y-123925295D02*
X91913809Y-124020533D01*
X91913809Y-124020533D02*
X91866190Y-124163390D01*
X91866190Y-124163390D02*
X91294762Y-124734819D01*
X91294762Y-124734819D02*
X91913809Y-124734819D01*
X70747619Y-142171009D02*
X71080952Y-142171009D01*
X71223809Y-142694819D02*
X70747619Y-142694819D01*
X70747619Y-142694819D02*
X70747619Y-141694819D01*
X70747619Y-141694819D02*
X71223809Y-141694819D01*
X71652381Y-141694819D02*
X71652381Y-142504342D01*
X71652381Y-142504342D02*
X71700000Y-142599580D01*
X71700000Y-142599580D02*
X71747619Y-142647200D01*
X71747619Y-142647200D02*
X71842857Y-142694819D01*
X71842857Y-142694819D02*
X72033333Y-142694819D01*
X72033333Y-142694819D02*
X72128571Y-142647200D01*
X72128571Y-142647200D02*
X72176190Y-142599580D01*
X72176190Y-142599580D02*
X72223809Y-142504342D01*
X72223809Y-142504342D02*
X72223809Y-141694819D01*
X73271428Y-142694819D02*
X72938095Y-142218628D01*
X72700000Y-142694819D02*
X72700000Y-141694819D01*
X72700000Y-141694819D02*
X73080952Y-141694819D01*
X73080952Y-141694819D02*
X73176190Y-141742438D01*
X73176190Y-141742438D02*
X73223809Y-141790057D01*
X73223809Y-141790057D02*
X73271428Y-141885295D01*
X73271428Y-141885295D02*
X73271428Y-142028152D01*
X73271428Y-142028152D02*
X73223809Y-142123390D01*
X73223809Y-142123390D02*
X73176190Y-142171009D01*
X73176190Y-142171009D02*
X73080952Y-142218628D01*
X73080952Y-142218628D02*
X72700000Y-142218628D01*
X73890476Y-141694819D02*
X74080952Y-141694819D01*
X74080952Y-141694819D02*
X74176190Y-141742438D01*
X74176190Y-141742438D02*
X74271428Y-141837676D01*
X74271428Y-141837676D02*
X74319047Y-142028152D01*
X74319047Y-142028152D02*
X74319047Y-142361485D01*
X74319047Y-142361485D02*
X74271428Y-142551961D01*
X74271428Y-142551961D02*
X74176190Y-142647200D01*
X74176190Y-142647200D02*
X74080952Y-142694819D01*
X74080952Y-142694819D02*
X73890476Y-142694819D01*
X73890476Y-142694819D02*
X73795238Y-142647200D01*
X73795238Y-142647200D02*
X73700000Y-142551961D01*
X73700000Y-142551961D02*
X73652381Y-142361485D01*
X73652381Y-142361485D02*
X73652381Y-142028152D01*
X73652381Y-142028152D02*
X73700000Y-141837676D01*
X73700000Y-141837676D02*
X73795238Y-141742438D01*
X73795238Y-141742438D02*
X73890476Y-141694819D01*
X74509524Y-142790057D02*
X75271428Y-142790057D01*
X75509524Y-142694819D02*
X75509524Y-141694819D01*
X75509524Y-141694819D02*
X75890476Y-141694819D01*
X75890476Y-141694819D02*
X75985714Y-141742438D01*
X75985714Y-141742438D02*
X76033333Y-141790057D01*
X76033333Y-141790057D02*
X76080952Y-141885295D01*
X76080952Y-141885295D02*
X76080952Y-142028152D01*
X76080952Y-142028152D02*
X76033333Y-142123390D01*
X76033333Y-142123390D02*
X75985714Y-142171009D01*
X75985714Y-142171009D02*
X75890476Y-142218628D01*
X75890476Y-142218628D02*
X75509524Y-142218628D01*
X76414286Y-141694819D02*
X76652381Y-142694819D01*
X76652381Y-142694819D02*
X76842857Y-141980533D01*
X76842857Y-141980533D02*
X77033333Y-142694819D01*
X77033333Y-142694819D02*
X77271429Y-141694819D01*
X78223809Y-142694819D02*
X77890476Y-142218628D01*
X77652381Y-142694819D02*
X77652381Y-141694819D01*
X77652381Y-141694819D02*
X78033333Y-141694819D01*
X78033333Y-141694819D02*
X78128571Y-141742438D01*
X78128571Y-141742438D02*
X78176190Y-141790057D01*
X78176190Y-141790057D02*
X78223809Y-141885295D01*
X78223809Y-141885295D02*
X78223809Y-142028152D01*
X78223809Y-142028152D02*
X78176190Y-142123390D01*
X78176190Y-142123390D02*
X78128571Y-142171009D01*
X78128571Y-142171009D02*
X78033333Y-142218628D01*
X78033333Y-142218628D02*
X77652381Y-142218628D01*
X78414286Y-142790057D02*
X79176190Y-142790057D01*
X79366667Y-141790057D02*
X79414286Y-141742438D01*
X79414286Y-141742438D02*
X79509524Y-141694819D01*
X79509524Y-141694819D02*
X79747619Y-141694819D01*
X79747619Y-141694819D02*
X79842857Y-141742438D01*
X79842857Y-141742438D02*
X79890476Y-141790057D01*
X79890476Y-141790057D02*
X79938095Y-141885295D01*
X79938095Y-141885295D02*
X79938095Y-141980533D01*
X79938095Y-141980533D02*
X79890476Y-142123390D01*
X79890476Y-142123390D02*
X79319048Y-142694819D01*
X79319048Y-142694819D02*
X79938095Y-142694819D01*
X80271429Y-142694819D02*
X80795238Y-142028152D01*
X80271429Y-142028152D02*
X80795238Y-142694819D01*
X81652381Y-141694819D02*
X81176191Y-141694819D01*
X81176191Y-141694819D02*
X81128572Y-142171009D01*
X81128572Y-142171009D02*
X81176191Y-142123390D01*
X81176191Y-142123390D02*
X81271429Y-142075771D01*
X81271429Y-142075771D02*
X81509524Y-142075771D01*
X81509524Y-142075771D02*
X81604762Y-142123390D01*
X81604762Y-142123390D02*
X81652381Y-142171009D01*
X81652381Y-142171009D02*
X81700000Y-142266247D01*
X81700000Y-142266247D02*
X81700000Y-142504342D01*
X81700000Y-142504342D02*
X81652381Y-142599580D01*
X81652381Y-142599580D02*
X81604762Y-142647200D01*
X81604762Y-142647200D02*
X81509524Y-142694819D01*
X81509524Y-142694819D02*
X81271429Y-142694819D01*
X81271429Y-142694819D02*
X81176191Y-142647200D01*
X81176191Y-142647200D02*
X81128572Y-142599580D01*
X85730367Y-140228819D02*
X85254177Y-140228819D01*
X85254177Y-140228819D02*
X85254177Y-139228819D01*
X86063701Y-139705009D02*
X86397034Y-139705009D01*
X86539891Y-140228819D02*
X86063701Y-140228819D01*
X86063701Y-140228819D02*
X86063701Y-139228819D01*
X86063701Y-139228819D02*
X86539891Y-139228819D01*
X86825606Y-139228819D02*
X87158939Y-140228819D01*
X87158939Y-140228819D02*
X87492272Y-139228819D01*
X88016082Y-139228819D02*
X88206558Y-139228819D01*
X88206558Y-139228819D02*
X88301796Y-139276438D01*
X88301796Y-139276438D02*
X88397034Y-139371676D01*
X88397034Y-139371676D02*
X88444653Y-139562152D01*
X88444653Y-139562152D02*
X88444653Y-139895485D01*
X88444653Y-139895485D02*
X88397034Y-140085961D01*
X88397034Y-140085961D02*
X88301796Y-140181200D01*
X88301796Y-140181200D02*
X88206558Y-140228819D01*
X88206558Y-140228819D02*
X88016082Y-140228819D01*
X88016082Y-140228819D02*
X87920844Y-140181200D01*
X87920844Y-140181200D02*
X87825606Y-140085961D01*
X87825606Y-140085961D02*
X87777987Y-139895485D01*
X87777987Y-139895485D02*
X87777987Y-139562152D01*
X87777987Y-139562152D02*
X87825606Y-139371676D01*
X87825606Y-139371676D02*
X87920844Y-139276438D01*
X87920844Y-139276438D02*
X88016082Y-139228819D01*
X88873225Y-139228819D02*
X88873225Y-140038342D01*
X88873225Y-140038342D02*
X88920844Y-140133580D01*
X88920844Y-140133580D02*
X88968463Y-140181200D01*
X88968463Y-140181200D02*
X89063701Y-140228819D01*
X89063701Y-140228819D02*
X89254177Y-140228819D01*
X89254177Y-140228819D02*
X89349415Y-140181200D01*
X89349415Y-140181200D02*
X89397034Y-140133580D01*
X89397034Y-140133580D02*
X89444653Y-140038342D01*
X89444653Y-140038342D02*
X89444653Y-139228819D01*
X89777987Y-139228819D02*
X90349415Y-139228819D01*
X90063701Y-140228819D02*
X90063701Y-139228819D01*
X90682749Y-140133580D02*
X90730368Y-140181200D01*
X90730368Y-140181200D02*
X90682749Y-140228819D01*
X90682749Y-140228819D02*
X90635130Y-140181200D01*
X90635130Y-140181200D02*
X90682749Y-140133580D01*
X90682749Y-140133580D02*
X90682749Y-140228819D01*
X90682749Y-139609771D02*
X90730368Y-139657390D01*
X90730368Y-139657390D02*
X90682749Y-139705009D01*
X90682749Y-139705009D02*
X90635130Y-139657390D01*
X90635130Y-139657390D02*
X90682749Y-139609771D01*
X90682749Y-139609771D02*
X90682749Y-139705009D01*
X91682748Y-140228819D02*
X91111320Y-140228819D01*
X91397034Y-140228819D02*
X91397034Y-139228819D01*
X91397034Y-139228819D02*
X91301796Y-139371676D01*
X91301796Y-139371676D02*
X91206558Y-139466914D01*
X91206558Y-139466914D02*
X91111320Y-139514533D01*
X92301796Y-139228819D02*
X92397034Y-139228819D01*
X92397034Y-139228819D02*
X92492272Y-139276438D01*
X92492272Y-139276438D02*
X92539891Y-139324057D01*
X92539891Y-139324057D02*
X92587510Y-139419295D01*
X92587510Y-139419295D02*
X92635129Y-139609771D01*
X92635129Y-139609771D02*
X92635129Y-139847866D01*
X92635129Y-139847866D02*
X92587510Y-140038342D01*
X92587510Y-140038342D02*
X92539891Y-140133580D01*
X92539891Y-140133580D02*
X92492272Y-140181200D01*
X92492272Y-140181200D02*
X92397034Y-140228819D01*
X92397034Y-140228819D02*
X92301796Y-140228819D01*
X92301796Y-140228819D02*
X92206558Y-140181200D01*
X92206558Y-140181200D02*
X92158939Y-140133580D01*
X92158939Y-140133580D02*
X92111320Y-140038342D01*
X92111320Y-140038342D02*
X92063701Y-139847866D01*
X92063701Y-139847866D02*
X92063701Y-139609771D01*
X92063701Y-139609771D02*
X92111320Y-139419295D01*
X92111320Y-139419295D02*
X92158939Y-139324057D01*
X92158939Y-139324057D02*
X92206558Y-139276438D01*
X92206558Y-139276438D02*
X92301796Y-139228819D01*
X93254177Y-139228819D02*
X93349415Y-139228819D01*
X93349415Y-139228819D02*
X93444653Y-139276438D01*
X93444653Y-139276438D02*
X93492272Y-139324057D01*
X93492272Y-139324057D02*
X93539891Y-139419295D01*
X93539891Y-139419295D02*
X93587510Y-139609771D01*
X93587510Y-139609771D02*
X93587510Y-139847866D01*
X93587510Y-139847866D02*
X93539891Y-140038342D01*
X93539891Y-140038342D02*
X93492272Y-140133580D01*
X93492272Y-140133580D02*
X93444653Y-140181200D01*
X93444653Y-140181200D02*
X93349415Y-140228819D01*
X93349415Y-140228819D02*
X93254177Y-140228819D01*
X93254177Y-140228819D02*
X93158939Y-140181200D01*
X93158939Y-140181200D02*
X93111320Y-140133580D01*
X93111320Y-140133580D02*
X93063701Y-140038342D01*
X93063701Y-140038342D02*
X93016082Y-139847866D01*
X93016082Y-139847866D02*
X93016082Y-139609771D01*
X93016082Y-139609771D02*
X93063701Y-139419295D01*
X93063701Y-139419295D02*
X93111320Y-139324057D01*
X93111320Y-139324057D02*
X93158939Y-139276438D01*
X93158939Y-139276438D02*
X93254177Y-139228819D01*
X94016082Y-140228819D02*
X94016082Y-139228819D01*
X94587510Y-140228819D02*
X94158939Y-139657390D01*
X94587510Y-139228819D02*
X94016082Y-139800247D01*
X88723333Y-87904819D02*
X88151905Y-87904819D01*
X88437619Y-87904819D02*
X88437619Y-86904819D01*
X88437619Y-86904819D02*
X88342381Y-87047676D01*
X88342381Y-87047676D02*
X88247143Y-87142914D01*
X88247143Y-87142914D02*
X88151905Y-87190533D01*
X89342381Y-86904819D02*
X89437619Y-86904819D01*
X89437619Y-86904819D02*
X89532857Y-86952438D01*
X89532857Y-86952438D02*
X89580476Y-87000057D01*
X89580476Y-87000057D02*
X89628095Y-87095295D01*
X89628095Y-87095295D02*
X89675714Y-87285771D01*
X89675714Y-87285771D02*
X89675714Y-87523866D01*
X89675714Y-87523866D02*
X89628095Y-87714342D01*
X89628095Y-87714342D02*
X89580476Y-87809580D01*
X89580476Y-87809580D02*
X89532857Y-87857200D01*
X89532857Y-87857200D02*
X89437619Y-87904819D01*
X89437619Y-87904819D02*
X89342381Y-87904819D01*
X89342381Y-87904819D02*
X89247143Y-87857200D01*
X89247143Y-87857200D02*
X89199524Y-87809580D01*
X89199524Y-87809580D02*
X89151905Y-87714342D01*
X89151905Y-87714342D02*
X89104286Y-87523866D01*
X89104286Y-87523866D02*
X89104286Y-87285771D01*
X89104286Y-87285771D02*
X89151905Y-87095295D01*
X89151905Y-87095295D02*
X89199524Y-87000057D01*
X89199524Y-87000057D02*
X89247143Y-86952438D01*
X89247143Y-86952438D02*
X89342381Y-86904819D01*
X90294762Y-86904819D02*
X90390000Y-86904819D01*
X90390000Y-86904819D02*
X90485238Y-86952438D01*
X90485238Y-86952438D02*
X90532857Y-87000057D01*
X90532857Y-87000057D02*
X90580476Y-87095295D01*
X90580476Y-87095295D02*
X90628095Y-87285771D01*
X90628095Y-87285771D02*
X90628095Y-87523866D01*
X90628095Y-87523866D02*
X90580476Y-87714342D01*
X90580476Y-87714342D02*
X90532857Y-87809580D01*
X90532857Y-87809580D02*
X90485238Y-87857200D01*
X90485238Y-87857200D02*
X90390000Y-87904819D01*
X90390000Y-87904819D02*
X90294762Y-87904819D01*
X90294762Y-87904819D02*
X90199524Y-87857200D01*
X90199524Y-87857200D02*
X90151905Y-87809580D01*
X90151905Y-87809580D02*
X90104286Y-87714342D01*
X90104286Y-87714342D02*
X90056667Y-87523866D01*
X90056667Y-87523866D02*
X90056667Y-87285771D01*
X90056667Y-87285771D02*
X90104286Y-87095295D01*
X90104286Y-87095295D02*
X90151905Y-87000057D01*
X90151905Y-87000057D02*
X90199524Y-86952438D01*
X90199524Y-86952438D02*
X90294762Y-86904819D01*
X91056667Y-87904819D02*
X91056667Y-86904819D01*
X91628095Y-87904819D02*
X91199524Y-87333390D01*
X91628095Y-86904819D02*
X91056667Y-87476247D01*
X72419999Y-58440819D02*
X71943809Y-58440819D01*
X71943809Y-58440819D02*
X71943809Y-57440819D01*
X72753333Y-57917009D02*
X73086666Y-57917009D01*
X73229523Y-58440819D02*
X72753333Y-58440819D01*
X72753333Y-58440819D02*
X72753333Y-57440819D01*
X72753333Y-57440819D02*
X73229523Y-57440819D01*
X73515238Y-57440819D02*
X73848571Y-58440819D01*
X73848571Y-58440819D02*
X74181904Y-57440819D01*
X75800952Y-58440819D02*
X75229524Y-58440819D01*
X75515238Y-58440819D02*
X75515238Y-57440819D01*
X75515238Y-57440819D02*
X75420000Y-57583676D01*
X75420000Y-57583676D02*
X75324762Y-57678914D01*
X75324762Y-57678914D02*
X75229524Y-57726533D01*
X76229524Y-58345580D02*
X76277143Y-58393200D01*
X76277143Y-58393200D02*
X76229524Y-58440819D01*
X76229524Y-58440819D02*
X76181905Y-58393200D01*
X76181905Y-58393200D02*
X76229524Y-58345580D01*
X76229524Y-58345580D02*
X76229524Y-58440819D01*
X76229524Y-57821771D02*
X76277143Y-57869390D01*
X76277143Y-57869390D02*
X76229524Y-57917009D01*
X76229524Y-57917009D02*
X76181905Y-57869390D01*
X76181905Y-57869390D02*
X76229524Y-57821771D01*
X76229524Y-57821771D02*
X76229524Y-57917009D01*
X77991428Y-58440819D02*
X77420000Y-58440819D01*
X77705714Y-58440819D02*
X77705714Y-57440819D01*
X77705714Y-57440819D02*
X77610476Y-57583676D01*
X77610476Y-57583676D02*
X77515238Y-57678914D01*
X77515238Y-57678914D02*
X77420000Y-57726533D01*
X78610476Y-57440819D02*
X78705714Y-57440819D01*
X78705714Y-57440819D02*
X78800952Y-57488438D01*
X78800952Y-57488438D02*
X78848571Y-57536057D01*
X78848571Y-57536057D02*
X78896190Y-57631295D01*
X78896190Y-57631295D02*
X78943809Y-57821771D01*
X78943809Y-57821771D02*
X78943809Y-58059866D01*
X78943809Y-58059866D02*
X78896190Y-58250342D01*
X78896190Y-58250342D02*
X78848571Y-58345580D01*
X78848571Y-58345580D02*
X78800952Y-58393200D01*
X78800952Y-58393200D02*
X78705714Y-58440819D01*
X78705714Y-58440819D02*
X78610476Y-58440819D01*
X78610476Y-58440819D02*
X78515238Y-58393200D01*
X78515238Y-58393200D02*
X78467619Y-58345580D01*
X78467619Y-58345580D02*
X78420000Y-58250342D01*
X78420000Y-58250342D02*
X78372381Y-58059866D01*
X78372381Y-58059866D02*
X78372381Y-57821771D01*
X78372381Y-57821771D02*
X78420000Y-57631295D01*
X78420000Y-57631295D02*
X78467619Y-57536057D01*
X78467619Y-57536057D02*
X78515238Y-57488438D01*
X78515238Y-57488438D02*
X78610476Y-57440819D01*
X79372381Y-58440819D02*
X79372381Y-57440819D01*
X79943809Y-58440819D02*
X79515238Y-57869390D01*
X79943809Y-57440819D02*
X79372381Y-58012247D01*
X96561040Y-150449761D02*
X97227707Y-150449761D01*
X96180088Y-150687856D02*
X96894373Y-150925951D01*
X96894373Y-150925951D02*
X96894373Y-150306904D01*
X97132468Y-149925951D02*
X97180088Y-149878332D01*
X97180088Y-149878332D02*
X97227707Y-149925951D01*
X97227707Y-149925951D02*
X97180088Y-149973570D01*
X97180088Y-149973570D02*
X97132468Y-149925951D01*
X97132468Y-149925951D02*
X97227707Y-149925951D01*
X96227707Y-149544999D02*
X96227707Y-148878333D01*
X96227707Y-148878333D02*
X97227707Y-149306904D01*
X96561040Y-148068809D02*
X97227707Y-148068809D01*
X96561040Y-148497380D02*
X97084849Y-148497380D01*
X97084849Y-148497380D02*
X97180088Y-148449761D01*
X97180088Y-148449761D02*
X97227707Y-148354523D01*
X97227707Y-148354523D02*
X97227707Y-148211666D01*
X97227707Y-148211666D02*
X97180088Y-148116428D01*
X97180088Y-148116428D02*
X97132468Y-148068809D01*
X96703897Y-147259285D02*
X96703897Y-147592618D01*
X97227707Y-147592618D02*
X96227707Y-147592618D01*
X96227707Y-147592618D02*
X96227707Y-147116428D01*
X88723333Y-103144819D02*
X88151905Y-103144819D01*
X88437619Y-103144819D02*
X88437619Y-102144819D01*
X88437619Y-102144819D02*
X88342381Y-102287676D01*
X88342381Y-102287676D02*
X88247143Y-102382914D01*
X88247143Y-102382914D02*
X88151905Y-102430533D01*
X89342381Y-102144819D02*
X89437619Y-102144819D01*
X89437619Y-102144819D02*
X89532857Y-102192438D01*
X89532857Y-102192438D02*
X89580476Y-102240057D01*
X89580476Y-102240057D02*
X89628095Y-102335295D01*
X89628095Y-102335295D02*
X89675714Y-102525771D01*
X89675714Y-102525771D02*
X89675714Y-102763866D01*
X89675714Y-102763866D02*
X89628095Y-102954342D01*
X89628095Y-102954342D02*
X89580476Y-103049580D01*
X89580476Y-103049580D02*
X89532857Y-103097200D01*
X89532857Y-103097200D02*
X89437619Y-103144819D01*
X89437619Y-103144819D02*
X89342381Y-103144819D01*
X89342381Y-103144819D02*
X89247143Y-103097200D01*
X89247143Y-103097200D02*
X89199524Y-103049580D01*
X89199524Y-103049580D02*
X89151905Y-102954342D01*
X89151905Y-102954342D02*
X89104286Y-102763866D01*
X89104286Y-102763866D02*
X89104286Y-102525771D01*
X89104286Y-102525771D02*
X89151905Y-102335295D01*
X89151905Y-102335295D02*
X89199524Y-102240057D01*
X89199524Y-102240057D02*
X89247143Y-102192438D01*
X89247143Y-102192438D02*
X89342381Y-102144819D01*
X90294762Y-102144819D02*
X90390000Y-102144819D01*
X90390000Y-102144819D02*
X90485238Y-102192438D01*
X90485238Y-102192438D02*
X90532857Y-102240057D01*
X90532857Y-102240057D02*
X90580476Y-102335295D01*
X90580476Y-102335295D02*
X90628095Y-102525771D01*
X90628095Y-102525771D02*
X90628095Y-102763866D01*
X90628095Y-102763866D02*
X90580476Y-102954342D01*
X90580476Y-102954342D02*
X90532857Y-103049580D01*
X90532857Y-103049580D02*
X90485238Y-103097200D01*
X90485238Y-103097200D02*
X90390000Y-103144819D01*
X90390000Y-103144819D02*
X90294762Y-103144819D01*
X90294762Y-103144819D02*
X90199524Y-103097200D01*
X90199524Y-103097200D02*
X90151905Y-103049580D01*
X90151905Y-103049580D02*
X90104286Y-102954342D01*
X90104286Y-102954342D02*
X90056667Y-102763866D01*
X90056667Y-102763866D02*
X90056667Y-102525771D01*
X90056667Y-102525771D02*
X90104286Y-102335295D01*
X90104286Y-102335295D02*
X90151905Y-102240057D01*
X90151905Y-102240057D02*
X90199524Y-102192438D01*
X90199524Y-102192438D02*
X90294762Y-102144819D01*
X91056667Y-103144819D02*
X91056667Y-102144819D01*
X91628095Y-103144819D02*
X91199524Y-102573390D01*
X91628095Y-102144819D02*
X91056667Y-102716247D01*
X84191048Y-70632819D02*
X84191048Y-69632819D01*
X84667238Y-70632819D02*
X84667238Y-69632819D01*
X84667238Y-69632819D02*
X85238666Y-70632819D01*
X85238666Y-70632819D02*
X85238666Y-69632819D01*
X86429143Y-69728057D02*
X86476762Y-69680438D01*
X86476762Y-69680438D02*
X86572000Y-69632819D01*
X86572000Y-69632819D02*
X86810095Y-69632819D01*
X86810095Y-69632819D02*
X86905333Y-69680438D01*
X86905333Y-69680438D02*
X86952952Y-69728057D01*
X86952952Y-69728057D02*
X87000571Y-69823295D01*
X87000571Y-69823295D02*
X87000571Y-69918533D01*
X87000571Y-69918533D02*
X86952952Y-70061390D01*
X86952952Y-70061390D02*
X86381524Y-70632819D01*
X86381524Y-70632819D02*
X87000571Y-70632819D01*
X74658095Y-125100057D02*
X74705714Y-125052438D01*
X74705714Y-125052438D02*
X74800952Y-125004819D01*
X74800952Y-125004819D02*
X75039047Y-125004819D01*
X75039047Y-125004819D02*
X75134285Y-125052438D01*
X75134285Y-125052438D02*
X75181904Y-125100057D01*
X75181904Y-125100057D02*
X75229523Y-125195295D01*
X75229523Y-125195295D02*
X75229523Y-125290533D01*
X75229523Y-125290533D02*
X75181904Y-125433390D01*
X75181904Y-125433390D02*
X74610476Y-126004819D01*
X74610476Y-126004819D02*
X75229523Y-126004819D01*
X75610476Y-125100057D02*
X75658095Y-125052438D01*
X75658095Y-125052438D02*
X75753333Y-125004819D01*
X75753333Y-125004819D02*
X75991428Y-125004819D01*
X75991428Y-125004819D02*
X76086666Y-125052438D01*
X76086666Y-125052438D02*
X76134285Y-125100057D01*
X76134285Y-125100057D02*
X76181904Y-125195295D01*
X76181904Y-125195295D02*
X76181904Y-125290533D01*
X76181904Y-125290533D02*
X76134285Y-125433390D01*
X76134285Y-125433390D02*
X75562857Y-126004819D01*
X75562857Y-126004819D02*
X76181904Y-126004819D01*
X76610476Y-126004819D02*
X76610476Y-125004819D01*
X77181904Y-126004819D02*
X76753333Y-125433390D01*
X77181904Y-125004819D02*
X76610476Y-125576247D01*
X72419999Y-99080819D02*
X71943809Y-99080819D01*
X71943809Y-99080819D02*
X71943809Y-98080819D01*
X72753333Y-98557009D02*
X73086666Y-98557009D01*
X73229523Y-99080819D02*
X72753333Y-99080819D01*
X72753333Y-99080819D02*
X72753333Y-98080819D01*
X72753333Y-98080819D02*
X73229523Y-98080819D01*
X73515238Y-98080819D02*
X73848571Y-99080819D01*
X73848571Y-99080819D02*
X74181904Y-98080819D01*
X75181905Y-98080819D02*
X75800952Y-98080819D01*
X75800952Y-98080819D02*
X75467619Y-98461771D01*
X75467619Y-98461771D02*
X75610476Y-98461771D01*
X75610476Y-98461771D02*
X75705714Y-98509390D01*
X75705714Y-98509390D02*
X75753333Y-98557009D01*
X75753333Y-98557009D02*
X75800952Y-98652247D01*
X75800952Y-98652247D02*
X75800952Y-98890342D01*
X75800952Y-98890342D02*
X75753333Y-98985580D01*
X75753333Y-98985580D02*
X75705714Y-99033200D01*
X75705714Y-99033200D02*
X75610476Y-99080819D01*
X75610476Y-99080819D02*
X75324762Y-99080819D01*
X75324762Y-99080819D02*
X75229524Y-99033200D01*
X75229524Y-99033200D02*
X75181905Y-98985580D01*
X76229524Y-98985580D02*
X76277143Y-99033200D01*
X76277143Y-99033200D02*
X76229524Y-99080819D01*
X76229524Y-99080819D02*
X76181905Y-99033200D01*
X76181905Y-99033200D02*
X76229524Y-98985580D01*
X76229524Y-98985580D02*
X76229524Y-99080819D01*
X76229524Y-98461771D02*
X76277143Y-98509390D01*
X76277143Y-98509390D02*
X76229524Y-98557009D01*
X76229524Y-98557009D02*
X76181905Y-98509390D01*
X76181905Y-98509390D02*
X76229524Y-98461771D01*
X76229524Y-98461771D02*
X76229524Y-98557009D01*
X77991428Y-99080819D02*
X77420000Y-99080819D01*
X77705714Y-99080819D02*
X77705714Y-98080819D01*
X77705714Y-98080819D02*
X77610476Y-98223676D01*
X77610476Y-98223676D02*
X77515238Y-98318914D01*
X77515238Y-98318914D02*
X77420000Y-98366533D01*
X78610476Y-98080819D02*
X78705714Y-98080819D01*
X78705714Y-98080819D02*
X78800952Y-98128438D01*
X78800952Y-98128438D02*
X78848571Y-98176057D01*
X78848571Y-98176057D02*
X78896190Y-98271295D01*
X78896190Y-98271295D02*
X78943809Y-98461771D01*
X78943809Y-98461771D02*
X78943809Y-98699866D01*
X78943809Y-98699866D02*
X78896190Y-98890342D01*
X78896190Y-98890342D02*
X78848571Y-98985580D01*
X78848571Y-98985580D02*
X78800952Y-99033200D01*
X78800952Y-99033200D02*
X78705714Y-99080819D01*
X78705714Y-99080819D02*
X78610476Y-99080819D01*
X78610476Y-99080819D02*
X78515238Y-99033200D01*
X78515238Y-99033200D02*
X78467619Y-98985580D01*
X78467619Y-98985580D02*
X78420000Y-98890342D01*
X78420000Y-98890342D02*
X78372381Y-98699866D01*
X78372381Y-98699866D02*
X78372381Y-98461771D01*
X78372381Y-98461771D02*
X78420000Y-98271295D01*
X78420000Y-98271295D02*
X78467619Y-98176057D01*
X78467619Y-98176057D02*
X78515238Y-98128438D01*
X78515238Y-98128438D02*
X78610476Y-98080819D01*
X79372381Y-99080819D02*
X79372381Y-98080819D01*
X79943809Y-99080819D02*
X79515238Y-98509390D01*
X79943809Y-98080819D02*
X79372381Y-98652247D01*
X75705714Y-128544819D02*
X75134286Y-128544819D01*
X75420000Y-128544819D02*
X75420000Y-127544819D01*
X75420000Y-127544819D02*
X75324762Y-127687676D01*
X75324762Y-127687676D02*
X75229524Y-127782914D01*
X75229524Y-127782914D02*
X75134286Y-127830533D01*
X76134286Y-128544819D02*
X76134286Y-127544819D01*
X76705714Y-128544819D02*
X76277143Y-127973390D01*
X76705714Y-127544819D02*
X76134286Y-128116247D01*
X84191048Y-111272819D02*
X84191048Y-110272819D01*
X84667238Y-111272819D02*
X84667238Y-110272819D01*
X84667238Y-110272819D02*
X85238666Y-111272819D01*
X85238666Y-111272819D02*
X85238666Y-110272819D01*
X86905333Y-110606152D02*
X86905333Y-111272819D01*
X86667238Y-110225200D02*
X86429143Y-110939485D01*
X86429143Y-110939485D02*
X87048190Y-110939485D01*
X84064048Y-50439819D02*
X84064048Y-49439819D01*
X84540238Y-50439819D02*
X84540238Y-49439819D01*
X84540238Y-49439819D02*
X85111666Y-50439819D01*
X85111666Y-50439819D02*
X85111666Y-49439819D01*
X86873571Y-50439819D02*
X86302143Y-50439819D01*
X86587857Y-50439819D02*
X86587857Y-49439819D01*
X86587857Y-49439819D02*
X86492619Y-49582676D01*
X86492619Y-49582676D02*
X86397381Y-49677914D01*
X86397381Y-49677914D02*
X86302143Y-49725533D01*
X72419999Y-78760819D02*
X71943809Y-78760819D01*
X71943809Y-78760819D02*
X71943809Y-77760819D01*
X72753333Y-78237009D02*
X73086666Y-78237009D01*
X73229523Y-78760819D02*
X72753333Y-78760819D01*
X72753333Y-78760819D02*
X72753333Y-77760819D01*
X72753333Y-77760819D02*
X73229523Y-77760819D01*
X73515238Y-77760819D02*
X73848571Y-78760819D01*
X73848571Y-78760819D02*
X74181904Y-77760819D01*
X75229524Y-77856057D02*
X75277143Y-77808438D01*
X75277143Y-77808438D02*
X75372381Y-77760819D01*
X75372381Y-77760819D02*
X75610476Y-77760819D01*
X75610476Y-77760819D02*
X75705714Y-77808438D01*
X75705714Y-77808438D02*
X75753333Y-77856057D01*
X75753333Y-77856057D02*
X75800952Y-77951295D01*
X75800952Y-77951295D02*
X75800952Y-78046533D01*
X75800952Y-78046533D02*
X75753333Y-78189390D01*
X75753333Y-78189390D02*
X75181905Y-78760819D01*
X75181905Y-78760819D02*
X75800952Y-78760819D01*
X76229524Y-78665580D02*
X76277143Y-78713200D01*
X76277143Y-78713200D02*
X76229524Y-78760819D01*
X76229524Y-78760819D02*
X76181905Y-78713200D01*
X76181905Y-78713200D02*
X76229524Y-78665580D01*
X76229524Y-78665580D02*
X76229524Y-78760819D01*
X76229524Y-78141771D02*
X76277143Y-78189390D01*
X76277143Y-78189390D02*
X76229524Y-78237009D01*
X76229524Y-78237009D02*
X76181905Y-78189390D01*
X76181905Y-78189390D02*
X76229524Y-78141771D01*
X76229524Y-78141771D02*
X76229524Y-78237009D01*
X77991428Y-78760819D02*
X77420000Y-78760819D01*
X77705714Y-78760819D02*
X77705714Y-77760819D01*
X77705714Y-77760819D02*
X77610476Y-77903676D01*
X77610476Y-77903676D02*
X77515238Y-77998914D01*
X77515238Y-77998914D02*
X77420000Y-78046533D01*
X78610476Y-77760819D02*
X78705714Y-77760819D01*
X78705714Y-77760819D02*
X78800952Y-77808438D01*
X78800952Y-77808438D02*
X78848571Y-77856057D01*
X78848571Y-77856057D02*
X78896190Y-77951295D01*
X78896190Y-77951295D02*
X78943809Y-78141771D01*
X78943809Y-78141771D02*
X78943809Y-78379866D01*
X78943809Y-78379866D02*
X78896190Y-78570342D01*
X78896190Y-78570342D02*
X78848571Y-78665580D01*
X78848571Y-78665580D02*
X78800952Y-78713200D01*
X78800952Y-78713200D02*
X78705714Y-78760819D01*
X78705714Y-78760819D02*
X78610476Y-78760819D01*
X78610476Y-78760819D02*
X78515238Y-78713200D01*
X78515238Y-78713200D02*
X78467619Y-78665580D01*
X78467619Y-78665580D02*
X78420000Y-78570342D01*
X78420000Y-78570342D02*
X78372381Y-78379866D01*
X78372381Y-78379866D02*
X78372381Y-78141771D01*
X78372381Y-78141771D02*
X78420000Y-77951295D01*
X78420000Y-77951295D02*
X78467619Y-77856057D01*
X78467619Y-77856057D02*
X78515238Y-77808438D01*
X78515238Y-77808438D02*
X78610476Y-77760819D01*
X79372381Y-78760819D02*
X79372381Y-77760819D01*
X79943809Y-78760819D02*
X79515238Y-78189390D01*
X79943809Y-77760819D02*
X79372381Y-78332247D01*
X88723333Y-100604819D02*
X88151905Y-100604819D01*
X88437619Y-100604819D02*
X88437619Y-99604819D01*
X88437619Y-99604819D02*
X88342381Y-99747676D01*
X88342381Y-99747676D02*
X88247143Y-99842914D01*
X88247143Y-99842914D02*
X88151905Y-99890533D01*
X89342381Y-99604819D02*
X89437619Y-99604819D01*
X89437619Y-99604819D02*
X89532857Y-99652438D01*
X89532857Y-99652438D02*
X89580476Y-99700057D01*
X89580476Y-99700057D02*
X89628095Y-99795295D01*
X89628095Y-99795295D02*
X89675714Y-99985771D01*
X89675714Y-99985771D02*
X89675714Y-100223866D01*
X89675714Y-100223866D02*
X89628095Y-100414342D01*
X89628095Y-100414342D02*
X89580476Y-100509580D01*
X89580476Y-100509580D02*
X89532857Y-100557200D01*
X89532857Y-100557200D02*
X89437619Y-100604819D01*
X89437619Y-100604819D02*
X89342381Y-100604819D01*
X89342381Y-100604819D02*
X89247143Y-100557200D01*
X89247143Y-100557200D02*
X89199524Y-100509580D01*
X89199524Y-100509580D02*
X89151905Y-100414342D01*
X89151905Y-100414342D02*
X89104286Y-100223866D01*
X89104286Y-100223866D02*
X89104286Y-99985771D01*
X89104286Y-99985771D02*
X89151905Y-99795295D01*
X89151905Y-99795295D02*
X89199524Y-99700057D01*
X89199524Y-99700057D02*
X89247143Y-99652438D01*
X89247143Y-99652438D02*
X89342381Y-99604819D01*
X90294762Y-99604819D02*
X90390000Y-99604819D01*
X90390000Y-99604819D02*
X90485238Y-99652438D01*
X90485238Y-99652438D02*
X90532857Y-99700057D01*
X90532857Y-99700057D02*
X90580476Y-99795295D01*
X90580476Y-99795295D02*
X90628095Y-99985771D01*
X90628095Y-99985771D02*
X90628095Y-100223866D01*
X90628095Y-100223866D02*
X90580476Y-100414342D01*
X90580476Y-100414342D02*
X90532857Y-100509580D01*
X90532857Y-100509580D02*
X90485238Y-100557200D01*
X90485238Y-100557200D02*
X90390000Y-100604819D01*
X90390000Y-100604819D02*
X90294762Y-100604819D01*
X90294762Y-100604819D02*
X90199524Y-100557200D01*
X90199524Y-100557200D02*
X90151905Y-100509580D01*
X90151905Y-100509580D02*
X90104286Y-100414342D01*
X90104286Y-100414342D02*
X90056667Y-100223866D01*
X90056667Y-100223866D02*
X90056667Y-99985771D01*
X90056667Y-99985771D02*
X90104286Y-99795295D01*
X90104286Y-99795295D02*
X90151905Y-99700057D01*
X90151905Y-99700057D02*
X90199524Y-99652438D01*
X90199524Y-99652438D02*
X90294762Y-99604819D01*
X91056667Y-100604819D02*
X91056667Y-99604819D01*
X91628095Y-100604819D02*
X91199524Y-100033390D01*
X91628095Y-99604819D02*
X91056667Y-100176247D01*
%TO.C,J3*%
X83690000Y-89300000D02*
X94590000Y-89300000D01*
X83690000Y-98300000D02*
X83690000Y-89300000D01*
X83690000Y-98300000D02*
X94590000Y-98300000D01*
X88090000Y-93800000D02*
X91690000Y-93800000D01*
X89890000Y-95600000D02*
X89890000Y-92000000D01*
X94590000Y-98300000D02*
X94590000Y-89300000D01*
X91690000Y-93800000D02*
G75*
G02*
X88090000Y-93800000I-1800000J0D01*
G01*
X88090000Y-93800000D02*
G75*
G02*
X91690000Y-93800000I1800000J0D01*
G01*
D12*
%TO.C,R5*%
X86620000Y-106400000D02*
X86620000Y-106730000D01*
X86620000Y-109140000D02*
X86620000Y-108810000D01*
X93160000Y-106400000D02*
X86620000Y-106400000D01*
X93160000Y-106730000D02*
X93160000Y-106400000D01*
X93160000Y-108810000D02*
X93160000Y-109140000D01*
X93160000Y-109140000D02*
X86620000Y-109140000D01*
%TO.C,R7*%
X80900000Y-121010000D02*
X81230000Y-121010000D01*
X80900000Y-127550000D02*
X80900000Y-121010000D01*
X81230000Y-127550000D02*
X80900000Y-127550000D01*
X83310000Y-127550000D02*
X83640000Y-127550000D01*
X83640000Y-121010000D02*
X83310000Y-121010000D01*
X83640000Y-127550000D02*
X83640000Y-121010000D01*
D11*
%TO.C,J5*%
X69720000Y-129940000D02*
X80620000Y-129940000D01*
X69720000Y-138940000D02*
X69720000Y-129940000D01*
X69720000Y-138940000D02*
X80620000Y-138940000D01*
X74120000Y-134440000D02*
X77720000Y-134440000D01*
X75920000Y-136240000D02*
X75920000Y-132640000D01*
X80620000Y-138940000D02*
X80620000Y-129940000D01*
X77720000Y-134440000D02*
G75*
G02*
X74120000Y-134440000I-1800000J0D01*
G01*
X74120000Y-134440000D02*
G75*
G02*
X77720000Y-134440000I1800000J0D01*
G01*
%TO.C,RV4*%
X71170000Y-109270000D02*
X71170000Y-120620000D01*
X71170000Y-109270000D02*
X80670000Y-109270000D01*
X71170000Y-120620000D02*
X80670000Y-120620000D01*
X74650000Y-114120000D02*
X77190000Y-114120000D01*
X75920000Y-112850000D02*
X75920000Y-115390000D01*
X80670000Y-109270000D02*
X80670000Y-120620000D01*
X79095000Y-114120000D02*
G75*
G02*
X72745000Y-114120000I-3175000J0D01*
G01*
X72745000Y-114120000D02*
G75*
G02*
X79095000Y-114120000I3175000J0D01*
G01*
D12*
%TO.C,R4*%
X86620000Y-103860000D02*
X93160000Y-103860000D01*
X86620000Y-104190000D02*
X86620000Y-103860000D01*
X86620000Y-106270000D02*
X86620000Y-106600000D01*
X86620000Y-106600000D02*
X93160000Y-106600000D01*
X93160000Y-103860000D02*
X93160000Y-104190000D01*
X93160000Y-106600000D02*
X93160000Y-106270000D01*
%TO.C,C2*%
X92643000Y-144884000D02*
X92643000Y-144316000D01*
X92683000Y-145118000D02*
X92683000Y-144082000D01*
X92723000Y-145277000D02*
X92723000Y-143923000D01*
X92763000Y-145405000D02*
X92763000Y-143795000D01*
X92803000Y-145515000D02*
X92803000Y-143685000D01*
X92843000Y-145611000D02*
X92843000Y-143589000D01*
X92883000Y-145698000D02*
X92883000Y-143502000D01*
X92923000Y-145778000D02*
X92923000Y-143422000D01*
X92963000Y-143560000D02*
X92963000Y-143349000D01*
X92963000Y-145851000D02*
X92963000Y-145640000D01*
X93003000Y-143560000D02*
X93003000Y-143281000D01*
X93003000Y-145919000D02*
X93003000Y-145640000D01*
X93043000Y-143560000D02*
X93043000Y-143217000D01*
X93043000Y-145983000D02*
X93043000Y-145640000D01*
X93083000Y-143560000D02*
X93083000Y-143157000D01*
X93083000Y-146043000D02*
X93083000Y-145640000D01*
X93123000Y-143560000D02*
X93123000Y-143100000D01*
X93123000Y-146100000D02*
X93123000Y-145640000D01*
X93163000Y-143560000D02*
X93163000Y-143046000D01*
X93163000Y-146154000D02*
X93163000Y-145640000D01*
X93203000Y-143560000D02*
X93203000Y-142995000D01*
X93203000Y-146205000D02*
X93203000Y-145640000D01*
X93243000Y-143560000D02*
X93243000Y-142947000D01*
X93243000Y-146253000D02*
X93243000Y-145640000D01*
X93283000Y-143560000D02*
X93283000Y-142901000D01*
X93283000Y-146299000D02*
X93283000Y-145640000D01*
X93323000Y-143560000D02*
X93323000Y-142857000D01*
X93323000Y-146343000D02*
X93323000Y-145640000D01*
X93363000Y-143560000D02*
X93363000Y-142815000D01*
X93363000Y-146385000D02*
X93363000Y-145640000D01*
X93403000Y-143560000D02*
X93403000Y-142774000D01*
X93403000Y-146426000D02*
X93403000Y-145640000D01*
X93443000Y-143560000D02*
X93443000Y-142736000D01*
X93443000Y-146464000D02*
X93443000Y-145640000D01*
X93483000Y-143560000D02*
X93483000Y-142699000D01*
X93483000Y-146501000D02*
X93483000Y-145640000D01*
X93523000Y-143560000D02*
X93523000Y-142663000D01*
X93523000Y-146537000D02*
X93523000Y-145640000D01*
X93563000Y-143560000D02*
X93563000Y-142629000D01*
X93563000Y-146571000D02*
X93563000Y-145640000D01*
X93603000Y-143560000D02*
X93603000Y-142596000D01*
X93603000Y-146604000D02*
X93603000Y-145640000D01*
X93643000Y-143560000D02*
X93643000Y-142565000D01*
X93643000Y-146635000D02*
X93643000Y-145640000D01*
X93683000Y-143560000D02*
X93683000Y-142535000D01*
X93683000Y-146665000D02*
X93683000Y-145640000D01*
X93723000Y-143560000D02*
X93723000Y-142505000D01*
X93723000Y-146695000D02*
X93723000Y-145640000D01*
X93763000Y-143560000D02*
X93763000Y-142478000D01*
X93763000Y-146722000D02*
X93763000Y-145640000D01*
X93803000Y-143560000D02*
X93803000Y-142451000D01*
X93803000Y-146749000D02*
X93803000Y-145640000D01*
X93843000Y-143560000D02*
X93843000Y-142425000D01*
X93843000Y-146775000D02*
X93843000Y-145640000D01*
X93883000Y-143560000D02*
X93883000Y-142400000D01*
X93883000Y-146800000D02*
X93883000Y-145640000D01*
X93923000Y-143560000D02*
X93923000Y-142376000D01*
X93923000Y-146824000D02*
X93923000Y-145640000D01*
X93963000Y-143560000D02*
X93963000Y-142353000D01*
X93963000Y-146847000D02*
X93963000Y-145640000D01*
X94003000Y-143560000D02*
X94003000Y-142332000D01*
X94003000Y-146868000D02*
X94003000Y-145640000D01*
X94043000Y-143560000D02*
X94043000Y-142310000D01*
X94043000Y-146890000D02*
X94043000Y-145640000D01*
X94083000Y-143560000D02*
X94083000Y-142290000D01*
X94083000Y-146910000D02*
X94083000Y-145640000D01*
X94123000Y-143560000D02*
X94123000Y-142271000D01*
X94123000Y-146929000D02*
X94123000Y-145640000D01*
X94163000Y-143560000D02*
X94163000Y-142252000D01*
X94163000Y-146948000D02*
X94163000Y-145640000D01*
X94203000Y-143560000D02*
X94203000Y-142235000D01*
X94203000Y-146965000D02*
X94203000Y-145640000D01*
X94243000Y-143560000D02*
X94243000Y-142218000D01*
X94243000Y-146982000D02*
X94243000Y-145640000D01*
X94283000Y-143560000D02*
X94283000Y-142202000D01*
X94283000Y-146998000D02*
X94283000Y-145640000D01*
X94323000Y-143560000D02*
X94323000Y-142186000D01*
X94323000Y-147014000D02*
X94323000Y-145640000D01*
X94363000Y-143560000D02*
X94363000Y-142172000D01*
X94363000Y-147028000D02*
X94363000Y-145640000D01*
X94403000Y-143560000D02*
X94403000Y-142158000D01*
X94403000Y-147042000D02*
X94403000Y-145640000D01*
X94443000Y-143560000D02*
X94443000Y-142145000D01*
X94443000Y-147055000D02*
X94443000Y-145640000D01*
X94483000Y-143560000D02*
X94483000Y-142132000D01*
X94483000Y-147068000D02*
X94483000Y-145640000D01*
X94523000Y-143560000D02*
X94523000Y-142120000D01*
X94523000Y-147080000D02*
X94523000Y-145640000D01*
X94564000Y-143560000D02*
X94564000Y-142109000D01*
X94564000Y-147091000D02*
X94564000Y-145640000D01*
X94604000Y-143560000D02*
X94604000Y-142099000D01*
X94604000Y-147101000D02*
X94604000Y-145640000D01*
X94644000Y-143560000D02*
X94644000Y-142089000D01*
X94644000Y-147111000D02*
X94644000Y-145640000D01*
X94684000Y-143560000D02*
X94684000Y-142080000D01*
X94684000Y-147120000D02*
X94684000Y-145640000D01*
X94724000Y-143560000D02*
X94724000Y-142072000D01*
X94724000Y-147128000D02*
X94724000Y-145640000D01*
X94764000Y-143560000D02*
X94764000Y-142064000D01*
X94764000Y-147136000D02*
X94764000Y-145640000D01*
X94804000Y-143560000D02*
X94804000Y-142057000D01*
X94804000Y-147143000D02*
X94804000Y-145640000D01*
X94844000Y-143560000D02*
X94844000Y-142050000D01*
X94844000Y-147150000D02*
X94844000Y-145640000D01*
X94884000Y-143560000D02*
X94884000Y-142044000D01*
X94884000Y-147156000D02*
X94884000Y-145640000D01*
X94924000Y-143560000D02*
X94924000Y-142039000D01*
X94924000Y-147161000D02*
X94924000Y-145640000D01*
X94964000Y-143560000D02*
X94964000Y-142035000D01*
X94964000Y-147165000D02*
X94964000Y-145640000D01*
X95004000Y-143560000D02*
X95004000Y-142031000D01*
X95004000Y-147169000D02*
X95004000Y-145640000D01*
X95044000Y-147173000D02*
X95044000Y-142027000D01*
X95084000Y-147176000D02*
X95084000Y-142024000D01*
X95124000Y-147178000D02*
X95124000Y-142022000D01*
X95164000Y-147179000D02*
X95164000Y-142021000D01*
X95204000Y-147180000D02*
X95204000Y-142020000D01*
X95244000Y-147180000D02*
X95244000Y-142020000D01*
X97798775Y-146325000D02*
X97798775Y-145825000D01*
X98048775Y-146075000D02*
X97548775Y-146075000D01*
X97864000Y-144600000D02*
G75*
G02*
X92624000Y-144600000I-2620000J0D01*
G01*
X92624000Y-144600000D02*
G75*
G02*
X97864000Y-144600000I2620000J0D01*
G01*
%TO.C,U2*%
X84750000Y-121630000D02*
X84750000Y-123280000D01*
X84750000Y-125280000D02*
X84750000Y-126930000D01*
X84750000Y-126930000D02*
X95030000Y-126930000D01*
X95030000Y-121630000D02*
X84750000Y-121630000D01*
X95030000Y-126930000D02*
X95030000Y-121630000D01*
X84750000Y-123280000D02*
G75*
G02*
X84750000Y-125280000I0J-1000000D01*
G01*
%TO.C,J6*%
X69440000Y-143850000D02*
X90020000Y-143850000D01*
X69440000Y-152970000D02*
X69440000Y-143850000D01*
X70740000Y-145160000D02*
X77680000Y-145160000D01*
X70740000Y-151660000D02*
X70740000Y-145160000D01*
X77680000Y-145160000D02*
X77680000Y-143850000D01*
X77680000Y-145160000D02*
X77680000Y-145160000D01*
X81780000Y-143850000D02*
X81780000Y-145160000D01*
X81780000Y-145160000D02*
X88720000Y-145160000D01*
X84310000Y-142460000D02*
X84810000Y-143460000D01*
X84810000Y-143460000D02*
X85310000Y-142460000D01*
X85310000Y-142460000D02*
X84310000Y-142460000D01*
X88720000Y-145160000D02*
X88720000Y-151660000D01*
X88720000Y-151660000D02*
X70740000Y-151660000D01*
X90020000Y-143850000D02*
X90020000Y-152970000D01*
X90020000Y-152970000D02*
X69440000Y-152970000D01*
D11*
%TO.C,RV5*%
X85147034Y-129590000D02*
X85147034Y-140940000D01*
X85147034Y-129590000D02*
X94647034Y-129590000D01*
X85147034Y-140940000D02*
X94647034Y-140940000D01*
X88627034Y-134440000D02*
X91167034Y-134440000D01*
X89897034Y-133170000D02*
X89897034Y-135710000D01*
X94647034Y-129590000D02*
X94647034Y-140940000D01*
X93072034Y-134440000D02*
G75*
G02*
X86722034Y-134440000I-3175000J0D01*
G01*
X86722034Y-134440000D02*
G75*
G02*
X93072034Y-134440000I3175000J0D01*
G01*
D12*
%TO.C,R1*%
X86620000Y-86080000D02*
X93160000Y-86080000D01*
X86620000Y-86410000D02*
X86620000Y-86080000D01*
X86620000Y-88490000D02*
X86620000Y-88820000D01*
X86620000Y-88820000D02*
X93160000Y-88820000D01*
X93160000Y-86080000D02*
X93160000Y-86410000D01*
X93160000Y-88820000D02*
X93160000Y-88490000D01*
D11*
%TO.C,RV1*%
X71170000Y-48310000D02*
X71170000Y-59660000D01*
X71170000Y-48310000D02*
X80670000Y-48310000D01*
X71170000Y-59660000D02*
X80670000Y-59660000D01*
X74650000Y-53160000D02*
X77190000Y-53160000D01*
X75920000Y-51890000D02*
X75920000Y-54430000D01*
X80670000Y-48310000D02*
X80670000Y-59660000D01*
X79095000Y-53160000D02*
G75*
G02*
X72745000Y-53160000I-3175000J0D01*
G01*
X72745000Y-53160000D02*
G75*
G02*
X79095000Y-53160000I3175000J0D01*
G01*
D12*
%TO.C,C1*%
X90571000Y-149964000D02*
X90571000Y-149396000D01*
X90611000Y-150198000D02*
X90611000Y-149162000D01*
X90651000Y-150357000D02*
X90651000Y-149003000D01*
X90691000Y-150485000D02*
X90691000Y-148875000D01*
X90731000Y-150595000D02*
X90731000Y-148765000D01*
X90771000Y-150691000D02*
X90771000Y-148669000D01*
X90811000Y-150778000D02*
X90811000Y-148582000D01*
X90851000Y-150858000D02*
X90851000Y-148502000D01*
X90891000Y-148640000D02*
X90891000Y-148429000D01*
X90891000Y-150931000D02*
X90891000Y-150720000D01*
X90931000Y-148640000D02*
X90931000Y-148361000D01*
X90931000Y-150999000D02*
X90931000Y-150720000D01*
X90971000Y-148640000D02*
X90971000Y-148297000D01*
X90971000Y-151063000D02*
X90971000Y-150720000D01*
X91011000Y-148640000D02*
X91011000Y-148237000D01*
X91011000Y-151123000D02*
X91011000Y-150720000D01*
X91051000Y-148640000D02*
X91051000Y-148180000D01*
X91051000Y-151180000D02*
X91051000Y-150720000D01*
X91091000Y-148640000D02*
X91091000Y-148126000D01*
X91091000Y-151234000D02*
X91091000Y-150720000D01*
X91131000Y-148640000D02*
X91131000Y-148075000D01*
X91131000Y-151285000D02*
X91131000Y-150720000D01*
X91171000Y-148640000D02*
X91171000Y-148027000D01*
X91171000Y-151333000D02*
X91171000Y-150720000D01*
X91211000Y-148640000D02*
X91211000Y-147981000D01*
X91211000Y-151379000D02*
X91211000Y-150720000D01*
X91251000Y-148640000D02*
X91251000Y-147937000D01*
X91251000Y-151423000D02*
X91251000Y-150720000D01*
X91291000Y-148640000D02*
X91291000Y-147895000D01*
X91291000Y-151465000D02*
X91291000Y-150720000D01*
X91331000Y-148640000D02*
X91331000Y-147854000D01*
X91331000Y-151506000D02*
X91331000Y-150720000D01*
X91371000Y-148640000D02*
X91371000Y-147816000D01*
X91371000Y-151544000D02*
X91371000Y-150720000D01*
X91411000Y-148640000D02*
X91411000Y-147779000D01*
X91411000Y-151581000D02*
X91411000Y-150720000D01*
X91451000Y-148640000D02*
X91451000Y-147743000D01*
X91451000Y-151617000D02*
X91451000Y-150720000D01*
X91491000Y-148640000D02*
X91491000Y-147709000D01*
X91491000Y-151651000D02*
X91491000Y-150720000D01*
X91531000Y-148640000D02*
X91531000Y-147676000D01*
X91531000Y-151684000D02*
X91531000Y-150720000D01*
X91571000Y-148640000D02*
X91571000Y-147645000D01*
X91571000Y-151715000D02*
X91571000Y-150720000D01*
X91611000Y-148640000D02*
X91611000Y-147615000D01*
X91611000Y-151745000D02*
X91611000Y-150720000D01*
X91651000Y-148640000D02*
X91651000Y-147585000D01*
X91651000Y-151775000D02*
X91651000Y-150720000D01*
X91691000Y-148640000D02*
X91691000Y-147558000D01*
X91691000Y-151802000D02*
X91691000Y-150720000D01*
X91731000Y-148640000D02*
X91731000Y-147531000D01*
X91731000Y-151829000D02*
X91731000Y-150720000D01*
X91771000Y-148640000D02*
X91771000Y-147505000D01*
X91771000Y-151855000D02*
X91771000Y-150720000D01*
X91811000Y-148640000D02*
X91811000Y-147480000D01*
X91811000Y-151880000D02*
X91811000Y-150720000D01*
X91851000Y-148640000D02*
X91851000Y-147456000D01*
X91851000Y-151904000D02*
X91851000Y-150720000D01*
X91891000Y-148640000D02*
X91891000Y-147433000D01*
X91891000Y-151927000D02*
X91891000Y-150720000D01*
X91931000Y-148640000D02*
X91931000Y-147412000D01*
X91931000Y-151948000D02*
X91931000Y-150720000D01*
X91971000Y-148640000D02*
X91971000Y-147390000D01*
X91971000Y-151970000D02*
X91971000Y-150720000D01*
X92011000Y-148640000D02*
X92011000Y-147370000D01*
X92011000Y-151990000D02*
X92011000Y-150720000D01*
X92051000Y-148640000D02*
X92051000Y-147351000D01*
X92051000Y-152009000D02*
X92051000Y-150720000D01*
X92091000Y-148640000D02*
X92091000Y-147332000D01*
X92091000Y-152028000D02*
X92091000Y-150720000D01*
X92131000Y-148640000D02*
X92131000Y-147315000D01*
X92131000Y-152045000D02*
X92131000Y-150720000D01*
X92171000Y-148640000D02*
X92171000Y-147298000D01*
X92171000Y-152062000D02*
X92171000Y-150720000D01*
X92211000Y-148640000D02*
X92211000Y-147282000D01*
X92211000Y-152078000D02*
X92211000Y-150720000D01*
X92251000Y-148640000D02*
X92251000Y-147266000D01*
X92251000Y-152094000D02*
X92251000Y-150720000D01*
X92291000Y-148640000D02*
X92291000Y-147252000D01*
X92291000Y-152108000D02*
X92291000Y-150720000D01*
X92331000Y-148640000D02*
X92331000Y-147238000D01*
X92331000Y-152122000D02*
X92331000Y-150720000D01*
X92371000Y-148640000D02*
X92371000Y-147225000D01*
X92371000Y-152135000D02*
X92371000Y-150720000D01*
X92411000Y-148640000D02*
X92411000Y-147212000D01*
X92411000Y-152148000D02*
X92411000Y-150720000D01*
X92451000Y-148640000D02*
X92451000Y-147200000D01*
X92451000Y-152160000D02*
X92451000Y-150720000D01*
X92492000Y-148640000D02*
X92492000Y-147189000D01*
X92492000Y-152171000D02*
X92492000Y-150720000D01*
X92532000Y-148640000D02*
X92532000Y-147179000D01*
X92532000Y-152181000D02*
X92532000Y-150720000D01*
X92572000Y-148640000D02*
X92572000Y-147169000D01*
X92572000Y-152191000D02*
X92572000Y-150720000D01*
X92612000Y-148640000D02*
X92612000Y-147160000D01*
X92612000Y-152200000D02*
X92612000Y-150720000D01*
X92652000Y-148640000D02*
X92652000Y-147152000D01*
X92652000Y-152208000D02*
X92652000Y-150720000D01*
X92692000Y-148640000D02*
X92692000Y-147144000D01*
X92692000Y-152216000D02*
X92692000Y-150720000D01*
X92732000Y-148640000D02*
X92732000Y-147137000D01*
X92732000Y-152223000D02*
X92732000Y-150720000D01*
X92772000Y-148640000D02*
X92772000Y-147130000D01*
X92772000Y-152230000D02*
X92772000Y-150720000D01*
X92812000Y-148640000D02*
X92812000Y-147124000D01*
X92812000Y-152236000D02*
X92812000Y-150720000D01*
X92852000Y-148640000D02*
X92852000Y-147119000D01*
X92852000Y-152241000D02*
X92852000Y-150720000D01*
X92892000Y-148640000D02*
X92892000Y-147115000D01*
X92892000Y-152245000D02*
X92892000Y-150720000D01*
X92932000Y-148640000D02*
X92932000Y-147111000D01*
X92932000Y-152249000D02*
X92932000Y-150720000D01*
X92972000Y-152253000D02*
X92972000Y-147107000D01*
X93012000Y-152256000D02*
X93012000Y-147104000D01*
X93052000Y-152258000D02*
X93052000Y-147102000D01*
X93092000Y-152259000D02*
X93092000Y-147101000D01*
X93132000Y-152260000D02*
X93132000Y-147100000D01*
X93172000Y-152260000D02*
X93172000Y-147100000D01*
X95726775Y-151405000D02*
X95726775Y-150905000D01*
X95976775Y-151155000D02*
X95476775Y-151155000D01*
X95792000Y-149680000D02*
G75*
G02*
X90552000Y-149680000I-2620000J0D01*
G01*
X90552000Y-149680000D02*
G75*
G02*
X95792000Y-149680000I2620000J0D01*
G01*
%TO.C,R3*%
X86620000Y-101320000D02*
X93160000Y-101320000D01*
X86620000Y-101650000D02*
X86620000Y-101320000D01*
X86620000Y-103730000D02*
X86620000Y-104060000D01*
X86620000Y-104060000D02*
X93160000Y-104060000D01*
X93160000Y-101320000D02*
X93160000Y-101650000D01*
X93160000Y-104060000D02*
X93160000Y-103730000D01*
D11*
%TO.C,J2*%
X83690000Y-68980000D02*
X94590000Y-68980000D01*
X83690000Y-77980000D02*
X83690000Y-68980000D01*
X83690000Y-77980000D02*
X94590000Y-77980000D01*
X88090000Y-73480000D02*
X91690000Y-73480000D01*
X89890000Y-75280000D02*
X89890000Y-71680000D01*
X94590000Y-77980000D02*
X94590000Y-68980000D01*
X91690000Y-73480000D02*
G75*
G02*
X88090000Y-73480000I-1800000J0D01*
G01*
X88090000Y-73480000D02*
G75*
G02*
X91690000Y-73480000I1800000J0D01*
G01*
D12*
%TO.C,R6*%
X72650000Y-124180000D02*
X79190000Y-124180000D01*
X72650000Y-124510000D02*
X72650000Y-124180000D01*
X72650000Y-126590000D02*
X72650000Y-126920000D01*
X72650000Y-126920000D02*
X79190000Y-126920000D01*
X79190000Y-124180000D02*
X79190000Y-124510000D01*
X79190000Y-126920000D02*
X79190000Y-126590000D01*
D11*
%TO.C,RV3*%
X71170000Y-88950000D02*
X71170000Y-100300000D01*
X71170000Y-88950000D02*
X80670000Y-88950000D01*
X71170000Y-100300000D02*
X80670000Y-100300000D01*
X74650000Y-93800000D02*
X77190000Y-93800000D01*
X75920000Y-92530000D02*
X75920000Y-95070000D01*
X80670000Y-88950000D02*
X80670000Y-100300000D01*
X79095000Y-93800000D02*
G75*
G02*
X72745000Y-93800000I-3175000J0D01*
G01*
X72745000Y-93800000D02*
G75*
G02*
X79095000Y-93800000I3175000J0D01*
G01*
D12*
%TO.C,R8*%
X72650000Y-126720000D02*
X72650000Y-127050000D01*
X72650000Y-129460000D02*
X72650000Y-129130000D01*
X79190000Y-126720000D02*
X72650000Y-126720000D01*
X79190000Y-127050000D02*
X79190000Y-126720000D01*
X79190000Y-129130000D02*
X79190000Y-129460000D01*
X79190000Y-129460000D02*
X72650000Y-129460000D01*
D11*
%TO.C,J4*%
X83690000Y-109620000D02*
X94590000Y-109620000D01*
X83690000Y-118620000D02*
X83690000Y-109620000D01*
X83690000Y-118620000D02*
X94590000Y-118620000D01*
X88090000Y-114120000D02*
X91690000Y-114120000D01*
X89890000Y-115920000D02*
X89890000Y-112320000D01*
X94590000Y-118620000D02*
X94590000Y-109620000D01*
X91690000Y-114120000D02*
G75*
G02*
X88090000Y-114120000I-1800000J0D01*
G01*
X88090000Y-114120000D02*
G75*
G02*
X91690000Y-114120000I1800000J0D01*
G01*
%TO.C,J1*%
X83690000Y-48660000D02*
X94590000Y-48660000D01*
X83690000Y-57660000D02*
X83690000Y-48660000D01*
X83690000Y-57660000D02*
X94590000Y-57660000D01*
X88090000Y-53160000D02*
X91690000Y-53160000D01*
X89890000Y-54960000D02*
X89890000Y-51360000D01*
X94590000Y-57660000D02*
X94590000Y-48660000D01*
X91690000Y-53160000D02*
G75*
G02*
X88090000Y-53160000I-1800000J0D01*
G01*
X88090000Y-53160000D02*
G75*
G02*
X91690000Y-53160000I1800000J0D01*
G01*
%TO.C,RV2*%
X71170000Y-68630000D02*
X71170000Y-79980000D01*
X71170000Y-68630000D02*
X80670000Y-68630000D01*
X71170000Y-79980000D02*
X80670000Y-79980000D01*
X74650000Y-73480000D02*
X77190000Y-73480000D01*
X75920000Y-72210000D02*
X75920000Y-74750000D01*
X80670000Y-68630000D02*
X80670000Y-79980000D01*
X79095000Y-73480000D02*
G75*
G02*
X72745000Y-73480000I-3175000J0D01*
G01*
X72745000Y-73480000D02*
G75*
G02*
X79095000Y-73480000I3175000J0D01*
G01*
D12*
%TO.C,R2*%
X86620000Y-98780000D02*
X93160000Y-98780000D01*
X86620000Y-99110000D02*
X86620000Y-98780000D01*
X86620000Y-101190000D02*
X86620000Y-101520000D01*
X86620000Y-101520000D02*
X93160000Y-101520000D01*
X93160000Y-98780000D02*
X93160000Y-99110000D01*
X93160000Y-101520000D02*
X93160000Y-101190000D01*
%TD*%
D13*
%TO.C,J3*%
X96370000Y-93800000D03*
X84970000Y-93800000D03*
X93270000Y-93800000D03*
%TD*%
%TO.C,J5*%
X82400000Y-134440000D03*
X71000000Y-134440000D03*
X79300000Y-134440000D03*
%TD*%
D14*
%TO.C,RV4*%
X71120000Y-114120000D03*
X80720000Y-114120000D03*
D15*
X73420000Y-121620000D03*
X75920000Y-121620000D03*
X78420000Y-121620000D03*
%TD*%
D14*
%TO.C,RV5*%
X85097034Y-134440000D03*
X94697034Y-134440000D03*
D15*
X87397034Y-141940000D03*
X89897034Y-141940000D03*
X92397034Y-141940000D03*
%TD*%
D14*
%TO.C,RV1*%
X71120000Y-53160000D03*
X80720000Y-53160000D03*
D15*
X73420000Y-60660000D03*
X75920000Y-60660000D03*
X78420000Y-60660000D03*
%TD*%
D13*
%TO.C,J2*%
X96370000Y-73480000D03*
X84970000Y-73480000D03*
X93270000Y-73480000D03*
%TD*%
D14*
%TO.C,RV3*%
X71120000Y-93800000D03*
X80720000Y-93800000D03*
D15*
X73420000Y-101300000D03*
X75920000Y-101300000D03*
X78420000Y-101300000D03*
%TD*%
D13*
%TO.C,J4*%
X96370000Y-114120000D03*
X84970000Y-114120000D03*
X93270000Y-114120000D03*
%TD*%
%TO.C,J1*%
X96370000Y-53160000D03*
X84970000Y-53160000D03*
X93270000Y-53160000D03*
%TD*%
D14*
%TO.C,RV2*%
X71120000Y-73480000D03*
X80720000Y-73480000D03*
D15*
X73420000Y-80980000D03*
X75920000Y-80980000D03*
X78420000Y-80980000D03*
%TD*%
M02*
