%TF.GenerationSoftware,KiCad,Pcbnew,8.0.1-8.0.1-1~ubuntu22.04.1*%
%TF.CreationDate,2024-04-11T21:23:46+02:00*%
%TF.ProjectId,HagiwoEurorackMixer_PCBOnly,48616769-776f-4457-9572-6f7261636b4d,rev?*%
%TF.SameCoordinates,Original*%
%TF.FileFunction,Copper,L1,Top*%
%TF.FilePolarity,Positive*%
%FSLAX46Y46*%
G04 Gerber Fmt 4.6, Leading zero omitted, Abs format (unit mm)*
G04 Created by KiCad (PCBNEW 8.0.1-8.0.1-1~ubuntu22.04.1) date 2024-04-11 21:23:46*
%MOMM*%
%LPD*%
G01*
G04 APERTURE LIST*
G04 Aperture macros list*
%AMRoundRect*
0 Rectangle with rounded corners*
0 $1 Rounding radius*
0 $2 $3 $4 $5 $6 $7 $8 $9 X,Y pos of 4 corners*
0 Add a 4 corners polygon primitive as box body*
4,1,4,$2,$3,$4,$5,$6,$7,$8,$9,$2,$3,0*
0 Add four circle primitives for the rounded corners*
1,1,$1+$1,$2,$3*
1,1,$1+$1,$4,$5*
1,1,$1+$1,$6,$7*
1,1,$1+$1,$8,$9*
0 Add four rect primitives between the rounded corners*
20,1,$1+$1,$2,$3,$4,$5,0*
20,1,$1+$1,$4,$5,$6,$7,0*
20,1,$1+$1,$6,$7,$8,$9,0*
20,1,$1+$1,$8,$9,$2,$3,0*%
G04 Aperture macros list end*
%TA.AperFunction,ComponentPad*%
%ADD10C,1.800000*%
%TD*%
%TA.AperFunction,ComponentPad*%
%ADD11C,1.600000*%
%TD*%
%TA.AperFunction,ComponentPad*%
%ADD12O,1.600000X1.600000*%
%TD*%
%TA.AperFunction,ComponentPad*%
%ADD13C,2.000000*%
%TD*%
%TA.AperFunction,ComponentPad*%
%ADD14C,1.300000*%
%TD*%
%TA.AperFunction,ComponentPad*%
%ADD15R,1.600000X1.600000*%
%TD*%
%TA.AperFunction,ComponentPad*%
%ADD16RoundRect,0.250000X-0.600000X0.600000X-0.600000X-0.600000X0.600000X-0.600000X0.600000X0.600000X0*%
%TD*%
%TA.AperFunction,ComponentPad*%
%ADD17C,1.700000*%
%TD*%
%TA.AperFunction,Conductor*%
%ADD18C,0.250000*%
%TD*%
%TA.AperFunction,Conductor*%
%ADD19C,0.500000*%
%TD*%
G04 APERTURE END LIST*
D10*
%TO.P,J3,S*%
%TO.N,GND*%
X96370000Y-93800000D03*
%TO.P,J3,T*%
%TO.N,Net-(J3-PadT)*%
X84970000Y-93800000D03*
%TO.P,J3,TN*%
%TO.N,unconnected-(J3-PadTN)*%
X93270000Y-93800000D03*
%TD*%
D11*
%TO.P,R5,1*%
%TO.N,Net-(U2A--)*%
X93700000Y-107770000D03*
D12*
%TO.P,R5,2*%
%TO.N,Net-(R5-Pad2)*%
X86080000Y-107770000D03*
%TD*%
D11*
%TO.P,R7,1*%
%TO.N,Net-(R7-Pad1)*%
X82270000Y-128090000D03*
D12*
%TO.P,R7,2*%
%TO.N,Net-(R7-Pad2)*%
X82270000Y-120470000D03*
%TD*%
D10*
%TO.P,J5,S*%
%TO.N,GND*%
X82400000Y-134440000D03*
%TO.P,J5,T*%
%TO.N,Net-(J5-PadT)*%
X71000000Y-134440000D03*
%TO.P,J5,TN*%
%TO.N,unconnected-(J5-PadTN)*%
X79300000Y-134440000D03*
%TD*%
D13*
%TO.P,RV4,*%
%TO.N,*%
X71120000Y-114120000D03*
X80720000Y-114120000D03*
D14*
%TO.P,RV4,1,1*%
%TO.N,Net-(J4-PadT)*%
X73420000Y-121620000D03*
%TO.P,RV4,2,2*%
%TO.N,Net-(R4-Pad1)*%
X75920000Y-121620000D03*
%TO.P,RV4,3,3*%
%TO.N,GND*%
X78420000Y-121620000D03*
%TD*%
D11*
%TO.P,R4,1*%
%TO.N,Net-(R4-Pad1)*%
X86080000Y-105230000D03*
D12*
%TO.P,R4,2*%
%TO.N,Net-(U2A--)*%
X93700000Y-105230000D03*
%TD*%
D15*
%TO.P,C2,1*%
%TO.N,GND*%
X96494000Y-144600000D03*
D11*
%TO.P,C2,2*%
%TO.N,Net-(U2C-V-)*%
X93994000Y-144600000D03*
%TD*%
D15*
%TO.P,U2,1*%
%TO.N,Net-(R5-Pad2)*%
X86080000Y-128090000D03*
D12*
%TO.P,U2,2,-*%
%TO.N,Net-(U2A--)*%
X88620000Y-128090000D03*
%TO.P,U2,3,+*%
%TO.N,GND*%
X91160000Y-128090000D03*
%TO.P,U2,4,V-*%
%TO.N,Net-(U2C-V-)*%
X93700000Y-128090000D03*
%TO.P,U2,5,+*%
%TO.N,GND*%
X93700000Y-120470000D03*
%TO.P,U2,6,-*%
%TO.N,Net-(U2B--)*%
X91160000Y-120470000D03*
%TO.P,U2,7*%
%TO.N,Net-(R7-Pad2)*%
X88620000Y-120470000D03*
%TO.P,U2,8,V+*%
%TO.N,Net-(U2C-V+)*%
X86080000Y-120470000D03*
%TD*%
D16*
%TO.P,J6,1,+12V*%
%TO.N,Net-(U2C-V+)*%
X84810000Y-147140000D03*
D17*
%TO.P,J6,2,+12V*%
X84810000Y-149680000D03*
%TO.P,J6,3,GND*%
%TO.N,GND*%
X82270000Y-147140000D03*
%TO.P,J6,4,GND*%
X82270000Y-149680000D03*
%TO.P,J6,5,GND*%
X79730000Y-147140000D03*
%TO.P,J6,6,GND*%
X79730000Y-149680000D03*
%TO.P,J6,7,GND*%
X77190000Y-147140000D03*
%TO.P,J6,8,GND*%
X77190000Y-149680000D03*
%TO.P,J6,9,-12V*%
%TO.N,Net-(U2C-V-)*%
X74650000Y-147140000D03*
%TO.P,J6,10,-12V*%
X74650000Y-149680000D03*
%TD*%
D13*
%TO.P,RV5,*%
%TO.N,*%
X85097034Y-134440000D03*
X94697034Y-134440000D03*
D14*
%TO.P,RV5,1,1*%
%TO.N,Net-(U2B--)*%
X87397034Y-141940000D03*
%TO.P,RV5,2,2*%
X89897034Y-141940000D03*
%TO.P,RV5,3,3*%
%TO.N,Net-(R7-Pad1)*%
X92397034Y-141940000D03*
%TD*%
D11*
%TO.P,R1,1*%
%TO.N,Net-(R1-Pad1)*%
X86080000Y-87450000D03*
D12*
%TO.P,R1,2*%
%TO.N,Net-(U2A--)*%
X93700000Y-87450000D03*
%TD*%
D13*
%TO.P,RV1,*%
%TO.N,*%
X71120000Y-53160000D03*
X80720000Y-53160000D03*
D14*
%TO.P,RV1,1,1*%
%TO.N,Net-(J1-PadT)*%
X73420000Y-60660000D03*
%TO.P,RV1,2,2*%
%TO.N,Net-(R1-Pad1)*%
X75920000Y-60660000D03*
%TO.P,RV1,3,3*%
%TO.N,GND*%
X78420000Y-60660000D03*
%TD*%
D15*
%TO.P,C1,1*%
%TO.N,Net-(U2C-V+)*%
X94422000Y-149680000D03*
D11*
%TO.P,C1,2*%
%TO.N,GND*%
X91922000Y-149680000D03*
%TD*%
%TO.P,R3,1*%
%TO.N,Net-(R3-Pad1)*%
X86080000Y-102690000D03*
D12*
%TO.P,R3,2*%
%TO.N,Net-(U2A--)*%
X93700000Y-102690000D03*
%TD*%
D10*
%TO.P,J2,S*%
%TO.N,GND*%
X96370000Y-73480000D03*
%TO.P,J2,T*%
%TO.N,Net-(J2-PadT)*%
X84970000Y-73480000D03*
%TO.P,J2,TN*%
%TO.N,unconnected-(J2-PadTN)*%
X93270000Y-73480000D03*
%TD*%
D11*
%TO.P,R6,1*%
%TO.N,Net-(R5-Pad2)*%
X72110000Y-125550000D03*
D12*
%TO.P,R6,2*%
%TO.N,Net-(U2B--)*%
X79730000Y-125550000D03*
%TD*%
D13*
%TO.P,RV3,*%
%TO.N,*%
X71120000Y-93800000D03*
X80720000Y-93800000D03*
D14*
%TO.P,RV3,1,1*%
%TO.N,Net-(J3-PadT)*%
X73420000Y-101300000D03*
%TO.P,RV3,2,2*%
%TO.N,Net-(R3-Pad1)*%
X75920000Y-101300000D03*
%TO.P,RV3,3,3*%
%TO.N,GND*%
X78420000Y-101300000D03*
%TD*%
D11*
%TO.P,R8,1*%
%TO.N,Net-(R7-Pad2)*%
X79730000Y-128090000D03*
D12*
%TO.P,R8,2*%
%TO.N,Net-(J5-PadT)*%
X72110000Y-128090000D03*
%TD*%
D10*
%TO.P,J4,S*%
%TO.N,GND*%
X96370000Y-114120000D03*
%TO.P,J4,T*%
%TO.N,Net-(J4-PadT)*%
X84970000Y-114120000D03*
%TO.P,J4,TN*%
%TO.N,unconnected-(J4-PadTN)*%
X93270000Y-114120000D03*
%TD*%
%TO.P,J1,S*%
%TO.N,GND*%
X96370000Y-53160000D03*
%TO.P,J1,T*%
%TO.N,Net-(J1-PadT)*%
X84970000Y-53160000D03*
%TO.P,J1,TN*%
%TO.N,unconnected-(J1-PadTN)*%
X93270000Y-53160000D03*
%TD*%
D13*
%TO.P,RV2,*%
%TO.N,*%
X71120000Y-73480000D03*
X80720000Y-73480000D03*
D14*
%TO.P,RV2,1,1*%
%TO.N,Net-(J2-PadT)*%
X73420000Y-80980000D03*
%TO.P,RV2,2,2*%
%TO.N,Net-(R2-Pad1)*%
X75920000Y-80980000D03*
%TO.P,RV2,3,3*%
%TO.N,GND*%
X78420000Y-80980000D03*
%TD*%
D11*
%TO.P,R2,1*%
%TO.N,Net-(R2-Pad1)*%
X86080000Y-100150000D03*
D12*
%TO.P,R2,2*%
%TO.N,Net-(U2A--)*%
X93700000Y-100150000D03*
%TD*%
D18*
%TO.N,Net-(J1-PadT)*%
X78445000Y-59685000D02*
X74395000Y-59685000D01*
X84970000Y-53160000D02*
X78445000Y-59685000D01*
X74395000Y-59685000D02*
X73420000Y-60660000D01*
%TO.N,Net-(J2-PadT)*%
X82550000Y-78740000D02*
X84970000Y-76320000D01*
X74339238Y-80980000D02*
X76579238Y-78740000D01*
X73420000Y-80980000D02*
X74339238Y-80980000D01*
X84970000Y-76320000D02*
X84970000Y-73480000D01*
X76579238Y-78740000D02*
X82550000Y-78740000D01*
%TO.N,Net-(J3-PadT)*%
X84970000Y-93800000D02*
X84970000Y-95370000D01*
X81280000Y-99060000D02*
X75660000Y-99060000D01*
X84970000Y-95370000D02*
X81280000Y-99060000D01*
X75660000Y-99060000D02*
X73420000Y-101300000D01*
%TO.N,Net-(J4-PadT)*%
X74395000Y-122595000D02*
X76795000Y-122595000D01*
X84541141Y-114120000D02*
X84970000Y-114120000D01*
X77445000Y-121216141D02*
X84541141Y-114120000D01*
X73420000Y-121620000D02*
X74395000Y-122595000D01*
X76795000Y-122595000D02*
X77445000Y-121945000D01*
X77445000Y-121945000D02*
X77445000Y-121216141D01*
%TO.N,Net-(J5-PadT)*%
X72110000Y-133330000D02*
X72110000Y-128090000D01*
X71000000Y-134440000D02*
X72110000Y-133330000D01*
%TO.N,Net-(U2C-V+)*%
X74438299Y-151130000D02*
X69775000Y-146466701D01*
X69775000Y-146466701D02*
X69775000Y-126294009D01*
X83445000Y-148505000D02*
X76285000Y-148505000D01*
X72244009Y-123825000D02*
X77593859Y-123825000D01*
D19*
X84810000Y-149680000D02*
X84810000Y-147140000D01*
D18*
X76015000Y-149976701D02*
X74861701Y-151130000D01*
X81315000Y-119345000D02*
X84955000Y-119345000D01*
X79395000Y-122023859D02*
X79395000Y-121265000D01*
X79395000Y-121265000D02*
X81315000Y-119345000D01*
D19*
X93172000Y-150930000D02*
X86060000Y-150930000D01*
D18*
X69775000Y-126294009D02*
X72244009Y-123825000D01*
X76285000Y-148505000D02*
X76015000Y-148775000D01*
X77593859Y-123825000D02*
X79395000Y-122023859D01*
X76015000Y-148775000D02*
X76015000Y-149976701D01*
X84955000Y-119345000D02*
X86080000Y-120470000D01*
X74861701Y-151130000D02*
X74438299Y-151130000D01*
X84810000Y-147140000D02*
X83445000Y-148505000D01*
D19*
X86060000Y-150930000D02*
X84810000Y-149680000D01*
X94422000Y-149680000D02*
X93172000Y-150930000D01*
D18*
%TO.N,Net-(U2C-V-)*%
X96520000Y-130810000D02*
X96520000Y-142074000D01*
D19*
X77190000Y-144600000D02*
X74650000Y-147140000D01*
X93994000Y-144600000D02*
X77190000Y-144600000D01*
D18*
X96520000Y-142074000D02*
X93994000Y-144600000D01*
X96420000Y-130810000D02*
X96520000Y-130810000D01*
X93700000Y-128090000D02*
X96420000Y-130810000D01*
D19*
X74650000Y-147140000D02*
X74650000Y-149680000D01*
D18*
%TO.N,Net-(R1-Pad1)*%
X69795000Y-66785000D02*
X69795000Y-79955000D01*
X77290000Y-87450000D02*
X86080000Y-87450000D01*
X69795000Y-79955000D02*
X77290000Y-87450000D01*
X75920000Y-60660000D02*
X69795000Y-66785000D01*
%TO.N,Net-(U2A--)*%
X86360000Y-92901480D02*
X86360000Y-94698520D01*
X94499999Y-108569999D02*
X94499999Y-115539010D01*
X93700000Y-102690000D02*
X93700000Y-105230000D01*
X91811480Y-87450000D02*
X86360000Y-92901480D01*
X94499999Y-115539010D02*
X92285000Y-117754009D01*
X93700000Y-87450000D02*
X91811480Y-87450000D01*
X93700000Y-100150000D02*
X93700000Y-102690000D01*
X92285000Y-117754009D02*
X92285000Y-124425000D01*
X86360000Y-94698520D02*
X91811480Y-100150000D01*
X93700000Y-107770000D02*
X94499999Y-108569999D01*
X91811480Y-100150000D02*
X93700000Y-100150000D01*
X93700000Y-105230000D02*
X93700000Y-107770000D01*
X92285000Y-124425000D02*
X88620000Y-128090000D01*
%TO.N,Net-(R2-Pad1)*%
X77490000Y-82550000D02*
X75920000Y-80980000D01*
X83360000Y-102870000D02*
X71120000Y-102870000D01*
X87205000Y-87915991D02*
X87205000Y-86984009D01*
X86080000Y-100150000D02*
X83360000Y-102870000D01*
X82770991Y-82550000D02*
X77490000Y-82550000D01*
X71120000Y-102870000D02*
X69795000Y-101545000D01*
X69795000Y-88955000D02*
X86165991Y-88955000D01*
X87205000Y-86984009D02*
X82770991Y-82550000D01*
X69795000Y-101545000D02*
X69795000Y-88955000D01*
X86165991Y-88955000D02*
X87205000Y-87915991D01*
%TO.N,Net-(R3-Pad1)*%
X81466396Y-99510000D02*
X77710000Y-99510000D01*
X87205000Y-101565000D02*
X87205000Y-99684009D01*
X81951396Y-99025000D02*
X81466396Y-99510000D01*
X77710000Y-99510000D02*
X75920000Y-101300000D01*
X86080000Y-102690000D02*
X87205000Y-101565000D01*
X87205000Y-99684009D02*
X86545991Y-99025000D01*
X86545991Y-99025000D02*
X81951396Y-99025000D01*
%TO.N,Net-(R4-Pad1)*%
X82550000Y-108760000D02*
X82550000Y-114990000D01*
X86080000Y-105230000D02*
X82550000Y-108760000D01*
X82550000Y-114990000D02*
X75920000Y-121620000D01*
%TO.N,Net-(R5-Pad2)*%
X79272207Y-126683198D02*
X84673198Y-126683198D01*
X86195000Y-116454009D02*
X89745000Y-120004009D01*
X78605000Y-125084009D02*
X78605000Y-126015991D01*
X89745000Y-120004009D02*
X89745000Y-121075000D01*
X86195000Y-107885000D02*
X86195000Y-116454009D01*
X75775000Y-129215000D02*
X72110000Y-125550000D01*
X86395000Y-124425000D02*
X79264009Y-124425000D01*
X84955000Y-126965000D02*
X81315000Y-126965000D01*
X86080000Y-128090000D02*
X84955000Y-126965000D01*
X78605000Y-126015991D02*
X79272207Y-126683198D01*
X89745000Y-121075000D02*
X86395000Y-124425000D01*
X84673198Y-126683198D02*
X86080000Y-128090000D01*
X79264009Y-124425000D02*
X78605000Y-125084009D01*
X80855000Y-128695000D02*
X80335000Y-129215000D01*
X81315000Y-126965000D02*
X80855000Y-127425000D01*
X80855000Y-127425000D02*
X80855000Y-128695000D01*
X86080000Y-107770000D02*
X86195000Y-107885000D01*
X80335000Y-129215000D02*
X75775000Y-129215000D01*
%TO.N,Net-(U2B--)*%
X87397034Y-141940000D02*
X89897034Y-141940000D01*
X87397034Y-126767034D02*
X86180000Y-125550000D01*
X87397034Y-141940000D02*
X87397034Y-126767034D01*
X91160000Y-120470000D02*
X86180000Y-125450000D01*
X86180000Y-125550000D02*
X79730000Y-125550000D01*
X86180000Y-125450000D02*
X86180000Y-125550000D01*
%TO.N,Net-(R7-Pad1)*%
X82270000Y-128090000D02*
X81175000Y-129185000D01*
X87588175Y-143510000D02*
X90827034Y-143510000D01*
X81175000Y-137096825D02*
X87588175Y-143510000D01*
X90827034Y-143510000D02*
X92397034Y-141940000D01*
X81175000Y-129185000D02*
X81175000Y-137096825D01*
%TO.N,Net-(R7-Pad2)*%
X76860255Y-125195000D02*
X81585255Y-120470000D01*
X83395000Y-121595000D02*
X87495000Y-121595000D01*
X82270000Y-120470000D02*
X83395000Y-121595000D01*
X79730000Y-128090000D02*
X76860255Y-125220255D01*
X76860255Y-125220255D02*
X76860255Y-125195000D01*
X81585255Y-120470000D02*
X82270000Y-120470000D01*
X87495000Y-121595000D02*
X88620000Y-120470000D01*
%TD*%
M02*
