%TF.GenerationSoftware,KiCad,Pcbnew,8.0.1-8.0.1-1~ubuntu22.04.1*%
%TF.CreationDate,2024-04-11T11:20:39+02:00*%
%TF.ProjectId,HagiwoEurorackMixer_PCBOnly,48616769-776f-4457-9572-6f7261636b4d,rev?*%
%TF.SameCoordinates,Original*%
%TF.FileFunction,AssemblyDrawing,Top*%
%FSLAX46Y46*%
G04 Gerber Fmt 4.6, Leading zero omitted, Abs format (unit mm)*
G04 Created by KiCad (PCBNEW 8.0.1-8.0.1-1~ubuntu22.04.1) date 2024-04-11 11:20:39*
%MOMM*%
%LPD*%
G01*
G04 APERTURE LIST*
%ADD10C,0.100000*%
G04 APERTURE END LIST*
D10*
%TO.C,R5*%
X86080000Y-107770000D02*
X86740000Y-107770000D01*
X86740000Y-106520000D02*
X86740000Y-109020000D01*
X86740000Y-109020000D02*
X93040000Y-109020000D01*
X93040000Y-106520000D02*
X86740000Y-106520000D01*
X93040000Y-109020000D02*
X93040000Y-106520000D01*
X93700000Y-107770000D02*
X93040000Y-107770000D01*
%TO.C,R7*%
X81020000Y-121130000D02*
X81020000Y-127430000D01*
X81020000Y-127430000D02*
X83520000Y-127430000D01*
X82270000Y-120470000D02*
X82270000Y-121130000D01*
X82270000Y-128090000D02*
X82270000Y-127430000D01*
X83520000Y-121130000D02*
X81020000Y-121130000D01*
X83520000Y-127430000D02*
X83520000Y-121130000D01*
%TO.C,R4*%
X86080000Y-105230000D02*
X86740000Y-105230000D01*
X86740000Y-103980000D02*
X86740000Y-106480000D01*
X86740000Y-106480000D02*
X93040000Y-106480000D01*
X93040000Y-103980000D02*
X86740000Y-103980000D01*
X93040000Y-106480000D02*
X93040000Y-103980000D01*
X93700000Y-105230000D02*
X93040000Y-105230000D01*
%TO.C,C2*%
X97127605Y-145937500D02*
X97127605Y-145437500D01*
X97377605Y-145687500D02*
X96877605Y-145687500D01*
X97744000Y-144600000D02*
G75*
G02*
X92744000Y-144600000I-2500000J0D01*
G01*
X92744000Y-144600000D02*
G75*
G02*
X97744000Y-144600000I2500000J0D01*
G01*
%TO.C,U2*%
X84810000Y-121105000D02*
X94970000Y-121105000D01*
X84810000Y-126455000D02*
X84810000Y-121105000D01*
X85810000Y-127455000D02*
X84810000Y-126455000D01*
X94970000Y-121105000D02*
X94970000Y-127455000D01*
X94970000Y-127455000D02*
X85810000Y-127455000D01*
%TO.C,J6*%
X69550000Y-143960000D02*
X88910000Y-143960000D01*
X69550000Y-152860000D02*
X69550000Y-143960000D01*
X70740000Y-145160000D02*
X77680000Y-145160000D01*
X70740000Y-151660000D02*
X70740000Y-145160000D01*
X77680000Y-145160000D02*
X77680000Y-143960000D01*
X77680000Y-145160000D02*
X77680000Y-145160000D01*
X81780000Y-143960000D02*
X81780000Y-145160000D01*
X81780000Y-145160000D02*
X88720000Y-145160000D01*
X88720000Y-145160000D02*
X88720000Y-151660000D01*
X88720000Y-151660000D02*
X70740000Y-151660000D01*
X88910000Y-143960000D02*
X89910000Y-144960000D01*
X89910000Y-144960000D02*
X89910000Y-152860000D01*
X89910000Y-152860000D02*
X69550000Y-152860000D01*
%TO.C,R1*%
X86080000Y-87450000D02*
X86740000Y-87450000D01*
X86740000Y-86200000D02*
X86740000Y-88700000D01*
X86740000Y-88700000D02*
X93040000Y-88700000D01*
X93040000Y-86200000D02*
X86740000Y-86200000D01*
X93040000Y-88700000D02*
X93040000Y-86200000D01*
X93700000Y-87450000D02*
X93040000Y-87450000D01*
%TO.C,C1*%
X95055605Y-151017500D02*
X95055605Y-150517500D01*
X95305605Y-150767500D02*
X94805605Y-150767500D01*
X95672000Y-149680000D02*
G75*
G02*
X90672000Y-149680000I-2500000J0D01*
G01*
X90672000Y-149680000D02*
G75*
G02*
X95672000Y-149680000I2500000J0D01*
G01*
%TO.C,R3*%
X86080000Y-102690000D02*
X86740000Y-102690000D01*
X86740000Y-101440000D02*
X86740000Y-103940000D01*
X86740000Y-103940000D02*
X93040000Y-103940000D01*
X93040000Y-101440000D02*
X86740000Y-101440000D01*
X93040000Y-103940000D02*
X93040000Y-101440000D01*
X93700000Y-102690000D02*
X93040000Y-102690000D01*
%TO.C,R6*%
X72110000Y-125550000D02*
X72770000Y-125550000D01*
X72770000Y-124300000D02*
X72770000Y-126800000D01*
X72770000Y-126800000D02*
X79070000Y-126800000D01*
X79070000Y-124300000D02*
X72770000Y-124300000D01*
X79070000Y-126800000D02*
X79070000Y-124300000D01*
X79730000Y-125550000D02*
X79070000Y-125550000D01*
%TO.C,R8*%
X72110000Y-128090000D02*
X72770000Y-128090000D01*
X72770000Y-126840000D02*
X72770000Y-129340000D01*
X72770000Y-129340000D02*
X79070000Y-129340000D01*
X79070000Y-126840000D02*
X72770000Y-126840000D01*
X79070000Y-129340000D02*
X79070000Y-126840000D01*
X79730000Y-128090000D02*
X79070000Y-128090000D01*
%TO.C,R2*%
X86080000Y-100150000D02*
X86740000Y-100150000D01*
X86740000Y-98900000D02*
X86740000Y-101400000D01*
X86740000Y-101400000D02*
X93040000Y-101400000D01*
X93040000Y-98900000D02*
X86740000Y-98900000D01*
X93040000Y-101400000D02*
X93040000Y-98900000D01*
X93700000Y-100150000D02*
X93040000Y-100150000D01*
%TD*%
M02*
