%TF.GenerationSoftware,KiCad,Pcbnew,8.0.1-8.0.1-1~ubuntu22.04.1*%
%TF.CreationDate,2024-04-11T21:23:46+02:00*%
%TF.ProjectId,HagiwoEurorackMixer_PCBOnly,48616769-776f-4457-9572-6f7261636b4d,rev?*%
%TF.SameCoordinates,Original*%
%TF.FileFunction,Profile,NP*%
%FSLAX46Y46*%
G04 Gerber Fmt 4.6, Leading zero omitted, Abs format (unit mm)*
G04 Created by KiCad (PCBNEW 8.0.1-8.0.1-1~ubuntu22.04.1) date 2024-04-11 21:23:46*
%MOMM*%
%LPD*%
G01*
G04 APERTURE LIST*
%TA.AperFunction,Profile*%
%ADD10C,0.100000*%
%TD*%
%TA.AperFunction,Profile*%
%ADD11C,0.050000*%
%TD*%
G04 APERTURE END LIST*
D10*
X92890000Y-114120000D02*
G75*
G02*
X86890000Y-114120000I-3000000J0D01*
G01*
X86890000Y-114120000D02*
G75*
G02*
X92890000Y-114120000I3000000J0D01*
G01*
X79420000Y-114120000D02*
G75*
G02*
X72420000Y-114120000I-3500000J0D01*
G01*
X72420000Y-114120000D02*
G75*
G02*
X79420000Y-114120000I3500000J0D01*
G01*
X78920000Y-134440000D02*
G75*
G02*
X72920000Y-134440000I-3000000J0D01*
G01*
X72920000Y-134440000D02*
G75*
G02*
X78920000Y-134440000I3000000J0D01*
G01*
X78920000Y-134440000D02*
G75*
G02*
X72920000Y-134440000I-3000000J0D01*
G01*
X72920000Y-134440000D02*
G75*
G02*
X78920000Y-134440000I3000000J0D01*
G01*
X92890000Y-53160000D02*
G75*
G02*
X86890000Y-53160000I-3000000J0D01*
G01*
X86890000Y-53160000D02*
G75*
G02*
X92890000Y-53160000I3000000J0D01*
G01*
X79420000Y-53160000D02*
G75*
G02*
X72420000Y-53160000I-3500000J0D01*
G01*
X72420000Y-53160000D02*
G75*
G02*
X79420000Y-53160000I3500000J0D01*
G01*
X79420000Y-53160000D02*
G75*
G02*
X72420000Y-53160000I-3500000J0D01*
G01*
X72420000Y-53160000D02*
G75*
G02*
X79420000Y-53160000I3500000J0D01*
G01*
D11*
X69040000Y-46810000D02*
X98040000Y-46810000D01*
X98040000Y-152810000D01*
X69040000Y-152810000D01*
X69040000Y-46810000D01*
D10*
X92890000Y-73480000D02*
G75*
G02*
X86890000Y-73480000I-3000000J0D01*
G01*
X86890000Y-73480000D02*
G75*
G02*
X92890000Y-73480000I3000000J0D01*
G01*
X79420000Y-93800000D02*
G75*
G02*
X72420000Y-93800000I-3500000J0D01*
G01*
X72420000Y-93800000D02*
G75*
G02*
X79420000Y-93800000I3500000J0D01*
G01*
X79420000Y-73480000D02*
G75*
G02*
X72420000Y-73480000I-3500000J0D01*
G01*
X72420000Y-73480000D02*
G75*
G02*
X79420000Y-73480000I3500000J0D01*
G01*
X92890000Y-93800000D02*
G75*
G02*
X86890000Y-93800000I-3000000J0D01*
G01*
X86890000Y-93800000D02*
G75*
G02*
X92890000Y-93800000I3000000J0D01*
G01*
X92890000Y-114120000D02*
G75*
G02*
X86890000Y-114120000I-3000000J0D01*
G01*
X86890000Y-114120000D02*
G75*
G02*
X92890000Y-114120000I3000000J0D01*
G01*
X79420000Y-93800000D02*
G75*
G02*
X72420000Y-93800000I-3500000J0D01*
G01*
X72420000Y-93800000D02*
G75*
G02*
X79420000Y-93800000I3500000J0D01*
G01*
X79420000Y-73480000D02*
G75*
G02*
X72420000Y-73480000I-3500000J0D01*
G01*
X72420000Y-73480000D02*
G75*
G02*
X79420000Y-73480000I3500000J0D01*
G01*
X92890000Y-73480000D02*
G75*
G02*
X86890000Y-73480000I-3000000J0D01*
G01*
X86890000Y-73480000D02*
G75*
G02*
X92890000Y-73480000I3000000J0D01*
G01*
X92890000Y-93800000D02*
G75*
G02*
X86890000Y-93800000I-3000000J0D01*
G01*
X86890000Y-93800000D02*
G75*
G02*
X92890000Y-93800000I3000000J0D01*
G01*
X92890000Y-53160000D02*
G75*
G02*
X86890000Y-53160000I-3000000J0D01*
G01*
X86890000Y-53160000D02*
G75*
G02*
X92890000Y-53160000I3000000J0D01*
G01*
X79420000Y-114120000D02*
G75*
G02*
X72420000Y-114120000I-3500000J0D01*
G01*
X72420000Y-114120000D02*
G75*
G02*
X79420000Y-114120000I3500000J0D01*
G01*
M02*
