%TF.GenerationSoftware,KiCad,Pcbnew,8.0.1-8.0.1-1~ubuntu22.04.1*%
%TF.CreationDate,2024-04-11T11:05:15+02:00*%
%TF.ProjectId,HagiwoEurorackMixer_PanelOnly,48616769-776f-4457-9572-6f7261636b4d,rev?*%
%TF.SameCoordinates,Original*%
%TF.FileFunction,Legend,Top*%
%TF.FilePolarity,Positive*%
%FSLAX46Y46*%
G04 Gerber Fmt 4.6, Leading zero omitted, Abs format (unit mm)*
G04 Created by KiCad (PCBNEW 8.0.1-8.0.1-1~ubuntu22.04.1) date 2024-04-11 11:05:15*
%MOMM*%
%LPD*%
G01*
G04 APERTURE LIST*
%ADD10C,0.000000*%
%ADD11C,0.150000*%
%ADD12C,0.500000*%
%ADD13C,0.170500*%
%ADD14C,0.300000*%
%ADD15C,0.400000*%
%ADD16C,0.600000*%
G04 APERTURE END LIST*
D10*
G36*
X118278236Y-149769265D02*
G01*
X118278236Y-148289913D01*
X119817730Y-148289913D01*
X118278236Y-149769265D01*
G37*
D11*
X104775000Y-64385213D02*
X117475000Y-64385213D01*
X117475000Y-64893213D01*
X104775000Y-64893213D01*
X104775000Y-64385213D01*
G36*
X104775000Y-64385213D02*
G01*
X117475000Y-64385213D01*
X117475000Y-64893213D01*
X104775000Y-64893213D01*
X104775000Y-64385213D01*
G37*
D10*
G36*
X114537745Y-151248617D02*
G01*
X117618185Y-151248617D01*
X117618185Y-153925538D01*
X116077969Y-153925538D01*
X116077969Y-152446187D01*
X112998251Y-152446187D01*
X112998251Y-151248617D01*
X116077969Y-148289913D01*
X117618185Y-148289913D01*
X114537745Y-151248617D01*
G37*
D12*
X123775787Y-63369213D02*
G75*
G02*
X117270213Y-63369213I-3252787J0D01*
G01*
X117270213Y-63369213D02*
G75*
G02*
X123775787Y-63369213I3252787J0D01*
G01*
D11*
X104775000Y-123313213D02*
X112649000Y-123313213D01*
X112649000Y-125345213D01*
X104775000Y-125345213D01*
X104775000Y-123313213D01*
G36*
X104775000Y-123313213D02*
G01*
X112649000Y-123313213D01*
X112649000Y-125345213D01*
X104775000Y-125345213D01*
X104775000Y-123313213D01*
G37*
D10*
G36*
X126892288Y-152104144D02*
G01*
X126953328Y-151591421D01*
X127127000Y-151591421D01*
X127034687Y-152380115D01*
X126883558Y-152380115D01*
X126534625Y-151864487D01*
X126475014Y-152380115D01*
X126301342Y-152380115D01*
X126395084Y-151591421D01*
X126546293Y-151591421D01*
X126892288Y-152104144D01*
G37*
D11*
X104775000Y-142871213D02*
X135255000Y-142871213D01*
X135255000Y-143150613D01*
X104775000Y-143150613D01*
X104775000Y-142871213D01*
G36*
X104775000Y-142871213D02*
G01*
X135255000Y-142871213D01*
X135255000Y-143150613D01*
X104775000Y-143150613D01*
X104775000Y-142871213D01*
G37*
D10*
G36*
X122909807Y-152775172D02*
G01*
X122792093Y-152775172D01*
X122792093Y-151290741D01*
X122909807Y-151290741D01*
X122909807Y-152775172D01*
G37*
D11*
X123571000Y-61845213D02*
X135255000Y-61845213D01*
X135255000Y-62353213D01*
X123571000Y-62353213D01*
X123571000Y-61845213D01*
G36*
X123571000Y-61845213D02*
G01*
X135255000Y-61845213D01*
X135255000Y-62353213D01*
X123571000Y-62353213D01*
X123571000Y-61845213D01*
G37*
D13*
X123825000Y-77290000D02*
X122753925Y-75761952D01*
X122504907Y-75127529D02*
X122504907Y-75127529D01*
X122337969Y-74466745D02*
X122337969Y-74466745D01*
X122255781Y-73790174D02*
X122472575Y-71936764D01*
X122708686Y-71297424D02*
X122708686Y-71297424D01*
X123023616Y-70693005D02*
X123023616Y-70693005D01*
X123412326Y-70133176D02*
X124807135Y-68893565D01*
X125408731Y-68573277D02*
X125408731Y-68573277D01*
X126045947Y-68331494D02*
X126045947Y-68331494D01*
X126708588Y-68172085D02*
X128574633Y-68174409D01*
X129236874Y-68335468D02*
X129236874Y-68335468D01*
X129873485Y-68578838D02*
X129873485Y-68578838D01*
X130474282Y-68900625D02*
X131865999Y-70143707D01*
X132253313Y-70704502D02*
X132253313Y-70704502D01*
X132566735Y-71309704D02*
X132566735Y-71309704D01*
X132801252Y-71949630D02*
X133013429Y-73803575D01*
X132929555Y-74479939D02*
X132929555Y-74479939D01*
X132760971Y-75140305D02*
X132760971Y-75140305D01*
X132510374Y-75774106D02*
X131445000Y-77290000D01*
D11*
X114935000Y-123313213D02*
X117221000Y-123313213D01*
X117221000Y-125345213D01*
X114935000Y-125345213D01*
X114935000Y-123313213D01*
G36*
X114935000Y-123313213D02*
G01*
X117221000Y-123313213D01*
X117221000Y-125345213D01*
X114935000Y-125345213D01*
X114935000Y-123313213D01*
G37*
D13*
X123825000Y-56970000D02*
X122753925Y-55441952D01*
X122504907Y-54807529D02*
X122504907Y-54807529D01*
X122337969Y-54146745D02*
X122337969Y-54146745D01*
X122255781Y-53470174D02*
X122472575Y-51616764D01*
X122708686Y-50977424D02*
X122708686Y-50977424D01*
X123023616Y-50373005D02*
X123023616Y-50373005D01*
X123412326Y-49813176D02*
X124807135Y-48573565D01*
X125408731Y-48253277D02*
X125408731Y-48253277D01*
X126045947Y-48011494D02*
X126045947Y-48011494D01*
X126708588Y-47852085D02*
X128574633Y-47854409D01*
X129236874Y-48015468D02*
X129236874Y-48015468D01*
X129873485Y-48258838D02*
X129873485Y-48258838D01*
X130474282Y-48580625D02*
X131865999Y-49823707D01*
X132253313Y-50384502D02*
X132253313Y-50384502D01*
X132566735Y-50989704D02*
X132566735Y-50989704D01*
X132801252Y-51629630D02*
X133013429Y-53483575D01*
X132929555Y-54159939D02*
X132929555Y-54159939D01*
X132760971Y-54820305D02*
X132760971Y-54820305D01*
X132510374Y-55454106D02*
X131445000Y-56970000D01*
D11*
X114935000Y-82673213D02*
X117221000Y-82673213D01*
X117221000Y-84705213D01*
X114935000Y-84705213D01*
X114935000Y-82673213D01*
G36*
X114935000Y-82673213D02*
G01*
X117221000Y-82673213D01*
X117221000Y-84705213D01*
X114935000Y-84705213D01*
X114935000Y-82673213D01*
G37*
X123571000Y-122805213D02*
X135255000Y-122805213D01*
X135255000Y-123313213D01*
X123571000Y-123313213D01*
X123571000Y-122805213D01*
G36*
X123571000Y-122805213D02*
G01*
X135255000Y-122805213D01*
X135255000Y-123313213D01*
X123571000Y-123313213D01*
X123571000Y-122805213D01*
G37*
X104775000Y-62353213D02*
X112649000Y-62353213D01*
X112649000Y-64385213D01*
X104775000Y-64385213D01*
X104775000Y-62353213D01*
G36*
X104775000Y-62353213D02*
G01*
X112649000Y-62353213D01*
X112649000Y-64385213D01*
X104775000Y-64385213D01*
X104775000Y-62353213D01*
G37*
X131191000Y-123313213D02*
X135255000Y-123313213D01*
X135255000Y-125345213D01*
X131191000Y-125345213D01*
X131191000Y-123313213D01*
G36*
X131191000Y-123313213D02*
G01*
X135255000Y-123313213D01*
X135255000Y-125345213D01*
X131191000Y-125345213D01*
X131191000Y-123313213D01*
G37*
X123571000Y-84705213D02*
X135255000Y-84705213D01*
X135255000Y-85213213D01*
X123571000Y-85213213D01*
X123571000Y-84705213D01*
G36*
X123571000Y-84705213D02*
G01*
X135255000Y-84705213D01*
X135255000Y-85213213D01*
X123571000Y-85213213D01*
X123571000Y-84705213D01*
G37*
X104775000Y-61845213D02*
X117475000Y-61845213D01*
X117475000Y-62353213D01*
X104775000Y-62353213D01*
X104775000Y-61845213D01*
G36*
X104775000Y-61845213D02*
G01*
X117475000Y-61845213D01*
X117475000Y-62353213D01*
X104775000Y-62353213D01*
X104775000Y-61845213D01*
G37*
X131191000Y-62353213D02*
X135255000Y-62353213D01*
X135255000Y-64385213D01*
X131191000Y-64385213D01*
X131191000Y-62353213D01*
G36*
X131191000Y-62353213D02*
G01*
X135255000Y-62353213D01*
X135255000Y-64385213D01*
X131191000Y-64385213D01*
X131191000Y-62353213D01*
G37*
D12*
X123775787Y-83689213D02*
G75*
G02*
X117270213Y-83689213I-3252787J0D01*
G01*
X117270213Y-83689213D02*
G75*
G02*
X123775787Y-83689213I3252787J0D01*
G01*
D10*
G36*
X125122308Y-151591858D02*
G01*
X125135690Y-151592512D01*
X125148995Y-151593553D01*
X125162204Y-151595054D01*
X125175296Y-151597087D01*
X125188250Y-151599724D01*
X125201045Y-151603038D01*
X125213663Y-151607100D01*
X125226081Y-151611984D01*
X125238280Y-151617762D01*
X125250238Y-151624506D01*
X125261936Y-151632288D01*
X125273354Y-151641181D01*
X125284470Y-151651257D01*
X125295264Y-151662589D01*
X125300185Y-151668165D01*
X125305097Y-151674280D01*
X125309957Y-151680947D01*
X125314723Y-151688176D01*
X125319352Y-151695980D01*
X125323802Y-151704371D01*
X125328031Y-151713359D01*
X125331994Y-151722957D01*
X125335651Y-151733175D01*
X125338959Y-151744027D01*
X125341874Y-151755524D01*
X125344355Y-151767677D01*
X125346358Y-151780498D01*
X125347842Y-151793998D01*
X125348763Y-151808190D01*
X125349000Y-151815549D01*
X125349080Y-151823085D01*
X125348793Y-151836923D01*
X125347943Y-151850380D01*
X125346550Y-151863453D01*
X125344631Y-151876135D01*
X125342205Y-151888421D01*
X125339289Y-151900306D01*
X125335903Y-151911785D01*
X125332064Y-151922853D01*
X125327791Y-151933503D01*
X125323101Y-151943731D01*
X125318014Y-151953531D01*
X125312547Y-151962898D01*
X125306718Y-151971827D01*
X125300547Y-151980313D01*
X125294050Y-151988349D01*
X125287248Y-151995932D01*
X125280974Y-152002068D01*
X125274433Y-152007942D01*
X125267647Y-152013551D01*
X125260638Y-152018889D01*
X125253428Y-152023950D01*
X125246041Y-152028729D01*
X125238497Y-152033220D01*
X125230821Y-152037419D01*
X125223034Y-152041321D01*
X125215159Y-152044919D01*
X125207218Y-152048209D01*
X125199233Y-152051185D01*
X125191228Y-152053841D01*
X125183224Y-152056174D01*
X125175244Y-152058177D01*
X125167311Y-152059845D01*
X125361382Y-152380115D01*
X125158580Y-152380115D01*
X124976891Y-152069283D01*
X124940536Y-152380115D01*
X124766865Y-152380115D01*
X124817272Y-151949450D01*
X124990701Y-151949450D01*
X125033565Y-151949450D01*
X125044823Y-151949246D01*
X125050866Y-151948952D01*
X125057133Y-151948497D01*
X125063583Y-151947855D01*
X125070178Y-151947000D01*
X125076877Y-151945907D01*
X125083640Y-151944550D01*
X125090429Y-151942903D01*
X125097203Y-151940942D01*
X125103924Y-151938640D01*
X125110550Y-151935972D01*
X125117043Y-151932912D01*
X125123362Y-151929436D01*
X125129469Y-151925516D01*
X125135324Y-151921129D01*
X125138123Y-151918787D01*
X125140793Y-151916391D01*
X125143336Y-151913943D01*
X125145755Y-151911446D01*
X125148052Y-151908901D01*
X125150231Y-151906311D01*
X125154243Y-151900998D01*
X125157811Y-151895524D01*
X125160958Y-151889903D01*
X125163704Y-151884150D01*
X125166070Y-151878281D01*
X125168079Y-151872309D01*
X125169750Y-151866249D01*
X125171106Y-151860118D01*
X125172168Y-151853929D01*
X125172957Y-151847697D01*
X125173494Y-151841438D01*
X125173801Y-151835166D01*
X125173898Y-151828895D01*
X125173825Y-151824185D01*
X125173587Y-151819332D01*
X125173156Y-151814364D01*
X125172505Y-151809310D01*
X125171606Y-151804196D01*
X125170433Y-151799049D01*
X125168958Y-151793899D01*
X125167152Y-151788772D01*
X125164990Y-151783697D01*
X125162443Y-151778699D01*
X125159484Y-151773809D01*
X125157841Y-151771412D01*
X125156085Y-151769052D01*
X125154212Y-151766732D01*
X125152219Y-151764457D01*
X125150103Y-151762228D01*
X125147859Y-151760051D01*
X125145485Y-151757927D01*
X125142977Y-151755862D01*
X125140332Y-151753857D01*
X125137546Y-151751917D01*
X125133201Y-151749191D01*
X125128623Y-151746726D01*
X125123818Y-151744510D01*
X125118790Y-151742531D01*
X125113544Y-151740777D01*
X125108087Y-151739238D01*
X125102423Y-151737901D01*
X125096558Y-151736755D01*
X125090497Y-151735787D01*
X125084244Y-151734986D01*
X125077806Y-151734341D01*
X125071186Y-151733839D01*
X125064392Y-151733469D01*
X125057427Y-151733220D01*
X125043009Y-151733034D01*
X125016896Y-151733034D01*
X124990701Y-151949450D01*
X124817272Y-151949450D01*
X124859178Y-151591421D01*
X125095398Y-151591421D01*
X125122308Y-151591858D01*
G37*
G36*
X123818520Y-151591766D02*
G01*
X123828869Y-151592278D01*
X123839447Y-151593088D01*
X123850200Y-151594252D01*
X123861074Y-151595823D01*
X123872013Y-151597856D01*
X123882964Y-151600405D01*
X123893872Y-151603525D01*
X123904684Y-151607269D01*
X123915343Y-151611691D01*
X123925797Y-151616847D01*
X123935989Y-151622791D01*
X123945868Y-151629576D01*
X123950672Y-151633301D01*
X123955376Y-151637257D01*
X123959975Y-151641450D01*
X123964462Y-151645888D01*
X123969442Y-151651274D01*
X123974278Y-151657082D01*
X123978944Y-151663310D01*
X123983416Y-151669954D01*
X123987671Y-151677011D01*
X123991682Y-151684477D01*
X123995427Y-151692350D01*
X123998881Y-151700626D01*
X124002020Y-151709303D01*
X124004819Y-151718376D01*
X124007254Y-151727843D01*
X124009301Y-151737700D01*
X124010935Y-151747945D01*
X124012132Y-151758573D01*
X124012869Y-151769582D01*
X124013120Y-151780969D01*
X124012976Y-151790373D01*
X124012547Y-151799526D01*
X124011836Y-151808433D01*
X124010845Y-151817097D01*
X124009578Y-151825523D01*
X124008038Y-151833715D01*
X124006228Y-151841678D01*
X124004150Y-151849415D01*
X124001808Y-151856930D01*
X123999205Y-151864229D01*
X123996344Y-151871315D01*
X123993228Y-151878192D01*
X123989860Y-151884864D01*
X123986243Y-151891337D01*
X123982380Y-151897613D01*
X123978273Y-151903698D01*
X123973595Y-151910153D01*
X123968824Y-151916179D01*
X123963973Y-151921793D01*
X123959054Y-151927009D01*
X123954078Y-151931841D01*
X123949058Y-151936306D01*
X123944006Y-151940417D01*
X123938934Y-151944189D01*
X123933852Y-151947638D01*
X123928775Y-151950779D01*
X123923713Y-151953626D01*
X123918679Y-151956194D01*
X123913684Y-151958498D01*
X123908741Y-151960553D01*
X123903861Y-151962374D01*
X123899056Y-151963976D01*
X123906156Y-151965855D01*
X123913018Y-151967942D01*
X123919644Y-151970222D01*
X123926035Y-151972682D01*
X123932192Y-151975308D01*
X123938117Y-151978086D01*
X123943809Y-151981002D01*
X123949271Y-151984042D01*
X123954503Y-151987194D01*
X123959507Y-151990442D01*
X123964282Y-151993773D01*
X123968831Y-151997173D01*
X123973155Y-152000628D01*
X123977253Y-152004125D01*
X123981129Y-152007649D01*
X123984782Y-152011188D01*
X123991084Y-152017896D01*
X123996903Y-152024688D01*
X124002248Y-152031577D01*
X124007131Y-152038579D01*
X124011561Y-152045709D01*
X124015550Y-152052982D01*
X124019108Y-152060411D01*
X124022246Y-152068013D01*
X124024976Y-152075803D01*
X124027306Y-152083794D01*
X124029248Y-152092003D01*
X124030814Y-152100443D01*
X124032013Y-152109131D01*
X124032856Y-152118080D01*
X124033354Y-152127305D01*
X124033517Y-152136823D01*
X124033159Y-152152143D01*
X124032116Y-152166792D01*
X124030435Y-152180776D01*
X124028166Y-152194105D01*
X124025356Y-152206787D01*
X124022053Y-152218831D01*
X124018305Y-152230245D01*
X124014160Y-152241038D01*
X124009667Y-152251218D01*
X124004872Y-152260794D01*
X123999825Y-152269774D01*
X123994574Y-152278166D01*
X123989165Y-152285980D01*
X123983648Y-152293224D01*
X123978070Y-152299906D01*
X123972479Y-152306034D01*
X123966809Y-152311742D01*
X123960979Y-152317160D01*
X123954997Y-152322293D01*
X123948870Y-152327150D01*
X123936204Y-152336065D01*
X123923038Y-152343960D01*
X123909424Y-152350893D01*
X123895418Y-152356922D01*
X123881073Y-152362105D01*
X123866445Y-152366497D01*
X123851586Y-152370158D01*
X123836552Y-152373145D01*
X123821397Y-152375514D01*
X123806175Y-152377324D01*
X123790941Y-152378631D01*
X123775748Y-152379494D01*
X123760652Y-152379969D01*
X123745705Y-152380115D01*
X123465829Y-152380115D01*
X123482489Y-152237772D01*
X123656249Y-152237772D01*
X123719511Y-152237772D01*
X123732636Y-152237565D01*
X123747123Y-152236795D01*
X123754706Y-152236131D01*
X123762425Y-152235243D01*
X123770213Y-152234104D01*
X123778001Y-152232687D01*
X123785721Y-152230963D01*
X123793305Y-152228905D01*
X123800685Y-152226486D01*
X123807793Y-152223677D01*
X123814561Y-152220452D01*
X123820921Y-152216782D01*
X123823927Y-152214772D01*
X123826805Y-152212640D01*
X123829547Y-152210383D01*
X123832145Y-152207998D01*
X123834121Y-152206072D01*
X123836218Y-152203828D01*
X123838401Y-152201254D01*
X123840635Y-152198339D01*
X123842887Y-152195071D01*
X123845123Y-152191438D01*
X123847308Y-152187428D01*
X123848371Y-152185279D01*
X123849408Y-152183031D01*
X123850416Y-152180683D01*
X123851389Y-152178233D01*
X123852325Y-152175680D01*
X123853217Y-152173024D01*
X123854063Y-152170261D01*
X123854858Y-152167391D01*
X123855597Y-152164412D01*
X123856277Y-152161323D01*
X123856892Y-152158122D01*
X123857440Y-152154808D01*
X123857915Y-152151379D01*
X123858313Y-152147834D01*
X123858630Y-152144172D01*
X123858862Y-152140391D01*
X123859004Y-152136489D01*
X123859052Y-152132465D01*
X123859007Y-152129244D01*
X123858863Y-152125857D01*
X123858606Y-152122328D01*
X123858221Y-152118679D01*
X123857697Y-152114932D01*
X123857018Y-152111109D01*
X123856172Y-152107233D01*
X123855143Y-152103326D01*
X123853920Y-152099411D01*
X123852487Y-152095509D01*
X123850832Y-152091644D01*
X123848940Y-152087837D01*
X123846797Y-152084110D01*
X123844391Y-152080487D01*
X123841707Y-152076990D01*
X123838732Y-152073640D01*
X123836332Y-152071261D01*
X123833782Y-152069021D01*
X123831094Y-152066919D01*
X123828280Y-152064947D01*
X123825353Y-152063104D01*
X123822323Y-152061384D01*
X123816004Y-152058298D01*
X123809418Y-152055653D01*
X123802659Y-152053418D01*
X123795823Y-152051557D01*
X123789004Y-152050036D01*
X123782297Y-152048822D01*
X123775795Y-152047880D01*
X123769595Y-152047176D01*
X123763790Y-152046677D01*
X123753746Y-152046155D01*
X123746420Y-152046042D01*
X123678792Y-152046042D01*
X123656249Y-152237772D01*
X123482489Y-152237772D01*
X123520655Y-151911691D01*
X123694032Y-151911691D01*
X123729671Y-151911691D01*
X123741061Y-151911484D01*
X123747070Y-151911184D01*
X123753238Y-151910715D01*
X123759526Y-151910050D01*
X123765895Y-151909162D01*
X123772307Y-151908023D01*
X123778725Y-151906605D01*
X123785109Y-151904881D01*
X123791421Y-151902823D01*
X123797623Y-151900403D01*
X123803676Y-151897594D01*
X123809542Y-151894367D01*
X123815183Y-151890697D01*
X123820560Y-151886553D01*
X123823138Y-151884296D01*
X123825636Y-151881910D01*
X123828690Y-151878646D01*
X123831570Y-151875130D01*
X123834272Y-151871381D01*
X123836794Y-151867421D01*
X123839132Y-151863270D01*
X123841284Y-151858947D01*
X123843245Y-151854473D01*
X123845013Y-151849868D01*
X123846585Y-151845153D01*
X123847958Y-151840347D01*
X123849128Y-151835470D01*
X123850092Y-151830544D01*
X123850848Y-151825588D01*
X123851391Y-151820622D01*
X123851720Y-151815667D01*
X123851830Y-151810742D01*
X123851672Y-151804919D01*
X123851216Y-151799427D01*
X123850488Y-151794256D01*
X123849512Y-151789396D01*
X123848314Y-151784839D01*
X123846920Y-151780575D01*
X123845355Y-151776593D01*
X123843644Y-151772885D01*
X123841813Y-151769441D01*
X123839888Y-151766251D01*
X123837894Y-151763306D01*
X123835856Y-151760596D01*
X123833800Y-151758112D01*
X123831751Y-151755844D01*
X123829736Y-151753782D01*
X123827778Y-151751917D01*
X123825778Y-151750265D01*
X123823726Y-151748712D01*
X123821623Y-151747256D01*
X123819472Y-151745892D01*
X123815038Y-151743431D01*
X123810446Y-151741305D01*
X123805716Y-151739490D01*
X123800871Y-151737962D01*
X123795931Y-151736695D01*
X123790919Y-151735665D01*
X123785855Y-151734849D01*
X123780762Y-151734220D01*
X123775661Y-151733756D01*
X123770573Y-151733431D01*
X123760523Y-151733100D01*
X123750784Y-151733034D01*
X123714431Y-151733034D01*
X123694032Y-151911691D01*
X123520655Y-151911691D01*
X123558141Y-151591421D01*
X123798727Y-151591421D01*
X123818520Y-151591766D01*
G37*
D11*
X104775000Y-122805213D02*
X117475000Y-122805213D01*
X117475000Y-123313213D01*
X104775000Y-123313213D01*
X104775000Y-122805213D01*
G36*
X104775000Y-122805213D02*
G01*
X117475000Y-122805213D01*
X117475000Y-123313213D01*
X104775000Y-123313213D01*
X104775000Y-122805213D01*
G37*
X123571000Y-82673213D02*
X124587000Y-82673213D01*
X124587000Y-84705213D01*
X123571000Y-84705213D01*
X123571000Y-82673213D01*
G36*
X123571000Y-82673213D02*
G01*
X124587000Y-82673213D01*
X124587000Y-84705213D01*
X123571000Y-84705213D01*
X123571000Y-82673213D01*
G37*
X104775000Y-84705213D02*
X117475000Y-84705213D01*
X117475000Y-85213213D01*
X104775000Y-85213213D01*
X104775000Y-84705213D01*
G36*
X104775000Y-84705213D02*
G01*
X117475000Y-84705213D01*
X117475000Y-85213213D01*
X104775000Y-85213213D01*
X104775000Y-84705213D01*
G37*
D13*
X123825000Y-97610000D02*
X122753925Y-96081952D01*
X122504907Y-95447529D02*
X122504907Y-95447529D01*
X122337969Y-94786745D02*
X122337969Y-94786745D01*
X122255781Y-94110174D02*
X122472575Y-92256764D01*
X122708686Y-91617424D02*
X122708686Y-91617424D01*
X123023616Y-91013005D02*
X123023616Y-91013005D01*
X123412326Y-90453176D02*
X124807135Y-89213565D01*
X125408731Y-88893277D02*
X125408731Y-88893277D01*
X126045947Y-88651494D02*
X126045947Y-88651494D01*
X126708588Y-88492085D02*
X128574633Y-88494409D01*
X129236874Y-88655468D02*
X129236874Y-88655468D01*
X129873485Y-88898838D02*
X129873485Y-88898838D01*
X130474282Y-89220625D02*
X131865999Y-90463707D01*
X132253313Y-91024502D02*
X132253313Y-91024502D01*
X132566735Y-91629704D02*
X132566735Y-91629704D01*
X132801252Y-92269630D02*
X133013429Y-94123575D01*
X132929555Y-94799939D02*
X132929555Y-94799939D01*
X132760971Y-95460305D02*
X132760971Y-95460305D01*
X132510374Y-96094106D02*
X131445000Y-97610000D01*
D11*
X104775000Y-125345213D02*
X117475000Y-125345213D01*
X117475000Y-125853213D01*
X104775000Y-125853213D01*
X104775000Y-125345213D01*
G36*
X104775000Y-125345213D02*
G01*
X117475000Y-125345213D01*
X117475000Y-125853213D01*
X104775000Y-125853213D01*
X104775000Y-125345213D01*
G37*
D10*
G36*
X124705825Y-151744655D02*
G01*
X124412851Y-151744655D01*
X124391024Y-151897166D01*
X124673836Y-151897166D01*
X124652009Y-152051129D01*
X124369990Y-152051129D01*
X124346018Y-152226151D01*
X124643992Y-152226151D01*
X124622958Y-152380115D01*
X124122815Y-152380115D01*
X124232591Y-151591421D01*
X124727573Y-151591421D01*
X124705825Y-151744655D01*
G37*
G36*
X126133384Y-152379385D02*
G01*
X125959633Y-152379385D01*
X126051945Y-151591421D01*
X126225697Y-151591421D01*
X126133384Y-152379385D01*
G37*
D11*
X114935000Y-102993213D02*
X117221000Y-102993213D01*
X117221000Y-105025213D01*
X114935000Y-105025213D01*
X114935000Y-102993213D01*
G36*
X114935000Y-102993213D02*
G01*
X117221000Y-102993213D01*
X117221000Y-105025213D01*
X114935000Y-105025213D01*
X114935000Y-102993213D01*
G37*
D10*
G36*
X121357946Y-149769265D02*
G01*
X119817730Y-151248617D01*
X119817730Y-152727968D01*
X118278236Y-152727968D01*
X118278236Y-151248617D01*
X119817730Y-149769265D01*
X119817730Y-148289913D01*
X121357946Y-148289913D01*
X121357946Y-149769265D01*
G37*
D12*
X123775787Y-124329213D02*
G75*
G02*
X117270213Y-124329213I-3252787J0D01*
G01*
X117270213Y-124329213D02*
G75*
G02*
X123775787Y-124329213I3252787J0D01*
G01*
D11*
X123571000Y-123313213D02*
X124587000Y-123313213D01*
X124587000Y-125345213D01*
X123571000Y-125345213D01*
X123571000Y-123313213D01*
G36*
X123571000Y-123313213D02*
G01*
X124587000Y-123313213D01*
X124587000Y-125345213D01*
X123571000Y-125345213D01*
X123571000Y-123313213D01*
G37*
X104775000Y-102993213D02*
X112649000Y-102993213D01*
X112649000Y-105025213D01*
X104775000Y-105025213D01*
X104775000Y-102993213D01*
G36*
X104775000Y-102993213D02*
G01*
X112649000Y-102993213D01*
X112649000Y-105025213D01*
X104775000Y-105025213D01*
X104775000Y-102993213D01*
G37*
X123571000Y-62353213D02*
X124587000Y-62353213D01*
X124587000Y-64385213D01*
X123571000Y-64385213D01*
X123571000Y-62353213D01*
G36*
X123571000Y-62353213D02*
G01*
X124587000Y-62353213D01*
X124587000Y-64385213D01*
X123571000Y-64385213D01*
X123571000Y-62353213D01*
G37*
D10*
G36*
X125642688Y-152226151D02*
G01*
X125877479Y-152226151D01*
X125859303Y-152379385D01*
X125450839Y-152379385D01*
X125543865Y-151591421D01*
X125717619Y-151591421D01*
X125642688Y-152226151D01*
G37*
D11*
X104775000Y-82165213D02*
X117475000Y-82165213D01*
X117475000Y-82673213D01*
X104775000Y-82673213D01*
X104775000Y-82165213D01*
G36*
X104775000Y-82165213D02*
G01*
X117475000Y-82165213D01*
X117475000Y-82673213D01*
X104775000Y-82673213D01*
X104775000Y-82165213D01*
G37*
X123571000Y-82165213D02*
X135255000Y-82165213D01*
X135255000Y-82673213D01*
X123571000Y-82673213D01*
X123571000Y-82165213D01*
G36*
X123571000Y-82165213D02*
G01*
X135255000Y-82165213D01*
X135255000Y-82673213D01*
X123571000Y-82673213D01*
X123571000Y-82165213D01*
G37*
D13*
X109855000Y-138250000D02*
X108783925Y-136721952D01*
X108534907Y-136087529D02*
X108534907Y-136087529D01*
X108367969Y-135426745D02*
X108367969Y-135426745D01*
X108285781Y-134750174D02*
X108502575Y-132896764D01*
X108738686Y-132257424D02*
X108738686Y-132257424D01*
X109053616Y-131653005D02*
X109053616Y-131653005D01*
X109442326Y-131093176D02*
X110837135Y-129853565D01*
X111438731Y-129533277D02*
X111438731Y-129533277D01*
X112075947Y-129291494D02*
X112075947Y-129291494D01*
X112738588Y-129132085D02*
X114604633Y-129134409D01*
X115266874Y-129295468D02*
X115266874Y-129295468D01*
X115903485Y-129538838D02*
X115903485Y-129538838D01*
X116504282Y-129860625D02*
X117895999Y-131103707D01*
X118283313Y-131664502D02*
X118283313Y-131664502D01*
X118596735Y-132269704D02*
X118596735Y-132269704D01*
X118831252Y-132909630D02*
X119043429Y-134763575D01*
X118959555Y-135439939D02*
X118959555Y-135439939D01*
X118790971Y-136100305D02*
X118790971Y-136100305D01*
X118540374Y-136734106D02*
X117475000Y-138250000D01*
D11*
X123571000Y-64385213D02*
X135255000Y-64385213D01*
X135255000Y-64893213D01*
X123571000Y-64893213D01*
X123571000Y-64385213D01*
G36*
X123571000Y-64385213D02*
G01*
X135255000Y-64385213D01*
X135255000Y-64893213D01*
X123571000Y-64893213D01*
X123571000Y-64385213D01*
G37*
X123571000Y-102993213D02*
X124587000Y-102993213D01*
X124587000Y-105025213D01*
X123571000Y-105025213D01*
X123571000Y-102993213D01*
G36*
X123571000Y-102993213D02*
G01*
X124587000Y-102993213D01*
X124587000Y-105025213D01*
X123571000Y-105025213D01*
X123571000Y-102993213D01*
G37*
D13*
X123825000Y-117930000D02*
X122753925Y-116401952D01*
X122504907Y-115767529D02*
X122504907Y-115767529D01*
X122337969Y-115106745D02*
X122337969Y-115106745D01*
X122255781Y-114430174D02*
X122472575Y-112576764D01*
X122708686Y-111937424D02*
X122708686Y-111937424D01*
X123023616Y-111333005D02*
X123023616Y-111333005D01*
X123412326Y-110773176D02*
X124807135Y-109533565D01*
X125408731Y-109213277D02*
X125408731Y-109213277D01*
X126045947Y-108971494D02*
X126045947Y-108971494D01*
X126708588Y-108812085D02*
X128574633Y-108814409D01*
X129236874Y-108975468D02*
X129236874Y-108975468D01*
X129873485Y-109218838D02*
X129873485Y-109218838D01*
X130474282Y-109540625D02*
X131865999Y-110783707D01*
X132253313Y-111344502D02*
X132253313Y-111344502D01*
X132566735Y-111949704D02*
X132566735Y-111949704D01*
X132801252Y-112589630D02*
X133013429Y-114443575D01*
X132929555Y-115119939D02*
X132929555Y-115119939D01*
X132760971Y-115780305D02*
X132760971Y-115780305D01*
X132510374Y-116414106D02*
X131445000Y-117930000D01*
D12*
X123775787Y-104009213D02*
G75*
G02*
X117270213Y-104009213I-3252787J0D01*
G01*
X117270213Y-104009213D02*
G75*
G02*
X123775787Y-104009213I3252787J0D01*
G01*
D11*
X114935000Y-62353213D02*
X117221000Y-62353213D01*
X117221000Y-64385213D01*
X114935000Y-64385213D01*
X114935000Y-62353213D01*
G36*
X114935000Y-62353213D02*
G01*
X117221000Y-62353213D01*
X117221000Y-64385213D01*
X114935000Y-64385213D01*
X114935000Y-62353213D01*
G37*
X131191000Y-102993213D02*
X135255000Y-102993213D01*
X135255000Y-105025213D01*
X131191000Y-105025213D01*
X131191000Y-102993213D01*
G36*
X131191000Y-102993213D02*
G01*
X135255000Y-102993213D01*
X135255000Y-105025213D01*
X131191000Y-105025213D01*
X131191000Y-102993213D01*
G37*
X123571000Y-125345213D02*
X135255000Y-125345213D01*
X135255000Y-125853213D01*
X123571000Y-125853213D01*
X123571000Y-125345213D01*
G36*
X123571000Y-125345213D02*
G01*
X135255000Y-125345213D01*
X135255000Y-125853213D01*
X123571000Y-125853213D01*
X123571000Y-125345213D01*
G37*
D10*
G36*
X121357867Y-152728000D02*
G01*
X119817682Y-152728000D01*
X121357867Y-151248648D01*
X121357867Y-152728000D01*
G37*
D11*
X123571000Y-102485213D02*
X135255000Y-102485213D01*
X135255000Y-102993213D01*
X123571000Y-102993213D01*
X123571000Y-102485213D01*
G36*
X123571000Y-102485213D02*
G01*
X135255000Y-102485213D01*
X135255000Y-102993213D01*
X123571000Y-102993213D01*
X123571000Y-102485213D01*
G37*
X104775000Y-146147813D02*
X135255000Y-146147813D01*
X135255000Y-146427213D01*
X104775000Y-146427213D01*
X104775000Y-146147813D01*
G36*
X104775000Y-146147813D02*
G01*
X135255000Y-146147813D01*
X135255000Y-146427213D01*
X104775000Y-146427213D01*
X104775000Y-146147813D01*
G37*
X104775000Y-105025213D02*
X117475000Y-105025213D01*
X117475000Y-105533213D01*
X104775000Y-105533213D01*
X104775000Y-105025213D01*
G36*
X104775000Y-105025213D02*
G01*
X117475000Y-105025213D01*
X117475000Y-105533213D01*
X104775000Y-105533213D01*
X104775000Y-105025213D01*
G37*
X104775000Y-102485213D02*
X117475000Y-102485213D01*
X117475000Y-102993213D01*
X104775000Y-102993213D01*
X104775000Y-102485213D01*
G36*
X104775000Y-102485213D02*
G01*
X117475000Y-102485213D01*
X117475000Y-102993213D01*
X104775000Y-102993213D01*
X104775000Y-102485213D01*
G37*
X104775000Y-82673213D02*
X112649000Y-82673213D01*
X112649000Y-84705213D01*
X104775000Y-84705213D01*
X104775000Y-82673213D01*
G36*
X104775000Y-82673213D02*
G01*
X112649000Y-82673213D01*
X112649000Y-84705213D01*
X104775000Y-84705213D01*
X104775000Y-82673213D01*
G37*
X131191000Y-82673213D02*
X135255000Y-82673213D01*
X135255000Y-84705213D01*
X131191000Y-84705213D01*
X131191000Y-82673213D01*
G36*
X131191000Y-82673213D02*
G01*
X135255000Y-82673213D01*
X135255000Y-84705213D01*
X131191000Y-84705213D01*
X131191000Y-82673213D01*
G37*
X123571000Y-105025213D02*
X135255000Y-105025213D01*
X135255000Y-105533213D01*
X123571000Y-105533213D01*
X123571000Y-105025213D01*
G36*
X123571000Y-105025213D02*
G01*
X135255000Y-105025213D01*
X135255000Y-105533213D01*
X123571000Y-105533213D01*
X123571000Y-105025213D01*
G37*
D14*
X111965225Y-143966041D02*
X112250939Y-143966041D01*
X112250939Y-143966041D02*
X112393796Y-144037470D01*
X112393796Y-144037470D02*
X112536653Y-144180327D01*
X112536653Y-144180327D02*
X112608082Y-144466041D01*
X112608082Y-144466041D02*
X112608082Y-144966041D01*
X112608082Y-144966041D02*
X112536653Y-145251755D01*
X112536653Y-145251755D02*
X112393796Y-145394613D01*
X112393796Y-145394613D02*
X112250939Y-145466041D01*
X112250939Y-145466041D02*
X111965225Y-145466041D01*
X111965225Y-145466041D02*
X111822368Y-145394613D01*
X111822368Y-145394613D02*
X111679510Y-145251755D01*
X111679510Y-145251755D02*
X111608082Y-144966041D01*
X111608082Y-144966041D02*
X111608082Y-144466041D01*
X111608082Y-144466041D02*
X111679510Y-144180327D01*
X111679510Y-144180327D02*
X111822368Y-144037470D01*
X111822368Y-144037470D02*
X111965225Y-143966041D01*
X113250939Y-143966041D02*
X113250939Y-145180327D01*
X113250939Y-145180327D02*
X113322368Y-145323184D01*
X113322368Y-145323184D02*
X113393797Y-145394613D01*
X113393797Y-145394613D02*
X113536654Y-145466041D01*
X113536654Y-145466041D02*
X113822368Y-145466041D01*
X113822368Y-145466041D02*
X113965225Y-145394613D01*
X113965225Y-145394613D02*
X114036654Y-145323184D01*
X114036654Y-145323184D02*
X114108082Y-145180327D01*
X114108082Y-145180327D02*
X114108082Y-143966041D01*
X114608083Y-143966041D02*
X115465226Y-143966041D01*
X115036654Y-145466041D02*
X115036654Y-143966041D01*
G36*
X131129867Y-105142708D02*
G01*
X124570843Y-105142708D01*
X124570843Y-103326041D01*
X124737510Y-103326041D01*
X124740392Y-104855305D01*
X124762790Y-104909377D01*
X124804174Y-104950761D01*
X124858246Y-104973159D01*
X124887510Y-104976041D01*
X125631060Y-104973159D01*
X125685132Y-104950761D01*
X125726516Y-104909377D01*
X125748914Y-104855305D01*
X125748914Y-104796777D01*
X125726516Y-104742705D01*
X125685132Y-104701321D01*
X125631060Y-104678923D01*
X125601796Y-104676041D01*
X125037231Y-104678229D01*
X125034683Y-103326041D01*
X125951796Y-103326041D01*
X125954678Y-104855305D01*
X125977076Y-104909377D01*
X126018460Y-104950761D01*
X126072532Y-104973159D01*
X126101796Y-104976041D01*
X126845346Y-104973159D01*
X126899418Y-104950761D01*
X126940802Y-104909377D01*
X126963200Y-104855305D01*
X126963200Y-104796777D01*
X126940802Y-104742705D01*
X126899418Y-104701321D01*
X126845346Y-104678923D01*
X126816082Y-104676041D01*
X126251517Y-104678229D01*
X126250596Y-104189516D01*
X126631060Y-104187445D01*
X126685132Y-104165047D01*
X126726516Y-104123663D01*
X126748914Y-104069591D01*
X126748914Y-104011063D01*
X126726516Y-103956991D01*
X126685132Y-103915607D01*
X126631060Y-103893209D01*
X126601796Y-103890327D01*
X126250036Y-103892242D01*
X126249250Y-103475469D01*
X126845346Y-103473159D01*
X126899418Y-103450761D01*
X126940802Y-103409377D01*
X126963200Y-103355305D01*
X126963200Y-103344802D01*
X127095832Y-103344802D01*
X127102352Y-103373475D01*
X127599245Y-104855311D01*
X127599981Y-104865661D01*
X127608284Y-104882268D01*
X127614340Y-104900326D01*
X127621362Y-104908423D01*
X127626155Y-104918008D01*
X127640361Y-104930329D01*
X127652687Y-104944541D01*
X127662274Y-104949334D01*
X127670369Y-104956355D01*
X127688211Y-104962302D01*
X127705035Y-104970714D01*
X127715725Y-104971473D01*
X127725893Y-104974863D01*
X127744649Y-104973530D01*
X127763415Y-104974864D01*
X127773585Y-104971473D01*
X127784274Y-104970714D01*
X127801095Y-104962303D01*
X127818939Y-104956355D01*
X127827035Y-104949332D01*
X127836621Y-104944540D01*
X127848944Y-104930331D01*
X127863153Y-104918008D01*
X127867945Y-104908422D01*
X127874968Y-104900326D01*
X127886956Y-104873475D01*
X128393477Y-103344801D01*
X128392143Y-103326041D01*
X128594653Y-103326041D01*
X128597535Y-104855305D01*
X128619933Y-104909377D01*
X128661317Y-104950761D01*
X128715389Y-104973159D01*
X128744653Y-104976041D01*
X129488203Y-104973159D01*
X129542275Y-104950761D01*
X129583659Y-104909377D01*
X129606057Y-104855305D01*
X129606057Y-104796777D01*
X129583659Y-104742705D01*
X129542275Y-104701321D01*
X129488203Y-104678923D01*
X129458939Y-104676041D01*
X128894374Y-104678229D01*
X128893453Y-104189516D01*
X129273917Y-104187445D01*
X129327989Y-104165047D01*
X129369373Y-104123663D01*
X129391771Y-104069591D01*
X129391771Y-104011063D01*
X129369373Y-103956991D01*
X129327989Y-103915607D01*
X129273917Y-103893209D01*
X129244653Y-103890327D01*
X128892893Y-103892242D01*
X128892107Y-103475469D01*
X129488203Y-103473159D01*
X129542275Y-103450761D01*
X129583659Y-103409377D01*
X129606057Y-103355305D01*
X129606057Y-103326041D01*
X129951796Y-103326041D01*
X129954678Y-104855305D01*
X129977076Y-104909377D01*
X130018460Y-104950761D01*
X130072532Y-104973159D01*
X130101796Y-104976041D01*
X130845346Y-104973159D01*
X130899418Y-104950761D01*
X130940802Y-104909377D01*
X130963200Y-104855305D01*
X130963200Y-104796777D01*
X130940802Y-104742705D01*
X130899418Y-104701321D01*
X130845346Y-104678923D01*
X130816082Y-104676041D01*
X130251517Y-104678229D01*
X130248914Y-103296777D01*
X130226516Y-103242705D01*
X130185132Y-103201321D01*
X130131060Y-103178923D01*
X130072532Y-103178923D01*
X130018460Y-103201321D01*
X129977076Y-103242705D01*
X129954678Y-103296777D01*
X129951796Y-103326041D01*
X129606057Y-103326041D01*
X129606057Y-103296777D01*
X129583659Y-103242705D01*
X129542275Y-103201321D01*
X129488203Y-103178923D01*
X129458939Y-103176041D01*
X128715389Y-103178923D01*
X128661317Y-103201321D01*
X128619933Y-103242705D01*
X128597535Y-103296777D01*
X128594653Y-103326041D01*
X128392143Y-103326041D01*
X128389327Y-103286421D01*
X128363153Y-103234074D01*
X128318939Y-103195727D01*
X128263415Y-103177218D01*
X128205035Y-103181368D01*
X128152687Y-103207541D01*
X128114340Y-103251756D01*
X128102352Y-103278607D01*
X127745304Y-104356172D01*
X127374968Y-103251756D01*
X127336621Y-103207542D01*
X127284274Y-103181368D01*
X127225893Y-103177219D01*
X127170369Y-103195727D01*
X127126155Y-103234074D01*
X127099981Y-103286421D01*
X127095832Y-103344802D01*
X126963200Y-103344802D01*
X126963200Y-103296777D01*
X126940802Y-103242705D01*
X126899418Y-103201321D01*
X126845346Y-103178923D01*
X126816082Y-103176041D01*
X126072532Y-103178923D01*
X126018460Y-103201321D01*
X125977076Y-103242705D01*
X125954678Y-103296777D01*
X125951796Y-103326041D01*
X125034683Y-103326041D01*
X125034628Y-103296777D01*
X125012230Y-103242705D01*
X124970846Y-103201321D01*
X124916774Y-103178923D01*
X124858246Y-103178923D01*
X124804174Y-103201321D01*
X124762790Y-103242705D01*
X124740392Y-103296777D01*
X124737510Y-103326041D01*
X124570843Y-103326041D01*
X124570843Y-103009374D01*
X131129867Y-103009374D01*
X131129867Y-105142708D01*
G37*
G36*
X131129867Y-125462708D02*
G01*
X124570843Y-125462708D01*
X124570843Y-123646041D01*
X124737510Y-123646041D01*
X124740392Y-125175305D01*
X124762790Y-125229377D01*
X124804174Y-125270761D01*
X124858246Y-125293159D01*
X124887510Y-125296041D01*
X125631060Y-125293159D01*
X125685132Y-125270761D01*
X125726516Y-125229377D01*
X125748914Y-125175305D01*
X125748914Y-125116777D01*
X125726516Y-125062705D01*
X125685132Y-125021321D01*
X125631060Y-124998923D01*
X125601796Y-124996041D01*
X125037231Y-124998229D01*
X125034683Y-123646041D01*
X125951796Y-123646041D01*
X125954678Y-125175305D01*
X125977076Y-125229377D01*
X126018460Y-125270761D01*
X126072532Y-125293159D01*
X126101796Y-125296041D01*
X126845346Y-125293159D01*
X126899418Y-125270761D01*
X126940802Y-125229377D01*
X126963200Y-125175305D01*
X126963200Y-125116777D01*
X126940802Y-125062705D01*
X126899418Y-125021321D01*
X126845346Y-124998923D01*
X126816082Y-124996041D01*
X126251517Y-124998229D01*
X126250596Y-124509516D01*
X126631060Y-124507445D01*
X126685132Y-124485047D01*
X126726516Y-124443663D01*
X126748914Y-124389591D01*
X126748914Y-124331063D01*
X126726516Y-124276991D01*
X126685132Y-124235607D01*
X126631060Y-124213209D01*
X126601796Y-124210327D01*
X126250036Y-124212242D01*
X126249250Y-123795469D01*
X126845346Y-123793159D01*
X126899418Y-123770761D01*
X126940802Y-123729377D01*
X126963200Y-123675305D01*
X126963200Y-123664802D01*
X127095832Y-123664802D01*
X127102352Y-123693475D01*
X127599245Y-125175311D01*
X127599981Y-125185661D01*
X127608284Y-125202268D01*
X127614340Y-125220326D01*
X127621362Y-125228423D01*
X127626155Y-125238008D01*
X127640361Y-125250329D01*
X127652687Y-125264541D01*
X127662274Y-125269334D01*
X127670369Y-125276355D01*
X127688211Y-125282302D01*
X127705035Y-125290714D01*
X127715725Y-125291473D01*
X127725893Y-125294863D01*
X127744649Y-125293530D01*
X127763415Y-125294864D01*
X127773585Y-125291473D01*
X127784274Y-125290714D01*
X127801095Y-125282303D01*
X127818939Y-125276355D01*
X127827035Y-125269332D01*
X127836621Y-125264540D01*
X127848944Y-125250331D01*
X127863153Y-125238008D01*
X127867945Y-125228422D01*
X127874968Y-125220326D01*
X127886956Y-125193475D01*
X128393477Y-123664801D01*
X128392143Y-123646041D01*
X128594653Y-123646041D01*
X128597535Y-125175305D01*
X128619933Y-125229377D01*
X128661317Y-125270761D01*
X128715389Y-125293159D01*
X128744653Y-125296041D01*
X129488203Y-125293159D01*
X129542275Y-125270761D01*
X129583659Y-125229377D01*
X129606057Y-125175305D01*
X129606057Y-125116777D01*
X129583659Y-125062705D01*
X129542275Y-125021321D01*
X129488203Y-124998923D01*
X129458939Y-124996041D01*
X128894374Y-124998229D01*
X128893453Y-124509516D01*
X129273917Y-124507445D01*
X129327989Y-124485047D01*
X129369373Y-124443663D01*
X129391771Y-124389591D01*
X129391771Y-124331063D01*
X129369373Y-124276991D01*
X129327989Y-124235607D01*
X129273917Y-124213209D01*
X129244653Y-124210327D01*
X128892893Y-124212242D01*
X128892107Y-123795469D01*
X129488203Y-123793159D01*
X129542275Y-123770761D01*
X129583659Y-123729377D01*
X129606057Y-123675305D01*
X129606057Y-123646041D01*
X129951796Y-123646041D01*
X129954678Y-125175305D01*
X129977076Y-125229377D01*
X130018460Y-125270761D01*
X130072532Y-125293159D01*
X130101796Y-125296041D01*
X130845346Y-125293159D01*
X130899418Y-125270761D01*
X130940802Y-125229377D01*
X130963200Y-125175305D01*
X130963200Y-125116777D01*
X130940802Y-125062705D01*
X130899418Y-125021321D01*
X130845346Y-124998923D01*
X130816082Y-124996041D01*
X130251517Y-124998229D01*
X130248914Y-123616777D01*
X130226516Y-123562705D01*
X130185132Y-123521321D01*
X130131060Y-123498923D01*
X130072532Y-123498923D01*
X130018460Y-123521321D01*
X129977076Y-123562705D01*
X129954678Y-123616777D01*
X129951796Y-123646041D01*
X129606057Y-123646041D01*
X129606057Y-123616777D01*
X129583659Y-123562705D01*
X129542275Y-123521321D01*
X129488203Y-123498923D01*
X129458939Y-123496041D01*
X128715389Y-123498923D01*
X128661317Y-123521321D01*
X128619933Y-123562705D01*
X128597535Y-123616777D01*
X128594653Y-123646041D01*
X128392143Y-123646041D01*
X128389327Y-123606421D01*
X128363153Y-123554074D01*
X128318939Y-123515727D01*
X128263415Y-123497218D01*
X128205035Y-123501368D01*
X128152687Y-123527541D01*
X128114340Y-123571756D01*
X128102352Y-123598607D01*
X127745304Y-124676172D01*
X127374968Y-123571756D01*
X127336621Y-123527542D01*
X127284274Y-123501368D01*
X127225893Y-123497219D01*
X127170369Y-123515727D01*
X127126155Y-123554074D01*
X127099981Y-123606421D01*
X127095832Y-123664802D01*
X126963200Y-123664802D01*
X126963200Y-123616777D01*
X126940802Y-123562705D01*
X126899418Y-123521321D01*
X126845346Y-123498923D01*
X126816082Y-123496041D01*
X126072532Y-123498923D01*
X126018460Y-123521321D01*
X125977076Y-123562705D01*
X125954678Y-123616777D01*
X125951796Y-123646041D01*
X125034683Y-123646041D01*
X125034628Y-123616777D01*
X125012230Y-123562705D01*
X124970846Y-123521321D01*
X124916774Y-123498923D01*
X124858246Y-123498923D01*
X124804174Y-123521321D01*
X124762790Y-123562705D01*
X124740392Y-123616777D01*
X124737510Y-123646041D01*
X124570843Y-123646041D01*
X124570843Y-123329374D01*
X131129867Y-123329374D01*
X131129867Y-125462708D01*
G37*
G36*
X111972280Y-156860986D02*
G01*
X111927095Y-157173617D01*
X107892813Y-157173617D01*
X107937998Y-156860986D01*
X110330968Y-156860986D01*
X110479956Y-155923093D01*
X109308201Y-155923093D01*
X109178466Y-155908985D01*
X109060390Y-155862235D01*
X109023658Y-155837608D01*
X108943668Y-155742659D01*
X108929624Y-155628780D01*
X108946623Y-155503513D01*
X108948553Y-155490783D01*
X108967368Y-155365827D01*
X108969314Y-155352786D01*
X109020263Y-155234365D01*
X109112426Y-155152887D01*
X109120744Y-155147622D01*
X109236627Y-155093065D01*
X109363997Y-155066321D01*
X109426659Y-155063358D01*
X111442883Y-155063358D01*
X111398309Y-155375989D01*
X109802793Y-155375989D01*
X109768599Y-155610462D01*
X110942796Y-155610462D01*
X111072329Y-155624470D01*
X111189738Y-155670886D01*
X111226118Y-155695337D01*
X111306107Y-155790591D01*
X111321372Y-155906607D01*
X111301032Y-156028995D01*
X111280920Y-156151308D01*
X111261037Y-156273543D01*
X111241383Y-156395703D01*
X111222340Y-156516374D01*
X111201372Y-156648663D01*
X111180887Y-156777280D01*
X111167499Y-156860986D01*
X111972280Y-156860986D01*
G37*
G36*
X112100507Y-155610462D02*
G01*
X112938260Y-155610462D01*
X112741034Y-156860986D01*
X113500629Y-156860986D01*
X113696024Y-155610462D01*
X114531945Y-155610462D01*
X114336550Y-156860986D01*
X115133393Y-156860986D01*
X115088208Y-157173617D01*
X114290755Y-157173617D01*
X114254118Y-157410532D01*
X114201436Y-157522161D01*
X114100856Y-157603484D01*
X113986160Y-157654088D01*
X113859370Y-157678894D01*
X113796774Y-157681642D01*
X113710678Y-157681642D01*
X113398047Y-157681642D01*
X111780549Y-157681642D01*
X111825123Y-157369011D01*
X113421250Y-157369011D01*
X113454223Y-157173617D01*
X112678752Y-157173617D01*
X112280636Y-157173617D01*
X112151196Y-157160516D01*
X112032986Y-157117106D01*
X111996093Y-157094238D01*
X111913294Y-156998564D01*
X111902060Y-156896401D01*
X112100507Y-155610462D01*
G37*
G36*
X115273222Y-155610462D02*
G01*
X117283951Y-155610462D01*
X117413484Y-155624470D01*
X117530893Y-155670886D01*
X117567273Y-155695337D01*
X117646804Y-155790591D01*
X117661917Y-155906607D01*
X117509876Y-156860986D01*
X118306107Y-156860986D01*
X118260922Y-157173617D01*
X117446983Y-157173617D01*
X116627548Y-157173617D01*
X116822943Y-155923093D01*
X116065179Y-155923093D01*
X115867953Y-157173617D01*
X115032032Y-157173617D01*
X115231090Y-155880351D01*
X115273222Y-155610462D01*
G37*
G36*
X118485626Y-155336910D02*
G01*
X119323989Y-155336910D01*
X119284300Y-155571383D01*
X120080532Y-155571383D01*
X120035347Y-155884014D01*
X119237894Y-155884014D01*
X119040668Y-157160183D01*
X118204746Y-157160183D01*
X118401362Y-155885846D01*
X118201083Y-155899279D01*
X118246268Y-155571383D01*
X118445936Y-155571383D01*
X118485626Y-155336910D01*
G37*
G36*
X120112894Y-155102437D02*
G01*
X120950647Y-155102437D01*
X120871268Y-155610462D01*
X121010944Y-155610462D01*
X121135415Y-155610462D01*
X121261990Y-155610462D01*
X121390668Y-155610462D01*
X121446460Y-155610462D01*
X121577121Y-155610462D01*
X121707840Y-155610462D01*
X121838618Y-155610462D01*
X121969454Y-155610462D01*
X122044244Y-155610462D01*
X122173777Y-155624470D01*
X122291186Y-155670886D01*
X122327566Y-155695337D01*
X122407097Y-155790591D01*
X122422210Y-155906607D01*
X122270169Y-156860986D01*
X123066400Y-156860986D01*
X123021215Y-157173617D01*
X122891673Y-157173617D01*
X122762936Y-157173617D01*
X122635003Y-157173617D01*
X122507876Y-157173617D01*
X122381554Y-157173617D01*
X122256036Y-157173617D01*
X122206055Y-157173617D01*
X122080946Y-157173617D01*
X121954823Y-157173617D01*
X121827687Y-157173617D01*
X121699537Y-157173617D01*
X121570374Y-157173617D01*
X121440196Y-157173617D01*
X121387841Y-157173617D01*
X121583236Y-155923093D01*
X120825472Y-155923093D01*
X120628246Y-157173617D01*
X119792325Y-157173617D01*
X120112894Y-155102437D01*
G37*
G36*
X123283776Y-155102437D02*
G01*
X124121529Y-155102437D01*
X123844924Y-156860986D01*
X125440441Y-156860986D01*
X125395256Y-157173617D01*
X123384527Y-157173617D01*
X123255086Y-157160516D01*
X123136877Y-157117106D01*
X123099984Y-157094238D01*
X123017184Y-156998564D01*
X123005950Y-156896401D01*
X123283776Y-155102437D01*
G37*
G36*
X127725417Y-155624470D02*
G01*
X127842826Y-155670886D01*
X127879206Y-155695337D01*
X127958737Y-155790591D01*
X127973850Y-155906607D01*
X127821809Y-156860986D01*
X128618040Y-156860986D01*
X128572855Y-157173617D01*
X125343965Y-157173617D01*
X125391613Y-156860986D01*
X126226292Y-156860986D01*
X126983445Y-156860986D01*
X127055497Y-156431118D01*
X126298344Y-156431118D01*
X126226292Y-156860986D01*
X125391613Y-156860986D01*
X125463644Y-156388376D01*
X125515718Y-156277700D01*
X125616906Y-156196645D01*
X125732789Y-156146041D01*
X125860159Y-156121235D01*
X125922820Y-156118487D01*
X127101903Y-156118487D01*
X127134265Y-155923093D01*
X125539970Y-155923093D01*
X125584544Y-155610462D01*
X127595884Y-155610462D01*
X127725417Y-155624470D01*
G37*
G36*
X129595622Y-155610462D02*
G01*
X130768599Y-155610462D01*
X130898132Y-155624470D01*
X131015540Y-155670886D01*
X131051920Y-155695337D01*
X131131452Y-155790591D01*
X131146564Y-155906607D01*
X131000629Y-156860986D01*
X131797472Y-156860986D01*
X131752287Y-157173617D01*
X128516679Y-157173617D01*
X128565067Y-156860986D01*
X129399007Y-156860986D01*
X130156160Y-156860986D01*
X130306980Y-155923093D01*
X129549827Y-155923093D01*
X129399007Y-156860986D01*
X128565067Y-156860986D01*
X128837248Y-155102437D01*
X129675001Y-155102437D01*
X129595622Y-155610462D01*
G37*
D15*
G36*
X120907625Y-102932891D02*
G01*
X121112788Y-102932891D01*
X121280095Y-102978076D01*
X121350098Y-103217515D01*
X121319174Y-103268725D01*
X121115927Y-103421482D01*
X121067604Y-103442138D01*
X120853891Y-103547162D01*
X121099152Y-103615409D01*
X121110346Y-103617992D01*
X121355347Y-103682588D01*
X121463277Y-103716911D01*
X121688090Y-103817084D01*
X121763696Y-103865899D01*
X121899508Y-104072780D01*
X121910241Y-104137009D01*
X121880288Y-104386234D01*
X121836969Y-104478949D01*
X121687829Y-104677401D01*
X121586620Y-104769598D01*
X121382165Y-104906210D01*
X121223919Y-104983310D01*
X120992165Y-105066729D01*
X120808706Y-105113980D01*
X120564870Y-105152727D01*
X120404484Y-105160386D01*
X120160059Y-105136413D01*
X120083305Y-105113980D01*
X119895238Y-105041928D01*
X119781665Y-104982089D01*
X119685189Y-104902710D01*
X119545971Y-104763491D01*
X119563068Y-104546115D01*
X119693738Y-104478949D01*
X119823186Y-104530240D01*
X120039265Y-104692203D01*
X120289385Y-104778757D01*
X120536164Y-104792631D01*
X120809007Y-104748770D01*
X120891749Y-104725634D01*
X121125678Y-104638356D01*
X121351536Y-104502839D01*
X121463277Y-104402012D01*
X121543877Y-104188300D01*
X121322332Y-104060683D01*
X121089585Y-103990463D01*
X120852746Y-103923907D01*
X120611090Y-103844356D01*
X120450890Y-103768202D01*
X120391051Y-103561817D01*
X120541260Y-103372528D01*
X120643842Y-103313910D01*
X120394257Y-103323475D01*
X120138260Y-103346250D01*
X120006368Y-103368865D01*
X119897680Y-103428704D01*
X119856159Y-103428704D01*
X119688853Y-103294371D01*
X119759683Y-103095313D01*
X119990859Y-103002802D01*
X120237534Y-102963733D01*
X120510730Y-102952431D01*
X120758545Y-102947697D01*
X120812370Y-102941440D01*
X120907625Y-102932891D01*
G37*
D14*
G36*
X131129867Y-84822708D02*
G01*
X124570843Y-84822708D01*
X124570843Y-83006041D01*
X124737510Y-83006041D01*
X124740392Y-84535305D01*
X124762790Y-84589377D01*
X124804174Y-84630761D01*
X124858246Y-84653159D01*
X124887510Y-84656041D01*
X125631060Y-84653159D01*
X125685132Y-84630761D01*
X125726516Y-84589377D01*
X125748914Y-84535305D01*
X125748914Y-84476777D01*
X125726516Y-84422705D01*
X125685132Y-84381321D01*
X125631060Y-84358923D01*
X125601796Y-84356041D01*
X125037231Y-84358229D01*
X125034683Y-83006041D01*
X125951796Y-83006041D01*
X125954678Y-84535305D01*
X125977076Y-84589377D01*
X126018460Y-84630761D01*
X126072532Y-84653159D01*
X126101796Y-84656041D01*
X126845346Y-84653159D01*
X126899418Y-84630761D01*
X126940802Y-84589377D01*
X126963200Y-84535305D01*
X126963200Y-84476777D01*
X126940802Y-84422705D01*
X126899418Y-84381321D01*
X126845346Y-84358923D01*
X126816082Y-84356041D01*
X126251517Y-84358229D01*
X126250596Y-83869516D01*
X126631060Y-83867445D01*
X126685132Y-83845047D01*
X126726516Y-83803663D01*
X126748914Y-83749591D01*
X126748914Y-83691063D01*
X126726516Y-83636991D01*
X126685132Y-83595607D01*
X126631060Y-83573209D01*
X126601796Y-83570327D01*
X126250036Y-83572242D01*
X126249250Y-83155469D01*
X126845346Y-83153159D01*
X126899418Y-83130761D01*
X126940802Y-83089377D01*
X126963200Y-83035305D01*
X126963200Y-83024802D01*
X127095832Y-83024802D01*
X127102352Y-83053475D01*
X127599245Y-84535311D01*
X127599981Y-84545661D01*
X127608284Y-84562268D01*
X127614340Y-84580326D01*
X127621362Y-84588423D01*
X127626155Y-84598008D01*
X127640361Y-84610329D01*
X127652687Y-84624541D01*
X127662274Y-84629334D01*
X127670369Y-84636355D01*
X127688211Y-84642302D01*
X127705035Y-84650714D01*
X127715725Y-84651473D01*
X127725893Y-84654863D01*
X127744649Y-84653530D01*
X127763415Y-84654864D01*
X127773585Y-84651473D01*
X127784274Y-84650714D01*
X127801095Y-84642303D01*
X127818939Y-84636355D01*
X127827035Y-84629332D01*
X127836621Y-84624540D01*
X127848944Y-84610331D01*
X127863153Y-84598008D01*
X127867945Y-84588422D01*
X127874968Y-84580326D01*
X127886956Y-84553475D01*
X128393477Y-83024801D01*
X128392143Y-83006041D01*
X128594653Y-83006041D01*
X128597535Y-84535305D01*
X128619933Y-84589377D01*
X128661317Y-84630761D01*
X128715389Y-84653159D01*
X128744653Y-84656041D01*
X129488203Y-84653159D01*
X129542275Y-84630761D01*
X129583659Y-84589377D01*
X129606057Y-84535305D01*
X129606057Y-84476777D01*
X129583659Y-84422705D01*
X129542275Y-84381321D01*
X129488203Y-84358923D01*
X129458939Y-84356041D01*
X128894374Y-84358229D01*
X128893453Y-83869516D01*
X129273917Y-83867445D01*
X129327989Y-83845047D01*
X129369373Y-83803663D01*
X129391771Y-83749591D01*
X129391771Y-83691063D01*
X129369373Y-83636991D01*
X129327989Y-83595607D01*
X129273917Y-83573209D01*
X129244653Y-83570327D01*
X128892893Y-83572242D01*
X128892107Y-83155469D01*
X129488203Y-83153159D01*
X129542275Y-83130761D01*
X129583659Y-83089377D01*
X129606057Y-83035305D01*
X129606057Y-83006041D01*
X129951796Y-83006041D01*
X129954678Y-84535305D01*
X129977076Y-84589377D01*
X130018460Y-84630761D01*
X130072532Y-84653159D01*
X130101796Y-84656041D01*
X130845346Y-84653159D01*
X130899418Y-84630761D01*
X130940802Y-84589377D01*
X130963200Y-84535305D01*
X130963200Y-84476777D01*
X130940802Y-84422705D01*
X130899418Y-84381321D01*
X130845346Y-84358923D01*
X130816082Y-84356041D01*
X130251517Y-84358229D01*
X130248914Y-82976777D01*
X130226516Y-82922705D01*
X130185132Y-82881321D01*
X130131060Y-82858923D01*
X130072532Y-82858923D01*
X130018460Y-82881321D01*
X129977076Y-82922705D01*
X129954678Y-82976777D01*
X129951796Y-83006041D01*
X129606057Y-83006041D01*
X129606057Y-82976777D01*
X129583659Y-82922705D01*
X129542275Y-82881321D01*
X129488203Y-82858923D01*
X129458939Y-82856041D01*
X128715389Y-82858923D01*
X128661317Y-82881321D01*
X128619933Y-82922705D01*
X128597535Y-82976777D01*
X128594653Y-83006041D01*
X128392143Y-83006041D01*
X128389327Y-82966421D01*
X128363153Y-82914074D01*
X128318939Y-82875727D01*
X128263415Y-82857218D01*
X128205035Y-82861368D01*
X128152687Y-82887541D01*
X128114340Y-82931756D01*
X128102352Y-82958607D01*
X127745304Y-84036172D01*
X127374968Y-82931756D01*
X127336621Y-82887542D01*
X127284274Y-82861368D01*
X127225893Y-82857219D01*
X127170369Y-82875727D01*
X127126155Y-82914074D01*
X127099981Y-82966421D01*
X127095832Y-83024802D01*
X126963200Y-83024802D01*
X126963200Y-82976777D01*
X126940802Y-82922705D01*
X126899418Y-82881321D01*
X126845346Y-82858923D01*
X126816082Y-82856041D01*
X126072532Y-82858923D01*
X126018460Y-82881321D01*
X125977076Y-82922705D01*
X125954678Y-82976777D01*
X125951796Y-83006041D01*
X125034683Y-83006041D01*
X125034628Y-82976777D01*
X125012230Y-82922705D01*
X124970846Y-82881321D01*
X124916774Y-82858923D01*
X124858246Y-82858923D01*
X124804174Y-82881321D01*
X124762790Y-82922705D01*
X124740392Y-82976777D01*
X124737510Y-83006041D01*
X124570843Y-83006041D01*
X124570843Y-82689374D01*
X131129867Y-82689374D01*
X131129867Y-84822708D01*
G37*
D15*
G36*
X120653707Y-62112963D02*
G01*
X120823456Y-61950541D01*
X121011523Y-62103193D01*
X120989541Y-62250960D01*
X120957713Y-62499973D01*
X120913520Y-62746926D01*
X120877189Y-62910416D01*
X120821733Y-63158413D01*
X120775275Y-63402489D01*
X120766059Y-63459962D01*
X120731172Y-63711709D01*
X120720874Y-63811672D01*
X120698262Y-64057465D01*
X120696450Y-64074233D01*
X120647596Y-64326080D01*
X120563714Y-64555515D01*
X120551125Y-64579815D01*
X120353288Y-64659194D01*
X120220176Y-64485782D01*
X120220176Y-64451588D01*
X120258034Y-64358776D01*
X120313239Y-64114700D01*
X120355409Y-63860153D01*
X120387482Y-63638259D01*
X120422898Y-63388521D01*
X120458580Y-63145041D01*
X120492507Y-62932397D01*
X120541279Y-62685331D01*
X120559674Y-62599006D01*
X120610521Y-62357783D01*
X120631725Y-62248517D01*
X120672025Y-62116626D01*
X120653707Y-62112963D01*
G37*
D16*
X115329979Y-40574379D02*
X115201407Y-40702951D01*
X115201407Y-40702951D02*
X114815693Y-40831522D01*
X114815693Y-40831522D02*
X114558550Y-40831522D01*
X114558550Y-40831522D02*
X114172836Y-40702951D01*
X114172836Y-40702951D02*
X113915693Y-40445808D01*
X113915693Y-40445808D02*
X113787122Y-40188665D01*
X113787122Y-40188665D02*
X113658550Y-39674379D01*
X113658550Y-39674379D02*
X113658550Y-39288665D01*
X113658550Y-39288665D02*
X113787122Y-38774379D01*
X113787122Y-38774379D02*
X113915693Y-38517236D01*
X113915693Y-38517236D02*
X114172836Y-38260093D01*
X114172836Y-38260093D02*
X114558550Y-38131522D01*
X114558550Y-38131522D02*
X114815693Y-38131522D01*
X114815693Y-38131522D02*
X115201407Y-38260093D01*
X115201407Y-38260093D02*
X115329979Y-38388665D01*
X117001407Y-38131522D02*
X117515693Y-38131522D01*
X117515693Y-38131522D02*
X117772836Y-38260093D01*
X117772836Y-38260093D02*
X118029979Y-38517236D01*
X118029979Y-38517236D02*
X118158550Y-39031522D01*
X118158550Y-39031522D02*
X118158550Y-39931522D01*
X118158550Y-39931522D02*
X118029979Y-40445808D01*
X118029979Y-40445808D02*
X117772836Y-40702951D01*
X117772836Y-40702951D02*
X117515693Y-40831522D01*
X117515693Y-40831522D02*
X117001407Y-40831522D01*
X117001407Y-40831522D02*
X116744265Y-40702951D01*
X116744265Y-40702951D02*
X116487122Y-40445808D01*
X116487122Y-40445808D02*
X116358550Y-39931522D01*
X116358550Y-39931522D02*
X116358550Y-39031522D01*
X116358550Y-39031522D02*
X116487122Y-38517236D01*
X116487122Y-38517236D02*
X116744265Y-38260093D01*
X116744265Y-38260093D02*
X117001407Y-38131522D01*
X119315693Y-40831522D02*
X119315693Y-38131522D01*
X119315693Y-38131522D02*
X120858550Y-40831522D01*
X120858550Y-40831522D02*
X120858550Y-38131522D01*
X123687121Y-40574379D02*
X123558549Y-40702951D01*
X123558549Y-40702951D02*
X123172835Y-40831522D01*
X123172835Y-40831522D02*
X122915692Y-40831522D01*
X122915692Y-40831522D02*
X122529978Y-40702951D01*
X122529978Y-40702951D02*
X122272835Y-40445808D01*
X122272835Y-40445808D02*
X122144264Y-40188665D01*
X122144264Y-40188665D02*
X122015692Y-39674379D01*
X122015692Y-39674379D02*
X122015692Y-39288665D01*
X122015692Y-39288665D02*
X122144264Y-38774379D01*
X122144264Y-38774379D02*
X122272835Y-38517236D01*
X122272835Y-38517236D02*
X122529978Y-38260093D01*
X122529978Y-38260093D02*
X122915692Y-38131522D01*
X122915692Y-38131522D02*
X123172835Y-38131522D01*
X123172835Y-38131522D02*
X123558549Y-38260093D01*
X123558549Y-38260093D02*
X123687121Y-38388665D01*
X126387121Y-40831522D02*
X125487121Y-39545808D01*
X124844264Y-40831522D02*
X124844264Y-38131522D01*
X124844264Y-38131522D02*
X125872835Y-38131522D01*
X125872835Y-38131522D02*
X126129978Y-38260093D01*
X126129978Y-38260093D02*
X126258549Y-38388665D01*
X126258549Y-38388665D02*
X126387121Y-38645808D01*
X126387121Y-38645808D02*
X126387121Y-39031522D01*
X126387121Y-39031522D02*
X126258549Y-39288665D01*
X126258549Y-39288665D02*
X126129978Y-39417236D01*
X126129978Y-39417236D02*
X125872835Y-39545808D01*
X125872835Y-39545808D02*
X124844264Y-39545808D01*
X127544264Y-39417236D02*
X128444264Y-39417236D01*
X128829978Y-40831522D02*
X127544264Y-40831522D01*
X127544264Y-40831522D02*
X127544264Y-38131522D01*
X127544264Y-38131522D02*
X128829978Y-38131522D01*
X129601406Y-38131522D02*
X131144264Y-38131522D01*
X130372835Y-40831522D02*
X130372835Y-38131522D01*
X132044264Y-39417236D02*
X132944264Y-39417236D01*
X133329978Y-40831522D02*
X132044264Y-40831522D01*
X132044264Y-40831522D02*
X132044264Y-38131522D01*
X132044264Y-38131522D02*
X133329978Y-38131522D01*
X122401407Y-45178371D02*
X122401407Y-42478371D01*
X122401407Y-42478371D02*
X123301407Y-44406942D01*
X123301407Y-44406942D02*
X124201407Y-42478371D01*
X124201407Y-42478371D02*
X124201407Y-45178371D01*
X125487121Y-45178371D02*
X125487121Y-42478371D01*
X126515692Y-42478371D02*
X128315692Y-45178371D01*
X128315692Y-42478371D02*
X126515692Y-45178371D01*
X129344264Y-43764085D02*
X130244264Y-43764085D01*
X130629978Y-45178371D02*
X129344264Y-45178371D01*
X129344264Y-45178371D02*
X129344264Y-42478371D01*
X129344264Y-42478371D02*
X130629978Y-42478371D01*
X133329978Y-45178371D02*
X132429978Y-43892657D01*
X131787121Y-45178371D02*
X131787121Y-42478371D01*
X131787121Y-42478371D02*
X132815692Y-42478371D01*
X132815692Y-42478371D02*
X133072835Y-42606942D01*
X133072835Y-42606942D02*
X133201406Y-42735514D01*
X133201406Y-42735514D02*
X133329978Y-42992657D01*
X133329978Y-42992657D02*
X133329978Y-43378371D01*
X133329978Y-43378371D02*
X133201406Y-43635514D01*
X133201406Y-43635514D02*
X133072835Y-43764085D01*
X133072835Y-43764085D02*
X132815692Y-43892657D01*
X132815692Y-43892657D02*
X131787121Y-43892657D01*
D14*
G36*
X114837606Y-125462342D02*
G01*
X112632843Y-125462342D01*
X112632843Y-123646041D01*
X112799510Y-123646041D01*
X112802392Y-125175305D01*
X112824790Y-125229377D01*
X112866174Y-125270761D01*
X112920246Y-125293159D01*
X112978774Y-125293159D01*
X113032846Y-125270761D01*
X113074230Y-125229377D01*
X113096628Y-125175305D01*
X113099510Y-125146041D01*
X113096683Y-123646041D01*
X113513796Y-123646041D01*
X113516678Y-125175305D01*
X113539076Y-125229377D01*
X113580460Y-125270761D01*
X113634532Y-125293159D01*
X113693060Y-125293159D01*
X113747132Y-125270761D01*
X113788516Y-125229377D01*
X113810914Y-125175305D01*
X113813796Y-125146041D01*
X113812024Y-124205924D01*
X114388773Y-125211402D01*
X114396219Y-125229377D01*
X114402937Y-125236095D01*
X114407724Y-125244440D01*
X114423497Y-125256655D01*
X114437603Y-125270761D01*
X114446436Y-125274419D01*
X114453998Y-125280276D01*
X114473246Y-125285525D01*
X114491675Y-125293159D01*
X114501237Y-125293159D01*
X114510462Y-125295675D01*
X114530253Y-125293159D01*
X114550203Y-125293159D01*
X114559036Y-125289499D01*
X114568522Y-125288294D01*
X114585844Y-125278395D01*
X114604275Y-125270761D01*
X114611035Y-125264000D01*
X114619338Y-125259256D01*
X114631551Y-125243484D01*
X114645659Y-125229377D01*
X114649318Y-125220541D01*
X114655173Y-125212982D01*
X114660421Y-125193737D01*
X114668057Y-125175305D01*
X114669530Y-125160340D01*
X114670573Y-125156519D01*
X114670197Y-125153567D01*
X114670939Y-125146041D01*
X114668057Y-123616777D01*
X114645659Y-123562705D01*
X114604275Y-123521321D01*
X114550203Y-123498923D01*
X114491675Y-123498923D01*
X114437603Y-123521321D01*
X114396219Y-123562705D01*
X114373821Y-123616777D01*
X114370939Y-123646041D01*
X114372710Y-124586156D01*
X113795961Y-123580679D01*
X113788516Y-123562705D01*
X113781797Y-123555986D01*
X113777011Y-123547642D01*
X113761239Y-123535428D01*
X113747132Y-123521321D01*
X113738296Y-123517661D01*
X113730737Y-123511807D01*
X113711492Y-123506558D01*
X113693060Y-123498923D01*
X113683498Y-123498923D01*
X113674273Y-123496407D01*
X113654482Y-123498923D01*
X113634532Y-123498923D01*
X113625698Y-123502582D01*
X113616213Y-123503788D01*
X113598890Y-123513686D01*
X113580460Y-123521321D01*
X113573699Y-123528081D01*
X113565397Y-123532826D01*
X113553183Y-123548597D01*
X113539076Y-123562705D01*
X113535416Y-123571540D01*
X113529562Y-123579100D01*
X113524313Y-123598344D01*
X113516678Y-123616777D01*
X113515204Y-123631743D01*
X113514162Y-123635564D01*
X113514537Y-123638515D01*
X113513796Y-123646041D01*
X113096683Y-123646041D01*
X113096628Y-123616777D01*
X113074230Y-123562705D01*
X113032846Y-123521321D01*
X112978774Y-123498923D01*
X112920246Y-123498923D01*
X112866174Y-123521321D01*
X112824790Y-123562705D01*
X112802392Y-123616777D01*
X112799510Y-123646041D01*
X112632843Y-123646041D01*
X112632843Y-123329740D01*
X114837606Y-123329740D01*
X114837606Y-125462342D01*
G37*
G36*
X114837606Y-64502342D02*
G01*
X112632843Y-64502342D01*
X112632843Y-62686041D01*
X112799510Y-62686041D01*
X112802392Y-64215305D01*
X112824790Y-64269377D01*
X112866174Y-64310761D01*
X112920246Y-64333159D01*
X112978774Y-64333159D01*
X113032846Y-64310761D01*
X113074230Y-64269377D01*
X113096628Y-64215305D01*
X113099510Y-64186041D01*
X113096683Y-62686041D01*
X113513796Y-62686041D01*
X113516678Y-64215305D01*
X113539076Y-64269377D01*
X113580460Y-64310761D01*
X113634532Y-64333159D01*
X113693060Y-64333159D01*
X113747132Y-64310761D01*
X113788516Y-64269377D01*
X113810914Y-64215305D01*
X113813796Y-64186041D01*
X113812024Y-63245924D01*
X114388773Y-64251402D01*
X114396219Y-64269377D01*
X114402937Y-64276095D01*
X114407724Y-64284440D01*
X114423497Y-64296655D01*
X114437603Y-64310761D01*
X114446436Y-64314419D01*
X114453998Y-64320276D01*
X114473246Y-64325525D01*
X114491675Y-64333159D01*
X114501237Y-64333159D01*
X114510462Y-64335675D01*
X114530253Y-64333159D01*
X114550203Y-64333159D01*
X114559036Y-64329499D01*
X114568522Y-64328294D01*
X114585844Y-64318395D01*
X114604275Y-64310761D01*
X114611035Y-64304000D01*
X114619338Y-64299256D01*
X114631551Y-64283484D01*
X114645659Y-64269377D01*
X114649318Y-64260541D01*
X114655173Y-64252982D01*
X114660421Y-64233737D01*
X114668057Y-64215305D01*
X114669530Y-64200340D01*
X114670573Y-64196519D01*
X114670197Y-64193567D01*
X114670939Y-64186041D01*
X114668057Y-62656777D01*
X114645659Y-62602705D01*
X114604275Y-62561321D01*
X114550203Y-62538923D01*
X114491675Y-62538923D01*
X114437603Y-62561321D01*
X114396219Y-62602705D01*
X114373821Y-62656777D01*
X114370939Y-62686041D01*
X114372710Y-63626156D01*
X113795961Y-62620679D01*
X113788516Y-62602705D01*
X113781797Y-62595986D01*
X113777011Y-62587642D01*
X113761239Y-62575428D01*
X113747132Y-62561321D01*
X113738296Y-62557661D01*
X113730737Y-62551807D01*
X113711492Y-62546558D01*
X113693060Y-62538923D01*
X113683498Y-62538923D01*
X113674273Y-62536407D01*
X113654482Y-62538923D01*
X113634532Y-62538923D01*
X113625698Y-62542582D01*
X113616213Y-62543788D01*
X113598890Y-62553686D01*
X113580460Y-62561321D01*
X113573699Y-62568081D01*
X113565397Y-62572826D01*
X113553183Y-62588597D01*
X113539076Y-62602705D01*
X113535416Y-62611540D01*
X113529562Y-62619100D01*
X113524313Y-62638344D01*
X113516678Y-62656777D01*
X113515204Y-62671743D01*
X113514162Y-62675564D01*
X113514537Y-62678515D01*
X113513796Y-62686041D01*
X113096683Y-62686041D01*
X113096628Y-62656777D01*
X113074230Y-62602705D01*
X113032846Y-62561321D01*
X112978774Y-62538923D01*
X112920246Y-62538923D01*
X112866174Y-62561321D01*
X112824790Y-62602705D01*
X112802392Y-62656777D01*
X112799510Y-62686041D01*
X112632843Y-62686041D01*
X112632843Y-62369740D01*
X114837606Y-62369740D01*
X114837606Y-64502342D01*
G37*
G36*
X114837606Y-105142342D02*
G01*
X112632843Y-105142342D01*
X112632843Y-103326041D01*
X112799510Y-103326041D01*
X112802392Y-104855305D01*
X112824790Y-104909377D01*
X112866174Y-104950761D01*
X112920246Y-104973159D01*
X112978774Y-104973159D01*
X113032846Y-104950761D01*
X113074230Y-104909377D01*
X113096628Y-104855305D01*
X113099510Y-104826041D01*
X113096683Y-103326041D01*
X113513796Y-103326041D01*
X113516678Y-104855305D01*
X113539076Y-104909377D01*
X113580460Y-104950761D01*
X113634532Y-104973159D01*
X113693060Y-104973159D01*
X113747132Y-104950761D01*
X113788516Y-104909377D01*
X113810914Y-104855305D01*
X113813796Y-104826041D01*
X113812024Y-103885924D01*
X114388773Y-104891402D01*
X114396219Y-104909377D01*
X114402937Y-104916095D01*
X114407724Y-104924440D01*
X114423497Y-104936655D01*
X114437603Y-104950761D01*
X114446436Y-104954419D01*
X114453998Y-104960276D01*
X114473246Y-104965525D01*
X114491675Y-104973159D01*
X114501237Y-104973159D01*
X114510462Y-104975675D01*
X114530253Y-104973159D01*
X114550203Y-104973159D01*
X114559036Y-104969499D01*
X114568522Y-104968294D01*
X114585844Y-104958395D01*
X114604275Y-104950761D01*
X114611035Y-104944000D01*
X114619338Y-104939256D01*
X114631551Y-104923484D01*
X114645659Y-104909377D01*
X114649318Y-104900541D01*
X114655173Y-104892982D01*
X114660421Y-104873737D01*
X114668057Y-104855305D01*
X114669530Y-104840340D01*
X114670573Y-104836519D01*
X114670197Y-104833567D01*
X114670939Y-104826041D01*
X114668057Y-103296777D01*
X114645659Y-103242705D01*
X114604275Y-103201321D01*
X114550203Y-103178923D01*
X114491675Y-103178923D01*
X114437603Y-103201321D01*
X114396219Y-103242705D01*
X114373821Y-103296777D01*
X114370939Y-103326041D01*
X114372710Y-104266156D01*
X113795961Y-103260679D01*
X113788516Y-103242705D01*
X113781797Y-103235986D01*
X113777011Y-103227642D01*
X113761239Y-103215428D01*
X113747132Y-103201321D01*
X113738296Y-103197661D01*
X113730737Y-103191807D01*
X113711492Y-103186558D01*
X113693060Y-103178923D01*
X113683498Y-103178923D01*
X113674273Y-103176407D01*
X113654482Y-103178923D01*
X113634532Y-103178923D01*
X113625698Y-103182582D01*
X113616213Y-103183788D01*
X113598890Y-103193686D01*
X113580460Y-103201321D01*
X113573699Y-103208081D01*
X113565397Y-103212826D01*
X113553183Y-103228597D01*
X113539076Y-103242705D01*
X113535416Y-103251540D01*
X113529562Y-103259100D01*
X113524313Y-103278344D01*
X113516678Y-103296777D01*
X113515204Y-103311743D01*
X113514162Y-103315564D01*
X113514537Y-103318515D01*
X113513796Y-103326041D01*
X113096683Y-103326041D01*
X113096628Y-103296777D01*
X113074230Y-103242705D01*
X113032846Y-103201321D01*
X112978774Y-103178923D01*
X112920246Y-103178923D01*
X112866174Y-103201321D01*
X112824790Y-103242705D01*
X112802392Y-103296777D01*
X112799510Y-103326041D01*
X112632843Y-103326041D01*
X112632843Y-103009740D01*
X114837606Y-103009740D01*
X114837606Y-105142342D01*
G37*
D15*
G36*
X120173141Y-82984951D02*
G01*
X119928134Y-82954469D01*
X119916686Y-82938545D01*
X119936225Y-82706515D01*
X120145686Y-82576266D01*
X120186574Y-82553863D01*
X120410571Y-82448872D01*
X120465011Y-82428078D01*
X120704760Y-82359303D01*
X120760545Y-82348699D01*
X121012532Y-82348353D01*
X121036539Y-82353584D01*
X121253621Y-82480291D01*
X121352129Y-82709431D01*
X121360161Y-82772460D01*
X121337502Y-83037406D01*
X121253772Y-83269285D01*
X121132674Y-83486704D01*
X120966930Y-83717680D01*
X120787447Y-83926347D01*
X120606822Y-84108098D01*
X120406352Y-84286338D01*
X120214662Y-84439418D01*
X120198786Y-84400339D01*
X120229316Y-84361260D01*
X120458905Y-84308748D01*
X120724885Y-84261163D01*
X120968031Y-84229679D01*
X121225172Y-84206781D01*
X121496311Y-84192470D01*
X121781445Y-84186746D01*
X121830328Y-84186626D01*
X121967104Y-84193954D01*
X122074571Y-84353933D01*
X122074571Y-84366145D01*
X121965883Y-84549327D01*
X121715038Y-84572301D01*
X121677676Y-84566424D01*
X121428490Y-84537372D01*
X121405346Y-84537115D01*
X121143763Y-84546894D01*
X120887188Y-84576232D01*
X120635623Y-84625128D01*
X120585911Y-84637254D01*
X120341159Y-84699869D01*
X120095312Y-84762462D01*
X120025374Y-84780136D01*
X119793126Y-84872119D01*
X119788458Y-84875391D01*
X119629700Y-84927903D01*
X119490482Y-84883940D01*
X119422094Y-84776473D01*
X119491191Y-84539604D01*
X119499030Y-84533451D01*
X119715022Y-84374603D01*
X119921655Y-84218822D01*
X120119625Y-84062735D01*
X120218325Y-83979020D01*
X120414559Y-83797364D01*
X120600836Y-83598111D01*
X120750598Y-83404267D01*
X120830154Y-83278043D01*
X120944414Y-83057366D01*
X121003566Y-82820088D01*
X120866790Y-82685754D01*
X120619475Y-82737970D01*
X120546832Y-82768797D01*
X120330019Y-82881668D01*
X120173141Y-82984951D01*
G37*
G36*
X120020068Y-124564389D02*
G01*
X120267507Y-124513465D01*
X120526481Y-124492514D01*
X120672197Y-124489895D01*
X120748031Y-124223150D01*
X120827931Y-123970443D01*
X120917093Y-123738099D01*
X120998261Y-123602072D01*
X121242909Y-123590227D01*
X121287688Y-123639930D01*
X121314555Y-123808457D01*
X121253494Y-123939127D01*
X121169918Y-124178180D01*
X121144806Y-124241988D01*
X121064435Y-124480812D01*
X121043446Y-124555840D01*
X121286931Y-124616940D01*
X121501401Y-124701165D01*
X121652832Y-124790314D01*
X121817695Y-124789092D01*
X121916614Y-124974717D01*
X121757856Y-125151793D01*
X121513613Y-125121263D01*
X121285213Y-125016297D01*
X121262043Y-125002805D01*
X121093515Y-124925868D01*
X120946970Y-124894117D01*
X120876677Y-125135166D01*
X120862706Y-125184766D01*
X120790893Y-125422530D01*
X120774779Y-125470530D01*
X120669754Y-125621960D01*
X120543969Y-125631730D01*
X120426732Y-125409469D01*
X120485351Y-125181102D01*
X120550167Y-124939063D01*
X120574499Y-124841605D01*
X120314338Y-124857675D01*
X120072409Y-124905885D01*
X119818243Y-125000339D01*
X119587892Y-125136771D01*
X119534025Y-125177438D01*
X119304437Y-125171332D01*
X119262915Y-124963726D01*
X119255588Y-124947850D01*
X119319091Y-124884347D01*
X119476195Y-124688990D01*
X119523034Y-124626671D01*
X119676503Y-124419142D01*
X119826035Y-124210438D01*
X119858868Y-124163831D01*
X120001879Y-123956176D01*
X120141268Y-123742347D01*
X120277034Y-123512418D01*
X120370557Y-123316308D01*
X120369335Y-123161214D01*
X120502448Y-123062295D01*
X120734960Y-123150609D01*
X120747912Y-123273565D01*
X120666577Y-123520010D01*
X120542166Y-123764138D01*
X120412793Y-123983098D01*
X120281370Y-124189047D01*
X120222790Y-124277404D01*
X120077770Y-124485678D01*
X120020068Y-124564389D01*
G37*
D14*
G36*
X131129867Y-64502708D02*
G01*
X124570843Y-64502708D01*
X124570843Y-62686041D01*
X124737510Y-62686041D01*
X124740392Y-64215305D01*
X124762790Y-64269377D01*
X124804174Y-64310761D01*
X124858246Y-64333159D01*
X124887510Y-64336041D01*
X125631060Y-64333159D01*
X125685132Y-64310761D01*
X125726516Y-64269377D01*
X125748914Y-64215305D01*
X125748914Y-64156777D01*
X125726516Y-64102705D01*
X125685132Y-64061321D01*
X125631060Y-64038923D01*
X125601796Y-64036041D01*
X125037231Y-64038229D01*
X125034683Y-62686041D01*
X125951796Y-62686041D01*
X125954678Y-64215305D01*
X125977076Y-64269377D01*
X126018460Y-64310761D01*
X126072532Y-64333159D01*
X126101796Y-64336041D01*
X126845346Y-64333159D01*
X126899418Y-64310761D01*
X126940802Y-64269377D01*
X126963200Y-64215305D01*
X126963200Y-64156777D01*
X126940802Y-64102705D01*
X126899418Y-64061321D01*
X126845346Y-64038923D01*
X126816082Y-64036041D01*
X126251517Y-64038229D01*
X126250596Y-63549516D01*
X126631060Y-63547445D01*
X126685132Y-63525047D01*
X126726516Y-63483663D01*
X126748914Y-63429591D01*
X126748914Y-63371063D01*
X126726516Y-63316991D01*
X126685132Y-63275607D01*
X126631060Y-63253209D01*
X126601796Y-63250327D01*
X126250036Y-63252242D01*
X126249250Y-62835469D01*
X126845346Y-62833159D01*
X126899418Y-62810761D01*
X126940802Y-62769377D01*
X126963200Y-62715305D01*
X126963200Y-62704802D01*
X127095832Y-62704802D01*
X127102352Y-62733475D01*
X127599245Y-64215311D01*
X127599981Y-64225661D01*
X127608284Y-64242268D01*
X127614340Y-64260326D01*
X127621362Y-64268423D01*
X127626155Y-64278008D01*
X127640361Y-64290329D01*
X127652687Y-64304541D01*
X127662274Y-64309334D01*
X127670369Y-64316355D01*
X127688211Y-64322302D01*
X127705035Y-64330714D01*
X127715725Y-64331473D01*
X127725893Y-64334863D01*
X127744649Y-64333530D01*
X127763415Y-64334864D01*
X127773585Y-64331473D01*
X127784274Y-64330714D01*
X127801095Y-64322303D01*
X127818939Y-64316355D01*
X127827035Y-64309332D01*
X127836621Y-64304540D01*
X127848944Y-64290331D01*
X127863153Y-64278008D01*
X127867945Y-64268422D01*
X127874968Y-64260326D01*
X127886956Y-64233475D01*
X128393477Y-62704801D01*
X128392143Y-62686041D01*
X128594653Y-62686041D01*
X128597535Y-64215305D01*
X128619933Y-64269377D01*
X128661317Y-64310761D01*
X128715389Y-64333159D01*
X128744653Y-64336041D01*
X129488203Y-64333159D01*
X129542275Y-64310761D01*
X129583659Y-64269377D01*
X129606057Y-64215305D01*
X129606057Y-64156777D01*
X129583659Y-64102705D01*
X129542275Y-64061321D01*
X129488203Y-64038923D01*
X129458939Y-64036041D01*
X128894374Y-64038229D01*
X128893453Y-63549516D01*
X129273917Y-63547445D01*
X129327989Y-63525047D01*
X129369373Y-63483663D01*
X129391771Y-63429591D01*
X129391771Y-63371063D01*
X129369373Y-63316991D01*
X129327989Y-63275607D01*
X129273917Y-63253209D01*
X129244653Y-63250327D01*
X128892893Y-63252242D01*
X128892107Y-62835469D01*
X129488203Y-62833159D01*
X129542275Y-62810761D01*
X129583659Y-62769377D01*
X129606057Y-62715305D01*
X129606057Y-62686041D01*
X129951796Y-62686041D01*
X129954678Y-64215305D01*
X129977076Y-64269377D01*
X130018460Y-64310761D01*
X130072532Y-64333159D01*
X130101796Y-64336041D01*
X130845346Y-64333159D01*
X130899418Y-64310761D01*
X130940802Y-64269377D01*
X130963200Y-64215305D01*
X130963200Y-64156777D01*
X130940802Y-64102705D01*
X130899418Y-64061321D01*
X130845346Y-64038923D01*
X130816082Y-64036041D01*
X130251517Y-64038229D01*
X130248914Y-62656777D01*
X130226516Y-62602705D01*
X130185132Y-62561321D01*
X130131060Y-62538923D01*
X130072532Y-62538923D01*
X130018460Y-62561321D01*
X129977076Y-62602705D01*
X129954678Y-62656777D01*
X129951796Y-62686041D01*
X129606057Y-62686041D01*
X129606057Y-62656777D01*
X129583659Y-62602705D01*
X129542275Y-62561321D01*
X129488203Y-62538923D01*
X129458939Y-62536041D01*
X128715389Y-62538923D01*
X128661317Y-62561321D01*
X128619933Y-62602705D01*
X128597535Y-62656777D01*
X128594653Y-62686041D01*
X128392143Y-62686041D01*
X128389327Y-62646421D01*
X128363153Y-62594074D01*
X128318939Y-62555727D01*
X128263415Y-62537218D01*
X128205035Y-62541368D01*
X128152687Y-62567541D01*
X128114340Y-62611756D01*
X128102352Y-62638607D01*
X127745304Y-63716172D01*
X127374968Y-62611756D01*
X127336621Y-62567542D01*
X127284274Y-62541368D01*
X127225893Y-62537219D01*
X127170369Y-62555727D01*
X127126155Y-62594074D01*
X127099981Y-62646421D01*
X127095832Y-62704802D01*
X126963200Y-62704802D01*
X126963200Y-62656777D01*
X126940802Y-62602705D01*
X126899418Y-62561321D01*
X126845346Y-62538923D01*
X126816082Y-62536041D01*
X126072532Y-62538923D01*
X126018460Y-62561321D01*
X125977076Y-62602705D01*
X125954678Y-62656777D01*
X125951796Y-62686041D01*
X125034683Y-62686041D01*
X125034628Y-62656777D01*
X125012230Y-62602705D01*
X124970846Y-62561321D01*
X124916774Y-62538923D01*
X124858246Y-62538923D01*
X124804174Y-62561321D01*
X124762790Y-62602705D01*
X124740392Y-62656777D01*
X124737510Y-62686041D01*
X124570843Y-62686041D01*
X124570843Y-62369374D01*
X131129867Y-62369374D01*
X131129867Y-64502708D01*
G37*
G36*
X114837606Y-84822342D02*
G01*
X112632843Y-84822342D01*
X112632843Y-83006041D01*
X112799510Y-83006041D01*
X112802392Y-84535305D01*
X112824790Y-84589377D01*
X112866174Y-84630761D01*
X112920246Y-84653159D01*
X112978774Y-84653159D01*
X113032846Y-84630761D01*
X113074230Y-84589377D01*
X113096628Y-84535305D01*
X113099510Y-84506041D01*
X113096683Y-83006041D01*
X113513796Y-83006041D01*
X113516678Y-84535305D01*
X113539076Y-84589377D01*
X113580460Y-84630761D01*
X113634532Y-84653159D01*
X113693060Y-84653159D01*
X113747132Y-84630761D01*
X113788516Y-84589377D01*
X113810914Y-84535305D01*
X113813796Y-84506041D01*
X113812024Y-83565924D01*
X114388773Y-84571402D01*
X114396219Y-84589377D01*
X114402937Y-84596095D01*
X114407724Y-84604440D01*
X114423497Y-84616655D01*
X114437603Y-84630761D01*
X114446436Y-84634419D01*
X114453998Y-84640276D01*
X114473246Y-84645525D01*
X114491675Y-84653159D01*
X114501237Y-84653159D01*
X114510462Y-84655675D01*
X114530253Y-84653159D01*
X114550203Y-84653159D01*
X114559036Y-84649499D01*
X114568522Y-84648294D01*
X114585844Y-84638395D01*
X114604275Y-84630761D01*
X114611035Y-84624000D01*
X114619338Y-84619256D01*
X114631551Y-84603484D01*
X114645659Y-84589377D01*
X114649318Y-84580541D01*
X114655173Y-84572982D01*
X114660421Y-84553737D01*
X114668057Y-84535305D01*
X114669530Y-84520340D01*
X114670573Y-84516519D01*
X114670197Y-84513567D01*
X114670939Y-84506041D01*
X114668057Y-82976777D01*
X114645659Y-82922705D01*
X114604275Y-82881321D01*
X114550203Y-82858923D01*
X114491675Y-82858923D01*
X114437603Y-82881321D01*
X114396219Y-82922705D01*
X114373821Y-82976777D01*
X114370939Y-83006041D01*
X114372710Y-83946156D01*
X113795961Y-82940679D01*
X113788516Y-82922705D01*
X113781797Y-82915986D01*
X113777011Y-82907642D01*
X113761239Y-82895428D01*
X113747132Y-82881321D01*
X113738296Y-82877661D01*
X113730737Y-82871807D01*
X113711492Y-82866558D01*
X113693060Y-82858923D01*
X113683498Y-82858923D01*
X113674273Y-82856407D01*
X113654482Y-82858923D01*
X113634532Y-82858923D01*
X113625698Y-82862582D01*
X113616213Y-82863788D01*
X113598890Y-82873686D01*
X113580460Y-82881321D01*
X113573699Y-82888081D01*
X113565397Y-82892826D01*
X113553183Y-82908597D01*
X113539076Y-82922705D01*
X113535416Y-82931540D01*
X113529562Y-82939100D01*
X113524313Y-82958344D01*
X113516678Y-82976777D01*
X113515204Y-82991743D01*
X113514162Y-82995564D01*
X113514537Y-82998515D01*
X113513796Y-83006041D01*
X113096683Y-83006041D01*
X113096628Y-82976777D01*
X113074230Y-82922705D01*
X113032846Y-82881321D01*
X112978774Y-82858923D01*
X112920246Y-82858923D01*
X112866174Y-82881321D01*
X112824790Y-82922705D01*
X112802392Y-82976777D01*
X112799510Y-83006041D01*
X112632843Y-83006041D01*
X112632843Y-82689740D01*
X114837606Y-82689740D01*
X114837606Y-84822342D01*
G37*
X125601796Y-145466041D02*
X124887510Y-145466041D01*
X124887510Y-145466041D02*
X124887510Y-143966041D01*
X126101796Y-144680327D02*
X126601796Y-144680327D01*
X126816082Y-145466041D02*
X126101796Y-145466041D01*
X126101796Y-145466041D02*
X126101796Y-143966041D01*
X126101796Y-143966041D02*
X126816082Y-143966041D01*
X127244654Y-143966041D02*
X127744654Y-145466041D01*
X127744654Y-145466041D02*
X128244654Y-143966041D01*
X128744653Y-144680327D02*
X129244653Y-144680327D01*
X129458939Y-145466041D02*
X128744653Y-145466041D01*
X128744653Y-145466041D02*
X128744653Y-143966041D01*
X128744653Y-143966041D02*
X129458939Y-143966041D01*
X130816082Y-145466041D02*
X130101796Y-145466041D01*
X130101796Y-145466041D02*
X130101796Y-143966041D01*
M02*
