M48
; DRILL file {KiCad 8.0.1-8.0.1-1~ubuntu22.04.1} date 2024-04-11T21:22:17+0200
; FORMAT={-:-/ absolute / inch / decimal}
; #@! TF.CreationDate,2024-04-11T21:22:17+02:00
; #@! TF.GenerationSoftware,Kicad,Pcbnew,8.0.1-8.0.1-1~ubuntu22.04.1
; #@! TF.FileFunction,Plated,1,2,PTH
FMAT,2
INCH
; #@! TA.AperFunction,Plated,PTH,ComponentDrill
T1C0.0315
; #@! TA.AperFunction,Plated,PTH,ComponentDrill
T2C0.0394
; #@! TA.AperFunction,Plated,PTH,ComponentDrill
T3C0.0630
; #@! TA.AperFunction,Plated,PTH,ComponentDrill
T4C0.0709
%
G90
G05
T1
X2.839Y-4.9429
X2.839Y-5.0429
X3.139Y-4.9429
X3.139Y-5.0429
X3.239Y-4.7429
X3.239Y-5.0429
X3.389Y-3.4429
X3.389Y-3.9429
X3.389Y-4.0429
X3.389Y-4.1429
X3.389Y-4.2429
X3.389Y-4.7429
X3.389Y-5.0429
X3.489Y-4.7429
X3.489Y-5.0429
X3.589Y-4.7429
X3.589Y-5.0429
X3.619Y-5.8929
X3.689Y-3.4429
X3.689Y-3.9429
X3.689Y-4.0429
X3.689Y-4.1429
X3.689Y-4.2429
X3.689Y-4.7429
X3.689Y-5.0429
X3.7006Y-5.6929
X3.7174Y-5.8929
X3.799Y-5.6929
T2
X2.8906Y-2.3882
X2.8906Y-3.1882
X2.8906Y-3.9882
X2.8906Y-4.7882
X2.939Y-5.7929
X2.939Y-5.8929
X2.989Y-2.3882
X2.989Y-3.1882
X2.989Y-3.9882
X2.989Y-4.7882
X3.039Y-5.7929
X3.039Y-5.8929
X3.0874Y-2.3882
X3.0874Y-3.1882
X3.0874Y-3.9882
X3.0874Y-4.7882
X3.139Y-5.7929
X3.139Y-5.8929
X3.239Y-5.7929
X3.239Y-5.8929
X3.339Y-5.7929
X3.339Y-5.8929
X3.4408Y-5.5882
X3.5393Y-5.5882
X3.6377Y-5.5882
T3
X2.7953Y-5.2929
X3.122Y-5.2929
X3.2441Y-5.2929
X3.3453Y-2.0929
X3.3453Y-2.8929
X3.3453Y-3.6929
X3.3453Y-4.4929
X3.672Y-2.0929
X3.672Y-2.8929
X3.672Y-3.6929
X3.672Y-4.4929
X3.7941Y-2.0929
X3.7941Y-2.8929
X3.7941Y-3.6929
X3.7941Y-4.4929
T4
X2.8Y-2.0929
X2.8Y-2.8929
X2.8Y-3.6929
X2.8Y-4.4929
X3.178Y-2.0929
X3.178Y-2.8929
X3.178Y-3.6929
X3.178Y-4.4929
X3.3503Y-5.2929
X3.7282Y-5.2929
M30
