%TF.GenerationSoftware,KiCad,Pcbnew,8.0.1-8.0.1-1~ubuntu22.04.1*%
%TF.CreationDate,2024-04-08T16:27:00+02:00*%
%TF.ProjectId,HagiwoEurorackMixer,48616769-776f-4457-9572-6f7261636b4d,rev?*%
%TF.SameCoordinates,Original*%
%TF.FileFunction,Soldermask,Bot*%
%TF.FilePolarity,Negative*%
%FSLAX46Y46*%
G04 Gerber Fmt 4.6, Leading zero omitted, Abs format (unit mm)*
G04 Created by KiCad (PCBNEW 8.0.1-8.0.1-1~ubuntu22.04.1) date 2024-04-08 16:27:00*
%MOMM*%
%LPD*%
G01*
G04 APERTURE LIST*
G04 Aperture macros list*
%AMRoundRect*
0 Rectangle with rounded corners*
0 $1 Rounding radius*
0 $2 $3 $4 $5 $6 $7 $8 $9 X,Y pos of 4 corners*
0 Add a 4 corners polygon primitive as box body*
4,1,4,$2,$3,$4,$5,$6,$7,$8,$9,$2,$3,0*
0 Add four circle primitives for the rounded corners*
1,1,$1+$1,$2,$3*
1,1,$1+$1,$4,$5*
1,1,$1+$1,$6,$7*
1,1,$1+$1,$8,$9*
0 Add four rect primitives between the rounded corners*
20,1,$1+$1,$2,$3,$4,$5,0*
20,1,$1+$1,$4,$5,$6,$7,0*
20,1,$1+$1,$6,$7,$8,$9,0*
20,1,$1+$1,$8,$9,$2,$3,0*%
G04 Aperture macros list end*
%ADD10C,3.500000*%
%ADD11C,1.800000*%
%ADD12C,1.600000*%
%ADD13O,1.600000X1.600000*%
%ADD14C,2.000000*%
%ADD15C,1.300000*%
%ADD16R,1.600000X1.600000*%
%ADD17C,3.000000*%
%ADD18RoundRect,0.250000X-0.600000X0.600000X-0.600000X-0.600000X0.600000X-0.600000X0.600000X0.600000X0*%
%ADD19C,1.700000*%
%ADD20O,5.200000X3.200000*%
G04 APERTURE END LIST*
D10*
%TO.C,REF\u002A\u002A*%
X129540000Y-114120000D03*
%TD*%
%TO.C,REF\u002A\u002A*%
X129540000Y-93800000D03*
%TD*%
D11*
%TO.C,J3*%
X96370000Y-93800000D03*
X84970000Y-93800000D03*
X93270000Y-93800000D03*
%TD*%
D10*
%TO.C,REF\u002A\u002A*%
X115570000Y-134440000D03*
%TD*%
D12*
%TO.C,R5*%
X93700000Y-107770000D03*
D13*
X86080000Y-107770000D03*
%TD*%
D12*
%TO.C,R7*%
X82270000Y-128090000D03*
D13*
X82270000Y-120470000D03*
%TD*%
D11*
%TO.C,J5*%
X82400000Y-134440000D03*
X71000000Y-134440000D03*
X79300000Y-134440000D03*
%TD*%
D14*
%TO.C,RV4*%
X71120000Y-114120000D03*
X80720000Y-114120000D03*
D15*
X73420000Y-121620000D03*
X75920000Y-121620000D03*
X78420000Y-121620000D03*
%TD*%
D12*
%TO.C,R4*%
X86080000Y-105230000D03*
D13*
X93700000Y-105230000D03*
%TD*%
D16*
%TO.C,C2*%
X96494000Y-144600000D03*
D12*
X93994000Y-144600000D03*
%TD*%
D17*
%TO.C,REF\u002A\u002A*%
X115570000Y-73480000D03*
%TD*%
D16*
%TO.C,U2*%
X86080000Y-128090000D03*
D13*
X88620000Y-128090000D03*
X91160000Y-128090000D03*
X93700000Y-128090000D03*
X93700000Y-120470000D03*
X91160000Y-120470000D03*
X88620000Y-120470000D03*
X86080000Y-120470000D03*
%TD*%
D17*
%TO.C,REF\u002A\u002A*%
X115570000Y-53160000D03*
%TD*%
D18*
%TO.C,J6*%
X84810000Y-147140000D03*
D19*
X84810000Y-149680000D03*
X82270000Y-147140000D03*
X82270000Y-149680000D03*
X79730000Y-147140000D03*
X79730000Y-149680000D03*
X77190000Y-147140000D03*
X77190000Y-149680000D03*
X74650000Y-147140000D03*
X74650000Y-149680000D03*
%TD*%
D14*
%TO.C,RV5*%
X85097034Y-134440000D03*
X94697034Y-134440000D03*
D15*
X87397034Y-141940000D03*
X89897034Y-141940000D03*
X92397034Y-141940000D03*
%TD*%
D12*
%TO.C,R1*%
X86080000Y-87450000D03*
D13*
X93700000Y-87450000D03*
%TD*%
D17*
%TO.C,REF\u002A\u002A*%
X129540000Y-134440000D03*
%TD*%
D20*
%TO.C,REF\u002A\u002A*%
X111760000Y-38557200D03*
%TD*%
D14*
%TO.C,RV1*%
X71120000Y-53160000D03*
X80720000Y-53160000D03*
D15*
X73420000Y-60660000D03*
X75920000Y-60660000D03*
X78420000Y-60660000D03*
%TD*%
D16*
%TO.C,C1*%
X94422000Y-149680000D03*
D12*
X91922000Y-149680000D03*
%TD*%
%TO.C,R3*%
X86080000Y-102690000D03*
D13*
X93700000Y-102690000D03*
%TD*%
D17*
%TO.C,REF\u002A\u002A*%
X115570000Y-93800000D03*
%TD*%
D10*
%TO.C,REF\u002A\u002A*%
X129540000Y-73480000D03*
%TD*%
D20*
%TO.C,REF\u002A\u002A*%
X132080000Y-161061400D03*
%TD*%
D11*
%TO.C,J2*%
X96370000Y-73480000D03*
X84970000Y-73480000D03*
X93270000Y-73480000D03*
%TD*%
D12*
%TO.C,R6*%
X72110000Y-125550000D03*
D13*
X79730000Y-125550000D03*
%TD*%
D14*
%TO.C,RV3*%
X71120000Y-93800000D03*
X80720000Y-93800000D03*
D15*
X73420000Y-101300000D03*
X75920000Y-101300000D03*
X78420000Y-101300000D03*
%TD*%
D12*
%TO.C,R8*%
X79730000Y-128090000D03*
D13*
X72110000Y-128090000D03*
%TD*%
D17*
%TO.C,REF\u002A\u002A*%
X115570000Y-114120000D03*
%TD*%
D11*
%TO.C,J4*%
X96370000Y-114120000D03*
X84970000Y-114120000D03*
X93270000Y-114120000D03*
%TD*%
D10*
%TO.C,REF\u002A\u002A*%
X129540000Y-53160000D03*
%TD*%
D11*
%TO.C,J1*%
X96370000Y-53160000D03*
X84970000Y-53160000D03*
X93270000Y-53160000D03*
%TD*%
D14*
%TO.C,RV2*%
X71120000Y-73480000D03*
X80720000Y-73480000D03*
D15*
X73420000Y-80980000D03*
X75920000Y-80980000D03*
X78420000Y-80980000D03*
%TD*%
D12*
%TO.C,R2*%
X86080000Y-100150000D03*
D13*
X93700000Y-100150000D03*
%TD*%
M02*
