%TF.GenerationSoftware,KiCad,Pcbnew,8.0.1-8.0.1-1~ubuntu22.04.1*%
%TF.CreationDate,2024-04-12T07:50:30+02:00*%
%TF.ProjectId,HagiwoEurorackMixer_PCBOnly,48616769-776f-4457-9572-6f7261636b4d,rev?*%
%TF.SameCoordinates,Original*%
%TF.FileFunction,Drillmap*%
%TF.FilePolarity,Positive*%
%FSLAX45Y45*%
G04 Gerber Fmt 4.5, Leading zero omitted, Abs format (unit mm)*
G04 Created by KiCad (PCBNEW 8.0.1-8.0.1-1~ubuntu22.04.1) date 2024-04-12 07:50:30*
%MOMM*%
%LPD*%
G01*
G04 APERTURE LIST*
%ADD10C,0.100000*%
%ADD11C,0.050000*%
%ADD12C,0.200000*%
G04 APERTURE END LIST*
D10*
X9289000Y-11412000D02*
G75*
G02*
X8689000Y-11412000I-300000J0D01*
G01*
X8689000Y-11412000D02*
G75*
G02*
X9289000Y-11412000I300000J0D01*
G01*
X7942000Y-11412000D02*
G75*
G02*
X7242000Y-11412000I-350000J0D01*
G01*
X7242000Y-11412000D02*
G75*
G02*
X7942000Y-11412000I350000J0D01*
G01*
X7892000Y-13444000D02*
G75*
G02*
X7292000Y-13444000I-300000J0D01*
G01*
X7292000Y-13444000D02*
G75*
G02*
X7892000Y-13444000I300000J0D01*
G01*
X7892000Y-13444000D02*
G75*
G02*
X7292000Y-13444000I-300000J0D01*
G01*
X7292000Y-13444000D02*
G75*
G02*
X7892000Y-13444000I300000J0D01*
G01*
X9289000Y-5316000D02*
G75*
G02*
X8689000Y-5316000I-300000J0D01*
G01*
X8689000Y-5316000D02*
G75*
G02*
X9289000Y-5316000I300000J0D01*
G01*
X7942000Y-5316000D02*
G75*
G02*
X7242000Y-5316000I-350000J0D01*
G01*
X7242000Y-5316000D02*
G75*
G02*
X7942000Y-5316000I350000J0D01*
G01*
X7942000Y-5316000D02*
G75*
G02*
X7242000Y-5316000I-350000J0D01*
G01*
X7242000Y-5316000D02*
G75*
G02*
X7942000Y-5316000I350000J0D01*
G01*
D11*
X6904000Y-4681000D02*
X9804000Y-4681000D01*
X9804000Y-15281000D01*
X6904000Y-15281000D01*
X6904000Y-4681000D01*
D10*
X9289000Y-7348000D02*
G75*
G02*
X8689000Y-7348000I-300000J0D01*
G01*
X8689000Y-7348000D02*
G75*
G02*
X9289000Y-7348000I300000J0D01*
G01*
X7942000Y-9380000D02*
G75*
G02*
X7242000Y-9380000I-350000J0D01*
G01*
X7242000Y-9380000D02*
G75*
G02*
X7942000Y-9380000I350000J0D01*
G01*
X7942000Y-7348000D02*
G75*
G02*
X7242000Y-7348000I-350000J0D01*
G01*
X7242000Y-7348000D02*
G75*
G02*
X7942000Y-7348000I350000J0D01*
G01*
X9289000Y-9380000D02*
G75*
G02*
X8689000Y-9380000I-300000J0D01*
G01*
X8689000Y-9380000D02*
G75*
G02*
X9289000Y-9380000I300000J0D01*
G01*
X9289000Y-11412000D02*
G75*
G02*
X8689000Y-11412000I-300000J0D01*
G01*
X8689000Y-11412000D02*
G75*
G02*
X9289000Y-11412000I300000J0D01*
G01*
X7942000Y-9380000D02*
G75*
G02*
X7242000Y-9380000I-350000J0D01*
G01*
X7242000Y-9380000D02*
G75*
G02*
X7942000Y-9380000I350000J0D01*
G01*
X7942000Y-7348000D02*
G75*
G02*
X7242000Y-7348000I-350000J0D01*
G01*
X7242000Y-7348000D02*
G75*
G02*
X7942000Y-7348000I350000J0D01*
G01*
X9289000Y-7348000D02*
G75*
G02*
X8689000Y-7348000I-300000J0D01*
G01*
X8689000Y-7348000D02*
G75*
G02*
X9289000Y-7348000I300000J0D01*
G01*
X9289000Y-9380000D02*
G75*
G02*
X8689000Y-9380000I-300000J0D01*
G01*
X8689000Y-9380000D02*
G75*
G02*
X9289000Y-9380000I300000J0D01*
G01*
X9289000Y-5316000D02*
G75*
G02*
X8689000Y-5316000I-300000J0D01*
G01*
X8689000Y-5316000D02*
G75*
G02*
X9289000Y-5316000I300000J0D01*
G01*
X7942000Y-11412000D02*
G75*
G02*
X7242000Y-11412000I-350000J0D01*
G01*
X7242000Y-11412000D02*
G75*
G02*
X7942000Y-11412000I350000J0D01*
G01*
D12*
X7162277Y-15594984D02*
X7162277Y-15394984D01*
X7162277Y-15394984D02*
X7209896Y-15394984D01*
X7209896Y-15394984D02*
X7238467Y-15404508D01*
X7238467Y-15404508D02*
X7257515Y-15423555D01*
X7257515Y-15423555D02*
X7267039Y-15442603D01*
X7267039Y-15442603D02*
X7276562Y-15480698D01*
X7276562Y-15480698D02*
X7276562Y-15509269D01*
X7276562Y-15509269D02*
X7267039Y-15547365D01*
X7267039Y-15547365D02*
X7257515Y-15566412D01*
X7257515Y-15566412D02*
X7238467Y-15585460D01*
X7238467Y-15585460D02*
X7209896Y-15594984D01*
X7209896Y-15594984D02*
X7162277Y-15594984D01*
X7362277Y-15594984D02*
X7362277Y-15461650D01*
X7362277Y-15499746D02*
X7371801Y-15480698D01*
X7371801Y-15480698D02*
X7381324Y-15471174D01*
X7381324Y-15471174D02*
X7400372Y-15461650D01*
X7400372Y-15461650D02*
X7419420Y-15461650D01*
X7486086Y-15594984D02*
X7486086Y-15461650D01*
X7486086Y-15394984D02*
X7476562Y-15404508D01*
X7476562Y-15404508D02*
X7486086Y-15414031D01*
X7486086Y-15414031D02*
X7495610Y-15404508D01*
X7495610Y-15404508D02*
X7486086Y-15394984D01*
X7486086Y-15394984D02*
X7486086Y-15414031D01*
X7609896Y-15594984D02*
X7590848Y-15585460D01*
X7590848Y-15585460D02*
X7581324Y-15566412D01*
X7581324Y-15566412D02*
X7581324Y-15394984D01*
X7714658Y-15594984D02*
X7695610Y-15585460D01*
X7695610Y-15585460D02*
X7686086Y-15566412D01*
X7686086Y-15566412D02*
X7686086Y-15394984D01*
X7943229Y-15594984D02*
X7943229Y-15394984D01*
X7943229Y-15394984D02*
X8009896Y-15537841D01*
X8009896Y-15537841D02*
X8076562Y-15394984D01*
X8076562Y-15394984D02*
X8076562Y-15594984D01*
X8257515Y-15594984D02*
X8257515Y-15490222D01*
X8257515Y-15490222D02*
X8247991Y-15471174D01*
X8247991Y-15471174D02*
X8228943Y-15461650D01*
X8228943Y-15461650D02*
X8190848Y-15461650D01*
X8190848Y-15461650D02*
X8171801Y-15471174D01*
X8257515Y-15585460D02*
X8238467Y-15594984D01*
X8238467Y-15594984D02*
X8190848Y-15594984D01*
X8190848Y-15594984D02*
X8171801Y-15585460D01*
X8171801Y-15585460D02*
X8162277Y-15566412D01*
X8162277Y-15566412D02*
X8162277Y-15547365D01*
X8162277Y-15547365D02*
X8171801Y-15528317D01*
X8171801Y-15528317D02*
X8190848Y-15518793D01*
X8190848Y-15518793D02*
X8238467Y-15518793D01*
X8238467Y-15518793D02*
X8257515Y-15509269D01*
X8352753Y-15461650D02*
X8352753Y-15661650D01*
X8352753Y-15471174D02*
X8371801Y-15461650D01*
X8371801Y-15461650D02*
X8409896Y-15461650D01*
X8409896Y-15461650D02*
X8428944Y-15471174D01*
X8428944Y-15471174D02*
X8438467Y-15480698D01*
X8438467Y-15480698D02*
X8447991Y-15499746D01*
X8447991Y-15499746D02*
X8447991Y-15556888D01*
X8447991Y-15556888D02*
X8438467Y-15575936D01*
X8438467Y-15575936D02*
X8428944Y-15585460D01*
X8428944Y-15585460D02*
X8409896Y-15594984D01*
X8409896Y-15594984D02*
X8371801Y-15594984D01*
X8371801Y-15594984D02*
X8352753Y-15585460D01*
X8533705Y-15575936D02*
X8543229Y-15585460D01*
X8543229Y-15585460D02*
X8533705Y-15594984D01*
X8533705Y-15594984D02*
X8524182Y-15585460D01*
X8524182Y-15585460D02*
X8533705Y-15575936D01*
X8533705Y-15575936D02*
X8533705Y-15594984D01*
X8533705Y-15471174D02*
X8543229Y-15480698D01*
X8543229Y-15480698D02*
X8533705Y-15490222D01*
X8533705Y-15490222D02*
X8524182Y-15480698D01*
X8524182Y-15480698D02*
X8533705Y-15471174D01*
X8533705Y-15471174D02*
X8533705Y-15490222D01*
M02*
