%TF.GenerationSoftware,KiCad,Pcbnew,8.0.1-8.0.1-1~ubuntu22.04.1*%
%TF.CreationDate,2024-04-11T21:23:46+02:00*%
%TF.ProjectId,HagiwoEurorackMixer_PCBOnly,48616769-776f-4457-9572-6f7261636b4d,rev?*%
%TF.SameCoordinates,Original*%
%TF.FileFunction,Legend,Bot*%
%TF.FilePolarity,Positive*%
%FSLAX46Y46*%
G04 Gerber Fmt 4.6, Leading zero omitted, Abs format (unit mm)*
G04 Created by KiCad (PCBNEW 8.0.1-8.0.1-1~ubuntu22.04.1) date 2024-04-11 21:23:46*
%MOMM*%
%LPD*%
G01*
G04 APERTURE LIST*
%ADD10C,0.150000*%
G04 APERTURE END LIST*
D10*
X81292506Y-105549819D02*
X81292506Y-106264104D01*
X81292506Y-106264104D02*
X81340125Y-106406961D01*
X81340125Y-106406961D02*
X81435363Y-106502200D01*
X81435363Y-106502200D02*
X81578220Y-106549819D01*
X81578220Y-106549819D02*
X81673458Y-106549819D01*
X80340125Y-106549819D02*
X80816315Y-106549819D01*
X80816315Y-106549819D02*
X80816315Y-105549819D01*
X79435363Y-106454580D02*
X79482982Y-106502200D01*
X79482982Y-106502200D02*
X79625839Y-106549819D01*
X79625839Y-106549819D02*
X79721077Y-106549819D01*
X79721077Y-106549819D02*
X79863934Y-106502200D01*
X79863934Y-106502200D02*
X79959172Y-106406961D01*
X79959172Y-106406961D02*
X80006791Y-106311723D01*
X80006791Y-106311723D02*
X80054410Y-106121247D01*
X80054410Y-106121247D02*
X80054410Y-105978390D01*
X80054410Y-105978390D02*
X80006791Y-105787914D01*
X80006791Y-105787914D02*
X79959172Y-105692676D01*
X79959172Y-105692676D02*
X79863934Y-105597438D01*
X79863934Y-105597438D02*
X79721077Y-105549819D01*
X79721077Y-105549819D02*
X79625839Y-105549819D01*
X79625839Y-105549819D02*
X79482982Y-105597438D01*
X79482982Y-105597438D02*
X79435363Y-105645057D01*
X78721077Y-105549819D02*
X78721077Y-106264104D01*
X78721077Y-106264104D02*
X78768696Y-106406961D01*
X78768696Y-106406961D02*
X78863934Y-106502200D01*
X78863934Y-106502200D02*
X79006791Y-106549819D01*
X79006791Y-106549819D02*
X79102029Y-106549819D01*
X77768696Y-106549819D02*
X78244886Y-106549819D01*
X78244886Y-106549819D02*
X78244886Y-105549819D01*
X76863934Y-106454580D02*
X76911553Y-106502200D01*
X76911553Y-106502200D02*
X77054410Y-106549819D01*
X77054410Y-106549819D02*
X77149648Y-106549819D01*
X77149648Y-106549819D02*
X77292505Y-106502200D01*
X77292505Y-106502200D02*
X77387743Y-106406961D01*
X77387743Y-106406961D02*
X77435362Y-106311723D01*
X77435362Y-106311723D02*
X77482981Y-106121247D01*
X77482981Y-106121247D02*
X77482981Y-105978390D01*
X77482981Y-105978390D02*
X77435362Y-105787914D01*
X77435362Y-105787914D02*
X77387743Y-105692676D01*
X77387743Y-105692676D02*
X77292505Y-105597438D01*
X77292505Y-105597438D02*
X77149648Y-105549819D01*
X77149648Y-105549819D02*
X77054410Y-105549819D01*
X77054410Y-105549819D02*
X76911553Y-105597438D01*
X76911553Y-105597438D02*
X76863934Y-105645057D01*
X76149648Y-105549819D02*
X76149648Y-106264104D01*
X76149648Y-106264104D02*
X76197267Y-106406961D01*
X76197267Y-106406961D02*
X76292505Y-106502200D01*
X76292505Y-106502200D02*
X76435362Y-106549819D01*
X76435362Y-106549819D02*
X76530600Y-106549819D01*
X75197267Y-106549819D02*
X75673457Y-106549819D01*
X75673457Y-106549819D02*
X75673457Y-105549819D01*
X74292505Y-106454580D02*
X74340124Y-106502200D01*
X74340124Y-106502200D02*
X74482981Y-106549819D01*
X74482981Y-106549819D02*
X74578219Y-106549819D01*
X74578219Y-106549819D02*
X74721076Y-106502200D01*
X74721076Y-106502200D02*
X74816314Y-106406961D01*
X74816314Y-106406961D02*
X74863933Y-106311723D01*
X74863933Y-106311723D02*
X74911552Y-106121247D01*
X74911552Y-106121247D02*
X74911552Y-105978390D01*
X74911552Y-105978390D02*
X74863933Y-105787914D01*
X74863933Y-105787914D02*
X74816314Y-105692676D01*
X74816314Y-105692676D02*
X74721076Y-105597438D01*
X74721076Y-105597438D02*
X74578219Y-105549819D01*
X74578219Y-105549819D02*
X74482981Y-105549819D01*
X74482981Y-105549819D02*
X74340124Y-105597438D01*
X74340124Y-105597438D02*
X74292505Y-105645057D01*
X73578219Y-105549819D02*
X73578219Y-106264104D01*
X73578219Y-106264104D02*
X73625838Y-106406961D01*
X73625838Y-106406961D02*
X73721076Y-106502200D01*
X73721076Y-106502200D02*
X73863933Y-106549819D01*
X73863933Y-106549819D02*
X73959171Y-106549819D01*
X72625838Y-106549819D02*
X73102028Y-106549819D01*
X73102028Y-106549819D02*
X73102028Y-105549819D01*
X71721076Y-106454580D02*
X71768695Y-106502200D01*
X71768695Y-106502200D02*
X71911552Y-106549819D01*
X71911552Y-106549819D02*
X72006790Y-106549819D01*
X72006790Y-106549819D02*
X72149647Y-106502200D01*
X72149647Y-106502200D02*
X72244885Y-106406961D01*
X72244885Y-106406961D02*
X72292504Y-106311723D01*
X72292504Y-106311723D02*
X72340123Y-106121247D01*
X72340123Y-106121247D02*
X72340123Y-105978390D01*
X72340123Y-105978390D02*
X72292504Y-105787914D01*
X72292504Y-105787914D02*
X72244885Y-105692676D01*
X72244885Y-105692676D02*
X72149647Y-105597438D01*
X72149647Y-105597438D02*
X72006790Y-105549819D01*
X72006790Y-105549819D02*
X71911552Y-105549819D01*
X71911552Y-105549819D02*
X71768695Y-105597438D01*
X71768695Y-105597438D02*
X71721076Y-105645057D01*
M02*
