%TF.GenerationSoftware,KiCad,Pcbnew,8.0.1-8.0.1-1~ubuntu22.04.1*%
%TF.CreationDate,2024-04-11T11:05:15+02:00*%
%TF.ProjectId,HagiwoEurorackMixer_PanelOnly,48616769-776f-4457-9572-6f7261636b4d,rev?*%
%TF.SameCoordinates,Original*%
%TF.FileFunction,Soldermask,Top*%
%TF.FilePolarity,Negative*%
%FSLAX46Y46*%
G04 Gerber Fmt 4.6, Leading zero omitted, Abs format (unit mm)*
G04 Created by KiCad (PCBNEW 8.0.1-8.0.1-1~ubuntu22.04.1) date 2024-04-11 11:05:15*
%MOMM*%
%LPD*%
G01*
G04 APERTURE LIST*
%ADD10C,4.302403*%
%ADD11C,4.385523*%
%ADD12C,0.150000*%
%ADD13C,6.780792*%
%ADD14C,7.000000*%
%ADD15O,5.200000X3.200000*%
G04 APERTURE END LIST*
D10*
X115816201Y-53160000D02*
G75*
G02*
X111513799Y-53160000I-2151201J0D01*
G01*
X111513799Y-53160000D02*
G75*
G02*
X115816201Y-53160000I2151201J0D01*
G01*
D11*
X122715761Y-83689213D02*
G75*
G02*
X118330239Y-83689213I-2192761J0D01*
G01*
X118330239Y-83689213D02*
G75*
G02*
X122715761Y-83689213I2192761J0D01*
G01*
D10*
X115816201Y-114120000D02*
G75*
G02*
X111513799Y-114120000I-2151201J0D01*
G01*
X111513799Y-114120000D02*
G75*
G02*
X115816201Y-114120000I2151201J0D01*
G01*
X115816201Y-73480000D02*
G75*
G02*
X111513799Y-73480000I-2151201J0D01*
G01*
X111513799Y-73480000D02*
G75*
G02*
X115816201Y-73480000I2151201J0D01*
G01*
X129786201Y-134440000D02*
G75*
G02*
X125483799Y-134440000I-2151201J0D01*
G01*
X125483799Y-134440000D02*
G75*
G02*
X129786201Y-134440000I2151201J0D01*
G01*
X115816201Y-93800000D02*
G75*
G02*
X111513799Y-93800000I-2151201J0D01*
G01*
X111513799Y-93800000D02*
G75*
G02*
X115816201Y-93800000I2151201J0D01*
G01*
D11*
X122715761Y-63369213D02*
G75*
G02*
X118330239Y-63369213I-2192761J0D01*
G01*
X118330239Y-63369213D02*
G75*
G02*
X122715761Y-63369213I2192761J0D01*
G01*
D12*
X104775000Y-121789213D02*
X135255000Y-121789213D01*
X135255000Y-126869213D01*
X104775000Y-126869213D01*
X104775000Y-121789213D01*
G36*
X104775000Y-121789213D02*
G01*
X135255000Y-121789213D01*
X135255000Y-126869213D01*
X104775000Y-126869213D01*
X104775000Y-121789213D01*
G37*
D13*
X131025396Y-114120000D02*
G75*
G02*
X124244604Y-114120000I-3390396J0D01*
G01*
X124244604Y-114120000D02*
G75*
G02*
X131025396Y-114120000I3390396J0D01*
G01*
D12*
X104775000Y-142109213D02*
X135255000Y-142109213D01*
X135255000Y-147189213D01*
X104775000Y-147189213D01*
X104775000Y-142109213D01*
G36*
X104775000Y-142109213D02*
G01*
X135255000Y-142109213D01*
X135255000Y-147189213D01*
X104775000Y-147189213D01*
X104775000Y-142109213D01*
G37*
D13*
X131025396Y-53160000D02*
G75*
G02*
X124244604Y-53160000I-3390396J0D01*
G01*
X124244604Y-53160000D02*
G75*
G02*
X131025396Y-53160000I3390396J0D01*
G01*
X131025396Y-93800000D02*
G75*
G02*
X124244604Y-93800000I-3390396J0D01*
G01*
X124244604Y-93800000D02*
G75*
G02*
X131025396Y-93800000I3390396J0D01*
G01*
D12*
X104775000Y-101469213D02*
X135255000Y-101469213D01*
X135255000Y-106549213D01*
X104775000Y-106549213D01*
X104775000Y-101469213D01*
G36*
X104775000Y-101469213D02*
G01*
X135255000Y-101469213D01*
X135255000Y-106549213D01*
X104775000Y-106549213D01*
X104775000Y-101469213D01*
G37*
D11*
X122715761Y-104009213D02*
G75*
G02*
X118330239Y-104009213I-2192761J0D01*
G01*
X118330239Y-104009213D02*
G75*
G02*
X122715761Y-104009213I2192761J0D01*
G01*
X122715761Y-124329213D02*
G75*
G02*
X118330239Y-124329213I-2192761J0D01*
G01*
X118330239Y-124329213D02*
G75*
G02*
X122715761Y-124329213I2192761J0D01*
G01*
D13*
X117055396Y-134440000D02*
G75*
G02*
X110274604Y-134440000I-3390396J0D01*
G01*
X110274604Y-134440000D02*
G75*
G02*
X117055396Y-134440000I3390396J0D01*
G01*
D12*
X104775000Y-81149213D02*
X135255000Y-81149213D01*
X135255000Y-86229213D01*
X104775000Y-86229213D01*
X104775000Y-81149213D01*
G36*
X104775000Y-81149213D02*
G01*
X135255000Y-81149213D01*
X135255000Y-86229213D01*
X104775000Y-86229213D01*
X104775000Y-81149213D01*
G37*
X104775000Y-60829213D02*
X135255000Y-60829213D01*
X135255000Y-65909213D01*
X104775000Y-65909213D01*
X104775000Y-60829213D01*
G36*
X104775000Y-60829213D02*
G01*
X135255000Y-60829213D01*
X135255000Y-65909213D01*
X104775000Y-65909213D01*
X104775000Y-60829213D01*
G37*
D13*
X131025396Y-73480000D02*
G75*
G02*
X124244604Y-73480000I-3390396J0D01*
G01*
X124244604Y-73480000D02*
G75*
G02*
X131025396Y-73480000I3390396J0D01*
G01*
D14*
%TO.C,REF\u002A\u002A*%
X113665000Y-73480000D03*
%TD*%
%TO.C,REF\u002A\u002A*%
X127635000Y-134440000D03*
%TD*%
%TO.C,REF\u002A\u002A*%
X127635000Y-93800000D03*
%TD*%
%TO.C,REF\u002A\u002A*%
X127635000Y-73480000D03*
%TD*%
D15*
%TO.C,REF\u002A\u002A*%
X109855000Y-38557200D03*
%TD*%
D14*
%TO.C,REF\u002A\u002A*%
X113665000Y-114120000D03*
%TD*%
%TO.C,REF\u002A\u002A*%
X127635000Y-114120000D03*
%TD*%
%TO.C,REF\u002A\u002A*%
X113665000Y-93800000D03*
%TD*%
D15*
%TO.C,REF\u002A\u002A*%
X130175000Y-161061400D03*
%TD*%
D14*
%TO.C,REF\u002A\u002A*%
X113665000Y-53160000D03*
%TD*%
%TO.C,REF\u002A\u002A*%
X127635000Y-53160000D03*
%TD*%
%TO.C,REF\u002A\u002A*%
X113665000Y-134440000D03*
%TD*%
M02*
