%TF.GenerationSoftware,KiCad,Pcbnew,8.0.1-8.0.1-1~ubuntu22.04.1*%
%TF.CreationDate,2024-04-11T21:23:46+02:00*%
%TF.ProjectId,HagiwoEurorackMixer_PCBOnly,48616769-776f-4457-9572-6f7261636b4d,rev?*%
%TF.SameCoordinates,Original*%
%TF.FileFunction,Other,User*%
%FSLAX46Y46*%
G04 Gerber Fmt 4.6, Leading zero omitted, Abs format (unit mm)*
G04 Created by KiCad (PCBNEW 8.0.1-8.0.1-1~ubuntu22.04.1) date 2024-04-11 21:23:46*
%MOMM*%
%LPD*%
G01*
G04 APERTURE LIST*
%ADD10C,0.050000*%
G04 APERTURE END LIST*
D10*
%TO.C,R5*%
X85030000Y-106270000D02*
X85030000Y-109270000D01*
X85030000Y-109270000D02*
X94750000Y-109270000D01*
X94750000Y-106270000D02*
X85030000Y-106270000D01*
X94750000Y-109270000D02*
X94750000Y-106270000D01*
%TO.C,R7*%
X80770000Y-119420000D02*
X80770000Y-129140000D01*
X80770000Y-129140000D02*
X83770000Y-129140000D01*
X83770000Y-119420000D02*
X80770000Y-119420000D01*
X83770000Y-129140000D02*
X83770000Y-119420000D01*
%TO.C,R4*%
X85030000Y-103730000D02*
X85030000Y-106730000D01*
X85030000Y-106730000D02*
X94750000Y-106730000D01*
X94750000Y-103730000D02*
X85030000Y-103730000D01*
X94750000Y-106730000D02*
X94750000Y-103730000D01*
%TO.C,C2*%
X97994000Y-144600000D02*
G75*
G02*
X92494000Y-144600000I-2750000J0D01*
G01*
X92494000Y-144600000D02*
G75*
G02*
X97994000Y-144600000I2750000J0D01*
G01*
%TO.C,U2*%
X84530000Y-119390000D02*
X84530000Y-129190000D01*
X84530000Y-129190000D02*
X95230000Y-129190000D01*
X95230000Y-119390000D02*
X84530000Y-119390000D01*
X95230000Y-129190000D02*
X95230000Y-119390000D01*
%TO.C,J6*%
X69050000Y-143460000D02*
X69050000Y-153360000D01*
X69050000Y-153360000D02*
X90410000Y-153360000D01*
X90410000Y-143460000D02*
X69050000Y-143460000D01*
X90410000Y-153360000D02*
X90410000Y-143460000D01*
%TO.C,R1*%
X85030000Y-85950000D02*
X85030000Y-88950000D01*
X85030000Y-88950000D02*
X94750000Y-88950000D01*
X94750000Y-85950000D02*
X85030000Y-85950000D01*
X94750000Y-88950000D02*
X94750000Y-85950000D01*
%TO.C,C1*%
X95922000Y-149680000D02*
G75*
G02*
X90422000Y-149680000I-2750000J0D01*
G01*
X90422000Y-149680000D02*
G75*
G02*
X95922000Y-149680000I2750000J0D01*
G01*
%TO.C,R3*%
X85030000Y-101190000D02*
X85030000Y-104190000D01*
X85030000Y-104190000D02*
X94750000Y-104190000D01*
X94750000Y-101190000D02*
X85030000Y-101190000D01*
X94750000Y-104190000D02*
X94750000Y-101190000D01*
%TO.C,R6*%
X71060000Y-124050000D02*
X71060000Y-127050000D01*
X71060000Y-127050000D02*
X80780000Y-127050000D01*
X80780000Y-124050000D02*
X71060000Y-124050000D01*
X80780000Y-127050000D02*
X80780000Y-124050000D01*
%TO.C,R8*%
X71060000Y-126590000D02*
X71060000Y-129590000D01*
X71060000Y-129590000D02*
X80780000Y-129590000D01*
X80780000Y-126590000D02*
X71060000Y-126590000D01*
X80780000Y-129590000D02*
X80780000Y-126590000D01*
%TO.C,R2*%
X85030000Y-98650000D02*
X85030000Y-101650000D01*
X85030000Y-101650000D02*
X94750000Y-101650000D01*
X94750000Y-98650000D02*
X85030000Y-98650000D01*
X94750000Y-101650000D02*
X94750000Y-98650000D01*
%TD*%
M02*
