%TF.GenerationSoftware,KiCad,Pcbnew,8.0.1-8.0.1-1~ubuntu22.04.1*%
%TF.CreationDate,2024-04-12T07:50:43+02:00*%
%TF.ProjectId,HagiwoEurorackMixer_PCBOnly,48616769-776f-4457-9572-6f7261636b4d,rev?*%
%TF.SameCoordinates,Original*%
%TF.FileFunction,OtherDrawing,Comment*%
%FSLAX46Y46*%
G04 Gerber Fmt 4.6, Leading zero omitted, Abs format (unit mm)*
G04 Created by KiCad (PCBNEW 8.0.1-8.0.1-1~ubuntu22.04.1) date 2024-04-12 07:50:43*
%MOMM*%
%LPD*%
G01*
G04 APERTURE LIST*
%ADD10C,0.100000*%
%ADD11C,0.150000*%
G04 APERTURE END LIST*
D10*
X68300000Y-46810000D02*
X68300000Y-46810000D01*
X68700000Y-46810000D02*
X68700000Y-46810000D01*
X69100000Y-46810000D02*
X69100000Y-46810000D01*
X69500000Y-46810000D02*
X69500000Y-46810000D01*
X69900000Y-46810000D02*
X69900000Y-46810000D01*
X70300000Y-46810000D02*
X70300000Y-46810000D01*
X70700000Y-46810000D02*
X70700000Y-46810000D01*
X71100000Y-46810000D02*
X71100000Y-46810000D01*
X71500000Y-46810000D02*
X71500000Y-46810000D01*
X71900000Y-46810000D02*
X71900000Y-46810000D01*
X72300000Y-46810000D02*
X72300000Y-46810000D01*
X72700000Y-46810000D02*
X72700000Y-46810000D01*
X73100000Y-46810000D02*
X73100000Y-46810000D01*
X73500000Y-46810000D02*
X73500000Y-46810000D01*
X73900000Y-46810000D02*
X73900000Y-46810000D01*
X74300000Y-46810000D02*
X74300000Y-46810000D01*
X74700000Y-46810000D02*
X74700000Y-46810000D01*
X75100000Y-46810000D02*
X75100000Y-46810000D01*
X75500000Y-46810000D02*
X75500000Y-46810000D01*
X75900000Y-46810000D02*
X75900000Y-46810000D01*
X76300000Y-46810000D02*
X76300000Y-46810000D01*
X76700000Y-46810000D02*
X76700000Y-46810000D01*
X77100000Y-46810000D02*
X77100000Y-46810000D01*
X77500000Y-46810000D02*
X77500000Y-46810000D01*
X77900000Y-46810000D02*
X77900000Y-46810000D01*
X78300000Y-46810000D02*
X78300000Y-46810000D01*
X78700000Y-46810000D02*
X78700000Y-46810000D01*
X79100000Y-46810000D02*
X79100000Y-46810000D01*
X79500000Y-46810000D02*
X79500000Y-46810000D01*
X79900000Y-46810000D02*
X79900000Y-46810000D01*
X80300000Y-46810000D02*
X80300000Y-46810000D01*
X80700000Y-46810000D02*
X80700000Y-46810000D01*
X81100000Y-46810000D02*
X81100000Y-46810000D01*
X81500000Y-46810000D02*
X81500000Y-46810000D01*
X81900000Y-46810000D02*
X81900000Y-46810000D01*
X82300000Y-46810000D02*
X82300000Y-46810000D01*
X82700000Y-46810000D02*
X82700000Y-46810000D01*
X83100000Y-46810000D02*
X83100000Y-46810000D01*
X83500000Y-46810000D02*
X83500000Y-46810000D01*
X83900000Y-46810000D02*
X83900000Y-46810000D01*
X84300000Y-46810000D02*
X84300000Y-46810000D01*
X84700000Y-46810000D02*
X84700000Y-46810000D01*
X85100000Y-46810000D02*
X85100000Y-46810000D01*
X85500000Y-46810000D02*
X85500000Y-46810000D01*
X85900000Y-46810000D02*
X85900000Y-46810000D01*
X86300000Y-46810000D02*
X86300000Y-46810000D01*
X86700000Y-46810000D02*
X86700000Y-46810000D01*
X87100000Y-46810000D02*
X87100000Y-46810000D01*
X87500000Y-46810000D02*
X87500000Y-46810000D01*
X87900000Y-46810000D02*
X87900000Y-46810000D01*
X88300000Y-46810000D02*
X88300000Y-46810000D01*
X88700000Y-46810000D02*
X88700000Y-46810000D01*
X89100000Y-46810000D02*
X89100000Y-46810000D01*
X89500000Y-46810000D02*
X89500000Y-46810000D01*
X89900000Y-46810000D02*
X89900000Y-46810000D01*
X90300000Y-46810000D02*
X90300000Y-46810000D01*
X90700000Y-46810000D02*
X90700000Y-46810000D01*
X91100000Y-46810000D02*
X91100000Y-46810000D01*
X91500000Y-46810000D02*
X91500000Y-46810000D01*
X91900000Y-46810000D02*
X91900000Y-46810000D01*
X92300000Y-46810000D02*
X92300000Y-46810000D01*
X92700000Y-46810000D02*
X92700000Y-46810000D01*
X93100000Y-46810000D02*
X93100000Y-46810000D01*
X93500000Y-46810000D02*
X93500000Y-46810000D01*
X93900000Y-46810000D02*
X93900000Y-46810000D01*
X94300000Y-46810000D02*
X94300000Y-46810000D01*
X94700000Y-46810000D02*
X94700000Y-46810000D01*
X95100000Y-46810000D02*
X95100000Y-46810000D01*
X95500000Y-46810000D02*
X95500000Y-46810000D01*
X95900000Y-46810000D02*
X95900000Y-46810000D01*
X96300000Y-46810000D02*
X96300000Y-46810000D01*
X96700000Y-46810000D02*
X96700000Y-46810000D01*
X97100000Y-46810000D02*
X97100000Y-46810000D01*
X97500000Y-46810000D02*
X97500000Y-46810000D01*
X97900000Y-46810000D02*
X97900000Y-46810000D01*
X98300000Y-46810000D02*
X98300000Y-46810000D01*
X98700000Y-46810000D02*
X98700000Y-46810000D01*
X98780000Y-46810000D02*
X98780000Y-46810000D01*
X98780000Y-47210000D02*
X98780000Y-47210000D01*
X98780000Y-47610000D02*
X98780000Y-47610000D01*
X98780000Y-48010000D02*
X98780000Y-48010000D01*
X98780000Y-48410000D02*
X98780000Y-48410000D01*
X98780000Y-48810000D02*
X98780000Y-48810000D01*
X98780000Y-49210000D02*
X98780000Y-49210000D01*
X98780000Y-49610000D02*
X98780000Y-49610000D01*
X98780000Y-50010000D02*
X98780000Y-50010000D01*
X98780000Y-50410000D02*
X98780000Y-50410000D01*
X98780000Y-50810000D02*
X98780000Y-50810000D01*
X98780000Y-51210000D02*
X98780000Y-51210000D01*
X98780000Y-51610000D02*
X98780000Y-51610000D01*
X98780000Y-52010000D02*
X98780000Y-52010000D01*
X98780000Y-52410000D02*
X98780000Y-52410000D01*
X98780000Y-52810000D02*
X98780000Y-52810000D01*
X98780000Y-53210000D02*
X98780000Y-53210000D01*
X98780000Y-53610000D02*
X98780000Y-53610000D01*
X98780000Y-54010000D02*
X98780000Y-54010000D01*
X98780000Y-54410000D02*
X98780000Y-54410000D01*
X98780000Y-54810000D02*
X98780000Y-54810000D01*
X98780000Y-55210000D02*
X98780000Y-55210000D01*
X98780000Y-55610000D02*
X98780000Y-55610000D01*
X98780000Y-56010000D02*
X98780000Y-56010000D01*
X98780000Y-56410000D02*
X98780000Y-56410000D01*
X98780000Y-56810000D02*
X98780000Y-56810000D01*
X98780000Y-57210000D02*
X98780000Y-57210000D01*
X98780000Y-57610000D02*
X98780000Y-57610000D01*
X98780000Y-58010000D02*
X98780000Y-58010000D01*
X98780000Y-58410000D02*
X98780000Y-58410000D01*
X98780000Y-58810000D02*
X98780000Y-58810000D01*
X98780000Y-59210000D02*
X98780000Y-59210000D01*
X98780000Y-59610000D02*
X98780000Y-59610000D01*
X98780000Y-60010000D02*
X98780000Y-60010000D01*
X98780000Y-60410000D02*
X98780000Y-60410000D01*
X98780000Y-60810000D02*
X98780000Y-60810000D01*
X98780000Y-61210000D02*
X98780000Y-61210000D01*
X98780000Y-61610000D02*
X98780000Y-61610000D01*
X98780000Y-62010000D02*
X98780000Y-62010000D01*
X98780000Y-62410000D02*
X98780000Y-62410000D01*
X98780000Y-62810000D02*
X98780000Y-62810000D01*
X98780000Y-63210000D02*
X98780000Y-63210000D01*
X98780000Y-63610000D02*
X98780000Y-63610000D01*
X98780000Y-64010000D02*
X98780000Y-64010000D01*
X98780000Y-64410000D02*
X98780000Y-64410000D01*
X98780000Y-64810000D02*
X98780000Y-64810000D01*
X98780000Y-65210000D02*
X98780000Y-65210000D01*
X98780000Y-65610000D02*
X98780000Y-65610000D01*
X98780000Y-66010000D02*
X98780000Y-66010000D01*
X98780000Y-66410000D02*
X98780000Y-66410000D01*
X98780000Y-66810000D02*
X98780000Y-66810000D01*
X98780000Y-67210000D02*
X98780000Y-67210000D01*
X98780000Y-67610000D02*
X98780000Y-67610000D01*
X98780000Y-68010000D02*
X98780000Y-68010000D01*
X98780000Y-68410000D02*
X98780000Y-68410000D01*
X98780000Y-68810000D02*
X98780000Y-68810000D01*
X98780000Y-69210000D02*
X98780000Y-69210000D01*
X98780000Y-69610000D02*
X98780000Y-69610000D01*
X98780000Y-70010000D02*
X98780000Y-70010000D01*
X98780000Y-70410000D02*
X98780000Y-70410000D01*
X98780000Y-70810000D02*
X98780000Y-70810000D01*
X98780000Y-71210000D02*
X98780000Y-71210000D01*
X98780000Y-71610000D02*
X98780000Y-71610000D01*
X98780000Y-72010000D02*
X98780000Y-72010000D01*
X98780000Y-72410000D02*
X98780000Y-72410000D01*
X98780000Y-72810000D02*
X98780000Y-72810000D01*
X98780000Y-73210000D02*
X98780000Y-73210000D01*
X98780000Y-73610000D02*
X98780000Y-73610000D01*
X98780000Y-74010000D02*
X98780000Y-74010000D01*
X98780000Y-74410000D02*
X98780000Y-74410000D01*
X98780000Y-74810000D02*
X98780000Y-74810000D01*
X98780000Y-75210000D02*
X98780000Y-75210000D01*
X98780000Y-75610000D02*
X98780000Y-75610000D01*
X98780000Y-76010000D02*
X98780000Y-76010000D01*
X98780000Y-76410000D02*
X98780000Y-76410000D01*
X98780000Y-76810000D02*
X98780000Y-76810000D01*
X98780000Y-77210000D02*
X98780000Y-77210000D01*
X98780000Y-77610000D02*
X98780000Y-77610000D01*
X98780000Y-78010000D02*
X98780000Y-78010000D01*
X98780000Y-78410000D02*
X98780000Y-78410000D01*
X98780000Y-78810000D02*
X98780000Y-78810000D01*
X98780000Y-79210000D02*
X98780000Y-79210000D01*
X98780000Y-79610000D02*
X98780000Y-79610000D01*
X98780000Y-80010000D02*
X98780000Y-80010000D01*
X98780000Y-80410000D02*
X98780000Y-80410000D01*
X98780000Y-80810000D02*
X98780000Y-80810000D01*
X98780000Y-81210000D02*
X98780000Y-81210000D01*
X98780000Y-81610000D02*
X98780000Y-81610000D01*
X98780000Y-82010000D02*
X98780000Y-82010000D01*
X98780000Y-82410000D02*
X98780000Y-82410000D01*
X98780000Y-82810000D02*
X98780000Y-82810000D01*
X98780000Y-83210000D02*
X98780000Y-83210000D01*
X98780000Y-83610000D02*
X98780000Y-83610000D01*
X98780000Y-84010000D02*
X98780000Y-84010000D01*
X98780000Y-84410000D02*
X98780000Y-84410000D01*
X98780000Y-84810000D02*
X98780000Y-84810000D01*
X98780000Y-85210000D02*
X98780000Y-85210000D01*
X98780000Y-85610000D02*
X98780000Y-85610000D01*
X98780000Y-86010000D02*
X98780000Y-86010000D01*
X98780000Y-86410000D02*
X98780000Y-86410000D01*
X98780000Y-86810000D02*
X98780000Y-86810000D01*
X98780000Y-87210000D02*
X98780000Y-87210000D01*
X98780000Y-87610000D02*
X98780000Y-87610000D01*
X98780000Y-88010000D02*
X98780000Y-88010000D01*
X98780000Y-88410000D02*
X98780000Y-88410000D01*
X98780000Y-88810000D02*
X98780000Y-88810000D01*
X98780000Y-89210000D02*
X98780000Y-89210000D01*
X98780000Y-89610000D02*
X98780000Y-89610000D01*
X98780000Y-90010000D02*
X98780000Y-90010000D01*
X98780000Y-90410000D02*
X98780000Y-90410000D01*
X98780000Y-90810000D02*
X98780000Y-90810000D01*
X98780000Y-91210000D02*
X98780000Y-91210000D01*
X98780000Y-91610000D02*
X98780000Y-91610000D01*
X98780000Y-92010000D02*
X98780000Y-92010000D01*
X98780000Y-92410000D02*
X98780000Y-92410000D01*
X98780000Y-92810000D02*
X98780000Y-92810000D01*
X98780000Y-93210000D02*
X98780000Y-93210000D01*
X98780000Y-93610000D02*
X98780000Y-93610000D01*
X98780000Y-94010000D02*
X98780000Y-94010000D01*
X98780000Y-94410000D02*
X98780000Y-94410000D01*
X98780000Y-94810000D02*
X98780000Y-94810000D01*
X98780000Y-95210000D02*
X98780000Y-95210000D01*
X98780000Y-95610000D02*
X98780000Y-95610000D01*
X98780000Y-96010000D02*
X98780000Y-96010000D01*
X98780000Y-96410000D02*
X98780000Y-96410000D01*
X98780000Y-96810000D02*
X98780000Y-96810000D01*
X98780000Y-97210000D02*
X98780000Y-97210000D01*
X98780000Y-97610000D02*
X98780000Y-97610000D01*
X98780000Y-98010000D02*
X98780000Y-98010000D01*
X98780000Y-98410000D02*
X98780000Y-98410000D01*
X98780000Y-98810000D02*
X98780000Y-98810000D01*
X98780000Y-99210000D02*
X98780000Y-99210000D01*
X98780000Y-99610000D02*
X98780000Y-99610000D01*
X98780000Y-100010000D02*
X98780000Y-100010000D01*
X98780000Y-100410000D02*
X98780000Y-100410000D01*
X98780000Y-100810000D02*
X98780000Y-100810000D01*
X98780000Y-101210000D02*
X98780000Y-101210000D01*
X98780000Y-101610000D02*
X98780000Y-101610000D01*
X98780000Y-102010000D02*
X98780000Y-102010000D01*
X98780000Y-102410000D02*
X98780000Y-102410000D01*
X98780000Y-102810000D02*
X98780000Y-102810000D01*
X98780000Y-103210000D02*
X98780000Y-103210000D01*
X98780000Y-103610000D02*
X98780000Y-103610000D01*
X98780000Y-104010000D02*
X98780000Y-104010000D01*
X98780000Y-104410000D02*
X98780000Y-104410000D01*
X98780000Y-104810000D02*
X98780000Y-104810000D01*
X98780000Y-105210000D02*
X98780000Y-105210000D01*
X98780000Y-105610000D02*
X98780000Y-105610000D01*
X98780000Y-106010000D02*
X98780000Y-106010000D01*
X98780000Y-106410000D02*
X98780000Y-106410000D01*
X98780000Y-106810000D02*
X98780000Y-106810000D01*
X98780000Y-107210000D02*
X98780000Y-107210000D01*
X98780000Y-107610000D02*
X98780000Y-107610000D01*
X98780000Y-108010000D02*
X98780000Y-108010000D01*
X98780000Y-108410000D02*
X98780000Y-108410000D01*
X98780000Y-108810000D02*
X98780000Y-108810000D01*
X98780000Y-109210000D02*
X98780000Y-109210000D01*
X98780000Y-109610000D02*
X98780000Y-109610000D01*
X98780000Y-110010000D02*
X98780000Y-110010000D01*
X98780000Y-110410000D02*
X98780000Y-110410000D01*
X98780000Y-110810000D02*
X98780000Y-110810000D01*
X98780000Y-111210000D02*
X98780000Y-111210000D01*
X98780000Y-111610000D02*
X98780000Y-111610000D01*
X98780000Y-112010000D02*
X98780000Y-112010000D01*
X98780000Y-112410000D02*
X98780000Y-112410000D01*
X98780000Y-112810000D02*
X98780000Y-112810000D01*
X98780000Y-113210000D02*
X98780000Y-113210000D01*
X98780000Y-113610000D02*
X98780000Y-113610000D01*
X98780000Y-114010000D02*
X98780000Y-114010000D01*
X98780000Y-114410000D02*
X98780000Y-114410000D01*
X98780000Y-114810000D02*
X98780000Y-114810000D01*
X98780000Y-115210000D02*
X98780000Y-115210000D01*
X98780000Y-115610000D02*
X98780000Y-115610000D01*
X98780000Y-116010000D02*
X98780000Y-116010000D01*
X98780000Y-116410000D02*
X98780000Y-116410000D01*
X98780000Y-116810000D02*
X98780000Y-116810000D01*
X98780000Y-117210000D02*
X98780000Y-117210000D01*
X98780000Y-117610000D02*
X98780000Y-117610000D01*
X98780000Y-118010000D02*
X98780000Y-118010000D01*
X98780000Y-118410000D02*
X98780000Y-118410000D01*
X98780000Y-118810000D02*
X98780000Y-118810000D01*
X98780000Y-119210000D02*
X98780000Y-119210000D01*
X98780000Y-119610000D02*
X98780000Y-119610000D01*
X98780000Y-120010000D02*
X98780000Y-120010000D01*
X98780000Y-120410000D02*
X98780000Y-120410000D01*
X98780000Y-120810000D02*
X98780000Y-120810000D01*
X98780000Y-121210000D02*
X98780000Y-121210000D01*
X98780000Y-121610000D02*
X98780000Y-121610000D01*
X98780000Y-122010000D02*
X98780000Y-122010000D01*
X98780000Y-122410000D02*
X98780000Y-122410000D01*
X98780000Y-122810000D02*
X98780000Y-122810000D01*
X98780000Y-123210000D02*
X98780000Y-123210000D01*
X98780000Y-123610000D02*
X98780000Y-123610000D01*
X98780000Y-124010000D02*
X98780000Y-124010000D01*
X98780000Y-124410000D02*
X98780000Y-124410000D01*
X98780000Y-124810000D02*
X98780000Y-124810000D01*
X98780000Y-125210000D02*
X98780000Y-125210000D01*
X98780000Y-125610000D02*
X98780000Y-125610000D01*
X98780000Y-126010000D02*
X98780000Y-126010000D01*
X98780000Y-126410000D02*
X98780000Y-126410000D01*
X98780000Y-126810000D02*
X98780000Y-126810000D01*
X98780000Y-127210000D02*
X98780000Y-127210000D01*
X98780000Y-127610000D02*
X98780000Y-127610000D01*
X98780000Y-128010000D02*
X98780000Y-128010000D01*
X98780000Y-128410000D02*
X98780000Y-128410000D01*
X98780000Y-128810000D02*
X98780000Y-128810000D01*
X98780000Y-129210000D02*
X98780000Y-129210000D01*
X98780000Y-129610000D02*
X98780000Y-129610000D01*
X98780000Y-130010000D02*
X98780000Y-130010000D01*
X98780000Y-130410000D02*
X98780000Y-130410000D01*
X98780000Y-130810000D02*
X98780000Y-130810000D01*
X98780000Y-131210000D02*
X98780000Y-131210000D01*
X98780000Y-131610000D02*
X98780000Y-131610000D01*
X98780000Y-132010000D02*
X98780000Y-132010000D01*
X98780000Y-132410000D02*
X98780000Y-132410000D01*
X98780000Y-132810000D02*
X98780000Y-132810000D01*
X98780000Y-133210000D02*
X98780000Y-133210000D01*
X98780000Y-133610000D02*
X98780000Y-133610000D01*
X98780000Y-134010000D02*
X98780000Y-134010000D01*
X98780000Y-134410000D02*
X98780000Y-134410000D01*
X98780000Y-134810000D02*
X98780000Y-134810000D01*
X98780000Y-135210000D02*
X98780000Y-135210000D01*
X98780000Y-135610000D02*
X98780000Y-135610000D01*
X98780000Y-136010000D02*
X98780000Y-136010000D01*
X98780000Y-136410000D02*
X98780000Y-136410000D01*
X98780000Y-136810000D02*
X98780000Y-136810000D01*
X98780000Y-137210000D02*
X98780000Y-137210000D01*
X98780000Y-137610000D02*
X98780000Y-137610000D01*
X98780000Y-138010000D02*
X98780000Y-138010000D01*
X98780000Y-138410000D02*
X98780000Y-138410000D01*
X98780000Y-138810000D02*
X98780000Y-138810000D01*
X98780000Y-139210000D02*
X98780000Y-139210000D01*
X98780000Y-139610000D02*
X98780000Y-139610000D01*
X98780000Y-140010000D02*
X98780000Y-140010000D01*
X98780000Y-140410000D02*
X98780000Y-140410000D01*
X98780000Y-140810000D02*
X98780000Y-140810000D01*
X98780000Y-141210000D02*
X98780000Y-141210000D01*
X98780000Y-141610000D02*
X98780000Y-141610000D01*
X98780000Y-142010000D02*
X98780000Y-142010000D01*
X98780000Y-142410000D02*
X98780000Y-142410000D01*
X98780000Y-142810000D02*
X98780000Y-142810000D01*
X98780000Y-143210000D02*
X98780000Y-143210000D01*
X98780000Y-143610000D02*
X98780000Y-143610000D01*
X98780000Y-144010000D02*
X98780000Y-144010000D01*
X98780000Y-144410000D02*
X98780000Y-144410000D01*
X98780000Y-144810000D02*
X98780000Y-144810000D01*
X98780000Y-145210000D02*
X98780000Y-145210000D01*
X98780000Y-145610000D02*
X98780000Y-145610000D01*
X98780000Y-146010000D02*
X98780000Y-146010000D01*
X98780000Y-146410000D02*
X98780000Y-146410000D01*
X98780000Y-146810000D02*
X98780000Y-146810000D01*
X98780000Y-147210000D02*
X98780000Y-147210000D01*
X98780000Y-147610000D02*
X98780000Y-147610000D01*
X98780000Y-148010000D02*
X98780000Y-148010000D01*
X98780000Y-148410000D02*
X98780000Y-148410000D01*
X98780000Y-148810000D02*
X98780000Y-148810000D01*
X98780000Y-149210000D02*
X98780000Y-149210000D01*
X98780000Y-149610000D02*
X98780000Y-149610000D01*
X98780000Y-150010000D02*
X98780000Y-150010000D01*
X98780000Y-150410000D02*
X98780000Y-150410000D01*
X98780000Y-150810000D02*
X98780000Y-150810000D01*
X98780000Y-151210000D02*
X98780000Y-151210000D01*
X98780000Y-151610000D02*
X98780000Y-151610000D01*
X98780000Y-152010000D02*
X98780000Y-152010000D01*
X98780000Y-152410000D02*
X98780000Y-152410000D01*
X98780000Y-152810000D02*
X98780000Y-152810000D01*
X98780000Y-152810000D02*
X98780000Y-152810000D01*
X98380000Y-152810000D02*
X98380000Y-152810000D01*
X97980000Y-152810000D02*
X97980000Y-152810000D01*
X97580000Y-152810000D02*
X97580000Y-152810000D01*
X97180000Y-152810000D02*
X97180000Y-152810000D01*
X96780000Y-152810000D02*
X96780000Y-152810000D01*
X96380000Y-152810000D02*
X96380000Y-152810000D01*
X95980000Y-152810000D02*
X95980000Y-152810000D01*
X95580000Y-152810000D02*
X95580000Y-152810000D01*
X95180000Y-152810000D02*
X95180000Y-152810000D01*
X94780000Y-152810000D02*
X94780000Y-152810000D01*
X94380000Y-152810000D02*
X94380000Y-152810000D01*
X93980000Y-152810000D02*
X93980000Y-152810000D01*
X93580000Y-152810000D02*
X93580000Y-152810000D01*
X93180000Y-152810000D02*
X93180000Y-152810000D01*
X92780000Y-152810000D02*
X92780000Y-152810000D01*
X92380000Y-152810000D02*
X92380000Y-152810000D01*
X91980000Y-152810000D02*
X91980000Y-152810000D01*
X91580000Y-152810000D02*
X91580000Y-152810000D01*
X91180000Y-152810000D02*
X91180000Y-152810000D01*
X90780000Y-152810000D02*
X90780000Y-152810000D01*
X90380000Y-152810000D02*
X90380000Y-152810000D01*
X89980000Y-152810000D02*
X89980000Y-152810000D01*
X89580000Y-152810000D02*
X89580000Y-152810000D01*
X89180000Y-152810000D02*
X89180000Y-152810000D01*
X88780000Y-152810000D02*
X88780000Y-152810000D01*
X88380000Y-152810000D02*
X88380000Y-152810000D01*
X87980000Y-152810000D02*
X87980000Y-152810000D01*
X87580000Y-152810000D02*
X87580000Y-152810000D01*
X87180000Y-152810000D02*
X87180000Y-152810000D01*
X86780000Y-152810000D02*
X86780000Y-152810000D01*
X86380000Y-152810000D02*
X86380000Y-152810000D01*
X85980000Y-152810000D02*
X85980000Y-152810000D01*
X85580000Y-152810000D02*
X85580000Y-152810000D01*
X85180000Y-152810000D02*
X85180000Y-152810000D01*
X84780000Y-152810000D02*
X84780000Y-152810000D01*
X84380000Y-152810000D02*
X84380000Y-152810000D01*
X83980000Y-152810000D02*
X83980000Y-152810000D01*
X83580000Y-152810000D02*
X83580000Y-152810000D01*
X83180000Y-152810000D02*
X83180000Y-152810000D01*
X82780000Y-152810000D02*
X82780000Y-152810000D01*
X82380000Y-152810000D02*
X82380000Y-152810000D01*
X81980000Y-152810000D02*
X81980000Y-152810000D01*
X81580000Y-152810000D02*
X81580000Y-152810000D01*
X81180000Y-152810000D02*
X81180000Y-152810000D01*
X80780000Y-152810000D02*
X80780000Y-152810000D01*
X80380000Y-152810000D02*
X80380000Y-152810000D01*
X79980000Y-152810000D02*
X79980000Y-152810000D01*
X79580000Y-152810000D02*
X79580000Y-152810000D01*
X79180000Y-152810000D02*
X79180000Y-152810000D01*
X78780000Y-152810000D02*
X78780000Y-152810000D01*
X78380000Y-152810000D02*
X78380000Y-152810000D01*
X77980000Y-152810000D02*
X77980000Y-152810000D01*
X77580000Y-152810000D02*
X77580000Y-152810000D01*
X77180000Y-152810000D02*
X77180000Y-152810000D01*
X76780000Y-152810000D02*
X76780000Y-152810000D01*
X76380000Y-152810000D02*
X76380000Y-152810000D01*
X75980000Y-152810000D02*
X75980000Y-152810000D01*
X75580000Y-152810000D02*
X75580000Y-152810000D01*
X75180000Y-152810000D02*
X75180000Y-152810000D01*
X74780000Y-152810000D02*
X74780000Y-152810000D01*
X74380000Y-152810000D02*
X74380000Y-152810000D01*
X73980000Y-152810000D02*
X73980000Y-152810000D01*
X73580000Y-152810000D02*
X73580000Y-152810000D01*
X73180000Y-152810000D02*
X73180000Y-152810000D01*
X72780000Y-152810000D02*
X72780000Y-152810000D01*
X72380000Y-152810000D02*
X72380000Y-152810000D01*
X71980000Y-152810000D02*
X71980000Y-152810000D01*
X71580000Y-152810000D02*
X71580000Y-152810000D01*
X71180000Y-152810000D02*
X71180000Y-152810000D01*
X70780000Y-152810000D02*
X70780000Y-152810000D01*
X70380000Y-152810000D02*
X70380000Y-152810000D01*
X69980000Y-152810000D02*
X69980000Y-152810000D01*
X69580000Y-152810000D02*
X69580000Y-152810000D01*
X69180000Y-152810000D02*
X69180000Y-152810000D01*
X68780000Y-152810000D02*
X68780000Y-152810000D01*
X68380000Y-152810000D02*
X68380000Y-152810000D01*
X68300000Y-152810000D02*
X68300000Y-152810000D01*
X68300000Y-152410000D02*
X68300000Y-152410000D01*
X68300000Y-152010000D02*
X68300000Y-152010000D01*
X68300000Y-151610000D02*
X68300000Y-151610000D01*
X68300000Y-151210000D02*
X68300000Y-151210000D01*
X68300000Y-150810000D02*
X68300000Y-150810000D01*
X68300000Y-150410000D02*
X68300000Y-150410000D01*
X68300000Y-150010000D02*
X68300000Y-150010000D01*
X68300000Y-149610000D02*
X68300000Y-149610000D01*
X68300000Y-149210000D02*
X68300000Y-149210000D01*
X68300000Y-148810000D02*
X68300000Y-148810000D01*
X68300000Y-148410000D02*
X68300000Y-148410000D01*
X68300000Y-148010000D02*
X68300000Y-148010000D01*
X68300000Y-147610000D02*
X68300000Y-147610000D01*
X68300000Y-147210000D02*
X68300000Y-147210000D01*
X68300000Y-146810000D02*
X68300000Y-146810000D01*
X68300000Y-146410000D02*
X68300000Y-146410000D01*
X68300000Y-146010000D02*
X68300000Y-146010000D01*
X68300000Y-145610000D02*
X68300000Y-145610000D01*
X68300000Y-145210000D02*
X68300000Y-145210000D01*
X68300000Y-144810000D02*
X68300000Y-144810000D01*
X68300000Y-144410000D02*
X68300000Y-144410000D01*
X68300000Y-144010000D02*
X68300000Y-144010000D01*
X68300000Y-143610000D02*
X68300000Y-143610000D01*
X68300000Y-143210000D02*
X68300000Y-143210000D01*
X68300000Y-142810000D02*
X68300000Y-142810000D01*
X68300000Y-142410000D02*
X68300000Y-142410000D01*
X68300000Y-142010000D02*
X68300000Y-142010000D01*
X68300000Y-141610000D02*
X68300000Y-141610000D01*
X68300000Y-141210000D02*
X68300000Y-141210000D01*
X68300000Y-140810000D02*
X68300000Y-140810000D01*
X68300000Y-140410000D02*
X68300000Y-140410000D01*
X68300000Y-140010000D02*
X68300000Y-140010000D01*
X68300000Y-139610000D02*
X68300000Y-139610000D01*
X68300000Y-139210000D02*
X68300000Y-139210000D01*
X68300000Y-138810000D02*
X68300000Y-138810000D01*
X68300000Y-138410000D02*
X68300000Y-138410000D01*
X68300000Y-138010000D02*
X68300000Y-138010000D01*
X68300000Y-137610000D02*
X68300000Y-137610000D01*
X68300000Y-137210000D02*
X68300000Y-137210000D01*
X68300000Y-136810000D02*
X68300000Y-136810000D01*
X68300000Y-136410000D02*
X68300000Y-136410000D01*
X68300000Y-136010000D02*
X68300000Y-136010000D01*
X68300000Y-135610000D02*
X68300000Y-135610000D01*
X68300000Y-135210000D02*
X68300000Y-135210000D01*
X68300000Y-134810000D02*
X68300000Y-134810000D01*
X68300000Y-134410000D02*
X68300000Y-134410000D01*
X68300000Y-134010000D02*
X68300000Y-134010000D01*
X68300000Y-133610000D02*
X68300000Y-133610000D01*
X68300000Y-133210000D02*
X68300000Y-133210000D01*
X68300000Y-132810000D02*
X68300000Y-132810000D01*
X68300000Y-132410000D02*
X68300000Y-132410000D01*
X68300000Y-132010000D02*
X68300000Y-132010000D01*
X68300000Y-131610000D02*
X68300000Y-131610000D01*
X68300000Y-131210000D02*
X68300000Y-131210000D01*
X68300000Y-130810000D02*
X68300000Y-130810000D01*
X68300000Y-130410000D02*
X68300000Y-130410000D01*
X68300000Y-130010000D02*
X68300000Y-130010000D01*
X68300000Y-129610000D02*
X68300000Y-129610000D01*
X68300000Y-129210000D02*
X68300000Y-129210000D01*
X68300000Y-128810000D02*
X68300000Y-128810000D01*
X68300000Y-128410000D02*
X68300000Y-128410000D01*
X68300000Y-128010000D02*
X68300000Y-128010000D01*
X68300000Y-127610000D02*
X68300000Y-127610000D01*
X68300000Y-127210000D02*
X68300000Y-127210000D01*
X68300000Y-126810000D02*
X68300000Y-126810000D01*
X68300000Y-126410000D02*
X68300000Y-126410000D01*
X68300000Y-126010000D02*
X68300000Y-126010000D01*
X68300000Y-125610000D02*
X68300000Y-125610000D01*
X68300000Y-125210000D02*
X68300000Y-125210000D01*
X68300000Y-124810000D02*
X68300000Y-124810000D01*
X68300000Y-124410000D02*
X68300000Y-124410000D01*
X68300000Y-124010000D02*
X68300000Y-124010000D01*
X68300000Y-123610000D02*
X68300000Y-123610000D01*
X68300000Y-123210000D02*
X68300000Y-123210000D01*
X68300000Y-122810000D02*
X68300000Y-122810000D01*
X68300000Y-122410000D02*
X68300000Y-122410000D01*
X68300000Y-122010000D02*
X68300000Y-122010000D01*
X68300000Y-121610000D02*
X68300000Y-121610000D01*
X68300000Y-121210000D02*
X68300000Y-121210000D01*
X68300000Y-120810000D02*
X68300000Y-120810000D01*
X68300000Y-120410000D02*
X68300000Y-120410000D01*
X68300000Y-120010000D02*
X68300000Y-120010000D01*
X68300000Y-119610000D02*
X68300000Y-119610000D01*
X68300000Y-119210000D02*
X68300000Y-119210000D01*
X68300000Y-118810000D02*
X68300000Y-118810000D01*
X68300000Y-118410000D02*
X68300000Y-118410000D01*
X68300000Y-118010000D02*
X68300000Y-118010000D01*
X68300000Y-117610000D02*
X68300000Y-117610000D01*
X68300000Y-117210000D02*
X68300000Y-117210000D01*
X68300000Y-116810000D02*
X68300000Y-116810000D01*
X68300000Y-116410000D02*
X68300000Y-116410000D01*
X68300000Y-116010000D02*
X68300000Y-116010000D01*
X68300000Y-115610000D02*
X68300000Y-115610000D01*
X68300000Y-115210000D02*
X68300000Y-115210000D01*
X68300000Y-114810000D02*
X68300000Y-114810000D01*
X68300000Y-114410000D02*
X68300000Y-114410000D01*
X68300000Y-114010000D02*
X68300000Y-114010000D01*
X68300000Y-113610000D02*
X68300000Y-113610000D01*
X68300000Y-113210000D02*
X68300000Y-113210000D01*
X68300000Y-112810000D02*
X68300000Y-112810000D01*
X68300000Y-112410000D02*
X68300000Y-112410000D01*
X68300000Y-112010000D02*
X68300000Y-112010000D01*
X68300000Y-111610000D02*
X68300000Y-111610000D01*
X68300000Y-111210000D02*
X68300000Y-111210000D01*
X68300000Y-110810000D02*
X68300000Y-110810000D01*
X68300000Y-110410000D02*
X68300000Y-110410000D01*
X68300000Y-110010000D02*
X68300000Y-110010000D01*
X68300000Y-109610000D02*
X68300000Y-109610000D01*
X68300000Y-109210000D02*
X68300000Y-109210000D01*
X68300000Y-108810000D02*
X68300000Y-108810000D01*
X68300000Y-108410000D02*
X68300000Y-108410000D01*
X68300000Y-108010000D02*
X68300000Y-108010000D01*
X68300000Y-107610000D02*
X68300000Y-107610000D01*
X68300000Y-107210000D02*
X68300000Y-107210000D01*
X68300000Y-106810000D02*
X68300000Y-106810000D01*
X68300000Y-106410000D02*
X68300000Y-106410000D01*
X68300000Y-106010000D02*
X68300000Y-106010000D01*
X68300000Y-105610000D02*
X68300000Y-105610000D01*
X68300000Y-105210000D02*
X68300000Y-105210000D01*
X68300000Y-104810000D02*
X68300000Y-104810000D01*
X68300000Y-104410000D02*
X68300000Y-104410000D01*
X68300000Y-104010000D02*
X68300000Y-104010000D01*
X68300000Y-103610000D02*
X68300000Y-103610000D01*
X68300000Y-103210000D02*
X68300000Y-103210000D01*
X68300000Y-102810000D02*
X68300000Y-102810000D01*
X68300000Y-102410000D02*
X68300000Y-102410000D01*
X68300000Y-102010000D02*
X68300000Y-102010000D01*
X68300000Y-101610000D02*
X68300000Y-101610000D01*
X68300000Y-101210000D02*
X68300000Y-101210000D01*
X68300000Y-100810000D02*
X68300000Y-100810000D01*
X68300000Y-100410000D02*
X68300000Y-100410000D01*
X68300000Y-100010000D02*
X68300000Y-100010000D01*
X68300000Y-99610000D02*
X68300000Y-99610000D01*
X68300000Y-99210000D02*
X68300000Y-99210000D01*
X68300000Y-98810000D02*
X68300000Y-98810000D01*
X68300000Y-98410000D02*
X68300000Y-98410000D01*
X68300000Y-98010000D02*
X68300000Y-98010000D01*
X68300000Y-97610000D02*
X68300000Y-97610000D01*
X68300000Y-97210000D02*
X68300000Y-97210000D01*
X68300000Y-96810000D02*
X68300000Y-96810000D01*
X68300000Y-96410000D02*
X68300000Y-96410000D01*
X68300000Y-96010000D02*
X68300000Y-96010000D01*
X68300000Y-95610000D02*
X68300000Y-95610000D01*
X68300000Y-95210000D02*
X68300000Y-95210000D01*
X68300000Y-94810000D02*
X68300000Y-94810000D01*
X68300000Y-94410000D02*
X68300000Y-94410000D01*
X68300000Y-94010000D02*
X68300000Y-94010000D01*
X68300000Y-93610000D02*
X68300000Y-93610000D01*
X68300000Y-93210000D02*
X68300000Y-93210000D01*
X68300000Y-92810000D02*
X68300000Y-92810000D01*
X68300000Y-92410000D02*
X68300000Y-92410000D01*
X68300000Y-92010000D02*
X68300000Y-92010000D01*
X68300000Y-91610000D02*
X68300000Y-91610000D01*
X68300000Y-91210000D02*
X68300000Y-91210000D01*
X68300000Y-90810000D02*
X68300000Y-90810000D01*
X68300000Y-90410000D02*
X68300000Y-90410000D01*
X68300000Y-90010000D02*
X68300000Y-90010000D01*
X68300000Y-89610000D02*
X68300000Y-89610000D01*
X68300000Y-89210000D02*
X68300000Y-89210000D01*
X68300000Y-88810000D02*
X68300000Y-88810000D01*
X68300000Y-88410000D02*
X68300000Y-88410000D01*
X68300000Y-88010000D02*
X68300000Y-88010000D01*
X68300000Y-87610000D02*
X68300000Y-87610000D01*
X68300000Y-87210000D02*
X68300000Y-87210000D01*
X68300000Y-86810000D02*
X68300000Y-86810000D01*
X68300000Y-86410000D02*
X68300000Y-86410000D01*
X68300000Y-86010000D02*
X68300000Y-86010000D01*
X68300000Y-85610000D02*
X68300000Y-85610000D01*
X68300000Y-85210000D02*
X68300000Y-85210000D01*
X68300000Y-84810000D02*
X68300000Y-84810000D01*
X68300000Y-84410000D02*
X68300000Y-84410000D01*
X68300000Y-84010000D02*
X68300000Y-84010000D01*
X68300000Y-83610000D02*
X68300000Y-83610000D01*
X68300000Y-83210000D02*
X68300000Y-83210000D01*
X68300000Y-82810000D02*
X68300000Y-82810000D01*
X68300000Y-82410000D02*
X68300000Y-82410000D01*
X68300000Y-82010000D02*
X68300000Y-82010000D01*
X68300000Y-81610000D02*
X68300000Y-81610000D01*
X68300000Y-81210000D02*
X68300000Y-81210000D01*
X68300000Y-80810000D02*
X68300000Y-80810000D01*
X68300000Y-80410000D02*
X68300000Y-80410000D01*
X68300000Y-80010000D02*
X68300000Y-80010000D01*
X68300000Y-79610000D02*
X68300000Y-79610000D01*
X68300000Y-79210000D02*
X68300000Y-79210000D01*
X68300000Y-78810000D02*
X68300000Y-78810000D01*
X68300000Y-78410000D02*
X68300000Y-78410000D01*
X68300000Y-78010000D02*
X68300000Y-78010000D01*
X68300000Y-77610000D02*
X68300000Y-77610000D01*
X68300000Y-77210000D02*
X68300000Y-77210000D01*
X68300000Y-76810000D02*
X68300000Y-76810000D01*
X68300000Y-76410000D02*
X68300000Y-76410000D01*
X68300000Y-76010000D02*
X68300000Y-76010000D01*
X68300000Y-75610000D02*
X68300000Y-75610000D01*
X68300000Y-75210000D02*
X68300000Y-75210000D01*
X68300000Y-74810000D02*
X68300000Y-74810000D01*
X68300000Y-74410000D02*
X68300000Y-74410000D01*
X68300000Y-74010000D02*
X68300000Y-74010000D01*
X68300000Y-73610000D02*
X68300000Y-73610000D01*
X68300000Y-73210000D02*
X68300000Y-73210000D01*
X68300000Y-72810000D02*
X68300000Y-72810000D01*
X68300000Y-72410000D02*
X68300000Y-72410000D01*
X68300000Y-72010000D02*
X68300000Y-72010000D01*
X68300000Y-71610000D02*
X68300000Y-71610000D01*
X68300000Y-71210000D02*
X68300000Y-71210000D01*
X68300000Y-70810000D02*
X68300000Y-70810000D01*
X68300000Y-70410000D02*
X68300000Y-70410000D01*
X68300000Y-70010000D02*
X68300000Y-70010000D01*
X68300000Y-69610000D02*
X68300000Y-69610000D01*
X68300000Y-69210000D02*
X68300000Y-69210000D01*
X68300000Y-68810000D02*
X68300000Y-68810000D01*
X68300000Y-68410000D02*
X68300000Y-68410000D01*
X68300000Y-68010000D02*
X68300000Y-68010000D01*
X68300000Y-67610000D02*
X68300000Y-67610000D01*
X68300000Y-67210000D02*
X68300000Y-67210000D01*
X68300000Y-66810000D02*
X68300000Y-66810000D01*
X68300000Y-66410000D02*
X68300000Y-66410000D01*
X68300000Y-66010000D02*
X68300000Y-66010000D01*
X68300000Y-65610000D02*
X68300000Y-65610000D01*
X68300000Y-65210000D02*
X68300000Y-65210000D01*
X68300000Y-64810000D02*
X68300000Y-64810000D01*
X68300000Y-64410000D02*
X68300000Y-64410000D01*
X68300000Y-64010000D02*
X68300000Y-64010000D01*
X68300000Y-63610000D02*
X68300000Y-63610000D01*
X68300000Y-63210000D02*
X68300000Y-63210000D01*
X68300000Y-62810000D02*
X68300000Y-62810000D01*
X68300000Y-62410000D02*
X68300000Y-62410000D01*
X68300000Y-62010000D02*
X68300000Y-62010000D01*
X68300000Y-61610000D02*
X68300000Y-61610000D01*
X68300000Y-61210000D02*
X68300000Y-61210000D01*
X68300000Y-60810000D02*
X68300000Y-60810000D01*
X68300000Y-60410000D02*
X68300000Y-60410000D01*
X68300000Y-60010000D02*
X68300000Y-60010000D01*
X68300000Y-59610000D02*
X68300000Y-59610000D01*
X68300000Y-59210000D02*
X68300000Y-59210000D01*
X68300000Y-58810000D02*
X68300000Y-58810000D01*
X68300000Y-58410000D02*
X68300000Y-58410000D01*
X68300000Y-58010000D02*
X68300000Y-58010000D01*
X68300000Y-57610000D02*
X68300000Y-57610000D01*
X68300000Y-57210000D02*
X68300000Y-57210000D01*
X68300000Y-56810000D02*
X68300000Y-56810000D01*
X68300000Y-56410000D02*
X68300000Y-56410000D01*
X68300000Y-56010000D02*
X68300000Y-56010000D01*
X68300000Y-55610000D02*
X68300000Y-55610000D01*
X68300000Y-55210000D02*
X68300000Y-55210000D01*
X68300000Y-54810000D02*
X68300000Y-54810000D01*
X68300000Y-54410000D02*
X68300000Y-54410000D01*
X68300000Y-54010000D02*
X68300000Y-54010000D01*
X68300000Y-53610000D02*
X68300000Y-53610000D01*
X68300000Y-53210000D02*
X68300000Y-53210000D01*
X68300000Y-52810000D02*
X68300000Y-52810000D01*
X68300000Y-52410000D02*
X68300000Y-52410000D01*
X68300000Y-52010000D02*
X68300000Y-52010000D01*
X68300000Y-51610000D02*
X68300000Y-51610000D01*
X68300000Y-51210000D02*
X68300000Y-51210000D01*
X68300000Y-50810000D02*
X68300000Y-50810000D01*
X68300000Y-50410000D02*
X68300000Y-50410000D01*
X68300000Y-50010000D02*
X68300000Y-50010000D01*
X68300000Y-49610000D02*
X68300000Y-49610000D01*
X68300000Y-49210000D02*
X68300000Y-49210000D01*
X68300000Y-48810000D02*
X68300000Y-48810000D01*
X68300000Y-48410000D02*
X68300000Y-48410000D01*
X68300000Y-48010000D02*
X68300000Y-48010000D01*
X68300000Y-47610000D02*
X68300000Y-47610000D01*
X68300000Y-47210000D02*
X68300000Y-47210000D01*
X68300000Y-46810000D02*
X68300000Y-46810000D01*
D11*
X67604819Y-104333809D02*
X67604819Y-104905237D01*
X67604819Y-104619523D02*
X66604819Y-104619523D01*
X66604819Y-104619523D02*
X66747676Y-104714761D01*
X66747676Y-104714761D02*
X66842914Y-104809999D01*
X66842914Y-104809999D02*
X66890533Y-104905237D01*
X66604819Y-103714761D02*
X66604819Y-103619523D01*
X66604819Y-103619523D02*
X66652438Y-103524285D01*
X66652438Y-103524285D02*
X66700057Y-103476666D01*
X66700057Y-103476666D02*
X66795295Y-103429047D01*
X66795295Y-103429047D02*
X66985771Y-103381428D01*
X66985771Y-103381428D02*
X67223866Y-103381428D01*
X67223866Y-103381428D02*
X67414342Y-103429047D01*
X67414342Y-103429047D02*
X67509580Y-103476666D01*
X67509580Y-103476666D02*
X67557200Y-103524285D01*
X67557200Y-103524285D02*
X67604819Y-103619523D01*
X67604819Y-103619523D02*
X67604819Y-103714761D01*
X67604819Y-103714761D02*
X67557200Y-103809999D01*
X67557200Y-103809999D02*
X67509580Y-103857618D01*
X67509580Y-103857618D02*
X67414342Y-103905237D01*
X67414342Y-103905237D02*
X67223866Y-103952856D01*
X67223866Y-103952856D02*
X66985771Y-103952856D01*
X66985771Y-103952856D02*
X66795295Y-103905237D01*
X66795295Y-103905237D02*
X66700057Y-103857618D01*
X66700057Y-103857618D02*
X66652438Y-103809999D01*
X66652438Y-103809999D02*
X66604819Y-103714761D01*
X66604819Y-102524285D02*
X66604819Y-102714761D01*
X66604819Y-102714761D02*
X66652438Y-102809999D01*
X66652438Y-102809999D02*
X66700057Y-102857618D01*
X66700057Y-102857618D02*
X66842914Y-102952856D01*
X66842914Y-102952856D02*
X67033390Y-103000475D01*
X67033390Y-103000475D02*
X67414342Y-103000475D01*
X67414342Y-103000475D02*
X67509580Y-102952856D01*
X67509580Y-102952856D02*
X67557200Y-102905237D01*
X67557200Y-102905237D02*
X67604819Y-102809999D01*
X67604819Y-102809999D02*
X67604819Y-102619523D01*
X67604819Y-102619523D02*
X67557200Y-102524285D01*
X67557200Y-102524285D02*
X67509580Y-102476666D01*
X67509580Y-102476666D02*
X67414342Y-102429047D01*
X67414342Y-102429047D02*
X67176247Y-102429047D01*
X67176247Y-102429047D02*
X67081009Y-102476666D01*
X67081009Y-102476666D02*
X67033390Y-102524285D01*
X67033390Y-102524285D02*
X66985771Y-102619523D01*
X66985771Y-102619523D02*
X66985771Y-102809999D01*
X66985771Y-102809999D02*
X67033390Y-102905237D01*
X67033390Y-102905237D02*
X67081009Y-102952856D01*
X67081009Y-102952856D02*
X67176247Y-103000475D01*
X67509580Y-102000475D02*
X67557200Y-101952856D01*
X67557200Y-101952856D02*
X67604819Y-102000475D01*
X67604819Y-102000475D02*
X67557200Y-102048094D01*
X67557200Y-102048094D02*
X67509580Y-102000475D01*
X67509580Y-102000475D02*
X67604819Y-102000475D01*
X66604819Y-101333809D02*
X66604819Y-101238571D01*
X66604819Y-101238571D02*
X66652438Y-101143333D01*
X66652438Y-101143333D02*
X66700057Y-101095714D01*
X66700057Y-101095714D02*
X66795295Y-101048095D01*
X66795295Y-101048095D02*
X66985771Y-101000476D01*
X66985771Y-101000476D02*
X67223866Y-101000476D01*
X67223866Y-101000476D02*
X67414342Y-101048095D01*
X67414342Y-101048095D02*
X67509580Y-101095714D01*
X67509580Y-101095714D02*
X67557200Y-101143333D01*
X67557200Y-101143333D02*
X67604819Y-101238571D01*
X67604819Y-101238571D02*
X67604819Y-101333809D01*
X67604819Y-101333809D02*
X67557200Y-101429047D01*
X67557200Y-101429047D02*
X67509580Y-101476666D01*
X67509580Y-101476666D02*
X67414342Y-101524285D01*
X67414342Y-101524285D02*
X67223866Y-101571904D01*
X67223866Y-101571904D02*
X66985771Y-101571904D01*
X66985771Y-101571904D02*
X66795295Y-101524285D01*
X66795295Y-101524285D02*
X66700057Y-101476666D01*
X66700057Y-101476666D02*
X66652438Y-101429047D01*
X66652438Y-101429047D02*
X66604819Y-101333809D01*
X66604819Y-100381428D02*
X66604819Y-100286190D01*
X66604819Y-100286190D02*
X66652438Y-100190952D01*
X66652438Y-100190952D02*
X66700057Y-100143333D01*
X66700057Y-100143333D02*
X66795295Y-100095714D01*
X66795295Y-100095714D02*
X66985771Y-100048095D01*
X66985771Y-100048095D02*
X67223866Y-100048095D01*
X67223866Y-100048095D02*
X67414342Y-100095714D01*
X67414342Y-100095714D02*
X67509580Y-100143333D01*
X67509580Y-100143333D02*
X67557200Y-100190952D01*
X67557200Y-100190952D02*
X67604819Y-100286190D01*
X67604819Y-100286190D02*
X67604819Y-100381428D01*
X67604819Y-100381428D02*
X67557200Y-100476666D01*
X67557200Y-100476666D02*
X67509580Y-100524285D01*
X67509580Y-100524285D02*
X67414342Y-100571904D01*
X67414342Y-100571904D02*
X67223866Y-100619523D01*
X67223866Y-100619523D02*
X66985771Y-100619523D01*
X66985771Y-100619523D02*
X66795295Y-100571904D01*
X66795295Y-100571904D02*
X66700057Y-100524285D01*
X66700057Y-100524285D02*
X66652438Y-100476666D01*
X66652438Y-100476666D02*
X66604819Y-100381428D01*
X66604819Y-99429047D02*
X66604819Y-99333809D01*
X66604819Y-99333809D02*
X66652438Y-99238571D01*
X66652438Y-99238571D02*
X66700057Y-99190952D01*
X66700057Y-99190952D02*
X66795295Y-99143333D01*
X66795295Y-99143333D02*
X66985771Y-99095714D01*
X66985771Y-99095714D02*
X67223866Y-99095714D01*
X67223866Y-99095714D02*
X67414342Y-99143333D01*
X67414342Y-99143333D02*
X67509580Y-99190952D01*
X67509580Y-99190952D02*
X67557200Y-99238571D01*
X67557200Y-99238571D02*
X67604819Y-99333809D01*
X67604819Y-99333809D02*
X67604819Y-99429047D01*
X67604819Y-99429047D02*
X67557200Y-99524285D01*
X67557200Y-99524285D02*
X67509580Y-99571904D01*
X67509580Y-99571904D02*
X67414342Y-99619523D01*
X67414342Y-99619523D02*
X67223866Y-99667142D01*
X67223866Y-99667142D02*
X66985771Y-99667142D01*
X66985771Y-99667142D02*
X66795295Y-99619523D01*
X66795295Y-99619523D02*
X66700057Y-99571904D01*
X66700057Y-99571904D02*
X66652438Y-99524285D01*
X66652438Y-99524285D02*
X66604819Y-99429047D01*
X66604819Y-98476666D02*
X66604819Y-98381428D01*
X66604819Y-98381428D02*
X66652438Y-98286190D01*
X66652438Y-98286190D02*
X66700057Y-98238571D01*
X66700057Y-98238571D02*
X66795295Y-98190952D01*
X66795295Y-98190952D02*
X66985771Y-98143333D01*
X66985771Y-98143333D02*
X67223866Y-98143333D01*
X67223866Y-98143333D02*
X67414342Y-98190952D01*
X67414342Y-98190952D02*
X67509580Y-98238571D01*
X67509580Y-98238571D02*
X67557200Y-98286190D01*
X67557200Y-98286190D02*
X67604819Y-98381428D01*
X67604819Y-98381428D02*
X67604819Y-98476666D01*
X67604819Y-98476666D02*
X67557200Y-98571904D01*
X67557200Y-98571904D02*
X67509580Y-98619523D01*
X67509580Y-98619523D02*
X67414342Y-98667142D01*
X67414342Y-98667142D02*
X67223866Y-98714761D01*
X67223866Y-98714761D02*
X66985771Y-98714761D01*
X66985771Y-98714761D02*
X66795295Y-98667142D01*
X66795295Y-98667142D02*
X66700057Y-98619523D01*
X66700057Y-98619523D02*
X66652438Y-98571904D01*
X66652438Y-98571904D02*
X66604819Y-98476666D01*
X67604819Y-96952856D02*
X66938152Y-96952856D01*
X67033390Y-96952856D02*
X66985771Y-96905237D01*
X66985771Y-96905237D02*
X66938152Y-96809999D01*
X66938152Y-96809999D02*
X66938152Y-96667142D01*
X66938152Y-96667142D02*
X66985771Y-96571904D01*
X66985771Y-96571904D02*
X67081009Y-96524285D01*
X67081009Y-96524285D02*
X67604819Y-96524285D01*
X67081009Y-96524285D02*
X66985771Y-96476666D01*
X66985771Y-96476666D02*
X66938152Y-96381428D01*
X66938152Y-96381428D02*
X66938152Y-96238571D01*
X66938152Y-96238571D02*
X66985771Y-96143332D01*
X66985771Y-96143332D02*
X67081009Y-96095713D01*
X67081009Y-96095713D02*
X67604819Y-96095713D01*
X67604819Y-95619523D02*
X66938152Y-95619523D01*
X67033390Y-95619523D02*
X66985771Y-95571904D01*
X66985771Y-95571904D02*
X66938152Y-95476666D01*
X66938152Y-95476666D02*
X66938152Y-95333809D01*
X66938152Y-95333809D02*
X66985771Y-95238571D01*
X66985771Y-95238571D02*
X67081009Y-95190952D01*
X67081009Y-95190952D02*
X67604819Y-95190952D01*
X67081009Y-95190952D02*
X66985771Y-95143333D01*
X66985771Y-95143333D02*
X66938152Y-95048095D01*
X66938152Y-95048095D02*
X66938152Y-94905238D01*
X66938152Y-94905238D02*
X66985771Y-94809999D01*
X66985771Y-94809999D02*
X67081009Y-94762380D01*
X67081009Y-94762380D02*
X67604819Y-94762380D01*
D10*
X68540000Y-46810000D02*
X67713580Y-46810000D01*
X68540000Y-152810000D02*
X67713580Y-152810000D01*
X68300000Y-46810000D02*
X68300000Y-152810000D01*
X68300000Y-46810000D02*
X68300000Y-152810000D01*
X68300000Y-46810000D02*
X68886421Y-47936504D01*
X68300000Y-46810000D02*
X67713579Y-47936504D01*
X68300000Y-152810000D02*
X67713579Y-151683496D01*
X68300000Y-152810000D02*
X68886421Y-151683496D01*
D11*
X78920953Y-44120058D02*
X78968572Y-44072439D01*
X78968572Y-44072439D02*
X79063810Y-44024820D01*
X79063810Y-44024820D02*
X79301905Y-44024820D01*
X79301905Y-44024820D02*
X79397143Y-44072439D01*
X79397143Y-44072439D02*
X79444762Y-44120058D01*
X79444762Y-44120058D02*
X79492381Y-44215296D01*
X79492381Y-44215296D02*
X79492381Y-44310534D01*
X79492381Y-44310534D02*
X79444762Y-44453391D01*
X79444762Y-44453391D02*
X78873334Y-45024820D01*
X78873334Y-45024820D02*
X79492381Y-45024820D01*
X79968572Y-45024820D02*
X80159048Y-45024820D01*
X80159048Y-45024820D02*
X80254286Y-44977201D01*
X80254286Y-44977201D02*
X80301905Y-44929581D01*
X80301905Y-44929581D02*
X80397143Y-44786724D01*
X80397143Y-44786724D02*
X80444762Y-44596248D01*
X80444762Y-44596248D02*
X80444762Y-44215296D01*
X80444762Y-44215296D02*
X80397143Y-44120058D01*
X80397143Y-44120058D02*
X80349524Y-44072439D01*
X80349524Y-44072439D02*
X80254286Y-44024820D01*
X80254286Y-44024820D02*
X80063810Y-44024820D01*
X80063810Y-44024820D02*
X79968572Y-44072439D01*
X79968572Y-44072439D02*
X79920953Y-44120058D01*
X79920953Y-44120058D02*
X79873334Y-44215296D01*
X79873334Y-44215296D02*
X79873334Y-44453391D01*
X79873334Y-44453391D02*
X79920953Y-44548629D01*
X79920953Y-44548629D02*
X79968572Y-44596248D01*
X79968572Y-44596248D02*
X80063810Y-44643867D01*
X80063810Y-44643867D02*
X80254286Y-44643867D01*
X80254286Y-44643867D02*
X80349524Y-44596248D01*
X80349524Y-44596248D02*
X80397143Y-44548629D01*
X80397143Y-44548629D02*
X80444762Y-44453391D01*
X80873334Y-44929581D02*
X80920953Y-44977201D01*
X80920953Y-44977201D02*
X80873334Y-45024820D01*
X80873334Y-45024820D02*
X80825715Y-44977201D01*
X80825715Y-44977201D02*
X80873334Y-44929581D01*
X80873334Y-44929581D02*
X80873334Y-45024820D01*
X81540000Y-44024820D02*
X81635238Y-44024820D01*
X81635238Y-44024820D02*
X81730476Y-44072439D01*
X81730476Y-44072439D02*
X81778095Y-44120058D01*
X81778095Y-44120058D02*
X81825714Y-44215296D01*
X81825714Y-44215296D02*
X81873333Y-44405772D01*
X81873333Y-44405772D02*
X81873333Y-44643867D01*
X81873333Y-44643867D02*
X81825714Y-44834343D01*
X81825714Y-44834343D02*
X81778095Y-44929581D01*
X81778095Y-44929581D02*
X81730476Y-44977201D01*
X81730476Y-44977201D02*
X81635238Y-45024820D01*
X81635238Y-45024820D02*
X81540000Y-45024820D01*
X81540000Y-45024820D02*
X81444762Y-44977201D01*
X81444762Y-44977201D02*
X81397143Y-44929581D01*
X81397143Y-44929581D02*
X81349524Y-44834343D01*
X81349524Y-44834343D02*
X81301905Y-44643867D01*
X81301905Y-44643867D02*
X81301905Y-44405772D01*
X81301905Y-44405772D02*
X81349524Y-44215296D01*
X81349524Y-44215296D02*
X81397143Y-44120058D01*
X81397143Y-44120058D02*
X81444762Y-44072439D01*
X81444762Y-44072439D02*
X81540000Y-44024820D01*
X82492381Y-44024820D02*
X82587619Y-44024820D01*
X82587619Y-44024820D02*
X82682857Y-44072439D01*
X82682857Y-44072439D02*
X82730476Y-44120058D01*
X82730476Y-44120058D02*
X82778095Y-44215296D01*
X82778095Y-44215296D02*
X82825714Y-44405772D01*
X82825714Y-44405772D02*
X82825714Y-44643867D01*
X82825714Y-44643867D02*
X82778095Y-44834343D01*
X82778095Y-44834343D02*
X82730476Y-44929581D01*
X82730476Y-44929581D02*
X82682857Y-44977201D01*
X82682857Y-44977201D02*
X82587619Y-45024820D01*
X82587619Y-45024820D02*
X82492381Y-45024820D01*
X82492381Y-45024820D02*
X82397143Y-44977201D01*
X82397143Y-44977201D02*
X82349524Y-44929581D01*
X82349524Y-44929581D02*
X82301905Y-44834343D01*
X82301905Y-44834343D02*
X82254286Y-44643867D01*
X82254286Y-44643867D02*
X82254286Y-44405772D01*
X82254286Y-44405772D02*
X82301905Y-44215296D01*
X82301905Y-44215296D02*
X82349524Y-44120058D01*
X82349524Y-44120058D02*
X82397143Y-44072439D01*
X82397143Y-44072439D02*
X82492381Y-44024820D01*
X83444762Y-44024820D02*
X83540000Y-44024820D01*
X83540000Y-44024820D02*
X83635238Y-44072439D01*
X83635238Y-44072439D02*
X83682857Y-44120058D01*
X83682857Y-44120058D02*
X83730476Y-44215296D01*
X83730476Y-44215296D02*
X83778095Y-44405772D01*
X83778095Y-44405772D02*
X83778095Y-44643867D01*
X83778095Y-44643867D02*
X83730476Y-44834343D01*
X83730476Y-44834343D02*
X83682857Y-44929581D01*
X83682857Y-44929581D02*
X83635238Y-44977201D01*
X83635238Y-44977201D02*
X83540000Y-45024820D01*
X83540000Y-45024820D02*
X83444762Y-45024820D01*
X83444762Y-45024820D02*
X83349524Y-44977201D01*
X83349524Y-44977201D02*
X83301905Y-44929581D01*
X83301905Y-44929581D02*
X83254286Y-44834343D01*
X83254286Y-44834343D02*
X83206667Y-44643867D01*
X83206667Y-44643867D02*
X83206667Y-44405772D01*
X83206667Y-44405772D02*
X83254286Y-44215296D01*
X83254286Y-44215296D02*
X83301905Y-44120058D01*
X83301905Y-44120058D02*
X83349524Y-44072439D01*
X83349524Y-44072439D02*
X83444762Y-44024820D01*
X84397143Y-44024820D02*
X84492381Y-44024820D01*
X84492381Y-44024820D02*
X84587619Y-44072439D01*
X84587619Y-44072439D02*
X84635238Y-44120058D01*
X84635238Y-44120058D02*
X84682857Y-44215296D01*
X84682857Y-44215296D02*
X84730476Y-44405772D01*
X84730476Y-44405772D02*
X84730476Y-44643867D01*
X84730476Y-44643867D02*
X84682857Y-44834343D01*
X84682857Y-44834343D02*
X84635238Y-44929581D01*
X84635238Y-44929581D02*
X84587619Y-44977201D01*
X84587619Y-44977201D02*
X84492381Y-45024820D01*
X84492381Y-45024820D02*
X84397143Y-45024820D01*
X84397143Y-45024820D02*
X84301905Y-44977201D01*
X84301905Y-44977201D02*
X84254286Y-44929581D01*
X84254286Y-44929581D02*
X84206667Y-44834343D01*
X84206667Y-44834343D02*
X84159048Y-44643867D01*
X84159048Y-44643867D02*
X84159048Y-44405772D01*
X84159048Y-44405772D02*
X84206667Y-44215296D01*
X84206667Y-44215296D02*
X84254286Y-44120058D01*
X84254286Y-44120058D02*
X84301905Y-44072439D01*
X84301905Y-44072439D02*
X84397143Y-44024820D01*
X85920953Y-45024820D02*
X85920953Y-44358153D01*
X85920953Y-44453391D02*
X85968572Y-44405772D01*
X85968572Y-44405772D02*
X86063810Y-44358153D01*
X86063810Y-44358153D02*
X86206667Y-44358153D01*
X86206667Y-44358153D02*
X86301905Y-44405772D01*
X86301905Y-44405772D02*
X86349524Y-44501010D01*
X86349524Y-44501010D02*
X86349524Y-45024820D01*
X86349524Y-44501010D02*
X86397143Y-44405772D01*
X86397143Y-44405772D02*
X86492381Y-44358153D01*
X86492381Y-44358153D02*
X86635238Y-44358153D01*
X86635238Y-44358153D02*
X86730477Y-44405772D01*
X86730477Y-44405772D02*
X86778096Y-44501010D01*
X86778096Y-44501010D02*
X86778096Y-45024820D01*
X87254286Y-45024820D02*
X87254286Y-44358153D01*
X87254286Y-44453391D02*
X87301905Y-44405772D01*
X87301905Y-44405772D02*
X87397143Y-44358153D01*
X87397143Y-44358153D02*
X87540000Y-44358153D01*
X87540000Y-44358153D02*
X87635238Y-44405772D01*
X87635238Y-44405772D02*
X87682857Y-44501010D01*
X87682857Y-44501010D02*
X87682857Y-45024820D01*
X87682857Y-44501010D02*
X87730476Y-44405772D01*
X87730476Y-44405772D02*
X87825714Y-44358153D01*
X87825714Y-44358153D02*
X87968571Y-44358153D01*
X87968571Y-44358153D02*
X88063810Y-44405772D01*
X88063810Y-44405772D02*
X88111429Y-44501010D01*
X88111429Y-44501010D02*
X88111429Y-45024820D01*
D10*
X98040000Y-46310000D02*
X98040000Y-45133581D01*
X69040000Y-46310000D02*
X69040000Y-45133581D01*
X98040000Y-45720001D02*
X69040000Y-45720001D01*
X98040000Y-45720001D02*
X69040000Y-45720001D01*
X98040000Y-45720001D02*
X96913496Y-46306422D01*
X98040000Y-45720001D02*
X96913496Y-45133580D01*
X69040000Y-45720001D02*
X70166504Y-45133580D01*
X69040000Y-45720001D02*
X70166504Y-46306422D01*
M02*
