%TF.GenerationSoftware,KiCad,Pcbnew,7.0.10-7.0.10~ubuntu22.04.1*%
%TF.CreationDate,2024-04-01T10:40:11+02:00*%
%TF.ProjectId,HigawoEurorackMixer,48696761-776f-4457-9572-6f7261636b4d,rev?*%
%TF.SameCoordinates,Original*%
%TF.FileFunction,Copper,L1,Top*%
%TF.FilePolarity,Positive*%
%FSLAX46Y46*%
G04 Gerber Fmt 4.6, Leading zero omitted, Abs format (unit mm)*
G04 Created by KiCad (PCBNEW 7.0.10-7.0.10~ubuntu22.04.1) date 2024-04-01 10:40:11*
%MOMM*%
%LPD*%
G01*
G04 APERTURE LIST*
G04 Aperture macros list*
%AMRoundRect*
0 Rectangle with rounded corners*
0 $1 Rounding radius*
0 $2 $3 $4 $5 $6 $7 $8 $9 X,Y pos of 4 corners*
0 Add a 4 corners polygon primitive as box body*
4,1,4,$2,$3,$4,$5,$6,$7,$8,$9,$2,$3,0*
0 Add four circle primitives for the rounded corners*
1,1,$1+$1,$2,$3*
1,1,$1+$1,$4,$5*
1,1,$1+$1,$6,$7*
1,1,$1+$1,$8,$9*
0 Add four rect primitives between the rounded corners*
20,1,$1+$1,$2,$3,$4,$5,0*
20,1,$1+$1,$4,$5,$6,$7,0*
20,1,$1+$1,$6,$7,$8,$9,0*
20,1,$1+$1,$8,$9,$2,$3,0*%
G04 Aperture macros list end*
%TA.AperFunction,ComponentPad*%
%ADD10C,1.600000*%
%TD*%
%TA.AperFunction,ComponentPad*%
%ADD11O,1.600000X1.600000*%
%TD*%
%TA.AperFunction,ComponentPad*%
%ADD12C,2.000000*%
%TD*%
%TA.AperFunction,ComponentPad*%
%ADD13C,1.300000*%
%TD*%
%TA.AperFunction,ComponentPad*%
%ADD14R,1.600000X1.600000*%
%TD*%
%TA.AperFunction,ComponentPad*%
%ADD15C,1.800000*%
%TD*%
%TA.AperFunction,ComponentPad*%
%ADD16RoundRect,0.250000X-0.600000X0.600000X-0.600000X-0.600000X0.600000X-0.600000X0.600000X0.600000X0*%
%TD*%
%TA.AperFunction,ComponentPad*%
%ADD17C,1.700000*%
%TD*%
%TA.AperFunction,Conductor*%
%ADD18C,0.500000*%
%TD*%
%TA.AperFunction,Conductor*%
%ADD19C,0.250000*%
%TD*%
G04 APERTURE END LIST*
D10*
%TO.P,R1,1*%
%TO.N,Net-(R1-Pad1)*%
X88900000Y-91440000D03*
D11*
%TO.P,R1,2*%
%TO.N,Net-(U2A--)*%
X81280000Y-91440000D03*
%TD*%
D10*
%TO.P,R2,1*%
%TO.N,Net-(R2-Pad1)*%
X88900000Y-104140000D03*
D11*
%TO.P,R2,2*%
%TO.N,Net-(U2A--)*%
X81280000Y-104140000D03*
%TD*%
D12*
%TO.P,RV3,*%
%TO.N,*%
X94260000Y-97790000D03*
X103860000Y-97790000D03*
D13*
%TO.P,RV3,1,1*%
%TO.N,Net-(J3-PadT)*%
X96560000Y-105290000D03*
%TO.P,RV3,2,2*%
%TO.N,Net-(R3-Pad1)*%
X99060000Y-105290000D03*
%TO.P,RV3,3,3*%
%TO.N,GND*%
X101560000Y-105290000D03*
%TD*%
D12*
%TO.P,RV4,*%
%TO.N,*%
X94260000Y-118110000D03*
X103860000Y-118110000D03*
D13*
%TO.P,RV4,1,1*%
%TO.N,Net-(J4-PadT)*%
X96560000Y-125610000D03*
%TO.P,RV4,2,2*%
%TO.N,Net-(R4-Pad1)*%
X99060000Y-125610000D03*
%TO.P,RV4,3,3*%
%TO.N,GND*%
X101560000Y-125610000D03*
%TD*%
D10*
%TO.P,R8,1*%
%TO.N,Net-(R7-Pad2)*%
X95250000Y-132080000D03*
D11*
%TO.P,R8,2*%
%TO.N,Net-(J5-PadT)*%
X102870000Y-132080000D03*
%TD*%
D12*
%TO.P,RV1,*%
%TO.N,*%
X94260000Y-57150000D03*
X103860000Y-57150000D03*
D13*
%TO.P,RV1,1,1*%
%TO.N,Net-(J1-PadT)*%
X96560000Y-64650000D03*
%TO.P,RV1,2,2*%
%TO.N,Net-(R1-Pad1)*%
X99060000Y-64650000D03*
%TO.P,RV1,3,3*%
%TO.N,GND*%
X101560000Y-64650000D03*
%TD*%
D14*
%TO.P,C2,1*%
%TO.N,GND*%
X78653000Y-148590000D03*
D10*
%TO.P,C2,2*%
%TO.N,Net-(U2C-V-)*%
X81153000Y-148590000D03*
%TD*%
D15*
%TO.P,J1,S*%
%TO.N,GND*%
X78610000Y-57150000D03*
%TO.P,J1,T*%
%TO.N,Net-(J1-PadT)*%
X90010000Y-57150000D03*
%TO.P,J1,TN*%
%TO.N,unconnected-(J1-PadTN)*%
X81710000Y-57150000D03*
%TD*%
D10*
%TO.P,R5,1*%
%TO.N,Net-(U2A--)*%
X81280000Y-111760000D03*
D11*
%TO.P,R5,2*%
%TO.N,Net-(R5-Pad2)*%
X88900000Y-111760000D03*
%TD*%
D15*
%TO.P,J5,S*%
%TO.N,GND*%
X92580000Y-138430000D03*
%TO.P,J5,T*%
%TO.N,Net-(J5-PadT)*%
X103980000Y-138430000D03*
%TO.P,J5,TN*%
%TO.N,unconnected-(J5-PadTN)*%
X95680000Y-138430000D03*
%TD*%
%TO.P,J2,S*%
%TO.N,GND*%
X78610000Y-77470000D03*
%TO.P,J2,T*%
%TO.N,Net-(J2-PadT)*%
X90010000Y-77470000D03*
%TO.P,J2,TN*%
%TO.N,unconnected-(J2-PadTN)*%
X81710000Y-77470000D03*
%TD*%
D10*
%TO.P,R4,1*%
%TO.N,Net-(R4-Pad1)*%
X88900000Y-109220000D03*
D11*
%TO.P,R4,2*%
%TO.N,Net-(U2A--)*%
X81280000Y-109220000D03*
%TD*%
D12*
%TO.P,RV2,*%
%TO.N,*%
X94260000Y-77470000D03*
X103860000Y-77470000D03*
D13*
%TO.P,RV2,1,1*%
%TO.N,Net-(J2-PadT)*%
X96560000Y-84970000D03*
%TO.P,RV2,2,2*%
%TO.N,Net-(R2-Pad1)*%
X99060000Y-84970000D03*
%TO.P,RV2,3,3*%
%TO.N,GND*%
X101560000Y-84970000D03*
%TD*%
D10*
%TO.P,R7,1*%
%TO.N,Net-(R7-Pad1)*%
X92710000Y-132080000D03*
D11*
%TO.P,R7,2*%
%TO.N,Net-(R7-Pad2)*%
X92710000Y-124460000D03*
%TD*%
D10*
%TO.P,R3,1*%
%TO.N,Net-(R3-Pad1)*%
X88900000Y-106680000D03*
D11*
%TO.P,R3,2*%
%TO.N,Net-(U2A--)*%
X81280000Y-106680000D03*
%TD*%
D12*
%TO.P,RV5,*%
%TO.N,*%
X80282966Y-138430000D03*
X89882966Y-138430000D03*
D13*
%TO.P,RV5,1,1*%
%TO.N,Net-(U2B--)*%
X82582966Y-145930000D03*
%TO.P,RV5,2,2*%
X85082966Y-145930000D03*
%TO.P,RV5,3,3*%
%TO.N,Net-(R7-Pad1)*%
X87582966Y-145930000D03*
%TD*%
D16*
%TO.P,J6,1,+12V*%
%TO.N,Net-(U2C-V+)*%
X100965000Y-151130000D03*
D17*
%TO.P,J6,2,+12V*%
X100965000Y-153670000D03*
%TO.P,J6,3,GND*%
%TO.N,GND*%
X98425000Y-151130000D03*
%TO.P,J6,4,GND*%
X98425000Y-153670000D03*
%TO.P,J6,5,GND*%
X95885000Y-151130000D03*
%TO.P,J6,6,GND*%
X95885000Y-153670000D03*
%TO.P,J6,7,GND*%
X93345000Y-151130000D03*
%TO.P,J6,8,GND*%
X93345000Y-153670000D03*
%TO.P,J6,9,-12V*%
%TO.N,Net-(U2C-V-)*%
X90805000Y-151130000D03*
%TO.P,J6,10,-12V*%
X90805000Y-153670000D03*
%TD*%
D14*
%TO.P,C1,1*%
%TO.N,Net-(U2C-V+)*%
X81090888Y-153670000D03*
D10*
%TO.P,C1,2*%
%TO.N,GND*%
X83590888Y-153670000D03*
%TD*%
D15*
%TO.P,J3,S*%
%TO.N,GND*%
X78610000Y-97790000D03*
%TO.P,J3,T*%
%TO.N,Net-(J3-PadT)*%
X90010000Y-97790000D03*
%TO.P,J3,TN*%
%TO.N,unconnected-(J3-PadTN)*%
X81710000Y-97790000D03*
%TD*%
D10*
%TO.P,R6,1*%
%TO.N,Net-(R5-Pad2)*%
X102870000Y-129540000D03*
D11*
%TO.P,R6,2*%
%TO.N,Net-(U2B--)*%
X95250000Y-129540000D03*
%TD*%
D15*
%TO.P,J4,S*%
%TO.N,GND*%
X78610000Y-118110000D03*
%TO.P,J4,T*%
%TO.N,Net-(J4-PadT)*%
X90010000Y-118110000D03*
%TO.P,J4,TN*%
%TO.N,unconnected-(J4-PadTN)*%
X81710000Y-118110000D03*
%TD*%
D14*
%TO.P,U2,1*%
%TO.N,Net-(R5-Pad2)*%
X88900000Y-124460000D03*
D11*
%TO.P,U2,2,-*%
%TO.N,Net-(U2A--)*%
X86360000Y-124460000D03*
%TO.P,U2,3,+*%
%TO.N,GND*%
X83820000Y-124460000D03*
%TO.P,U2,4,V-*%
%TO.N,Net-(U2C-V-)*%
X81280000Y-124460000D03*
%TO.P,U2,5,+*%
%TO.N,GND*%
X81280000Y-132080000D03*
%TO.P,U2,6,-*%
%TO.N,Net-(U2B--)*%
X83820000Y-132080000D03*
%TO.P,U2,7*%
%TO.N,Net-(R7-Pad2)*%
X86360000Y-132080000D03*
%TO.P,U2,8,V+*%
%TO.N,Net-(U2C-V+)*%
X88900000Y-132080000D03*
%TD*%
D18*
%TO.N,Net-(U2C-V+)*%
X81090888Y-153670000D02*
X82390888Y-154970000D01*
X82390888Y-154970000D02*
X99665000Y-154970000D01*
X99665000Y-154970000D02*
X100965000Y-153670000D01*
X100965000Y-151130000D02*
X100965000Y-153670000D01*
X82467013Y-135853377D02*
X84011895Y-134308495D01*
X100965000Y-151130000D02*
X96865000Y-147030000D01*
X80711467Y-135853377D02*
X82467013Y-135853377D01*
X96865000Y-147030000D02*
X82127331Y-147030000D01*
X81732966Y-136874876D02*
X80711467Y-135853377D01*
X84011895Y-134308495D02*
X87802875Y-134308495D01*
X82127331Y-147030000D02*
X81459062Y-146361731D01*
X88900000Y-133211370D02*
X88900000Y-132080000D01*
X81459062Y-146361731D02*
X81459062Y-139304514D01*
X81459062Y-139304514D02*
X81732966Y-139030610D01*
X81732966Y-139030610D02*
X81732966Y-136874876D01*
X87802875Y-134308495D02*
X88900000Y-133211370D01*
D19*
%TO.N,Net-(U2B--)*%
X83820000Y-132080000D02*
X84945000Y-133205000D01*
X84945000Y-133205000D02*
X87115991Y-133205000D01*
X87115991Y-133205000D02*
X87775000Y-132545991D01*
X87775000Y-132545991D02*
X87775000Y-131614009D01*
X87775000Y-131614009D02*
X89849009Y-129540000D01*
X89849009Y-129540000D02*
X95250000Y-129540000D01*
D18*
%TO.N,Net-(U2C-V-)*%
X90805000Y-151130000D02*
X90805000Y-153670000D01*
D19*
%TO.N,Net-(U2C-V+)*%
X88900000Y-132080000D02*
X89020159Y-131959841D01*
D18*
%TO.N,Net-(U2C-V-)*%
X90805000Y-151130000D02*
X83693000Y-151130000D01*
X83693000Y-151130000D02*
X81153000Y-148590000D01*
D19*
%TO.N,Net-(R7-Pad2)*%
X86360000Y-132080000D02*
X89641787Y-128798213D01*
X89641787Y-128798213D02*
X90025000Y-128415000D01*
X92710000Y-124460000D02*
X92710000Y-125730000D01*
X92710000Y-125730000D02*
X89641787Y-128798213D01*
%TO.N,Net-(R5-Pad2)*%
X88900000Y-124460000D02*
X90025000Y-123335000D01*
X90025000Y-123335000D02*
X93175991Y-123335000D01*
X93842911Y-124460000D02*
X98922911Y-129540000D01*
X93175991Y-123335000D02*
X93842911Y-124001920D01*
X93842911Y-124001920D02*
X93842911Y-124460000D01*
X98922911Y-129540000D02*
X102870000Y-129540000D01*
%TO.N,Net-(R7-Pad2)*%
X90025000Y-128415000D02*
X96072793Y-128415000D01*
X96072793Y-128415000D02*
X96375000Y-128717207D01*
X96375000Y-128717207D02*
X96375000Y-130955000D01*
X96375000Y-130955000D02*
X95250000Y-132080000D01*
%TO.N,Net-(U2B--)*%
X95250000Y-129540000D02*
X93659009Y-129540000D01*
X93659009Y-129540000D02*
X90431799Y-132767210D01*
X90431799Y-132767210D02*
X90431799Y-137105000D01*
%TO.N,Net-(J5-PadT)*%
X102870000Y-132080000D02*
X102870000Y-137320000D01*
X102870000Y-137320000D02*
X103980000Y-138430000D01*
%TO.N,Net-(R7-Pad1)*%
X87582966Y-145930000D02*
X93805000Y-139707966D01*
X93805000Y-139707966D02*
X93805000Y-133175000D01*
X93805000Y-133175000D02*
X92710000Y-132080000D01*
%TO.N,Net-(U2B--)*%
X91310719Y-137983920D02*
X91310719Y-139702247D01*
X85082966Y-145930000D02*
X82582966Y-145930000D01*
X90431799Y-137105000D02*
X91310719Y-137983920D01*
X91310719Y-139702247D02*
X85082966Y-145930000D01*
%TO.N,Net-(U2C-V+)*%
X89020159Y-131959841D02*
X89020159Y-131884250D01*
%TO.N,Net-(U2C-V-)*%
X81280000Y-124460000D02*
X78957966Y-126782034D01*
X78957966Y-126782034D02*
X78957966Y-146394966D01*
X78957966Y-146394966D02*
X81153000Y-148590000D01*
%TO.N,Net-(R5-Pad2)*%
X88900000Y-111760000D02*
X88670769Y-111989231D01*
X88670769Y-111989231D02*
X88670769Y-124230769D01*
X88670769Y-124230769D02*
X88900000Y-124460000D01*
%TO.N,Net-(J4-PadT)*%
X96560000Y-125610000D02*
X96560000Y-124660000D01*
X96560000Y-124660000D02*
X90010000Y-118110000D01*
%TO.N,Net-(R4-Pad1)*%
X88900000Y-109220000D02*
X92935000Y-113255000D01*
X92935000Y-113255000D02*
X92935000Y-119485000D01*
X92935000Y-119485000D02*
X99060000Y-125610000D01*
%TO.N,Net-(U2A--)*%
X81280000Y-111760000D02*
X83168520Y-111760000D01*
X83168520Y-111760000D02*
X88220769Y-116812249D01*
X88220769Y-116812249D02*
X88220769Y-122599231D01*
X88220769Y-122599231D02*
X86360000Y-124460000D01*
X81280000Y-109220000D02*
X81280000Y-111760000D01*
X81280000Y-106680000D02*
X81280000Y-109220000D01*
X81280000Y-104140000D02*
X81280000Y-106680000D01*
X81280000Y-91440000D02*
X79835000Y-92885000D01*
X79835000Y-92885000D02*
X79835000Y-102695000D01*
X79835000Y-102695000D02*
X81280000Y-104140000D01*
%TO.N,Net-(R3-Pad1)*%
X88900000Y-106680000D02*
X97670000Y-106680000D01*
X97670000Y-106680000D02*
X99060000Y-105290000D01*
%TO.N,Net-(J3-PadT)*%
X90010000Y-97790000D02*
X87775000Y-100025000D01*
X87775000Y-100025000D02*
X87775000Y-104895991D01*
X87775000Y-104895991D02*
X88169009Y-105290000D01*
X88169009Y-105290000D02*
X96560000Y-105290000D01*
%TO.N,Net-(R2-Pad1)*%
X99060000Y-84970000D02*
X99060000Y-87622474D01*
X99060000Y-87622474D02*
X92358885Y-94323589D01*
X92358885Y-94323589D02*
X92358885Y-103803185D01*
X92358885Y-103803185D02*
X92022070Y-104140000D01*
X92022070Y-104140000D02*
X88900000Y-104140000D01*
%TO.N,Net-(J2-PadT)*%
X90010000Y-77470000D02*
X87775000Y-79705000D01*
X87775000Y-79705000D02*
X87775000Y-91905991D01*
X89739238Y-92710000D02*
X96560000Y-85889238D01*
X87775000Y-91905991D02*
X88579009Y-92710000D01*
X88579009Y-92710000D02*
X89739238Y-92710000D01*
X96560000Y-85889238D02*
X96560000Y-84970000D01*
%TO.N,Net-(R1-Pad1)*%
X92710000Y-76502412D02*
X92710000Y-81280000D01*
X88900000Y-85090000D02*
X88900000Y-91440000D01*
X99060000Y-70152412D02*
X92710000Y-76502412D01*
X99060000Y-64650000D02*
X99060000Y-70152412D01*
X92710000Y-81280000D02*
X88900000Y-85090000D01*
%TO.N,Net-(J1-PadT)*%
X90010000Y-57150000D02*
X96560000Y-63700000D01*
X96560000Y-63700000D02*
X96560000Y-64650000D01*
%TD*%
M02*
