%TF.GenerationSoftware,KiCad,Pcbnew,7.0.10-7.0.10~ubuntu22.04.1*%
%TF.CreationDate,2024-04-01T10:40:12+02:00*%
%TF.ProjectId,HigawoEurorackMixer,48696761-776f-4457-9572-6f7261636b4d,rev?*%
%TF.SameCoordinates,Original*%
%TF.FileFunction,Legend,Top*%
%TF.FilePolarity,Positive*%
%FSLAX46Y46*%
G04 Gerber Fmt 4.6, Leading zero omitted, Abs format (unit mm)*
G04 Created by KiCad (PCBNEW 7.0.10-7.0.10~ubuntu22.04.1) date 2024-04-01 10:40:12*
%MOMM*%
%LPD*%
G01*
G04 APERTURE LIST*
%ADD10C,0.150000*%
%ADD11C,0.120000*%
%ADD12C,2.000000*%
%ADD13C,1.300000*%
%ADD14C,1.800000*%
G04 APERTURE END LIST*
D10*
X135826666Y-53104819D02*
X135493333Y-52628628D01*
X135255238Y-53104819D02*
X135255238Y-52104819D01*
X135255238Y-52104819D02*
X135636190Y-52104819D01*
X135636190Y-52104819D02*
X135731428Y-52152438D01*
X135731428Y-52152438D02*
X135779047Y-52200057D01*
X135779047Y-52200057D02*
X135826666Y-52295295D01*
X135826666Y-52295295D02*
X135826666Y-52438152D01*
X135826666Y-52438152D02*
X135779047Y-52533390D01*
X135779047Y-52533390D02*
X135731428Y-52581009D01*
X135731428Y-52581009D02*
X135636190Y-52628628D01*
X135636190Y-52628628D02*
X135255238Y-52628628D01*
X136255238Y-52581009D02*
X136588571Y-52581009D01*
X136731428Y-53104819D02*
X136255238Y-53104819D01*
X136255238Y-53104819D02*
X136255238Y-52104819D01*
X136255238Y-52104819D02*
X136731428Y-52104819D01*
X137493333Y-52581009D02*
X137160000Y-52581009D01*
X137160000Y-53104819D02*
X137160000Y-52104819D01*
X137160000Y-52104819D02*
X137636190Y-52104819D01*
X138160000Y-52104819D02*
X138160000Y-52342914D01*
X137921905Y-52247676D02*
X138160000Y-52342914D01*
X138160000Y-52342914D02*
X138398095Y-52247676D01*
X138017143Y-52533390D02*
X138160000Y-52342914D01*
X138160000Y-52342914D02*
X138302857Y-52533390D01*
X138921905Y-52104819D02*
X138921905Y-52342914D01*
X138683810Y-52247676D02*
X138921905Y-52342914D01*
X138921905Y-52342914D02*
X139160000Y-52247676D01*
X138779048Y-52533390D02*
X138921905Y-52342914D01*
X138921905Y-52342914D02*
X139064762Y-52533390D01*
X84923333Y-94264819D02*
X84590000Y-93788628D01*
X84351905Y-94264819D02*
X84351905Y-93264819D01*
X84351905Y-93264819D02*
X84732857Y-93264819D01*
X84732857Y-93264819D02*
X84828095Y-93312438D01*
X84828095Y-93312438D02*
X84875714Y-93360057D01*
X84875714Y-93360057D02*
X84923333Y-93455295D01*
X84923333Y-93455295D02*
X84923333Y-93598152D01*
X84923333Y-93598152D02*
X84875714Y-93693390D01*
X84875714Y-93693390D02*
X84828095Y-93741009D01*
X84828095Y-93741009D02*
X84732857Y-93788628D01*
X84732857Y-93788628D02*
X84351905Y-93788628D01*
X85875714Y-94264819D02*
X85304286Y-94264819D01*
X85590000Y-94264819D02*
X85590000Y-93264819D01*
X85590000Y-93264819D02*
X85494762Y-93407676D01*
X85494762Y-93407676D02*
X85399524Y-93502914D01*
X85399524Y-93502914D02*
X85304286Y-93550533D01*
X84923333Y-106964819D02*
X84590000Y-106488628D01*
X84351905Y-106964819D02*
X84351905Y-105964819D01*
X84351905Y-105964819D02*
X84732857Y-105964819D01*
X84732857Y-105964819D02*
X84828095Y-106012438D01*
X84828095Y-106012438D02*
X84875714Y-106060057D01*
X84875714Y-106060057D02*
X84923333Y-106155295D01*
X84923333Y-106155295D02*
X84923333Y-106298152D01*
X84923333Y-106298152D02*
X84875714Y-106393390D01*
X84875714Y-106393390D02*
X84828095Y-106441009D01*
X84828095Y-106441009D02*
X84732857Y-106488628D01*
X84732857Y-106488628D02*
X84351905Y-106488628D01*
X85304286Y-106060057D02*
X85351905Y-106012438D01*
X85351905Y-106012438D02*
X85447143Y-105964819D01*
X85447143Y-105964819D02*
X85685238Y-105964819D01*
X85685238Y-105964819D02*
X85780476Y-106012438D01*
X85780476Y-106012438D02*
X85828095Y-106060057D01*
X85828095Y-106060057D02*
X85875714Y-106155295D01*
X85875714Y-106155295D02*
X85875714Y-106250533D01*
X85875714Y-106250533D02*
X85828095Y-106393390D01*
X85828095Y-106393390D02*
X85256667Y-106964819D01*
X85256667Y-106964819D02*
X85875714Y-106964819D01*
X98464761Y-107744819D02*
X98131428Y-107268628D01*
X97893333Y-107744819D02*
X97893333Y-106744819D01*
X97893333Y-106744819D02*
X98274285Y-106744819D01*
X98274285Y-106744819D02*
X98369523Y-106792438D01*
X98369523Y-106792438D02*
X98417142Y-106840057D01*
X98417142Y-106840057D02*
X98464761Y-106935295D01*
X98464761Y-106935295D02*
X98464761Y-107078152D01*
X98464761Y-107078152D02*
X98417142Y-107173390D01*
X98417142Y-107173390D02*
X98369523Y-107221009D01*
X98369523Y-107221009D02*
X98274285Y-107268628D01*
X98274285Y-107268628D02*
X97893333Y-107268628D01*
X98750476Y-106744819D02*
X99083809Y-107744819D01*
X99083809Y-107744819D02*
X99417142Y-106744819D01*
X99655238Y-106744819D02*
X100274285Y-106744819D01*
X100274285Y-106744819D02*
X99940952Y-107125771D01*
X99940952Y-107125771D02*
X100083809Y-107125771D01*
X100083809Y-107125771D02*
X100179047Y-107173390D01*
X100179047Y-107173390D02*
X100226666Y-107221009D01*
X100226666Y-107221009D02*
X100274285Y-107316247D01*
X100274285Y-107316247D02*
X100274285Y-107554342D01*
X100274285Y-107554342D02*
X100226666Y-107649580D01*
X100226666Y-107649580D02*
X100179047Y-107697200D01*
X100179047Y-107697200D02*
X100083809Y-107744819D01*
X100083809Y-107744819D02*
X99798095Y-107744819D01*
X99798095Y-107744819D02*
X99702857Y-107697200D01*
X99702857Y-107697200D02*
X99655238Y-107649580D01*
X98464761Y-128064819D02*
X98131428Y-127588628D01*
X97893333Y-128064819D02*
X97893333Y-127064819D01*
X97893333Y-127064819D02*
X98274285Y-127064819D01*
X98274285Y-127064819D02*
X98369523Y-127112438D01*
X98369523Y-127112438D02*
X98417142Y-127160057D01*
X98417142Y-127160057D02*
X98464761Y-127255295D01*
X98464761Y-127255295D02*
X98464761Y-127398152D01*
X98464761Y-127398152D02*
X98417142Y-127493390D01*
X98417142Y-127493390D02*
X98369523Y-127541009D01*
X98369523Y-127541009D02*
X98274285Y-127588628D01*
X98274285Y-127588628D02*
X97893333Y-127588628D01*
X98750476Y-127064819D02*
X99083809Y-128064819D01*
X99083809Y-128064819D02*
X99417142Y-127064819D01*
X100179047Y-127398152D02*
X100179047Y-128064819D01*
X99940952Y-127017200D02*
X99702857Y-127731485D01*
X99702857Y-127731485D02*
X100321904Y-127731485D01*
X98893333Y-130164819D02*
X98560000Y-129688628D01*
X98321905Y-130164819D02*
X98321905Y-129164819D01*
X98321905Y-129164819D02*
X98702857Y-129164819D01*
X98702857Y-129164819D02*
X98798095Y-129212438D01*
X98798095Y-129212438D02*
X98845714Y-129260057D01*
X98845714Y-129260057D02*
X98893333Y-129355295D01*
X98893333Y-129355295D02*
X98893333Y-129498152D01*
X98893333Y-129498152D02*
X98845714Y-129593390D01*
X98845714Y-129593390D02*
X98798095Y-129641009D01*
X98798095Y-129641009D02*
X98702857Y-129688628D01*
X98702857Y-129688628D02*
X98321905Y-129688628D01*
X99464762Y-129593390D02*
X99369524Y-129545771D01*
X99369524Y-129545771D02*
X99321905Y-129498152D01*
X99321905Y-129498152D02*
X99274286Y-129402914D01*
X99274286Y-129402914D02*
X99274286Y-129355295D01*
X99274286Y-129355295D02*
X99321905Y-129260057D01*
X99321905Y-129260057D02*
X99369524Y-129212438D01*
X99369524Y-129212438D02*
X99464762Y-129164819D01*
X99464762Y-129164819D02*
X99655238Y-129164819D01*
X99655238Y-129164819D02*
X99750476Y-129212438D01*
X99750476Y-129212438D02*
X99798095Y-129260057D01*
X99798095Y-129260057D02*
X99845714Y-129355295D01*
X99845714Y-129355295D02*
X99845714Y-129402914D01*
X99845714Y-129402914D02*
X99798095Y-129498152D01*
X99798095Y-129498152D02*
X99750476Y-129545771D01*
X99750476Y-129545771D02*
X99655238Y-129593390D01*
X99655238Y-129593390D02*
X99464762Y-129593390D01*
X99464762Y-129593390D02*
X99369524Y-129641009D01*
X99369524Y-129641009D02*
X99321905Y-129688628D01*
X99321905Y-129688628D02*
X99274286Y-129783866D01*
X99274286Y-129783866D02*
X99274286Y-129974342D01*
X99274286Y-129974342D02*
X99321905Y-130069580D01*
X99321905Y-130069580D02*
X99369524Y-130117200D01*
X99369524Y-130117200D02*
X99464762Y-130164819D01*
X99464762Y-130164819D02*
X99655238Y-130164819D01*
X99655238Y-130164819D02*
X99750476Y-130117200D01*
X99750476Y-130117200D02*
X99798095Y-130069580D01*
X99798095Y-130069580D02*
X99845714Y-129974342D01*
X99845714Y-129974342D02*
X99845714Y-129783866D01*
X99845714Y-129783866D02*
X99798095Y-129688628D01*
X99798095Y-129688628D02*
X99750476Y-129641009D01*
X99750476Y-129641009D02*
X99655238Y-129593390D01*
X98464761Y-67104819D02*
X98131428Y-66628628D01*
X97893333Y-67104819D02*
X97893333Y-66104819D01*
X97893333Y-66104819D02*
X98274285Y-66104819D01*
X98274285Y-66104819D02*
X98369523Y-66152438D01*
X98369523Y-66152438D02*
X98417142Y-66200057D01*
X98417142Y-66200057D02*
X98464761Y-66295295D01*
X98464761Y-66295295D02*
X98464761Y-66438152D01*
X98464761Y-66438152D02*
X98417142Y-66533390D01*
X98417142Y-66533390D02*
X98369523Y-66581009D01*
X98369523Y-66581009D02*
X98274285Y-66628628D01*
X98274285Y-66628628D02*
X97893333Y-66628628D01*
X98750476Y-66104819D02*
X99083809Y-67104819D01*
X99083809Y-67104819D02*
X99417142Y-66104819D01*
X100274285Y-67104819D02*
X99702857Y-67104819D01*
X99988571Y-67104819D02*
X99988571Y-66104819D01*
X99988571Y-66104819D02*
X99893333Y-66247676D01*
X99893333Y-66247676D02*
X99798095Y-66342914D01*
X99798095Y-66342914D02*
X99702857Y-66390533D01*
X79736333Y-145199580D02*
X79688714Y-145247200D01*
X79688714Y-145247200D02*
X79545857Y-145294819D01*
X79545857Y-145294819D02*
X79450619Y-145294819D01*
X79450619Y-145294819D02*
X79307762Y-145247200D01*
X79307762Y-145247200D02*
X79212524Y-145151961D01*
X79212524Y-145151961D02*
X79164905Y-145056723D01*
X79164905Y-145056723D02*
X79117286Y-144866247D01*
X79117286Y-144866247D02*
X79117286Y-144723390D01*
X79117286Y-144723390D02*
X79164905Y-144532914D01*
X79164905Y-144532914D02*
X79212524Y-144437676D01*
X79212524Y-144437676D02*
X79307762Y-144342438D01*
X79307762Y-144342438D02*
X79450619Y-144294819D01*
X79450619Y-144294819D02*
X79545857Y-144294819D01*
X79545857Y-144294819D02*
X79688714Y-144342438D01*
X79688714Y-144342438D02*
X79736333Y-144390057D01*
X80117286Y-144390057D02*
X80164905Y-144342438D01*
X80164905Y-144342438D02*
X80260143Y-144294819D01*
X80260143Y-144294819D02*
X80498238Y-144294819D01*
X80498238Y-144294819D02*
X80593476Y-144342438D01*
X80593476Y-144342438D02*
X80641095Y-144390057D01*
X80641095Y-144390057D02*
X80688714Y-144485295D01*
X80688714Y-144485295D02*
X80688714Y-144580533D01*
X80688714Y-144580533D02*
X80641095Y-144723390D01*
X80641095Y-144723390D02*
X80069667Y-145294819D01*
X80069667Y-145294819D02*
X80688714Y-145294819D01*
X78956819Y-61547333D02*
X79671104Y-61547333D01*
X79671104Y-61547333D02*
X79813961Y-61594952D01*
X79813961Y-61594952D02*
X79909200Y-61690190D01*
X79909200Y-61690190D02*
X79956819Y-61833047D01*
X79956819Y-61833047D02*
X79956819Y-61928285D01*
X79956819Y-60547333D02*
X79956819Y-61118761D01*
X79956819Y-60833047D02*
X78956819Y-60833047D01*
X78956819Y-60833047D02*
X79099676Y-60928285D01*
X79099676Y-60928285D02*
X79194914Y-61023523D01*
X79194914Y-61023523D02*
X79242533Y-61118761D01*
X84923333Y-109844819D02*
X84590000Y-109368628D01*
X84351905Y-109844819D02*
X84351905Y-108844819D01*
X84351905Y-108844819D02*
X84732857Y-108844819D01*
X84732857Y-108844819D02*
X84828095Y-108892438D01*
X84828095Y-108892438D02*
X84875714Y-108940057D01*
X84875714Y-108940057D02*
X84923333Y-109035295D01*
X84923333Y-109035295D02*
X84923333Y-109178152D01*
X84923333Y-109178152D02*
X84875714Y-109273390D01*
X84875714Y-109273390D02*
X84828095Y-109321009D01*
X84828095Y-109321009D02*
X84732857Y-109368628D01*
X84732857Y-109368628D02*
X84351905Y-109368628D01*
X85828095Y-108844819D02*
X85351905Y-108844819D01*
X85351905Y-108844819D02*
X85304286Y-109321009D01*
X85304286Y-109321009D02*
X85351905Y-109273390D01*
X85351905Y-109273390D02*
X85447143Y-109225771D01*
X85447143Y-109225771D02*
X85685238Y-109225771D01*
X85685238Y-109225771D02*
X85780476Y-109273390D01*
X85780476Y-109273390D02*
X85828095Y-109321009D01*
X85828095Y-109321009D02*
X85875714Y-109416247D01*
X85875714Y-109416247D02*
X85875714Y-109654342D01*
X85875714Y-109654342D02*
X85828095Y-109749580D01*
X85828095Y-109749580D02*
X85780476Y-109797200D01*
X85780476Y-109797200D02*
X85685238Y-109844819D01*
X85685238Y-109844819D02*
X85447143Y-109844819D01*
X85447143Y-109844819D02*
X85351905Y-109797200D01*
X85351905Y-109797200D02*
X85304286Y-109749580D01*
X92926819Y-142827333D02*
X93641104Y-142827333D01*
X93641104Y-142827333D02*
X93783961Y-142874952D01*
X93783961Y-142874952D02*
X93879200Y-142970190D01*
X93879200Y-142970190D02*
X93926819Y-143113047D01*
X93926819Y-143113047D02*
X93926819Y-143208285D01*
X92926819Y-141874952D02*
X92926819Y-142351142D01*
X92926819Y-142351142D02*
X93403009Y-142398761D01*
X93403009Y-142398761D02*
X93355390Y-142351142D01*
X93355390Y-142351142D02*
X93307771Y-142255904D01*
X93307771Y-142255904D02*
X93307771Y-142017809D01*
X93307771Y-142017809D02*
X93355390Y-141922571D01*
X93355390Y-141922571D02*
X93403009Y-141874952D01*
X93403009Y-141874952D02*
X93498247Y-141827333D01*
X93498247Y-141827333D02*
X93736342Y-141827333D01*
X93736342Y-141827333D02*
X93831580Y-141874952D01*
X93831580Y-141874952D02*
X93879200Y-141922571D01*
X93879200Y-141922571D02*
X93926819Y-142017809D01*
X93926819Y-142017809D02*
X93926819Y-142255904D01*
X93926819Y-142255904D02*
X93879200Y-142351142D01*
X93879200Y-142351142D02*
X93831580Y-142398761D01*
X78956819Y-81867333D02*
X79671104Y-81867333D01*
X79671104Y-81867333D02*
X79813961Y-81914952D01*
X79813961Y-81914952D02*
X79909200Y-82010190D01*
X79909200Y-82010190D02*
X79956819Y-82153047D01*
X79956819Y-82153047D02*
X79956819Y-82248285D01*
X79052057Y-81438761D02*
X79004438Y-81391142D01*
X79004438Y-81391142D02*
X78956819Y-81295904D01*
X78956819Y-81295904D02*
X78956819Y-81057809D01*
X78956819Y-81057809D02*
X79004438Y-80962571D01*
X79004438Y-80962571D02*
X79052057Y-80914952D01*
X79052057Y-80914952D02*
X79147295Y-80867333D01*
X79147295Y-80867333D02*
X79242533Y-80867333D01*
X79242533Y-80867333D02*
X79385390Y-80914952D01*
X79385390Y-80914952D02*
X79956819Y-81486380D01*
X79956819Y-81486380D02*
X79956819Y-80867333D01*
X84923333Y-112044819D02*
X84590000Y-111568628D01*
X84351905Y-112044819D02*
X84351905Y-111044819D01*
X84351905Y-111044819D02*
X84732857Y-111044819D01*
X84732857Y-111044819D02*
X84828095Y-111092438D01*
X84828095Y-111092438D02*
X84875714Y-111140057D01*
X84875714Y-111140057D02*
X84923333Y-111235295D01*
X84923333Y-111235295D02*
X84923333Y-111378152D01*
X84923333Y-111378152D02*
X84875714Y-111473390D01*
X84875714Y-111473390D02*
X84828095Y-111521009D01*
X84828095Y-111521009D02*
X84732857Y-111568628D01*
X84732857Y-111568628D02*
X84351905Y-111568628D01*
X85780476Y-111378152D02*
X85780476Y-112044819D01*
X85542381Y-110997200D02*
X85304286Y-111711485D01*
X85304286Y-111711485D02*
X85923333Y-111711485D01*
X98464761Y-87424819D02*
X98131428Y-86948628D01*
X97893333Y-87424819D02*
X97893333Y-86424819D01*
X97893333Y-86424819D02*
X98274285Y-86424819D01*
X98274285Y-86424819D02*
X98369523Y-86472438D01*
X98369523Y-86472438D02*
X98417142Y-86520057D01*
X98417142Y-86520057D02*
X98464761Y-86615295D01*
X98464761Y-86615295D02*
X98464761Y-86758152D01*
X98464761Y-86758152D02*
X98417142Y-86853390D01*
X98417142Y-86853390D02*
X98369523Y-86901009D01*
X98369523Y-86901009D02*
X98274285Y-86948628D01*
X98274285Y-86948628D02*
X97893333Y-86948628D01*
X98750476Y-86424819D02*
X99083809Y-87424819D01*
X99083809Y-87424819D02*
X99417142Y-86424819D01*
X99702857Y-86520057D02*
X99750476Y-86472438D01*
X99750476Y-86472438D02*
X99845714Y-86424819D01*
X99845714Y-86424819D02*
X100083809Y-86424819D01*
X100083809Y-86424819D02*
X100179047Y-86472438D01*
X100179047Y-86472438D02*
X100226666Y-86520057D01*
X100226666Y-86520057D02*
X100274285Y-86615295D01*
X100274285Y-86615295D02*
X100274285Y-86710533D01*
X100274285Y-86710533D02*
X100226666Y-86853390D01*
X100226666Y-86853390D02*
X99655238Y-87424819D01*
X99655238Y-87424819D02*
X100274285Y-87424819D01*
X90794819Y-128436666D02*
X90318628Y-128769999D01*
X90794819Y-129008094D02*
X89794819Y-129008094D01*
X89794819Y-129008094D02*
X89794819Y-128627142D01*
X89794819Y-128627142D02*
X89842438Y-128531904D01*
X89842438Y-128531904D02*
X89890057Y-128484285D01*
X89890057Y-128484285D02*
X89985295Y-128436666D01*
X89985295Y-128436666D02*
X90128152Y-128436666D01*
X90128152Y-128436666D02*
X90223390Y-128484285D01*
X90223390Y-128484285D02*
X90271009Y-128531904D01*
X90271009Y-128531904D02*
X90318628Y-128627142D01*
X90318628Y-128627142D02*
X90318628Y-129008094D01*
X89794819Y-128103332D02*
X89794819Y-127436666D01*
X89794819Y-127436666D02*
X90794819Y-127865237D01*
X84923333Y-109504819D02*
X84590000Y-109028628D01*
X84351905Y-109504819D02*
X84351905Y-108504819D01*
X84351905Y-108504819D02*
X84732857Y-108504819D01*
X84732857Y-108504819D02*
X84828095Y-108552438D01*
X84828095Y-108552438D02*
X84875714Y-108600057D01*
X84875714Y-108600057D02*
X84923333Y-108695295D01*
X84923333Y-108695295D02*
X84923333Y-108838152D01*
X84923333Y-108838152D02*
X84875714Y-108933390D01*
X84875714Y-108933390D02*
X84828095Y-108981009D01*
X84828095Y-108981009D02*
X84732857Y-109028628D01*
X84732857Y-109028628D02*
X84351905Y-109028628D01*
X85256667Y-108504819D02*
X85875714Y-108504819D01*
X85875714Y-108504819D02*
X85542381Y-108885771D01*
X85542381Y-108885771D02*
X85685238Y-108885771D01*
X85685238Y-108885771D02*
X85780476Y-108933390D01*
X85780476Y-108933390D02*
X85828095Y-108981009D01*
X85828095Y-108981009D02*
X85875714Y-109076247D01*
X85875714Y-109076247D02*
X85875714Y-109314342D01*
X85875714Y-109314342D02*
X85828095Y-109409580D01*
X85828095Y-109409580D02*
X85780476Y-109457200D01*
X85780476Y-109457200D02*
X85685238Y-109504819D01*
X85685238Y-109504819D02*
X85399524Y-109504819D01*
X85399524Y-109504819D02*
X85304286Y-109457200D01*
X85304286Y-109457200D02*
X85256667Y-109409580D01*
X84487727Y-148384819D02*
X84154394Y-147908628D01*
X83916299Y-148384819D02*
X83916299Y-147384819D01*
X83916299Y-147384819D02*
X84297251Y-147384819D01*
X84297251Y-147384819D02*
X84392489Y-147432438D01*
X84392489Y-147432438D02*
X84440108Y-147480057D01*
X84440108Y-147480057D02*
X84487727Y-147575295D01*
X84487727Y-147575295D02*
X84487727Y-147718152D01*
X84487727Y-147718152D02*
X84440108Y-147813390D01*
X84440108Y-147813390D02*
X84392489Y-147861009D01*
X84392489Y-147861009D02*
X84297251Y-147908628D01*
X84297251Y-147908628D02*
X83916299Y-147908628D01*
X84773442Y-147384819D02*
X85106775Y-148384819D01*
X85106775Y-148384819D02*
X85440108Y-147384819D01*
X86249632Y-147384819D02*
X85773442Y-147384819D01*
X85773442Y-147384819D02*
X85725823Y-147861009D01*
X85725823Y-147861009D02*
X85773442Y-147813390D01*
X85773442Y-147813390D02*
X85868680Y-147765771D01*
X85868680Y-147765771D02*
X86106775Y-147765771D01*
X86106775Y-147765771D02*
X86202013Y-147813390D01*
X86202013Y-147813390D02*
X86249632Y-147861009D01*
X86249632Y-147861009D02*
X86297251Y-147956247D01*
X86297251Y-147956247D02*
X86297251Y-148194342D01*
X86297251Y-148194342D02*
X86249632Y-148289580D01*
X86249632Y-148289580D02*
X86202013Y-148337200D01*
X86202013Y-148337200D02*
X86106775Y-148384819D01*
X86106775Y-148384819D02*
X85868680Y-148384819D01*
X85868680Y-148384819D02*
X85773442Y-148337200D01*
X85773442Y-148337200D02*
X85725823Y-148289580D01*
X106519819Y-152733333D02*
X107234104Y-152733333D01*
X107234104Y-152733333D02*
X107376961Y-152780952D01*
X107376961Y-152780952D02*
X107472200Y-152876190D01*
X107472200Y-152876190D02*
X107519819Y-153019047D01*
X107519819Y-153019047D02*
X107519819Y-153114285D01*
X106519819Y-151828571D02*
X106519819Y-152019047D01*
X106519819Y-152019047D02*
X106567438Y-152114285D01*
X106567438Y-152114285D02*
X106615057Y-152161904D01*
X106615057Y-152161904D02*
X106757914Y-152257142D01*
X106757914Y-152257142D02*
X106948390Y-152304761D01*
X106948390Y-152304761D02*
X107329342Y-152304761D01*
X107329342Y-152304761D02*
X107424580Y-152257142D01*
X107424580Y-152257142D02*
X107472200Y-152209523D01*
X107472200Y-152209523D02*
X107519819Y-152114285D01*
X107519819Y-152114285D02*
X107519819Y-151923809D01*
X107519819Y-151923809D02*
X107472200Y-151828571D01*
X107472200Y-151828571D02*
X107424580Y-151780952D01*
X107424580Y-151780952D02*
X107329342Y-151733333D01*
X107329342Y-151733333D02*
X107091247Y-151733333D01*
X107091247Y-151733333D02*
X106996009Y-151780952D01*
X106996009Y-151780952D02*
X106948390Y-151828571D01*
X106948390Y-151828571D02*
X106900771Y-151923809D01*
X106900771Y-151923809D02*
X106900771Y-152114285D01*
X106900771Y-152114285D02*
X106948390Y-152209523D01*
X106948390Y-152209523D02*
X106996009Y-152257142D01*
X106996009Y-152257142D02*
X107091247Y-152304761D01*
X82174221Y-150279580D02*
X82126602Y-150327200D01*
X82126602Y-150327200D02*
X81983745Y-150374819D01*
X81983745Y-150374819D02*
X81888507Y-150374819D01*
X81888507Y-150374819D02*
X81745650Y-150327200D01*
X81745650Y-150327200D02*
X81650412Y-150231961D01*
X81650412Y-150231961D02*
X81602793Y-150136723D01*
X81602793Y-150136723D02*
X81555174Y-149946247D01*
X81555174Y-149946247D02*
X81555174Y-149803390D01*
X81555174Y-149803390D02*
X81602793Y-149612914D01*
X81602793Y-149612914D02*
X81650412Y-149517676D01*
X81650412Y-149517676D02*
X81745650Y-149422438D01*
X81745650Y-149422438D02*
X81888507Y-149374819D01*
X81888507Y-149374819D02*
X81983745Y-149374819D01*
X81983745Y-149374819D02*
X82126602Y-149422438D01*
X82126602Y-149422438D02*
X82174221Y-149470057D01*
X83126602Y-150374819D02*
X82555174Y-150374819D01*
X82840888Y-150374819D02*
X82840888Y-149374819D01*
X82840888Y-149374819D02*
X82745650Y-149517676D01*
X82745650Y-149517676D02*
X82650412Y-149612914D01*
X82650412Y-149612914D02*
X82555174Y-149660533D01*
X78956819Y-102187333D02*
X79671104Y-102187333D01*
X79671104Y-102187333D02*
X79813961Y-102234952D01*
X79813961Y-102234952D02*
X79909200Y-102330190D01*
X79909200Y-102330190D02*
X79956819Y-102473047D01*
X79956819Y-102473047D02*
X79956819Y-102568285D01*
X78956819Y-101806380D02*
X78956819Y-101187333D01*
X78956819Y-101187333D02*
X79337771Y-101520666D01*
X79337771Y-101520666D02*
X79337771Y-101377809D01*
X79337771Y-101377809D02*
X79385390Y-101282571D01*
X79385390Y-101282571D02*
X79433009Y-101234952D01*
X79433009Y-101234952D02*
X79528247Y-101187333D01*
X79528247Y-101187333D02*
X79766342Y-101187333D01*
X79766342Y-101187333D02*
X79861580Y-101234952D01*
X79861580Y-101234952D02*
X79909200Y-101282571D01*
X79909200Y-101282571D02*
X79956819Y-101377809D01*
X79956819Y-101377809D02*
X79956819Y-101663523D01*
X79956819Y-101663523D02*
X79909200Y-101758761D01*
X79909200Y-101758761D02*
X79861580Y-101806380D01*
X98893333Y-132364819D02*
X98560000Y-131888628D01*
X98321905Y-132364819D02*
X98321905Y-131364819D01*
X98321905Y-131364819D02*
X98702857Y-131364819D01*
X98702857Y-131364819D02*
X98798095Y-131412438D01*
X98798095Y-131412438D02*
X98845714Y-131460057D01*
X98845714Y-131460057D02*
X98893333Y-131555295D01*
X98893333Y-131555295D02*
X98893333Y-131698152D01*
X98893333Y-131698152D02*
X98845714Y-131793390D01*
X98845714Y-131793390D02*
X98798095Y-131841009D01*
X98798095Y-131841009D02*
X98702857Y-131888628D01*
X98702857Y-131888628D02*
X98321905Y-131888628D01*
X99750476Y-131364819D02*
X99560000Y-131364819D01*
X99560000Y-131364819D02*
X99464762Y-131412438D01*
X99464762Y-131412438D02*
X99417143Y-131460057D01*
X99417143Y-131460057D02*
X99321905Y-131602914D01*
X99321905Y-131602914D02*
X99274286Y-131793390D01*
X99274286Y-131793390D02*
X99274286Y-132174342D01*
X99274286Y-132174342D02*
X99321905Y-132269580D01*
X99321905Y-132269580D02*
X99369524Y-132317200D01*
X99369524Y-132317200D02*
X99464762Y-132364819D01*
X99464762Y-132364819D02*
X99655238Y-132364819D01*
X99655238Y-132364819D02*
X99750476Y-132317200D01*
X99750476Y-132317200D02*
X99798095Y-132269580D01*
X99798095Y-132269580D02*
X99845714Y-132174342D01*
X99845714Y-132174342D02*
X99845714Y-131936247D01*
X99845714Y-131936247D02*
X99798095Y-131841009D01*
X99798095Y-131841009D02*
X99750476Y-131793390D01*
X99750476Y-131793390D02*
X99655238Y-131745771D01*
X99655238Y-131745771D02*
X99464762Y-131745771D01*
X99464762Y-131745771D02*
X99369524Y-131793390D01*
X99369524Y-131793390D02*
X99321905Y-131841009D01*
X99321905Y-131841009D02*
X99274286Y-131936247D01*
X78956819Y-122507333D02*
X79671104Y-122507333D01*
X79671104Y-122507333D02*
X79813961Y-122554952D01*
X79813961Y-122554952D02*
X79909200Y-122650190D01*
X79909200Y-122650190D02*
X79956819Y-122793047D01*
X79956819Y-122793047D02*
X79956819Y-122888285D01*
X79290152Y-121602571D02*
X79956819Y-121602571D01*
X78909200Y-121840666D02*
X79623485Y-122078761D01*
X79623485Y-122078761D02*
X79623485Y-121459714D01*
X90684819Y-129031904D02*
X91494342Y-129031904D01*
X91494342Y-129031904D02*
X91589580Y-128984285D01*
X91589580Y-128984285D02*
X91637200Y-128936666D01*
X91637200Y-128936666D02*
X91684819Y-128841428D01*
X91684819Y-128841428D02*
X91684819Y-128650952D01*
X91684819Y-128650952D02*
X91637200Y-128555714D01*
X91637200Y-128555714D02*
X91589580Y-128508095D01*
X91589580Y-128508095D02*
X91494342Y-128460476D01*
X91494342Y-128460476D02*
X90684819Y-128460476D01*
X90780057Y-128031904D02*
X90732438Y-127984285D01*
X90732438Y-127984285D02*
X90684819Y-127889047D01*
X90684819Y-127889047D02*
X90684819Y-127650952D01*
X90684819Y-127650952D02*
X90732438Y-127555714D01*
X90732438Y-127555714D02*
X90780057Y-127508095D01*
X90780057Y-127508095D02*
X90875295Y-127460476D01*
X90875295Y-127460476D02*
X90970533Y-127460476D01*
X90970533Y-127460476D02*
X91113390Y-127508095D01*
X91113390Y-127508095D02*
X91684819Y-128079523D01*
X91684819Y-128079523D02*
X91684819Y-127460476D01*
D11*
%TO.C,R1*%
X88360000Y-92810000D02*
X81820000Y-92810000D01*
X88360000Y-92480000D02*
X88360000Y-92810000D01*
X88360000Y-90400000D02*
X88360000Y-90070000D01*
X88360000Y-90070000D02*
X81820000Y-90070000D01*
X81820000Y-92810000D02*
X81820000Y-92480000D01*
X81820000Y-90070000D02*
X81820000Y-90400000D01*
%TO.C,R2*%
X88360000Y-105510000D02*
X81820000Y-105510000D01*
X88360000Y-105180000D02*
X88360000Y-105510000D01*
X88360000Y-103100000D02*
X88360000Y-102770000D01*
X88360000Y-102770000D02*
X81820000Y-102770000D01*
X81820000Y-105510000D02*
X81820000Y-105180000D01*
X81820000Y-102770000D02*
X81820000Y-103100000D01*
D10*
%TO.C,RV3*%
X94310000Y-92940000D02*
X94310000Y-104290000D01*
X94310000Y-92940000D02*
X103810000Y-92940000D01*
X94310000Y-104290000D02*
X103810000Y-104290000D01*
X97790000Y-97790000D02*
X100330000Y-97790000D01*
X99060000Y-96520000D02*
X99060000Y-99060000D01*
X103810000Y-92940000D02*
X103810000Y-104290000D01*
X102235000Y-97790000D02*
G75*
G03*
X95885000Y-97790000I-3175000J0D01*
G01*
X95885000Y-97790000D02*
G75*
G03*
X102235000Y-97790000I3175000J0D01*
G01*
%TO.C,RV4*%
X94310000Y-113260000D02*
X94310000Y-124610000D01*
X94310000Y-113260000D02*
X103810000Y-113260000D01*
X94310000Y-124610000D02*
X103810000Y-124610000D01*
X97790000Y-118110000D02*
X100330000Y-118110000D01*
X99060000Y-116840000D02*
X99060000Y-119380000D01*
X103810000Y-113260000D02*
X103810000Y-124610000D01*
X102235000Y-118110000D02*
G75*
G03*
X95885000Y-118110000I-3175000J0D01*
G01*
X95885000Y-118110000D02*
G75*
G03*
X102235000Y-118110000I3175000J0D01*
G01*
D11*
%TO.C,R8*%
X95790000Y-130710000D02*
X102330000Y-130710000D01*
X95790000Y-131040000D02*
X95790000Y-130710000D01*
X95790000Y-133120000D02*
X95790000Y-133450000D01*
X95790000Y-133450000D02*
X102330000Y-133450000D01*
X102330000Y-130710000D02*
X102330000Y-131040000D01*
X102330000Y-133450000D02*
X102330000Y-133120000D01*
D10*
%TO.C,RV1*%
X94310000Y-52300000D02*
X94310000Y-63650000D01*
X94310000Y-52300000D02*
X103810000Y-52300000D01*
X94310000Y-63650000D02*
X103810000Y-63650000D01*
X97790000Y-57150000D02*
X100330000Y-57150000D01*
X99060000Y-55880000D02*
X99060000Y-58420000D01*
X103810000Y-52300000D02*
X103810000Y-63650000D01*
X102235000Y-57150000D02*
G75*
G03*
X95885000Y-57150000I-3175000J0D01*
G01*
X95885000Y-57150000D02*
G75*
G03*
X102235000Y-57150000I3175000J0D01*
G01*
D11*
%TO.C,C2*%
X77098225Y-147115000D02*
X77598225Y-147115000D01*
X77348225Y-146865000D02*
X77348225Y-147365000D01*
X79903000Y-146010000D02*
X79903000Y-151170000D01*
X79943000Y-146010000D02*
X79943000Y-151170000D01*
X79983000Y-146011000D02*
X79983000Y-151169000D01*
X80023000Y-146012000D02*
X80023000Y-151168000D01*
X80063000Y-146014000D02*
X80063000Y-151166000D01*
X80103000Y-146017000D02*
X80103000Y-151163000D01*
X80143000Y-146021000D02*
X80143000Y-147550000D01*
X80143000Y-149630000D02*
X80143000Y-151159000D01*
X80183000Y-146025000D02*
X80183000Y-147550000D01*
X80183000Y-149630000D02*
X80183000Y-151155000D01*
X80223000Y-146029000D02*
X80223000Y-147550000D01*
X80223000Y-149630000D02*
X80223000Y-151151000D01*
X80263000Y-146034000D02*
X80263000Y-147550000D01*
X80263000Y-149630000D02*
X80263000Y-151146000D01*
X80303000Y-146040000D02*
X80303000Y-147550000D01*
X80303000Y-149630000D02*
X80303000Y-151140000D01*
X80343000Y-146047000D02*
X80343000Y-147550000D01*
X80343000Y-149630000D02*
X80343000Y-151133000D01*
X80383000Y-146054000D02*
X80383000Y-147550000D01*
X80383000Y-149630000D02*
X80383000Y-151126000D01*
X80423000Y-146062000D02*
X80423000Y-147550000D01*
X80423000Y-149630000D02*
X80423000Y-151118000D01*
X80463000Y-146070000D02*
X80463000Y-147550000D01*
X80463000Y-149630000D02*
X80463000Y-151110000D01*
X80503000Y-146079000D02*
X80503000Y-147550000D01*
X80503000Y-149630000D02*
X80503000Y-151101000D01*
X80543000Y-146089000D02*
X80543000Y-147550000D01*
X80543000Y-149630000D02*
X80543000Y-151091000D01*
X80583000Y-146099000D02*
X80583000Y-147550000D01*
X80583000Y-149630000D02*
X80583000Y-151081000D01*
X80624000Y-146110000D02*
X80624000Y-147550000D01*
X80624000Y-149630000D02*
X80624000Y-151070000D01*
X80664000Y-146122000D02*
X80664000Y-147550000D01*
X80664000Y-149630000D02*
X80664000Y-151058000D01*
X80704000Y-146135000D02*
X80704000Y-147550000D01*
X80704000Y-149630000D02*
X80704000Y-151045000D01*
X80744000Y-146148000D02*
X80744000Y-147550000D01*
X80744000Y-149630000D02*
X80744000Y-151032000D01*
X80784000Y-146162000D02*
X80784000Y-147550000D01*
X80784000Y-149630000D02*
X80784000Y-151018000D01*
X80824000Y-146176000D02*
X80824000Y-147550000D01*
X80824000Y-149630000D02*
X80824000Y-151004000D01*
X80864000Y-146192000D02*
X80864000Y-147550000D01*
X80864000Y-149630000D02*
X80864000Y-150988000D01*
X80904000Y-146208000D02*
X80904000Y-147550000D01*
X80904000Y-149630000D02*
X80904000Y-150972000D01*
X80944000Y-146225000D02*
X80944000Y-147550000D01*
X80944000Y-149630000D02*
X80944000Y-150955000D01*
X80984000Y-146242000D02*
X80984000Y-147550000D01*
X80984000Y-149630000D02*
X80984000Y-150938000D01*
X81024000Y-146261000D02*
X81024000Y-147550000D01*
X81024000Y-149630000D02*
X81024000Y-150919000D01*
X81064000Y-146280000D02*
X81064000Y-147550000D01*
X81064000Y-149630000D02*
X81064000Y-150900000D01*
X81104000Y-146300000D02*
X81104000Y-147550000D01*
X81104000Y-149630000D02*
X81104000Y-150880000D01*
X81144000Y-146322000D02*
X81144000Y-147550000D01*
X81144000Y-149630000D02*
X81144000Y-150858000D01*
X81184000Y-146343000D02*
X81184000Y-147550000D01*
X81184000Y-149630000D02*
X81184000Y-150837000D01*
X81224000Y-146366000D02*
X81224000Y-147550000D01*
X81224000Y-149630000D02*
X81224000Y-150814000D01*
X81264000Y-146390000D02*
X81264000Y-147550000D01*
X81264000Y-149630000D02*
X81264000Y-150790000D01*
X81304000Y-146415000D02*
X81304000Y-147550000D01*
X81304000Y-149630000D02*
X81304000Y-150765000D01*
X81344000Y-146441000D02*
X81344000Y-147550000D01*
X81344000Y-149630000D02*
X81344000Y-150739000D01*
X81384000Y-146468000D02*
X81384000Y-147550000D01*
X81384000Y-149630000D02*
X81384000Y-150712000D01*
X81424000Y-146495000D02*
X81424000Y-147550000D01*
X81424000Y-149630000D02*
X81424000Y-150685000D01*
X81464000Y-146525000D02*
X81464000Y-147550000D01*
X81464000Y-149630000D02*
X81464000Y-150655000D01*
X81504000Y-146555000D02*
X81504000Y-147550000D01*
X81504000Y-149630000D02*
X81504000Y-150625000D01*
X81544000Y-146586000D02*
X81544000Y-147550000D01*
X81544000Y-149630000D02*
X81544000Y-150594000D01*
X81584000Y-146619000D02*
X81584000Y-147550000D01*
X81584000Y-149630000D02*
X81584000Y-150561000D01*
X81624000Y-146653000D02*
X81624000Y-147550000D01*
X81624000Y-149630000D02*
X81624000Y-150527000D01*
X81664000Y-146689000D02*
X81664000Y-147550000D01*
X81664000Y-149630000D02*
X81664000Y-150491000D01*
X81704000Y-146726000D02*
X81704000Y-147550000D01*
X81704000Y-149630000D02*
X81704000Y-150454000D01*
X81744000Y-146764000D02*
X81744000Y-147550000D01*
X81744000Y-149630000D02*
X81744000Y-150416000D01*
X81784000Y-146805000D02*
X81784000Y-147550000D01*
X81784000Y-149630000D02*
X81784000Y-150375000D01*
X81824000Y-146847000D02*
X81824000Y-147550000D01*
X81824000Y-149630000D02*
X81824000Y-150333000D01*
X81864000Y-146891000D02*
X81864000Y-147550000D01*
X81864000Y-149630000D02*
X81864000Y-150289000D01*
X81904000Y-146937000D02*
X81904000Y-147550000D01*
X81904000Y-149630000D02*
X81904000Y-150243000D01*
X81944000Y-146985000D02*
X81944000Y-147550000D01*
X81944000Y-149630000D02*
X81944000Y-150195000D01*
X81984000Y-147036000D02*
X81984000Y-147550000D01*
X81984000Y-149630000D02*
X81984000Y-150144000D01*
X82024000Y-147090000D02*
X82024000Y-147550000D01*
X82024000Y-149630000D02*
X82024000Y-150090000D01*
X82064000Y-147147000D02*
X82064000Y-147550000D01*
X82064000Y-149630000D02*
X82064000Y-150033000D01*
X82104000Y-147207000D02*
X82104000Y-147550000D01*
X82104000Y-149630000D02*
X82104000Y-149973000D01*
X82144000Y-147271000D02*
X82144000Y-147550000D01*
X82144000Y-149630000D02*
X82144000Y-149909000D01*
X82184000Y-147339000D02*
X82184000Y-147550000D01*
X82184000Y-149630000D02*
X82184000Y-149841000D01*
X82224000Y-147412000D02*
X82224000Y-149768000D01*
X82264000Y-147492000D02*
X82264000Y-149688000D01*
X82304000Y-147579000D02*
X82304000Y-149601000D01*
X82344000Y-147675000D02*
X82344000Y-149505000D01*
X82384000Y-147785000D02*
X82384000Y-149395000D01*
X82424000Y-147913000D02*
X82424000Y-149267000D01*
X82464000Y-148072000D02*
X82464000Y-149108000D01*
X82504000Y-148306000D02*
X82504000Y-148874000D01*
X82523000Y-148590000D02*
G75*
G03*
X77283000Y-148590000I-2620000J0D01*
G01*
X77283000Y-148590000D02*
G75*
G03*
X82523000Y-148590000I2620000J0D01*
G01*
D10*
%TO.C,J1*%
X91290000Y-52650000D02*
X80390000Y-52650000D01*
X91290000Y-52650000D02*
X91290000Y-61650000D01*
X80390000Y-52650000D02*
X80390000Y-61650000D01*
X85090000Y-55350000D02*
X85090000Y-58950000D01*
X86890000Y-57150000D02*
X83290000Y-57150000D01*
X91290000Y-61650000D02*
X80390000Y-61650000D01*
X86890000Y-57150000D02*
G75*
G03*
X83290000Y-57150000I-1800000J0D01*
G01*
X83290000Y-57150000D02*
G75*
G03*
X86890000Y-57150000I1800000J0D01*
G01*
D11*
%TO.C,R5*%
X81820000Y-110390000D02*
X88360000Y-110390000D01*
X81820000Y-110720000D02*
X81820000Y-110390000D01*
X81820000Y-112800000D02*
X81820000Y-113130000D01*
X81820000Y-113130000D02*
X88360000Y-113130000D01*
X88360000Y-110390000D02*
X88360000Y-110720000D01*
X88360000Y-113130000D02*
X88360000Y-112800000D01*
D10*
%TO.C,J5*%
X105260000Y-133930000D02*
X94360000Y-133930000D01*
X105260000Y-133930000D02*
X105260000Y-142930000D01*
X94360000Y-133930000D02*
X94360000Y-142930000D01*
X99060000Y-136630000D02*
X99060000Y-140230000D01*
X100860000Y-138430000D02*
X97260000Y-138430000D01*
X105260000Y-142930000D02*
X94360000Y-142930000D01*
X100860000Y-138430000D02*
G75*
G03*
X97260000Y-138430000I-1800000J0D01*
G01*
X97260000Y-138430000D02*
G75*
G03*
X100860000Y-138430000I1800000J0D01*
G01*
%TO.C,J2*%
X91290000Y-72970000D02*
X80390000Y-72970000D01*
X91290000Y-72970000D02*
X91290000Y-81970000D01*
X80390000Y-72970000D02*
X80390000Y-81970000D01*
X85090000Y-75670000D02*
X85090000Y-79270000D01*
X86890000Y-77470000D02*
X83290000Y-77470000D01*
X91290000Y-81970000D02*
X80390000Y-81970000D01*
X86890000Y-77470000D02*
G75*
G03*
X83290000Y-77470000I-1800000J0D01*
G01*
X83290000Y-77470000D02*
G75*
G03*
X86890000Y-77470000I1800000J0D01*
G01*
D11*
%TO.C,R4*%
X88360000Y-110590000D02*
X81820000Y-110590000D01*
X88360000Y-110260000D02*
X88360000Y-110590000D01*
X88360000Y-108180000D02*
X88360000Y-107850000D01*
X88360000Y-107850000D02*
X81820000Y-107850000D01*
X81820000Y-110590000D02*
X81820000Y-110260000D01*
X81820000Y-107850000D02*
X81820000Y-108180000D01*
D10*
%TO.C,RV2*%
X94310000Y-72620000D02*
X94310000Y-83970000D01*
X94310000Y-72620000D02*
X103810000Y-72620000D01*
X94310000Y-83970000D02*
X103810000Y-83970000D01*
X97790000Y-77470000D02*
X100330000Y-77470000D01*
X99060000Y-76200000D02*
X99060000Y-78740000D01*
X103810000Y-72620000D02*
X103810000Y-83970000D01*
X102235000Y-77470000D02*
G75*
G03*
X95885000Y-77470000I-3175000J0D01*
G01*
X95885000Y-77470000D02*
G75*
G03*
X102235000Y-77470000I3175000J0D01*
G01*
D11*
%TO.C,R7*%
X91340000Y-131540000D02*
X91340000Y-125000000D01*
X91670000Y-131540000D02*
X91340000Y-131540000D01*
X93750000Y-131540000D02*
X94080000Y-131540000D01*
X94080000Y-131540000D02*
X94080000Y-125000000D01*
X91340000Y-125000000D02*
X91670000Y-125000000D01*
X94080000Y-125000000D02*
X93750000Y-125000000D01*
%TO.C,R3*%
X88360000Y-108050000D02*
X81820000Y-108050000D01*
X88360000Y-107720000D02*
X88360000Y-108050000D01*
X88360000Y-105640000D02*
X88360000Y-105310000D01*
X88360000Y-105310000D02*
X81820000Y-105310000D01*
X81820000Y-108050000D02*
X81820000Y-107720000D01*
X81820000Y-105310000D02*
X81820000Y-105640000D01*
D10*
%TO.C,RV5*%
X80332966Y-133580000D02*
X80332966Y-144930000D01*
X80332966Y-133580000D02*
X89832966Y-133580000D01*
X80332966Y-144930000D02*
X89832966Y-144930000D01*
X83812966Y-138430000D02*
X86352966Y-138430000D01*
X85082966Y-137160000D02*
X85082966Y-139700000D01*
X89832966Y-133580000D02*
X89832966Y-144930000D01*
X88257966Y-138430000D02*
G75*
G03*
X81907966Y-138430000I-3175000J0D01*
G01*
X81907966Y-138430000D02*
G75*
G03*
X88257966Y-138430000I3175000J0D01*
G01*
D11*
%TO.C,J6*%
X101465000Y-146450000D02*
X100465000Y-146450000D01*
X100465000Y-146450000D02*
X100965000Y-147450000D01*
X100965000Y-147450000D02*
X101465000Y-146450000D01*
X106175000Y-147840000D02*
X106175000Y-156960000D01*
X97935000Y-147840000D02*
X97935000Y-149150000D01*
X85595000Y-147840000D02*
X106175000Y-147840000D01*
X104875000Y-149150000D02*
X104875000Y-155650000D01*
X97935000Y-149150000D02*
X104875000Y-149150000D01*
X93835000Y-149150000D02*
X93835000Y-147840000D01*
X93835000Y-149150000D02*
X93835000Y-149150000D01*
X86895000Y-149150000D02*
X93835000Y-149150000D01*
X104875000Y-155650000D02*
X86895000Y-155650000D01*
X86895000Y-155650000D02*
X86895000Y-149150000D01*
X106175000Y-156960000D02*
X85595000Y-156960000D01*
X85595000Y-156960000D02*
X85595000Y-147840000D01*
%TO.C,C1*%
X79536113Y-152195000D02*
X80036113Y-152195000D01*
X79786113Y-151945000D02*
X79786113Y-152445000D01*
X82340888Y-151090000D02*
X82340888Y-156250000D01*
X82380888Y-151090000D02*
X82380888Y-156250000D01*
X82420888Y-151091000D02*
X82420888Y-156249000D01*
X82460888Y-151092000D02*
X82460888Y-156248000D01*
X82500888Y-151094000D02*
X82500888Y-156246000D01*
X82540888Y-151097000D02*
X82540888Y-156243000D01*
X82580888Y-151101000D02*
X82580888Y-152630000D01*
X82580888Y-154710000D02*
X82580888Y-156239000D01*
X82620888Y-151105000D02*
X82620888Y-152630000D01*
X82620888Y-154710000D02*
X82620888Y-156235000D01*
X82660888Y-151109000D02*
X82660888Y-152630000D01*
X82660888Y-154710000D02*
X82660888Y-156231000D01*
X82700888Y-151114000D02*
X82700888Y-152630000D01*
X82700888Y-154710000D02*
X82700888Y-156226000D01*
X82740888Y-151120000D02*
X82740888Y-152630000D01*
X82740888Y-154710000D02*
X82740888Y-156220000D01*
X82780888Y-151127000D02*
X82780888Y-152630000D01*
X82780888Y-154710000D02*
X82780888Y-156213000D01*
X82820888Y-151134000D02*
X82820888Y-152630000D01*
X82820888Y-154710000D02*
X82820888Y-156206000D01*
X82860888Y-151142000D02*
X82860888Y-152630000D01*
X82860888Y-154710000D02*
X82860888Y-156198000D01*
X82900888Y-151150000D02*
X82900888Y-152630000D01*
X82900888Y-154710000D02*
X82900888Y-156190000D01*
X82940888Y-151159000D02*
X82940888Y-152630000D01*
X82940888Y-154710000D02*
X82940888Y-156181000D01*
X82980888Y-151169000D02*
X82980888Y-152630000D01*
X82980888Y-154710000D02*
X82980888Y-156171000D01*
X83020888Y-151179000D02*
X83020888Y-152630000D01*
X83020888Y-154710000D02*
X83020888Y-156161000D01*
X83061888Y-151190000D02*
X83061888Y-152630000D01*
X83061888Y-154710000D02*
X83061888Y-156150000D01*
X83101888Y-151202000D02*
X83101888Y-152630000D01*
X83101888Y-154710000D02*
X83101888Y-156138000D01*
X83141888Y-151215000D02*
X83141888Y-152630000D01*
X83141888Y-154710000D02*
X83141888Y-156125000D01*
X83181888Y-151228000D02*
X83181888Y-152630000D01*
X83181888Y-154710000D02*
X83181888Y-156112000D01*
X83221888Y-151242000D02*
X83221888Y-152630000D01*
X83221888Y-154710000D02*
X83221888Y-156098000D01*
X83261888Y-151256000D02*
X83261888Y-152630000D01*
X83261888Y-154710000D02*
X83261888Y-156084000D01*
X83301888Y-151272000D02*
X83301888Y-152630000D01*
X83301888Y-154710000D02*
X83301888Y-156068000D01*
X83341888Y-151288000D02*
X83341888Y-152630000D01*
X83341888Y-154710000D02*
X83341888Y-156052000D01*
X83381888Y-151305000D02*
X83381888Y-152630000D01*
X83381888Y-154710000D02*
X83381888Y-156035000D01*
X83421888Y-151322000D02*
X83421888Y-152630000D01*
X83421888Y-154710000D02*
X83421888Y-156018000D01*
X83461888Y-151341000D02*
X83461888Y-152630000D01*
X83461888Y-154710000D02*
X83461888Y-155999000D01*
X83501888Y-151360000D02*
X83501888Y-152630000D01*
X83501888Y-154710000D02*
X83501888Y-155980000D01*
X83541888Y-151380000D02*
X83541888Y-152630000D01*
X83541888Y-154710000D02*
X83541888Y-155960000D01*
X83581888Y-151402000D02*
X83581888Y-152630000D01*
X83581888Y-154710000D02*
X83581888Y-155938000D01*
X83621888Y-151423000D02*
X83621888Y-152630000D01*
X83621888Y-154710000D02*
X83621888Y-155917000D01*
X83661888Y-151446000D02*
X83661888Y-152630000D01*
X83661888Y-154710000D02*
X83661888Y-155894000D01*
X83701888Y-151470000D02*
X83701888Y-152630000D01*
X83701888Y-154710000D02*
X83701888Y-155870000D01*
X83741888Y-151495000D02*
X83741888Y-152630000D01*
X83741888Y-154710000D02*
X83741888Y-155845000D01*
X83781888Y-151521000D02*
X83781888Y-152630000D01*
X83781888Y-154710000D02*
X83781888Y-155819000D01*
X83821888Y-151548000D02*
X83821888Y-152630000D01*
X83821888Y-154710000D02*
X83821888Y-155792000D01*
X83861888Y-151575000D02*
X83861888Y-152630000D01*
X83861888Y-154710000D02*
X83861888Y-155765000D01*
X83901888Y-151605000D02*
X83901888Y-152630000D01*
X83901888Y-154710000D02*
X83901888Y-155735000D01*
X83941888Y-151635000D02*
X83941888Y-152630000D01*
X83941888Y-154710000D02*
X83941888Y-155705000D01*
X83981888Y-151666000D02*
X83981888Y-152630000D01*
X83981888Y-154710000D02*
X83981888Y-155674000D01*
X84021888Y-151699000D02*
X84021888Y-152630000D01*
X84021888Y-154710000D02*
X84021888Y-155641000D01*
X84061888Y-151733000D02*
X84061888Y-152630000D01*
X84061888Y-154710000D02*
X84061888Y-155607000D01*
X84101888Y-151769000D02*
X84101888Y-152630000D01*
X84101888Y-154710000D02*
X84101888Y-155571000D01*
X84141888Y-151806000D02*
X84141888Y-152630000D01*
X84141888Y-154710000D02*
X84141888Y-155534000D01*
X84181888Y-151844000D02*
X84181888Y-152630000D01*
X84181888Y-154710000D02*
X84181888Y-155496000D01*
X84221888Y-151885000D02*
X84221888Y-152630000D01*
X84221888Y-154710000D02*
X84221888Y-155455000D01*
X84261888Y-151927000D02*
X84261888Y-152630000D01*
X84261888Y-154710000D02*
X84261888Y-155413000D01*
X84301888Y-151971000D02*
X84301888Y-152630000D01*
X84301888Y-154710000D02*
X84301888Y-155369000D01*
X84341888Y-152017000D02*
X84341888Y-152630000D01*
X84341888Y-154710000D02*
X84341888Y-155323000D01*
X84381888Y-152065000D02*
X84381888Y-152630000D01*
X84381888Y-154710000D02*
X84381888Y-155275000D01*
X84421888Y-152116000D02*
X84421888Y-152630000D01*
X84421888Y-154710000D02*
X84421888Y-155224000D01*
X84461888Y-152170000D02*
X84461888Y-152630000D01*
X84461888Y-154710000D02*
X84461888Y-155170000D01*
X84501888Y-152227000D02*
X84501888Y-152630000D01*
X84501888Y-154710000D02*
X84501888Y-155113000D01*
X84541888Y-152287000D02*
X84541888Y-152630000D01*
X84541888Y-154710000D02*
X84541888Y-155053000D01*
X84581888Y-152351000D02*
X84581888Y-152630000D01*
X84581888Y-154710000D02*
X84581888Y-154989000D01*
X84621888Y-152419000D02*
X84621888Y-152630000D01*
X84621888Y-154710000D02*
X84621888Y-154921000D01*
X84661888Y-152492000D02*
X84661888Y-154848000D01*
X84701888Y-152572000D02*
X84701888Y-154768000D01*
X84741888Y-152659000D02*
X84741888Y-154681000D01*
X84781888Y-152755000D02*
X84781888Y-154585000D01*
X84821888Y-152865000D02*
X84821888Y-154475000D01*
X84861888Y-152993000D02*
X84861888Y-154347000D01*
X84901888Y-153152000D02*
X84901888Y-154188000D01*
X84941888Y-153386000D02*
X84941888Y-153954000D01*
X84960888Y-153670000D02*
G75*
G03*
X79720888Y-153670000I-2620000J0D01*
G01*
X79720888Y-153670000D02*
G75*
G03*
X84960888Y-153670000I2620000J0D01*
G01*
D10*
%TO.C,J3*%
X91290000Y-93290000D02*
X80390000Y-93290000D01*
X91290000Y-93290000D02*
X91290000Y-102290000D01*
X80390000Y-93290000D02*
X80390000Y-102290000D01*
X85090000Y-95990000D02*
X85090000Y-99590000D01*
X86890000Y-97790000D02*
X83290000Y-97790000D01*
X91290000Y-102290000D02*
X80390000Y-102290000D01*
X86890000Y-97790000D02*
G75*
G03*
X83290000Y-97790000I-1800000J0D01*
G01*
X83290000Y-97790000D02*
G75*
G03*
X86890000Y-97790000I1800000J0D01*
G01*
D11*
%TO.C,R6*%
X102330000Y-130910000D02*
X95790000Y-130910000D01*
X102330000Y-130580000D02*
X102330000Y-130910000D01*
X102330000Y-128500000D02*
X102330000Y-128170000D01*
X102330000Y-128170000D02*
X95790000Y-128170000D01*
X95790000Y-130910000D02*
X95790000Y-130580000D01*
X95790000Y-128170000D02*
X95790000Y-128500000D01*
D10*
%TO.C,J4*%
X91290000Y-113610000D02*
X80390000Y-113610000D01*
X91290000Y-113610000D02*
X91290000Y-122610000D01*
X80390000Y-113610000D02*
X80390000Y-122610000D01*
X85090000Y-116310000D02*
X85090000Y-119910000D01*
X86890000Y-118110000D02*
X83290000Y-118110000D01*
X91290000Y-122610000D02*
X80390000Y-122610000D01*
X86890000Y-118110000D02*
G75*
G03*
X83290000Y-118110000I-1800000J0D01*
G01*
X83290000Y-118110000D02*
G75*
G03*
X86890000Y-118110000I1800000J0D01*
G01*
D11*
%TO.C,U2*%
X90230000Y-125620000D02*
X79950000Y-125620000D01*
X79950000Y-125620000D02*
X79950000Y-130920000D01*
X90230000Y-127270000D02*
X90230000Y-125620000D01*
X90230000Y-130920000D02*
X90230000Y-129270000D01*
X79950000Y-130920000D02*
X90230000Y-130920000D01*
X90230000Y-127270000D02*
G75*
G03*
X90230000Y-129270000I0J-1000000D01*
G01*
%TD*%
D12*
%TO.C,RV3*%
X94260000Y-97790000D03*
X103860000Y-97790000D03*
D13*
X96560000Y-105290000D03*
X99060000Y-105290000D03*
X101560000Y-105290000D03*
%TD*%
D12*
%TO.C,RV4*%
X94260000Y-118110000D03*
X103860000Y-118110000D03*
D13*
X96560000Y-125610000D03*
X99060000Y-125610000D03*
X101560000Y-125610000D03*
%TD*%
D12*
%TO.C,RV1*%
X94260000Y-57150000D03*
X103860000Y-57150000D03*
D13*
X96560000Y-64650000D03*
X99060000Y-64650000D03*
X101560000Y-64650000D03*
%TD*%
D14*
%TO.C,J1*%
X78610000Y-57150000D03*
X90010000Y-57150000D03*
X81710000Y-57150000D03*
%TD*%
%TO.C,J5*%
X92580000Y-138430000D03*
X103980000Y-138430000D03*
X95680000Y-138430000D03*
%TD*%
%TO.C,J2*%
X78610000Y-77470000D03*
X90010000Y-77470000D03*
X81710000Y-77470000D03*
%TD*%
D12*
%TO.C,RV2*%
X94260000Y-77470000D03*
X103860000Y-77470000D03*
D13*
X96560000Y-84970000D03*
X99060000Y-84970000D03*
X101560000Y-84970000D03*
%TD*%
D12*
%TO.C,RV5*%
X80282966Y-138430000D03*
X89882966Y-138430000D03*
D13*
X82582966Y-145930000D03*
X85082966Y-145930000D03*
X87582966Y-145930000D03*
%TD*%
D14*
%TO.C,J3*%
X78610000Y-97790000D03*
X90010000Y-97790000D03*
X81710000Y-97790000D03*
%TD*%
%TO.C,J4*%
X78610000Y-118110000D03*
X90010000Y-118110000D03*
X81710000Y-118110000D03*
%TD*%
M02*
