%TF.GenerationSoftware,KiCad,Pcbnew,7.0.10-7.0.10~ubuntu22.04.1*%
%TF.CreationDate,2024-04-01T10:40:12+02:00*%
%TF.ProjectId,HigawoEurorackMixer,48696761-776f-4457-9572-6f7261636b4d,rev?*%
%TF.SameCoordinates,Original*%
%TF.FileFunction,Soldermask,Top*%
%TF.FilePolarity,Negative*%
%FSLAX46Y46*%
G04 Gerber Fmt 4.6, Leading zero omitted, Abs format (unit mm)*
G04 Created by KiCad (PCBNEW 7.0.10-7.0.10~ubuntu22.04.1) date 2024-04-01 10:40:12*
%MOMM*%
%LPD*%
G01*
G04 APERTURE LIST*
G04 Aperture macros list*
%AMRoundRect*
0 Rectangle with rounded corners*
0 $1 Rounding radius*
0 $2 $3 $4 $5 $6 $7 $8 $9 X,Y pos of 4 corners*
0 Add a 4 corners polygon primitive as box body*
4,1,4,$2,$3,$4,$5,$6,$7,$8,$9,$2,$3,0*
0 Add four circle primitives for the rounded corners*
1,1,$1+$1,$2,$3*
1,1,$1+$1,$4,$5*
1,1,$1+$1,$6,$7*
1,1,$1+$1,$8,$9*
0 Add four rect primitives between the rounded corners*
20,1,$1+$1,$2,$3,$4,$5,0*
20,1,$1+$1,$4,$5,$6,$7,0*
20,1,$1+$1,$6,$7,$8,$9,0*
20,1,$1+$1,$8,$9,$2,$3,0*%
G04 Aperture macros list end*
%ADD10C,3.500000*%
%ADD11C,1.600000*%
%ADD12O,1.600000X1.600000*%
%ADD13C,2.000000*%
%ADD14C,1.300000*%
%ADD15R,1.600000X1.600000*%
%ADD16C,1.800000*%
%ADD17RoundRect,0.250000X-0.600000X0.600000X-0.600000X-0.600000X0.600000X-0.600000X0.600000X0.600000X0*%
%ADD18C,1.700000*%
G04 APERTURE END LIST*
D10*
%TO.C,REF\u002A\u002A*%
X137160000Y-57150000D03*
%TD*%
D11*
%TO.C,R1*%
X88900000Y-91440000D03*
D12*
X81280000Y-91440000D03*
%TD*%
D11*
%TO.C,R2*%
X88900000Y-104140000D03*
D12*
X81280000Y-104140000D03*
%TD*%
D13*
%TO.C,RV3*%
X94260000Y-97790000D03*
X103860000Y-97790000D03*
D14*
X96560000Y-105290000D03*
X99060000Y-105290000D03*
X101560000Y-105290000D03*
%TD*%
D13*
%TO.C,RV4*%
X94260000Y-118110000D03*
X103860000Y-118110000D03*
D14*
X96560000Y-125610000D03*
X99060000Y-125610000D03*
X101560000Y-125610000D03*
%TD*%
D11*
%TO.C,R8*%
X95250000Y-132080000D03*
D12*
X102870000Y-132080000D03*
%TD*%
D13*
%TO.C,RV1*%
X94260000Y-57150000D03*
X103860000Y-57150000D03*
D14*
X96560000Y-64650000D03*
X99060000Y-64650000D03*
X101560000Y-64650000D03*
%TD*%
D15*
%TO.C,C2*%
X78653000Y-148590000D03*
D11*
X81153000Y-148590000D03*
%TD*%
D16*
%TO.C,J1*%
X78610000Y-57150000D03*
X90010000Y-57150000D03*
X81710000Y-57150000D03*
%TD*%
D11*
%TO.C,R5*%
X81280000Y-111760000D03*
D12*
X88900000Y-111760000D03*
%TD*%
D16*
%TO.C,J5*%
X92580000Y-138430000D03*
X103980000Y-138430000D03*
X95680000Y-138430000D03*
%TD*%
%TO.C,J2*%
X78610000Y-77470000D03*
X90010000Y-77470000D03*
X81710000Y-77470000D03*
%TD*%
D11*
%TO.C,R4*%
X88900000Y-109220000D03*
D12*
X81280000Y-109220000D03*
%TD*%
D13*
%TO.C,RV2*%
X94260000Y-77470000D03*
X103860000Y-77470000D03*
D14*
X96560000Y-84970000D03*
X99060000Y-84970000D03*
X101560000Y-84970000D03*
%TD*%
D11*
%TO.C,R7*%
X92710000Y-132080000D03*
D12*
X92710000Y-124460000D03*
%TD*%
D11*
%TO.C,R3*%
X88900000Y-106680000D03*
D12*
X81280000Y-106680000D03*
%TD*%
D13*
%TO.C,RV5*%
X80282966Y-138430000D03*
X89882966Y-138430000D03*
D14*
X82582966Y-145930000D03*
X85082966Y-145930000D03*
X87582966Y-145930000D03*
%TD*%
D17*
%TO.C,J6*%
X100965000Y-151130000D03*
D18*
X100965000Y-153670000D03*
X98425000Y-151130000D03*
X98425000Y-153670000D03*
X95885000Y-151130000D03*
X95885000Y-153670000D03*
X93345000Y-151130000D03*
X93345000Y-153670000D03*
X90805000Y-151130000D03*
X90805000Y-153670000D03*
%TD*%
D15*
%TO.C,C1*%
X81090888Y-153670000D03*
D11*
X83590888Y-153670000D03*
%TD*%
D16*
%TO.C,J3*%
X78610000Y-97790000D03*
X90010000Y-97790000D03*
X81710000Y-97790000D03*
%TD*%
D11*
%TO.C,R6*%
X102870000Y-129540000D03*
D12*
X95250000Y-129540000D03*
%TD*%
D16*
%TO.C,J4*%
X78610000Y-118110000D03*
X90010000Y-118110000D03*
X81710000Y-118110000D03*
%TD*%
D15*
%TO.C,U2*%
X88900000Y-124460000D03*
D12*
X86360000Y-124460000D03*
X83820000Y-124460000D03*
X81280000Y-124460000D03*
X81280000Y-132080000D03*
X83820000Y-132080000D03*
X86360000Y-132080000D03*
X88900000Y-132080000D03*
%TD*%
M02*
