M48
; DRILL file {KiCad 7.0.10-7.0.10~ubuntu22.04.1} date Mon 01 Apr 2024 10:40:09 CEST
; FORMAT={-:-/ absolute / inch / decimal}
; #@! TF.CreationDate,2024-04-01T10:40:09+02:00
; #@! TF.GenerationSoftware,Kicad,Pcbnew,7.0.10-7.0.10~ubuntu22.04.1
; #@! TF.FileFunction,Plated,1,2,PTH
FMAT,2
INCH
; #@! TA.AperFunction,Plated,PTH,ComponentDrill
T1C0.0315
; #@! TA.AperFunction,Plated,PTH,ComponentDrill
T2C0.0394
; #@! TA.AperFunction,Plated,PTH,ComponentDrill
T3C0.0630
; #@! TA.AperFunction,Plated,PTH,ComponentDrill
T4C0.0709
%
G90
G05
T1
X3.0966Y-5.85
X3.1926Y-6.05
X3.195Y-5.85
X3.2Y-3.6
X3.2Y-4.1
X3.2Y-4.2
X3.2Y-4.3
X3.2Y-4.4
X3.2Y-4.9
X3.2Y-5.2
X3.291Y-6.05
X3.3Y-4.9
X3.3Y-5.2
X3.4Y-4.9
X3.4Y-5.2
X3.5Y-3.6
X3.5Y-4.1
X3.5Y-4.2
X3.5Y-4.3
X3.5Y-4.4
X3.5Y-4.9
X3.5Y-5.2
X3.65Y-4.9
X3.65Y-5.2
X3.75Y-5.1
X3.75Y-5.2
X4.05Y-5.1
X4.05Y-5.2
T2
X3.2513Y-5.7453
X3.3497Y-5.7453
X3.4481Y-5.7453
X3.575Y-5.95
X3.575Y-6.05
X3.675Y-5.95
X3.675Y-6.05
X3.775Y-5.95
X3.775Y-6.05
X3.8016Y-2.5453
X3.8016Y-3.3453
X3.8016Y-4.1453
X3.8016Y-4.9453
X3.875Y-5.95
X3.875Y-6.05
X3.9Y-2.5453
X3.9Y-3.3453
X3.9Y-4.1453
X3.9Y-4.9453
X3.975Y-5.95
X3.975Y-6.05
X3.9984Y-2.5453
X3.9984Y-3.3453
X3.9984Y-4.1453
X3.9984Y-4.9453
T3
X3.0949Y-2.25
X3.0949Y-3.05
X3.0949Y-3.85
X3.0949Y-4.65
X3.2169Y-2.25
X3.2169Y-3.05
X3.2169Y-3.85
X3.2169Y-4.65
X3.5437Y-2.25
X3.5437Y-3.05
X3.5437Y-3.85
X3.5437Y-4.65
X3.6449Y-5.45
X3.7669Y-5.45
X4.0937Y-5.45
T4
X3.1607Y-5.45
X3.5387Y-5.45
X3.711Y-2.25
X3.711Y-3.05
X3.711Y-3.85
X3.711Y-4.65
X4.089Y-2.25
X4.089Y-3.05
X4.089Y-3.85
X4.089Y-4.65
M30
