<?xml version="1.0" encoding="UTF-8" standalone="no"?>
<svg
   version="1.1"
   width="38mm"
   height="135mm"
   viewBox="0 0 38.000001 135"
   id="svg1066"
   sodipodi:docname="HagiwoEurorackMixer_Panel_lasercutReady.svg"
   inkscape:version="1.4 (e7c3feb100, 2024-10-09)"
   xmlns:inkscape="http://www.inkscape.org/namespaces/inkscape"
   xmlns:sodipodi="http://sodipodi.sourceforge.net/DTD/sodipodi-0.dtd"
   xmlns="http://www.w3.org/2000/svg"
   xmlns:svg="http://www.w3.org/2000/svg"
   xmlns:rdf="http://www.w3.org/1999/02/22-rdf-syntax-ns#"
   xmlns:cc="http://creativecommons.org/ns#"
   xmlns:dc="http://purl.org/dc/elements/1.1/">
  <defs
     id="defs1066" />
  <sodipodi:namedview
     id="namedview1066"
     pagecolor="#ffffff"
     bordercolor="#000000"
     borderopacity="0.25"
     inkscape:showpageshadow="2"
     inkscape:pageopacity="0.0"
     inkscape:pagecheckerboard="0"
     inkscape:deskcolor="#d1d1d1"
     inkscape:document-units="mm"
     inkscape:zoom="0.79936123"
     inkscape:cx="-131.98038"
     inkscape:cy="425.96512"
     inkscape:window-width="1920"
     inkscape:window-height="1080"
     inkscape:window-x="0"
     inkscape:window-y="0"
     inkscape:window-maximized="1"
     inkscape:current-layer="svg1066" />
  <title
     id="title1">SVG Image created as HagiwoEurorackMixer_Panel-B_Mask.svg date 2025/01/29 13:45:06 </title>
  <desc
     id="desc1">Image generated by PCBNEW </desc>
  <g
     style="fill:#000000;fill-opacity:1;stroke:#000000;stroke-linecap:round;stroke-linejoin:round;stroke-opacity:1"
     id="g1" />
  <g
     style="fill:none;stroke:#000000;stroke-width:0.3;stroke-linecap:round;stroke-linejoin:round;stroke-opacity:1"
     id="g1035">
    <text
       x="178.0022"
       y="180.7572"
       textLength="0.89999998"
       font-size="2px"
       lengthAdjust="spacingAndGlyphs"
       text-anchor="start"
       opacity="0"
       stroke-opacity="0"
       id="text1033" />
    <g
       class="stroked-text"
       id="g1034">
      <desc
         id="desc1033" />
    </g>
  </g>
  <g
     style="fill:none;stroke:#000000;stroke-width:0.15;stroke-linecap:round;stroke-linejoin:round;stroke-opacity:1"
     id="g1037">
    <text
       x="178.0022"
       y="177.7572"
       textLength="0.44999999"
       font-size="2px"
       lengthAdjust="spacingAndGlyphs"
       text-anchor="start"
       opacity="0"
       stroke-opacity="0"
       id="text1035" />
    <g
       class="stroked-text"
       id="g1036">
      <desc
         id="desc1035" />
    </g>
  </g>
  <g
     style="fill:none;stroke:#000000;stroke-width:0.15;stroke-linecap:round;stroke-linejoin:round;stroke-opacity:1"
     id="g1039">
    <text
       x="178.0022"
       y="174.7572"
       textLength="0.44999999"
       font-size="2px"
       lengthAdjust="spacingAndGlyphs"
       text-anchor="start"
       opacity="0"
       stroke-opacity="0"
       id="text1037" />
    <g
       class="stroked-text"
       id="g1038">
      <desc
         id="desc1037" />
    </g>
  </g>
  <g
     style="fill:none;stroke:#000000;stroke-width:0.15;stroke-linecap:round;stroke-linejoin:round;stroke-opacity:1"
     id="g1041">
    <text
       x="178.0022"
       y="171.7572"
       textLength="0.44999999"
       font-size="2px"
       lengthAdjust="spacingAndGlyphs"
       text-anchor="start"
       opacity="0"
       stroke-opacity="0"
       id="text1039" />
    <g
       class="stroked-text"
       id="g1040">
      <desc
         id="desc1039" />
    </g>
  </g>
  <g
     style="fill:none;stroke:#000000;stroke-width:0.15;stroke-linecap:round;stroke-linejoin:round;stroke-opacity:1"
     id="g1043">
    <text
       x="178.0022"
       y="168.7572"
       textLength="0.44999999"
       font-size="2px"
       lengthAdjust="spacingAndGlyphs"
       text-anchor="start"
       opacity="0"
       stroke-opacity="0"
       id="text1041" />
    <g
       class="stroked-text"
       id="g1042">
      <desc
         id="desc1041" />
    </g>
  </g>
  <g
     style="font-variation-settings:normal;opacity:1;vector-effect:none;fill:none;fill-opacity:0.4;stroke:#f50000;stroke-width:0.01;stroke-linecap:round;stroke-linejoin:round;stroke-miterlimit:4;stroke-dasharray:none;stroke-dashoffset:0;stroke-opacity:1;-inkscape-stroke:none;stop-color:#000000;stop-opacity:1"
     id="g1047"
     transform="translate(-120.79109,-29.098133)">
    <circle
       cx="131.94031"
       cy="130.81"
       r="3.556"
       id="circle1046"
       style="font-variation-settings:normal;vector-effect:none;fill:none;fill-opacity:0.4;stroke:#f50000;stroke-width:0.01;stroke-linecap:round;stroke-linejoin:round;stroke-miterlimit:4;stroke-dasharray:none;stroke-dashoffset:0;stroke-opacity:1;-inkscape-stroke:none;stop-color:#000000;stop-opacity:1" />
  </g>
  <g
     style="font-variation-settings:normal;opacity:1;vector-effect:none;fill:none;fill-opacity:0.4;stroke:#f50000;stroke-width:0.01;stroke-linecap:round;stroke-linejoin:round;stroke-miterlimit:4;stroke-dasharray:none;stroke-dashoffset:0;stroke-opacity:1;-inkscape-stroke:none;stop-color:#000000;stop-opacity:1"
     id="g1048"
     transform="translate(-120.79109,-29.098133)">
    <circle
       cx="147.19321"
       cy="130.8118"
       r="3.8099999"
       id="circle1047"
       style="font-variation-settings:normal;vector-effect:none;fill:none;fill-opacity:0.4;stroke:#f50000;stroke-width:0.01;stroke-linecap:round;stroke-linejoin:round;stroke-miterlimit:4;stroke-dasharray:none;stroke-dashoffset:0;stroke-opacity:1;-inkscape-stroke:none;stop-color:#000000;stop-opacity:1" />
  </g>
  <g
     style="font-variation-settings:normal;opacity:1;vector-effect:none;fill:none;fill-opacity:0.4;stroke:#f50000;stroke-width:0.01;stroke-linecap:round;stroke-linejoin:round;stroke-miterlimit:4;stroke-dasharray:none;stroke-dashoffset:0;stroke-opacity:1;-inkscape-stroke:none;stop-color:#000000;stop-opacity:1"
     id="g1049"
     transform="translate(-120.79109,-29.098133)">
    <circle
       cx="147.19299"
       cy="69.849998"
       r="3.556"
       id="circle1048"
       style="font-variation-settings:normal;vector-effect:none;fill:none;fill-opacity:0.4;stroke:#f50000;stroke-width:0.01;stroke-linecap:round;stroke-linejoin:round;stroke-miterlimit:4;stroke-dasharray:none;stroke-dashoffset:0;stroke-opacity:1;-inkscape-stroke:none;stop-color:#000000;stop-opacity:1" />
  </g>
  <g
     style="font-variation-settings:normal;opacity:1;vector-effect:none;fill:none;fill-opacity:0.4;stroke:#f50000;stroke-width:0.01;stroke-linecap:round;stroke-linejoin:round;stroke-miterlimit:4;stroke-dasharray:none;stroke-dashoffset:0;stroke-opacity:1;-inkscape-stroke:none;stop-color:#000000;stop-opacity:1"
     id="g1050"
     transform="translate(-120.79109,-29.098133)">
    <circle
       cx="147.2057"
       cy="90.169998"
       r="3.556"
       id="circle1049"
       style="font-variation-settings:normal;vector-effect:none;fill:none;fill-opacity:0.4;stroke:#f50000;stroke-width:0.01;stroke-linecap:round;stroke-linejoin:round;stroke-miterlimit:4;stroke-dasharray:none;stroke-dashoffset:0;stroke-opacity:1;-inkscape-stroke:none;stop-color:#000000;stop-opacity:1" />
  </g>
  <g
     style="font-variation-settings:normal;opacity:1;vector-effect:none;fill:none;fill-opacity:0.4;stroke:#f50000;stroke-width:0.01;stroke-linecap:round;stroke-linejoin:round;stroke-miterlimit:4;stroke-dasharray:none;stroke-dashoffset:0;stroke-opacity:1;-inkscape-stroke:none;stop-color:#000000;stop-opacity:1"
     id="g1053"
     transform="translate(-120.79109,-29.098133)">
    <circle
       cx="147.2057"
       cy="110.49"
       r="3.556"
       id="circle1052"
       style="font-variation-settings:normal;vector-effect:none;fill:none;fill-opacity:0.4;stroke:#f50000;stroke-width:0.01;stroke-linecap:round;stroke-linejoin:round;stroke-miterlimit:4;stroke-dasharray:none;stroke-dashoffset:0;stroke-opacity:1;-inkscape-stroke:none;stop-color:#000000;stop-opacity:1" />
  </g>
  <g
     style="font-variation-settings:normal;opacity:1;vector-effect:none;fill:none;fill-opacity:0.4;stroke:#f50000;stroke-width:0.01;stroke-linecap:round;stroke-linejoin:round;stroke-miterlimit:4;stroke-dasharray:none;stroke-dashoffset:0;stroke-opacity:1;-inkscape-stroke:none;stop-color:#000000;stop-opacity:1"
     id="g1055"
     transform="translate(-120.79109,-29.098133)">
    <circle
       cx="131.9532"
       cy="69.851799"
       r="3.8099999"
       id="circle1054"
       style="font-variation-settings:normal;vector-effect:none;fill:none;fill-opacity:0.4;stroke:#f50000;stroke-width:0.01;stroke-linecap:round;stroke-linejoin:round;stroke-miterlimit:4;stroke-dasharray:none;stroke-dashoffset:0;stroke-opacity:1;-inkscape-stroke:none;stop-color:#000000;stop-opacity:1" />
  </g>
  <g
     style="font-variation-settings:normal;opacity:1;vector-effect:none;fill:none;fill-opacity:0.4;stroke:#f50000;stroke-width:0.01;stroke-linecap:round;stroke-linejoin:round;stroke-miterlimit:4;stroke-dasharray:none;stroke-dashoffset:0;stroke-opacity:1;-inkscape-stroke:none;stop-color:#000000;stop-opacity:1"
     id="g1056"
     transform="translate(-120.79109,-29.098133)">
    <circle
       cx="131.9532"
       cy="49.531799"
       r="3.8099999"
       id="circle1055"
       style="font-variation-settings:normal;vector-effect:none;fill:none;fill-opacity:0.4;stroke:#f50000;stroke-width:0.01;stroke-linecap:round;stroke-linejoin:round;stroke-miterlimit:4;stroke-dasharray:none;stroke-dashoffset:0;stroke-opacity:1;-inkscape-stroke:none;stop-color:#000000;stop-opacity:1" />
  </g>
  <g
     style="font-variation-settings:normal;opacity:1;vector-effect:none;fill:none;fill-opacity:0.4;stroke:#f50000;stroke-width:0.01;stroke-linecap:round;stroke-linejoin:round;stroke-miterlimit:4;stroke-dasharray:none;stroke-dashoffset:0;stroke-opacity:1;-inkscape-stroke:none;stop-color:#000000;stop-opacity:1"
     id="g1057"
     transform="translate(-120.79109,-29.098133)">
    <circle
       cx="131.9532"
       cy="110.4918"
       r="3.8099999"
       id="circle1056"
       style="font-variation-settings:normal;vector-effect:none;fill:none;fill-opacity:0.4;stroke:#f50000;stroke-width:0.01;stroke-linecap:round;stroke-linejoin:round;stroke-miterlimit:4;stroke-dasharray:none;stroke-dashoffset:0;stroke-opacity:1;-inkscape-stroke:none;stop-color:#000000;stop-opacity:1" />
  </g>
  <g
     style="font-variation-settings:normal;opacity:1;vector-effect:none;fill:none;fill-opacity:0.4;stroke:#f50000;stroke-width:0.01;stroke-linecap:round;stroke-linejoin:round;stroke-miterlimit:4;stroke-dasharray:none;stroke-dashoffset:0;stroke-opacity:1;-inkscape-stroke:none;stop-color:#000000;stop-opacity:1"
     id="g1058"
     transform="translate(-120.79109,-29.098133)">
    <circle
       cx="131.9532"
       cy="90.171799"
       r="3.8099999"
       id="circle1057"
       style="font-variation-settings:normal;vector-effect:none;fill:none;fill-opacity:0.4;stroke:#f50000;stroke-width:0.01;stroke-linecap:round;stroke-linejoin:round;stroke-miterlimit:4;stroke-dasharray:none;stroke-dashoffset:0;stroke-opacity:1;-inkscape-stroke:none;stop-color:#000000;stop-opacity:1" />
  </g>
  <g
     style="fill:none;fill-opacity:0.4;stroke:#f50000;stroke-width:0.01;stroke-dasharray:none;stroke-opacity:1"
     id="g1059"
     transform="translate(-120.79109,-29.098133)">
    <circle
       cx="147.19299"
       cy="49.529999"
       r="3.556"
       id="circle1058"
       style="fill:none;stroke:#f50000;stroke-width:0.01;stroke-dasharray:none;stroke-opacity:1" />
    <path
       style="fill:none;stroke:#f50000;stroke-width:0.01;stroke-linecap:round;stroke-linejoin:round;stroke-dasharray:none;stroke-opacity:1"
       d="m 124.573,31.93 h 30 v 128.5 h -30 z"
       id="path1058" />
  </g>
  <g
     style="font-variation-settings:normal;opacity:1;vector-effect:none;fill:none;fill-opacity:0.4;stroke:#f50000;stroke-width:0.01;stroke-linecap:round;stroke-linejoin:round;stroke-miterlimit:4;stroke-dasharray:none;stroke-dashoffset:0;stroke-opacity:1;-inkscape-stroke:none;stop-color:#000000;stop-opacity:1"
     id="g1066"
     transform="translate(-120.79109,-29.098133)">
    <path
       d="m 145.4855,155.8425 h 3.175"
       id="path1059"
       style="font-variation-settings:normal;vector-effect:none;fill:none;fill-opacity:0.4;stroke:#f50000;stroke-width:0.01;stroke-linecap:round;stroke-linejoin:round;stroke-miterlimit:4;stroke-dasharray:none;stroke-dashoffset:0;stroke-opacity:1;-inkscape-stroke:none;stop-color:#000000;stop-opacity:1" />
    <path
       d="m 145.4855,159.0175 h 3.175"
       id="path1060"
       style="font-variation-settings:normal;vector-effect:none;fill:none;fill-opacity:0.4;stroke:#f50000;stroke-width:0.01;stroke-linecap:round;stroke-linejoin:round;stroke-miterlimit:4;stroke-dasharray:none;stroke-dashoffset:0;stroke-opacity:1;-inkscape-stroke:none;stop-color:#000000;stop-opacity:1" />
    <path
       d="m 145.4855,155.8425 a 1.5875,1.5875 0 0 0 0,3.175"
       id="path1061"
       style="font-variation-settings:normal;vector-effect:none;fill:none;fill-opacity:0.4;stroke:#f50000;stroke-width:0.01;stroke-linecap:round;stroke-linejoin:round;stroke-miterlimit:4;stroke-dasharray:none;stroke-dashoffset:0;stroke-opacity:1;-inkscape-stroke:none;stop-color:#000000;stop-opacity:1" />
    <path
       d="m 148.6605,159.0175 a 1.5875,1.5875 0 0 0 0,-3.175"
       id="path1062"
       style="font-variation-settings:normal;vector-effect:none;fill:none;fill-opacity:0.4;stroke:#f50000;stroke-width:0.01;stroke-linecap:round;stroke-linejoin:round;stroke-miterlimit:4;stroke-dasharray:none;stroke-dashoffset:0;stroke-opacity:1;-inkscape-stroke:none;stop-color:#000000;stop-opacity:1" />
    <path
       d="m 130.2455,33.3425 h 3.175"
       id="path1063"
       style="font-variation-settings:normal;vector-effect:none;fill:none;fill-opacity:0.4;stroke:#f50000;stroke-width:0.01;stroke-linecap:round;stroke-linejoin:round;stroke-miterlimit:4;stroke-dasharray:none;stroke-dashoffset:0;stroke-opacity:1;-inkscape-stroke:none;stop-color:#000000;stop-opacity:1" />
    <path
       d="m 130.2455,36.5175 h 3.175"
       id="path1064"
       style="font-variation-settings:normal;vector-effect:none;fill:none;fill-opacity:0.4;stroke:#f50000;stroke-width:0.01;stroke-linecap:round;stroke-linejoin:round;stroke-miterlimit:4;stroke-dasharray:none;stroke-dashoffset:0;stroke-opacity:1;-inkscape-stroke:none;stop-color:#000000;stop-opacity:1" />
    <path
       d="m 130.2455,33.3425 a 1.5875,1.5875 0 0 0 0,3.175"
       id="path1065"
       style="font-variation-settings:normal;vector-effect:none;fill:none;fill-opacity:0.4;stroke:#f50000;stroke-width:0.01;stroke-linecap:round;stroke-linejoin:round;stroke-miterlimit:4;stroke-dasharray:none;stroke-dashoffset:0;stroke-opacity:1;-inkscape-stroke:none;stop-color:#000000;stop-opacity:1" />
    <path
       d="m 133.4205,36.5175 a 1.5875,1.5875 0 0 0 0,-3.175"
       id="path1066"
       style="font-variation-settings:normal;vector-effect:none;fill:none;fill-opacity:0.4;stroke:#f50000;stroke-width:0.01;stroke-linecap:round;stroke-linejoin:round;stroke-miterlimit:4;stroke-dasharray:none;stroke-dashoffset:0;stroke-opacity:1;-inkscape-stroke:none;stop-color:#000000;stop-opacity:1" />
  </g>
  <metadata
     id="metadata1066">
    <rdf:RDF>
      <cc:Work
         rdf:about="">
        <dc:title>SVG Image created as HagiwoEurorackMixer_Panel-B_Mask.svg date 2025/01/29 13:45:06 </dc:title>
      </cc:Work>
    </rdf:RDF>
  </metadata>
  <text
     xml:space="preserve"
     style="font-size:3.175px;font-variation-settings:normal;text-align:start;writing-mode:lr-tb;direction:ltr;text-anchor:start;opacity:1;vector-effect:none;fill:#000000;fill-opacity:1;stroke:none;stroke-width:0.01;stroke-linecap:round;stroke-linejoin:round;stroke-miterlimit:4;stroke-dasharray:none;stroke-dashoffset:0;stroke-opacity:1;-inkscape-stroke:none"
     x="9.7220383"
     y="30.356205"
     id="text1066"><tspan
       sodipodi:role="line"
       id="tspan1066"
       style="fill:#000000;fill-opacity:1;stroke:none;stroke-width:0.01"
       x="9.7220383"
       y="30.356205">IN</tspan></text>
  <text
     xml:space="preserve"
     style="font-size:3.175px;font-variation-settings:normal;text-align:start;writing-mode:lr-tb;direction:ltr;text-anchor:start;vector-effect:none;fill:#000000;fill-opacity:1;stroke:none;stroke-width:0.01;stroke-linecap:round;stroke-linejoin:round;stroke-miterlimit:4;stroke-dasharray:none;stroke-dashoffset:0;stroke-opacity:1;-inkscape-stroke:none"
     x="9.7220383"
     y="50.478973"
     id="text1066-3"><tspan
       sodipodi:role="line"
       id="tspan1066-1"
       style="fill:#000000;fill-opacity:1;stroke:none;stroke-width:0.01"
       x="9.7220383"
       y="50.478973">IN</tspan></text>
  <text
     xml:space="preserve"
     style="font-size:3.175px;font-variation-settings:normal;text-align:start;writing-mode:lr-tb;direction:ltr;text-anchor:start;vector-effect:none;fill:#000000;fill-opacity:1;stroke:none;stroke-width:0.01;stroke-linecap:round;stroke-linejoin:round;stroke-miterlimit:4;stroke-dasharray:none;stroke-dashoffset:0;stroke-opacity:1;-inkscape-stroke:none"
     x="9.7220383"
     y="70.601738"
     id="text1066-3-4"><tspan
       sodipodi:role="line"
       id="tspan1066-1-7"
       style="fill:#000000;fill-opacity:1;stroke:none;stroke-width:0.01"
       x="9.7220383"
       y="70.601738">IN</tspan></text>
  <text
     xml:space="preserve"
     style="font-size:3.175px;font-variation-settings:normal;text-align:start;writing-mode:lr-tb;direction:ltr;text-anchor:start;vector-effect:none;fill:#000000;fill-opacity:1;stroke:none;stroke-width:0.01;stroke-linecap:round;stroke-linejoin:round;stroke-miterlimit:4;stroke-dasharray:none;stroke-dashoffset:0;stroke-opacity:1;-inkscape-stroke:none"
     x="9.7220383"
     y="90.72451"
     id="text1066-3-4-4"><tspan
       sodipodi:role="line"
       id="tspan1066-1-7-5"
       style="fill:#000000;fill-opacity:1;stroke:none;stroke-width:0.01"
       x="9.7220383"
       y="90.72451">IN</tspan></text>
  <text
     xml:space="preserve"
     style="font-size:3.175px;font-variation-settings:normal;text-align:start;writing-mode:lr-tb;direction:ltr;text-anchor:start;vector-effect:none;fill:#000000;fill-opacity:1;stroke:none;stroke-width:0.01;stroke-linecap:round;stroke-linejoin:round;stroke-miterlimit:4;stroke-dasharray:none;stroke-dashoffset:0;stroke-opacity:1;-inkscape-stroke:none"
     x="23.068451"
     y="110.92206"
     id="text1066-3-4-4-3"><tspan
       sodipodi:role="line"
       id="tspan1066-1-7-5-6"
       style="fill:#000000;fill-opacity:1;stroke:none;stroke-width:0.01"
       x="23.068451"
       y="110.92206">OUT</tspan></text>
  <text
     xml:space="preserve"
     style="font-size:3.175px;font-variation-settings:normal;text-align:start;writing-mode:lr-tb;direction:ltr;text-anchor:start;opacity:1;vector-effect:none;fill:#000000;fill-opacity:1;stroke:none;stroke-width:0.01;stroke-linecap:round;stroke-linejoin:round;stroke-miterlimit:4;stroke-dasharray:none;stroke-dashoffset:0;stroke-opacity:1;-inkscape-stroke:none"
     x="21.934978"
     y="30.398636"
     id="text1067"><tspan
       sodipodi:role="line"
       id="tspan1067"
       style="stroke-width:0.01"
       x="21.934978"
       y="30.398636">LEVEL</tspan></text>
  <text
     xml:space="preserve"
     style="font-size:3.175px;font-variation-settings:normal;text-align:start;writing-mode:lr-tb;direction:ltr;text-anchor:start;vector-effect:none;fill:#000000;fill-opacity:1;stroke:none;stroke-width:0.01;stroke-linecap:round;stroke-linejoin:round;stroke-miterlimit:4;stroke-dasharray:none;stroke-dashoffset:0;stroke-opacity:1;-inkscape-stroke:none"
     x="21.934978"
     y="50.52076"
     id="text1067-0"><tspan
       sodipodi:role="line"
       id="tspan1067-6"
       style="stroke-width:0.01"
       x="21.934978"
       y="50.52076">LEVEL</tspan></text>
  <text
     xml:space="preserve"
     style="font-size:3.175px;font-variation-settings:normal;text-align:start;writing-mode:lr-tb;direction:ltr;text-anchor:start;vector-effect:none;fill:#000000;fill-opacity:1;stroke:none;stroke-width:0.01;stroke-linecap:round;stroke-linejoin:round;stroke-miterlimit:4;stroke-dasharray:none;stroke-dashoffset:0;stroke-opacity:1;-inkscape-stroke:none"
     x="21.934978"
     y="70.642883"
     id="text1067-0-2"><tspan
       sodipodi:role="line"
       id="tspan1067-6-0"
       style="stroke-width:0.01"
       x="21.934978"
       y="70.642883">LEVEL</tspan></text>
  <text
     xml:space="preserve"
     style="font-size:3.175px;font-variation-settings:normal;text-align:start;writing-mode:lr-tb;direction:ltr;text-anchor:start;vector-effect:none;fill:#000000;fill-opacity:1;stroke:none;stroke-width:0.01;stroke-linecap:round;stroke-linejoin:round;stroke-miterlimit:4;stroke-dasharray:none;stroke-dashoffset:0;stroke-opacity:1;-inkscape-stroke:none"
     x="21.934978"
     y="90.765007"
     id="text1067-0-2-1"><tspan
       sodipodi:role="line"
       id="tspan1067-6-0-5"
       style="stroke-width:0.01"
       x="21.934978"
       y="90.765007">LEVEL</tspan></text>
  <text
     xml:space="preserve"
     style="font-size:3.175px;font-variation-settings:normal;text-align:start;writing-mode:lr-tb;direction:ltr;text-anchor:start;vector-effect:none;fill:#000000;fill-opacity:1;stroke:none;stroke-width:0.01;stroke-linecap:round;stroke-linejoin:round;stroke-miterlimit:4;stroke-dasharray:none;stroke-dashoffset:0;stroke-opacity:1;-inkscape-stroke:none"
     x="6.880415"
     y="110.84727"
     id="text1067-0-2-1-4"><tspan
       sodipodi:role="line"
       id="tspan1067-6-0-5-7"
       style="stroke-width:0.01"
       x="6.880415"
       y="110.84727">LEVEL</tspan></text>
  <rect
     style="font-variation-settings:normal;opacity:1;vector-effect:none;fill:#000000;fill-opacity:1;stroke:none;stroke-width:0.01;stroke-linecap:round;stroke-linejoin:round;stroke-miterlimit:4;stroke-dasharray:none;stroke-dashoffset:0;stroke-opacity:1;-inkscape-stroke:none"
     id="rect1068"
     width="28.372061"
     height="0.86853242"
     x="4.8139696"
     y="93.898003" />
  <rect
     style="font-variation-settings:normal;vector-effect:none;fill:#000000;fill-opacity:1;stroke:none;stroke-width:0.01;stroke-linecap:round;stroke-linejoin:round;stroke-miterlimit:4;stroke-dasharray:none;stroke-dashoffset:0;stroke-opacity:1;-inkscape-stroke:none"
     id="rect1068-5"
     width="28.372061"
     height="0.86853242"
     x="4.8139696"
     y="113.22781" />
  <rect
     style="font-variation-settings:normal;vector-effect:none;fill:#000000;fill-opacity:1;stroke:none;stroke-width:0.01;stroke-linecap:round;stroke-linejoin:round;stroke-miterlimit:4;stroke-dasharray:none;stroke-dashoffset:0;stroke-opacity:1;-inkscape-stroke:none"
     id="rect1068-9"
     width="28.372061"
     height="0.86853242"
     x="4.8139696"
     y="12.799819" />
  <text
     xml:space="preserve"
     style="font-style:normal;font-variant:normal;font-weight:bold;font-stretch:normal;font-size:3.41262px;font-family:sans-serif;-inkscape-font-specification:'sans-serif Bold';text-align:end;writing-mode:lr-tb;direction:ltr;text-anchor:end;opacity:1;vector-effect:none;fill:#000000;fill-opacity:1;stroke:none;stroke-width:0.0107484;stroke-linecap:round;stroke-linejoin:round;stroke-miterlimit:4;stroke-dasharray:none;stroke-dashoffset:0;stroke-opacity:1;-inkscape-stroke:none"
     x="34.182751"
     y="6.7978292"
     id="text1068"
     transform="scale(0.96173637,1.039786)"><tspan
       sodipodi:role="line"
       id="tspan1068"
       style="font-style:normal;font-variant:normal;font-weight:bold;font-stretch:normal;font-family:sans-serif;-inkscape-font-specification:'sans-serif Bold';text-align:end;text-anchor:end;stroke-width:0.0107484"
       x="34.182751"
       y="6.7978292">CONCRETE</tspan><tspan
       sodipodi:role="line"
       style="font-style:normal;font-variant:normal;font-weight:bold;font-stretch:normal;font-family:sans-serif;-inkscape-font-specification:'sans-serif Bold';text-align:end;text-anchor:end;stroke-width:0.0107484"
       x="34.182751"
       y="11.063604"
       id="tspan1069">MIXER</tspan></text>
  <g
     id="g1347"
     transform="translate(-122.2835,-24.96825)"
     style="fill:#000000;fill-opacity:1">
    <path
       style="fill:#000000;fill-opacity:1;fill-rule:evenodd;stroke:none;stroke-width:0.1705;stroke-linecap:round;stroke-linejoin:round;stroke-opacity:1"
       d="m 138.94992,153.54255 h -0.1177 v -1.4845 h 0.1177 z"
       id="path1068" />
    <path
       style="fill:#000000;fill-opacity:1;fill-rule:evenodd;stroke:none;stroke-width:0.1705;stroke-linecap:round;stroke-linejoin:round;stroke-opacity:1"
       d="m 130.57782,152.01595 h 3.0805 v 2.6769 h -1.5402 v -1.4793 h -3.0797 v -1.1976 l 3.0797,-2.9587 h 1.5402 z"
       id="path1071" />
    <path
       style="fill:#000000;fill-opacity:1;fill-rule:evenodd;stroke:none;stroke-width:0.1705;stroke-linecap:round;stroke-linejoin:round;stroke-opacity:1"
       d="m 137.39802,153.49535 h -1.5402 l 1.5402,-1.4794 z"
       id="path1077" />
    <path
       style="fill:#000000;fill-opacity:1;fill-rule:evenodd;stroke:none;stroke-width:0.1705;stroke-linecap:round;stroke-linejoin:round;stroke-opacity:1"
       d="m 134.31832,150.53665 v -1.4794 h 1.5395 z"
       id="path1082" />
    <path
       style="fill:#000000;fill-opacity:1;fill-rule:evenodd;stroke:none;stroke-width:0.1705;stroke-linecap:round;stroke-linejoin:round;stroke-opacity:1"
       d="m 139.85862,152.35915 0.0104,5e-4 0.0105,8e-4 0.0108,0.001 0.0109,0.001 0.0109,0.002 0.011,0.003 0.0109,0.003 0.0108,0.004 0.0106,0.004 0.0105,0.005 0.0102,0.006 0.01,0.007 0.005,0.004 0.005,0.004 0.005,0.004 0.005,0.004 0.005,0.005 0.005,0.006 0.005,0.006 0.005,0.007 0.004,0.007 0.004,0.007 0.004,0.008 0.004,0.008 0.003,0.009 0.003,0.009 0.002,0.009 0.002,0.01 0.002,0.0102 10e-4,0.0107 8e-4,0.011 2e-4,0.0114 -1e-4,0.009 -5e-4,0.009 -7e-4,0.009 -0.001,0.009 -0.001,0.008 -0.002,0.008 -0.002,0.008 -0.002,0.008 -0.002,0.007 -0.003,0.007 -0.003,0.007 -0.003,0.007 -0.003,0.007 -0.004,0.006 -0.004,0.006 -0.004,0.006 -0.005,0.007 -0.005,0.006 -0.005,0.006 -0.005,0.005 -0.005,0.005 -0.005,0.005 -0.005,0.004 -0.005,0.004 -0.005,0.003 -0.005,0.003 -0.005,0.003 -0.005,0.003 -0.005,0.002 -0.005,0.002 -0.005,0.002 -0.005,0.002 0.007,0.002 0.007,0.002 0.007,0.002 0.006,0.002 0.006,0.003 0.006,0.003 0.006,0.003 0.005,0.003 0.005,0.003 0.005,0.003 0.005,0.003 0.005,0.003 0.004,0.003 0.004,0.004 0.004,0.004 0.004,0.004 0.006,0.007 0.006,0.007 0.005,0.007 0.005,0.007 0.005,0.007 0.004,0.007 0.004,0.007 0.003,0.008 0.003,0.008 0.002,0.008 0.002,0.008 0.002,0.008 10e-4,0.009 9e-4,0.009 5e-4,0.009 1e-4,0.01 -3e-4,0.0153 -0.001,0.0147 -0.002,0.014 -0.002,0.0133 -0.003,0.0127 -0.003,0.012 -0.004,0.0114 -0.004,0.0108 -0.005,0.0102 -0.005,0.01 -0.005,0.009 -0.005,0.008 -0.005,0.008 -0.006,0.007 -0.005,0.007 -0.006,0.006 -0.006,0.006 -0.006,0.005 -0.006,0.005 -0.006,0.005 -0.0127,0.009 -0.0132,0.008 -0.0136,0.007 -0.014,0.006 -0.0143,0.005 -0.0147,0.004 -0.0148,0.004 -0.015,0.003 -0.0152,0.002 -0.0152,0.002 -0.0153,0.001 -0.0152,9e-4 -0.015,5e-4 -0.015,1e-4 h -0.2799 l 0.0167,-0.1423 h 0.1737 0.0633 l 0.0131,-2e-4 0.0145,-8e-4 0.008,-7e-4 0.008,-9e-4 0.008,-0.001 0.008,-0.001 0.008,-0.002 0.008,-0.002 0.007,-0.002 0.007,-0.003 0.007,-0.003 0.006,-0.004 0.003,-0.002 0.003,-0.002 0.003,-0.002 0.003,-0.002 0.002,-0.002 0.002,-0.002 0.002,-0.002 0.002,-0.003 0.002,-0.003 0.002,-0.004 0.002,-0.004 0.001,-0.002 0.001,-0.002 0.001,-0.002 10e-4,-0.002 9e-4,-0.002 9e-4,-0.003 9e-4,-0.003 8e-4,-0.003 7e-4,-0.003 7e-4,-0.003 6e-4,-0.003 5e-4,-0.003 5e-4,-0.003 4e-4,-0.004 3e-4,-0.004 3e-4,-0.004 10e-5,-0.004 1e-4,-0.004 -1e-4,-0.003 -10e-5,-0.003 -3e-4,-0.004 -4e-4,-0.004 -5e-4,-0.004 -7e-4,-0.004 -8e-4,-0.004 -0.001,-0.004 -0.001,-0.004 -0.001,-0.004 -0.002,-0.004 -0.002,-0.004 -0.002,-0.004 -0.002,-0.004 -0.003,-0.004 -0.003,-0.003 -0.002,-0.002 -0.002,-0.002 -0.003,-0.002 -0.003,-0.002 -0.003,-0.002 -0.003,-0.002 -0.006,-0.003 -0.007,-0.003 -0.007,-0.002 -0.007,-0.002 -0.007,-0.002 -0.007,-0.001 -0.007,-9e-4 -0.006,-7e-4 -0.006,-5e-4 -0.0101,-5e-4 -0.007,-2e-4 h -0.0676 l -0.0226,0.1918 h -0.1737 l 0.0382,-0.3261 h 0.1733 0.0357 l 0.0114,-2e-4 0.006,-3e-4 0.006,-5e-4 0.006,-7e-4 0.006,-8e-4 0.006,-0.001 0.006,-0.001 0.006,-0.002 0.006,-0.002 0.006,-0.002 0.006,-0.003 0.006,-0.003 0.006,-0.004 0.005,-0.004 0.002,-0.002 0.002,-0.002 0.003,-0.003 0.003,-0.004 0.003,-0.004 0.002,-0.004 0.002,-0.004 0.002,-0.004 0.002,-0.004 0.002,-0.005 0.002,-0.005 0.001,-0.005 0.001,-0.005 0.001,-0.005 7e-4,-0.005 6e-4,-0.005 3e-4,-0.005 1e-4,-0.005 -1e-4,-0.006 -5e-4,-0.006 -7e-4,-0.005 -10e-4,-0.005 -0.001,-0.005 -0.001,-0.004 -0.001,-0.004 -0.002,-0.004 -0.002,-0.004 -0.002,-0.003 -0.002,-0.003 -0.002,-0.003 -0.002,-0.002 -0.002,-0.002 -0.002,-0.002 -0.002,-0.002 -0.002,-0.002 -0.002,-0.002 -0.002,-0.001 -0.002,-0.001 -0.005,-0.002 -0.005,-0.002 -0.005,-0.002 -0.005,-10e-4 -0.005,-0.001 -0.005,-0.001 -0.005,-9e-4 -0.005,-6e-4 -0.005,-4e-4 -0.005,-4e-4 -0.0101,-3e-4 -0.01,-1e-4 h -0.0364 l -0.0204,0.1787 h -0.1733 l 0.0374,-0.3203 h 0.2406 z"
       id="path1121" />
    <path
       style="fill:#000000;fill-opacity:1;fill-rule:evenodd;stroke:none;stroke-width:0.5;stroke-linecap:round;stroke-linejoin:round;stroke-opacity:1"
       d="m 137.39802,150.53665 -1.5402,1.4793 v 1.4794 h -1.5395 v -1.4794 l 1.5395,-1.4793 v -1.4794 h 1.5402 z"
       id="path1131" />
    <path
       style="fill:#000000;fill-opacity:1;fill-rule:evenodd;stroke:none;stroke-width:0.5;stroke-linecap:round;stroke-linejoin:round;stroke-opacity:1"
       d="m 140.74592,152.51205 h -0.2929 l -0.0219,0.1525 h 0.2828 l -0.0218,0.1539 h -0.282 l -0.024,0.1751 h 0.298 l -0.021,0.1539 h -0.5002 l 0.1098,-0.7887 h 0.495 z"
       id="path1132" />
    <path
       style="fill:#000000;fill-opacity:1;fill-rule:evenodd;stroke:none;stroke-width:0.5;stroke-linecap:round;stroke-linejoin:round;stroke-opacity:1"
       d="m 141.68282,152.99355 h 0.2348 l -0.0182,0.1532 h -0.4085 l 0.0931,-0.788 h 0.1737 z"
       id="path1133" />
    <path
       style="fill:#000000;fill-opacity:1;fill-rule:evenodd;stroke:none;stroke-width:0.5;stroke-linecap:round;stroke-linejoin:round;stroke-opacity:1"
       d="m 141.16242,152.35925 0.0134,6e-4 0.0133,0.001 0.0132,0.001 0.0131,0.002 0.013,0.003 0.0127,0.003 0.0127,0.004 0.0124,0.005 0.0122,0.006 0.0119,0.007 0.0117,0.008 0.0115,0.009 0.0111,0.0101 0.0108,0.0113 0.005,0.006 0.005,0.006 0.005,0.007 0.005,0.007 0.005,0.008 0.004,0.008 0.004,0.009 0.004,0.01 0.004,0.0102 0.003,0.0108 0.003,0.0115 0.002,0.0122 0.002,0.0128 0.001,0.0135 0.001,0.0142 2e-4,0.007 1e-4,0.008 -3e-4,0.0138 -9e-4,0.0135 -0.001,0.0131 -0.002,0.0126 -0.002,0.0123 -0.003,0.0119 -0.003,0.0115 -0.004,0.0111 -0.004,0.0106 -0.005,0.0102 -0.005,0.01 -0.006,0.009 -0.006,0.009 -0.006,0.008 -0.006,0.008 -0.007,0.008 -0.006,0.006 -0.007,0.006 -0.007,0.006 -0.007,0.005 -0.007,0.005 -0.007,0.005 -0.007,0.005 -0.008,0.004 -0.008,0.004 -0.008,0.004 -0.008,0.003 -0.008,0.003 -0.008,0.003 -0.008,0.002 -0.008,0.002 -0.008,0.002 0.1941,0.3203 h -0.2028 l -0.1817,-0.3108 -0.0364,0.3108 h -0.1736 l 0.0504,-0.4307 h 0.1734 0.0429 l 0.0112,-2e-4 0.006,-2e-4 0.006,-5e-4 0.006,-6e-4 0.007,-9e-4 0.007,-0.001 0.007,-0.001 0.007,-0.002 0.007,-0.002 0.007,-0.002 0.007,-0.003 0.007,-0.003 0.006,-0.004 0.006,-0.004 0.006,-0.004 0.003,-0.002 0.003,-0.002 0.002,-0.002 0.002,-0.002 0.002,-0.002 0.002,-0.003 0.004,-0.005 0.004,-0.005 0.003,-0.006 0.003,-0.006 0.002,-0.006 0.002,-0.006 0.002,-0.006 0.001,-0.006 0.001,-0.006 8e-4,-0.006 5e-4,-0.006 3e-4,-0.006 1e-4,-0.006 -1e-4,-0.005 -2e-4,-0.005 -4e-4,-0.005 -7e-4,-0.005 -9e-4,-0.005 -0.001,-0.005 -0.001,-0.005 -0.002,-0.005 -0.002,-0.005 -0.003,-0.005 -0.003,-0.005 -0.002,-0.002 -0.002,-0.002 -0.002,-0.002 -0.002,-0.002 -0.002,-0.002 -0.002,-0.002 -0.002,-0.002 -0.002,-0.002 -0.003,-0.002 -0.003,-0.002 -0.004,-0.003 -0.005,-0.002 -0.005,-0.002 -0.005,-0.002 -0.005,-0.002 -0.005,-0.002 -0.006,-0.001 -0.006,-0.001 -0.006,-10e-4 -0.006,-8e-4 -0.006,-7e-4 -0.007,-5e-4 -0.007,-3e-4 -0.007,-3e-4 -0.0144,-2e-4 h -0.0261 l -0.0262,0.2164 h -0.1734 l 0.0419,-0.358 h 0.2362 z"
       id="path1156" />
    <path
       style="fill:#000000;fill-opacity:1;fill-rule:evenodd;stroke:none;stroke-width:0.5;stroke-linecap:round;stroke-linejoin:round;stroke-opacity:1"
       d="m 142.17352,153.14675 h -0.1738 l 0.0923,-0.788 h 0.1738 z"
       id="path1159" />
    <path
       style="fill:#000000;fill-opacity:1;fill-rule:evenodd;stroke:none;stroke-width:0.1705;stroke-linecap:round;stroke-linejoin:round;stroke-opacity:1"
       d="m 142.93242,152.87145 0.061,-0.5127 h 0.1737 l -0.0923,0.7887 h -0.1511 l -0.349,-0.5156 -0.0596,0.5156 h -0.1737 l 0.0938,-0.7887 h 0.1512 z"
       id="path1184" />
  </g>
  <g
     id="g1348"
     transform="matrix(1.1140141,0,0,1.5282344,-98.36243,-98.797665)"
     style="fill:#000000;fill-opacity:1">
    <path
       style="fill:#000000;fill-opacity:1;fill-rule:evenodd;stroke:none;stroke-width:0.3;stroke-linecap:round;stroke-linejoin:round;stroke-opacity:1"
       d="m 97.215805,143.31792 -0.0452,0.3126 h -4.0343 l 0.0452,-0.3126 h 2.393 l 0.149,-0.9379 h -1.1718 l -0.1297,-0.0141 -0.1181,-0.0468 -0.0367,-0.0246 -0.08,-0.0949 -0.0141,-0.1139 0.017,-0.1253 0.002,-0.0127 0.0188,-0.125 0.002,-0.013 0.051,-0.1184 0.0921,-0.0815 0.008,-0.005 0.1159,-0.0545 0.1274,-0.0268 0.0627,-0.003 h 2.0162 l -0.0446,0.3126 h -1.5955 l -0.0342,0.2345 h 1.1742 l 0.1295,0.014 0.1174,0.0464 0.0364,0.0244 0.08,0.0953 0.0153,0.116 -0.0204,0.1224 -0.0201,0.1223 -0.0199,0.1222 -0.0196,0.1222 -0.0191,0.1207 -0.0209,0.1323 -0.0205,0.1286 -0.0134,0.0837 z"
       id="path1232" />
    <path
       style="fill:#000000;fill-opacity:1;fill-rule:evenodd;stroke:none;stroke-width:0.3;stroke-linecap:round;stroke-linejoin:round;stroke-opacity:1"
       d="m 97.344005,142.06742 h 0.8378 l -0.1973,1.2505 h 0.7596 l 0.1954,-1.2505 h 0.8359 l -0.1954,1.2505 h 0.796895 l -0.0452,0.3126 h -0.797405 l -0.0367,0.2369 -0.0527,0.1117 -0.1005,0.0813 -0.1147,0.0506 -0.1268,0.0248 -0.0626,0.003 h -0.0861 -0.3127 -1.6175 l 0.0446,-0.3126 h 1.5962 l 0.0329,-0.1954 h -0.7754 -0.3982 l -0.1294,-0.0131 -0.1182,-0.0434 -0.0369,-0.0229 -0.0828,-0.0956 -0.0112,-0.1022 z"
       id="path1233" />
    <path
       style="fill:#000000;fill-opacity:1;fill-rule:evenodd;stroke:none;stroke-width:0.3;stroke-linecap:round;stroke-linejoin:round;stroke-opacity:1"
       d="m 100.51671,142.06742 h 2.01079 l 0.1295,0.014 0.11741,0.0464 0.0364,0.0244 0.0795,0.0953 0.0151,0.116 -0.152,0.9544 h 0.7962 l -0.0452,0.3126 h -0.81389 -0.81951 l 0.19541,-1.2505 h -0.7577 l -0.19721,1.2505 h -0.836 l 0.1991,-1.2932 z"
       id="path1234" />
    <path
       style="fill:#000000;fill-opacity:1;fill-rule:evenodd;stroke:none;stroke-width:0.3;stroke-linecap:round;stroke-linejoin:round;stroke-opacity:1"
       d="m 103.72911,141.79382 h 0.8384 l -0.0397,0.2345 h 0.7962 l -0.0452,0.3126 h -0.79741 l -0.1972,1.2762 h -0.836 l 0.1967,-1.2744 -0.2003,0.0135 0.0452,-0.3279 h 0.1996 z"
       id="path1235" />
    <path
       style="fill:#000000;fill-opacity:1;fill-rule:evenodd;stroke:none;stroke-width:0.3;stroke-linecap:round;stroke-linejoin:round;stroke-opacity:1"
       d="m 105.3564,141.55932 h 0.83771 l -0.0793,0.5081 h 0.1396 0.1245 0.1266 0.1287 0.0558 0.1306 0.1307 0.1308 0.1309 0.0747 l 0.1296,0.014 0.1174,0.0464 0.0364,0.0244 0.0795,0.0953 0.0151,0.116 -0.152,0.9544 h 0.7962 l -0.0452,0.3126 h -0.1295 -0.1288 -0.12791 -0.1271 -0.1263 -0.12559 -0.0499 -0.1252 -0.1261 -0.1271 -0.1282 -0.1291 -0.1302 -0.0524 l 0.1954,-1.2505 h -0.7577 l -0.1973,1.2505 h -0.8359 z"
       id="path1236" />
    <path
       style="fill:#000000;fill-opacity:1;fill-rule:evenodd;stroke:none;stroke-width:0.3;stroke-linecap:round;stroke-linejoin:round;stroke-opacity:1"
       d="m 108.52731,141.55932 h 0.8377 l -0.2766,1.7586 h 1.5955 l -0.0451,0.3126 h -2.0108 l -0.1294,-0.0131 -0.1182,-0.0434 -0.0369,-0.0229 -0.0828,-0.0956 -0.0112,-0.1022 z"
       id="path1237" />
    <path
       style="fill:#000000;fill-opacity:1;fill-rule:evenodd;stroke:none;stroke-width:0.3;stroke-linecap:round;stroke-linejoin:round;stroke-opacity:1"
       d="m 112.96891,142.08142 0.1174,0.0464 0.0364,0.0244 0.0795,0.0953 0.0151,0.116 -0.152,0.9544 h 0.7962 l -0.0451,0.3126 h -3.22891 l 0.0476,-0.3126 h 0.8347 0.7571 l 0.0721,-0.4299 h -0.7572 l -0.072,0.4299 h -0.8347 l 0.072,-0.4726 0.0521,-0.1107 0.1012,-0.0811 0.1159,-0.0506 0.1274,-0.0248 0.0626,-0.003 h 1.17911 l 0.0324,-0.1954 h -1.5943 l 0.0445,-0.3126 h 2.01141 z"
       id="path1238" />
    <path
       style="fill:#000000;fill-opacity:1;fill-rule:evenodd;stroke:none;stroke-width:0.3;stroke-linecap:round;stroke-linejoin:round;stroke-opacity:1"
       d="m 114.83911,142.06742 h 1.173 l 0.1295,0.014 0.1174,0.0464 0.0364,0.0244 0.0796,0.0953 0.0151,0.116 -0.146,0.9544 h 0.7969 l -0.0452,0.3126 h -3.2356 l 0.0484,-0.3126 h 0.8339 0.7572 l 0.1508,-0.9379 h -0.7572 l -0.1508,0.9379 h -0.8339 l 0.27209,-1.7586 h 0.8378 z"
       id="path1239" />
  </g>
</svg>
